*
G04 Mass Parameters ***
*
G04 Image ***
*
%INC:\CAIN\ONLY_AT91\ONLY_AT91_2SIDE_V4.AST*%
%ICAS*%
%MOIN*%
%IPPOS*%
%ASAXBY*%
G74*%FSLAN2X34Y34*%
*
G04 Aperture Definitions ***
*
%AMTHERMAL37*
1,1,0.1110,0,0,*
1,0,0.0870,0,0,*
21,0,0.1110,0.0100,0,0,315.0*
21,0,0.1110,0.0100,0,0,45.0*%
%AMTHERMAL38*
1,1,0.1370,0,0,*
1,0,0.1130,0,0,*
21,0,0.1370,0.0100,0,0,315.0*
21,0,0.1370,0.0100,0,0,45.0*%
%AMTHERMAL41*
1,1,0.1080,0,0,*
1,0,0.0840,0,0,*
21,0,0.1080,0.0100,0,0,45.0*
21,0,0.1080,0.0100,0,0,135.0*%
%AMTHERMAL46*
1,1,0.1840,0,0,*
1,0,0.1600,0,0,*
21,0,0.1840,0.0100,0,0,315.0*
21,0,0.1840,0.0100,0,0,45.0*%
%AMTHERMAL48*
1,1,0.1080,0,0,*
1,0,0.0840,0,0,*
21,0,0.1080,0.0100,0,0,225.0*
21,0,0.1080,0.0100,0,0,315.0*%
%AMTHERMAL72*
1,1,0.1110,0,0,*
1,0,0.0870,0,0,*
21,0,0.1110,0.0100,0,0,225.0*
21,0,0.1110,0.0100,0,0,315.0*%
%AMTHERMAL73*
1,1,0.1370,0,0,*
1,0,0.1130,0,0,*
21,0,0.1370,0.0100,0,0,225.0*
21,0,0.1370,0.0100,0,0,315.0*%
%AMTHERMAL74*
1,1,0.1080,0,0,*
1,0,0.0840,0,0,*
21,0,0.1080,0.0100,0,0,135.0*
21,0,0.1080,0.0100,0,0,225.0*%
%AMTHERMAL89*
1,1,0.1120,0,0,*
1,0,0.0880,0,0,*
21,0,0.1120,0.0100,0,0,45.0*
21,0,0.1120,0.0100,0,0,135.0*%
%AMTHERMAL91*
1,1,0.1020,0,0,*
1,0,0.0780,0,0,*
21,0,0.1020,0.0100,0,0,45.0*
21,0,0.1020,0.0100,0,0,135.0*%
%AMTHERMAL94*
1,1,0.1020,0,0,*
1,0,0.0780,0,0,*
21,0,0.1020,0.0100,0,0,46.2*
21,0,0.1020,0.0100,0,0,136.2*%
%AMTHERMAL108*
1,1,0.1160,0,0,*
1,0,0.0920,0,0,*
21,0,0.1160,0.0100,0,0,225.0*
21,0,0.1160,0.0100,0,0,315.0*%
%AMTHERMAL109*
1,1,0.1110,0,0,*
1,0,0.0870,0,0,*
21,0,0.1110,0.0100,0,0,45.0*
21,0,0.1110,0.0100,0,0,135.0*%
%ADD10R,0.0400X0.0500*%
%ADD11R,0.0500X0.0400*%
%ADD12R,0.1030X0.1080*%
%ADD13C,0.0600*%
%ADD14C,0.0870*%
%ADD15C,0.1250*%
%ADD16C,0.0550*%
%ADD17R,0.0550X0.0550*%
%ADD18C,0.0620*%
%ADD19R,0.0620X0.0620*%
%ADD20C,0.0620X0.0310*%
%ADD21R,0.0787X0.0669*%
%ADD22R,0.0590X0.0394*%
%ADD23R,0.0250X0.0750*%
%ADD24R,0.0500X0.0500*%
%ADD25R,0.0750X0.1600*%
%ADD26O,0.0700X0.0110*%
%ADD27R,0.0700X0.0110*%
%ADD28O,0.0110X0.0700*%
%ADD29R,0.0110X0.0700*%
%ADD30C,0.1340*%
%ADD31R,0.0600X0.0100*%
%ADD32R,0.0160X0.0700*%
%ADD33R,0.0138X0.0394*%
%ADD34C,0.0090*%
%ADD35R,0.0197X0.0551*%
%ADD36C,0.0670*%
%ADD37THERMAL37*%
%ADD38THERMAL38*%
%ADD39C,0.1550*%
%ADD40C,0.0750*%
%ADD41THERMAL41*%
%ADD42C,0.0820*%
%ADD43R,0.0820X0.0820*%
%ADD44C,0.0700*%
%ADD45C,0.1400*%
%ADD46THERMAL46*%
%ADD47C,0.0650*%
%ADD48THERMAL48*%
%ADD49C,0.0930*%
%ADD50R,0.0750X0.0750*%
%ADD51C,0.0920*%
%ADD52C,0.1350*%
%ADD53R,0.0300X0.0800*%
%ADD54R,0.0450X0.0550*%
%ADD55R,0.0800X0.1650*%
%ADD56C,0.1390*%
%ADD57R,0.0650X0.0140*%
%ADD58R,0.0210X0.0750*%
%ADD59R,0.0236X0.0590*%
%ADD60C,0.0060*%
%ADD61C,0.0080*%
%ADD62C,0.0100*%
%ADD63C,0.0030*%
%ADD64C,0.0050*%
%ADD65C,0.0039*%
%ADD66C,0.0070*%
%ADD67C,0.0040*%
%ADD68R,0.1600X0.0750*%
%ADD69R,0.0700X0.0160*%
%ADD70R,0.1080X0.1030*%
%ADD71R,0.0100X0.0600*%
%ADD72THERMAL72*%
%ADD73THERMAL73*%
%ADD74THERMAL74*%
%ADD75R,0.1650X0.0800*%
%ADD76R,0.0750X0.0210*%
%ADD77R,0.0140X0.0650*%
%ADD78C,0.0910*%
%ADD79C,0.0320*%
%ADD80C,0.0330*%
%ADD81C,0.0330*%
%ADD82C,0.0250*%
%ADD83C,0.0236*%
%ADD84C,0.0165*%
%ADD85R,0.0440X0.1130*%
%ADD86R,0.0394X0.0138*%
%ADD87R,0.0390X0.0270*%
%ADD88C,0.0300*%
%ADD89THERMAL89*%
%ADD90C,0.0420*%
%ADD91THERMAL91*%
%ADD92C,0.0118*%
%ADD93C,0.0420*%
%ADD94THERMAL94*%
%ADD95C,0.0380*%
%ADD96C,0.0380*%
%ADD97R,0.0440X0.0320*%
%ADD98C,0.0010*%
%ADD99C,0.0020*%
%ADD100C,0.0280*%
%ADD101C,0.0280*%
%ADD102C,0.0200*%
%ADD103C,0.0197*%
%ADD104R,0.0550X0.0350*%
%ADD105R,0.0450X0.0350*%
%ADD106C,0.0069*%
%ADD107C,0.0335*%
%ADD108THERMAL108*%
%ADD109THERMAL109*%
%ADD110C,0.0079*%
%ADD111C,0.0980*%
%ADD112R,0.0670X0.0670*%
%ADD113R,0.0550X0.0450*%
%ADD114R,0.0600X0.0400*%
%ADD115R,0.1000X0.0600*%
%ADD116R,0.1102X0.2283*%
%ADD117C,0.0159*%
%ADD118C,0.0157*%
%ADD119C,0.0354*%
%ADD120C,0.0394*%
%ADD121R,0.0350X0.0550*%
%ADD122R,0.0350X0.0450*%
%ADD123R,0.0880X0.1420*%
%ADD124R,0.0880X0.0480*%
%ADD125R,0.1050X0.0650*%
%ADD126R,0.0400X0.0600*%
%ADD127R,0.0930X0.1470*%
%ADD128R,0.0930X0.0530*%
%ADD129C,0.0580*%
%ADD130R,0.0580X0.0580*%
%ADD131C,0.0315*%
%ADD132C,0.0780*%
%ADD133R,0.0780X0.0780*%
%ADD134C,0.1024*%
%ADD135O,0.0320X0.0394*%
%ADD136C,0.0512*%
%ADD137R,0.0827X0.0630*%
%ADD138R,0.0728X0.0551*%
%ADD139R,0.0472X0.0905*%
*
G04 Plot Data ***
*
G54D60*
G01X0022735Y0008751D02*
X0022791Y0008779D01*
Y0008945D01*
X0022735Y0008973D01*
X0022624D01*
X0022569Y0008918D01*
Y0008751D01*
X0022457D01*
Y0008973D01*
X0022902Y0008603D02*
Y0008381D01*
X0022791Y0008067D02*
X0022457Y0008233D01*
Y0008011D01*
X0022791Y0007863D02*
Y0007752D01*
Y0007808D02*
X0022457D01*
X0022513Y0007752D01*
X0022791Y0007549D02*
Y0007438D01*
Y0007493D02*
X0022457D01*
X0022513Y0007438D01*
X0022791Y0007235D02*
Y0007124D01*
Y0007179D02*
X0022457D01*
X0022513Y0007124D01*
X0022791Y0006809D02*
X0022457D01*
Y0006920D02*
Y0006698D01*
X0022791Y0006550D02*
Y0006356D01*
X0022457D01*
X0022180Y0007632D02*
Y0007410D01*
X0021957Y0007521D01*
Y0007577D01*
X0022291D01*
Y0007123D02*
X0022235Y0007068D01*
X0022180Y0007040D01*
X0022069D01*
X0022013Y0007068D01*
X0021957Y0007123D01*
Y0007179D01*
X0022013Y0007235D01*
X0022069Y0007262D01*
X0022180D01*
X0022235Y0007235D01*
X0022291Y0007179D01*
Y0007123D01*
Y0006892D02*
Y0006781D01*
Y0006837D02*
X0021957D01*
X0022013Y0006781D01*
X0021957Y0006578D02*
X0022235D01*
X0022291Y0006550D01*
Y0006384D01*
X0022235Y0006356D01*
X0021957D01*
X0022566Y0032113D02*
X0022399D01*
X0022371Y0032168D01*
Y0032224D01*
X0022399Y0032279D01*
X0022566D01*
X0022594Y0032224D01*
Y0032168D01*
X0022483Y0031946D01*
X0022741Y0032279D02*
X0022964D01*
X0022741Y0032057D01*
Y0032002D01*
X0022769Y0031946D01*
X0022936D01*
X0022964Y0032002D01*
X0023195Y0032113D02*
X0023111Y0032279D01*
X0023334Y0032113D02*
X0023167D01*
X0023111Y0032057D01*
Y0032002D01*
X0023167Y0031946D01*
X0023334D01*
Y0032279D01*
X0022985Y0031680D02*
X0023152Y0031514D01*
X0022985Y0031347D01*
X0023207D02*
Y0031680D01*
X0023355D02*
X0023466D01*
X0023410D02*
Y0031347D01*
X0023466Y0031402D01*
X0025180Y0031968D02*
X0025208Y0031912D01*
X0025375D01*
X0025402Y0031968D01*
Y0032079D01*
X0025347Y0032135D01*
X0025180D01*
Y0032246D01*
X0025402D01*
X0024838Y0031912D02*
Y0032246D01*
X0024810Y0031912D02*
X0024977D01*
X0025032Y0032024D01*
Y0032135D01*
X0024977Y0032246D01*
X0024810D01*
X0026967Y0032512D02*
Y0032845D01*
X0026939Y0032512D02*
X0027106D01*
X0027162Y0032623D01*
Y0032734D01*
X0027106Y0032845D01*
X0026939D01*
X0026736Y0032678D02*
X0026569D01*
X0026792Y0032512D02*
X0026569D01*
Y0032845D01*
X0026792D01*
X0026422Y0032512D02*
X0026227D01*
Y0032845D01*
X0025390Y0032512D02*
Y0032845D01*
X0025362Y0032512D02*
X0025529D01*
X0025585Y0032623D01*
Y0032734D01*
X0025529Y0032845D01*
X0025362D01*
X0025159Y0032678D02*
X0024992D01*
X0025215Y0032512D02*
X0024992D01*
Y0032845D01*
X0025215D01*
X0024761Y0032678D02*
X0024845Y0032512D01*
X0024622Y0032678D02*
X0024789D01*
X0024845Y0032734D01*
Y0032789D01*
X0024789Y0032845D01*
X0024622D01*
Y0032512D01*
X0024203Y0031968D02*
X0024231Y0031912D01*
X0024398D01*
X0024426Y0031968D01*
Y0032079D01*
X0024370Y0032135D01*
X0024203D01*
Y0032246D01*
X0024426D01*
X0024056Y0031912D02*
X0023833D01*
X0024056Y0032135D01*
Y0032190D01*
X0024028Y0032246D01*
X0023861D01*
X0023833Y0032190D01*
X0023602Y0032079D02*
X0023686Y0031912D01*
X0023463Y0032079D02*
X0023630D01*
X0023686Y0032135D01*
Y0032190D01*
X0023630Y0032246D01*
X0023463D01*
Y0031912D01*
X0023812Y0032512D02*
X0023646Y0032678D01*
X0023812Y0032845D01*
X0023590D02*
Y0032512D01*
X0023442D02*
X0023331D01*
X0023387D02*
Y0032845D01*
X0023331Y0032789D01*
X0021599Y0032113D02*
X0021432D01*
X0021404Y0032168D01*
Y0032224D01*
X0021432Y0032279D01*
X0021599D01*
X0021626Y0032224D01*
Y0032168D01*
X0021515Y0031946D01*
X0021969Y0032279D02*
Y0031946D01*
X0021996Y0032279D02*
X0021830D01*
X0021774Y0032168D01*
Y0032057D01*
X0021830Y0031946D01*
X0021996D01*
X0019839Y0031680D02*
Y0031347D01*
X0019867Y0031680D02*
X0019700D01*
X0019645Y0031569D01*
Y0031458D01*
X0019700Y0031347D01*
X0019867D01*
X0020070Y0031514D02*
X0020237D01*
X0020015Y0031680D02*
X0020237D01*
Y0031347D01*
X0020015D01*
X0020385Y0031680D02*
X0020579D01*
Y0031347D01*
X0021416Y0031680D02*
Y0031347D01*
X0021444Y0031680D02*
X0021278D01*
X0021222Y0031569D01*
Y0031458D01*
X0021278Y0031347D01*
X0021444D01*
X0021648Y0031514D02*
X0021814D01*
X0021592Y0031680D02*
X0021814D01*
Y0031347D01*
X0021592D01*
X0022045Y0031514D02*
X0021962Y0031680D01*
X0022184Y0031514D02*
X0022018D01*
X0021962Y0031458D01*
Y0031402D01*
X0022018Y0031347D01*
X0022184D01*
Y0031680D01*
X0026294Y0013489D02*
X0026322Y0013545D01*
Y0013601D01*
X0026294Y0013656D01*
X0026128D01*
X0026100Y0013601D01*
Y0013545D01*
X0026128Y0013489D01*
X0026294D01*
X0026322Y0013434D01*
Y0013378D01*
X0026294Y0013323D01*
X0026128D01*
X0026100Y0013378D01*
Y0013434D01*
X0026128Y0013489D01*
X0025952Y0013378D02*
X0025924Y0013323D01*
X0025758D01*
X0025730Y0013378D01*
Y0013601D01*
X0025758Y0013656D01*
X0025924D01*
X0025952Y0013601D01*
X0029792Y0014089D02*
X0029626D01*
Y0013922D02*
Y0014255D01*
X0029848D01*
X0029256Y0014089D02*
X0029422D01*
X0029478Y0014144D01*
Y0014200D01*
X0029422Y0014255D01*
X0029256D01*
Y0013922D01*
X0028969D02*
X0028913Y0013977D01*
X0028886Y0014033D01*
Y0014144D01*
X0028913Y0014200D01*
X0028969Y0014255D01*
X0029025D01*
X0029080Y0014200D01*
X0029108Y0014144D01*
Y0014033D01*
X0029080Y0013977D01*
X0029025Y0013922D01*
X0028969D01*
X0028738D02*
X0028627D01*
X0028682D02*
Y0014255D01*
X0028627Y0014200D01*
X0028424Y0014089D02*
X0028201D01*
X0027831Y0013977D02*
X0027887Y0013922D01*
X0027998D01*
X0028054Y0013977D01*
Y0014033D01*
X0027942Y0014144D01*
X0028054Y0014255D01*
X0027831D01*
X0027189Y0014033D02*
X0026966D01*
X0027077Y0014255D01*
X0027133D01*
Y0013922D01*
X0026819D02*
X0026652Y0014255D01*
X0026819D02*
X0026652Y0013922D01*
X0026282D02*
Y0014255D01*
X0026254Y0013922D02*
X0026421D01*
X0026476Y0013977D01*
Y0014033D01*
X0026449Y0014089D01*
X0026282D02*
X0026449D01*
X0026476Y0014144D01*
Y0014200D01*
X0026421Y0014255D01*
X0026254D01*
X0026106Y0013922D02*
X0025940D01*
X0026106Y0014255D01*
X0025940D01*
X0025653Y0013922D02*
Y0014255D01*
X0025764D02*
X0025542D01*
X0018894Y0011099D02*
X0018728D01*
Y0010932D02*
Y0011265D01*
X0018950D01*
X0018580D02*
Y0010988D01*
X0018552Y0010932D01*
X0018385D01*
X0018358Y0010988D01*
Y0011265D01*
X0018071Y0010932D02*
X0018015Y0010988D01*
X0017988Y0011043D01*
Y0011154D01*
X0018015Y0011210D01*
X0018071Y0011265D01*
X0018127D01*
X0018182Y0011210D01*
X0018210Y0011154D01*
Y0011043D01*
X0018182Y0010988D01*
X0018127Y0010932D01*
X0018071D01*
X0017840D02*
X0017729D01*
X0017784D02*
Y0011265D01*
X0017729Y0011210D01*
X0020658Y0008879D02*
Y0009101D01*
X0020547Y0008990D02*
X0020769D01*
X0019298Y0010790D02*
X0019465D01*
Y0010957D02*
Y0010623D01*
X0019243D01*
X0019613D02*
Y0010901D01*
X0019640Y0010957D01*
X0019807D01*
X0019835Y0010901D01*
Y0010623D01*
X0020122Y0010957D02*
X0020177Y0010901D01*
X0020205Y0010846D01*
Y0010735D01*
X0020177Y0010679D01*
X0020122Y0010623D01*
X0020066D01*
X0020010Y0010679D01*
X0019983Y0010735D01*
Y0010846D01*
X0020010Y0010901D01*
X0020066Y0010957D01*
X0020122D01*
X0020353D02*
X0020464D01*
X0020408D02*
Y0010623D01*
X0020464Y0010679D01*
X0023510Y0032518D02*
Y0032741D01*
X0023399Y0032629D02*
X0023621D01*
X0022150Y0034429D02*
X0022317D01*
Y0034596D02*
Y0034263D01*
X0022094D01*
X0022464D02*
Y0034541D01*
X0022492Y0034596D01*
X0022659D01*
X0022687Y0034541D01*
Y0034263D01*
X0022973Y0034596D02*
X0023029Y0034541D01*
X0023057Y0034485D01*
Y0034374D01*
X0023029Y0034318D01*
X0022973Y0034263D01*
X0022918D01*
X0022862Y0034318D01*
X0022834Y0034374D01*
Y0034485D01*
X0022862Y0034541D01*
X0022918Y0034596D01*
X0022973D01*
X0023204D02*
X0023315D01*
X0023260D02*
Y0034263D01*
X0023315Y0034318D01*
X0020288Y0029491D02*
Y0029268D01*
X0020399Y0029379D02*
X0020177D01*
X0021648Y0027579D02*
X0021481D01*
Y0027413D02*
Y0027746D01*
X0021703D01*
X0021333D02*
Y0027468D01*
X0021305Y0027413D01*
X0021139D01*
X0021111Y0027468D01*
Y0027746D01*
X0020824Y0027413D02*
X0020769Y0027468D01*
X0020741Y0027524D01*
Y0027635D01*
X0020769Y0027691D01*
X0020824Y0027746D01*
X0020880D01*
X0020935Y0027691D01*
X0020963Y0027635D01*
Y0027524D01*
X0020935Y0027468D01*
X0020880Y0027413D01*
X0020824D01*
X0020593D02*
X0020482D01*
X0020538D02*
Y0027746D01*
X0020482Y0027691D01*
X0027620Y0032479D02*
Y0032701D01*
X0027509Y0032590D02*
X0027731D01*
X0026260Y0034390D02*
X0026427D01*
Y0034557D02*
Y0034223D01*
X0026205D01*
X0026575D02*
Y0034501D01*
X0026602Y0034557D01*
X0026769D01*
X0026797Y0034501D01*
Y0034223D01*
X0027084Y0034557D02*
X0027139Y0034501D01*
X0027167Y0034446D01*
Y0034335D01*
X0027139Y0034279D01*
X0027084Y0034223D01*
X0027028D01*
X0026972Y0034279D01*
X0026945Y0034335D01*
Y0034446D01*
X0026972Y0034501D01*
X0027028Y0034557D01*
X0027084D01*
X0027315D02*
X0027426D01*
X0027370D02*
Y0034223D01*
X0027426Y0034279D01*
X0017534Y0013010D02*
Y0012788D01*
X0017646Y0012899D02*
X0017423D01*
X0033007Y0009295D02*
Y0009072D01*
X0032785Y0009295D01*
X0032729D01*
X0032674Y0009267D01*
Y0009100D01*
X0032729Y0009072D01*
X0033007Y0008925D02*
Y0008814D01*
Y0008869D02*
X0032674D01*
X0032729Y0008814D01*
X0033007Y0008610D02*
Y0008499D01*
Y0008555D02*
X0032674D01*
X0032729Y0008499D01*
X0032952Y0008296D02*
X0033007Y0008268D01*
Y0008102D01*
X0032952Y0008074D01*
X0032729D01*
X0032674Y0008102D01*
Y0008268D01*
X0032729Y0008296D01*
X0032241Y0009477D02*
Y0009310D01*
X0032408D02*
X0032075D01*
Y0009533D01*
Y0009163D02*
X0032408D01*
X0032352Y0009107D01*
X0032130Y0008996D01*
X0032075Y0008940D01*
X0032408D01*
Y0008654D02*
X0032352Y0008598D01*
X0032297Y0008570D01*
X0032186D01*
X0032130Y0008598D01*
X0032075Y0008654D01*
Y0008709D01*
X0032130Y0008765D01*
X0032186Y0008793D01*
X0032297D01*
X0032352Y0008765D01*
X0032408Y0008709D01*
Y0008654D01*
Y0008284D02*
X0032352Y0008228D01*
X0032297Y0008200D01*
X0032186D01*
X0032130Y0008228D01*
X0032075Y0008284D01*
Y0008339D01*
X0032130Y0008395D01*
X0032186Y0008423D01*
X0032297D01*
X0032352Y0008395D01*
X0032408Y0008339D01*
Y0008284D01*
Y0008053D02*
Y0007942D01*
Y0007997D02*
X0032075D01*
X0032130Y0007942D01*
X0037423Y0010935D02*
X0037367Y0010963D01*
X0037312D01*
X0037256Y0010935D01*
Y0010769D01*
X0037312Y0010741D01*
X0037367D01*
X0037423Y0010769D01*
Y0010935D01*
X0037478Y0010963D01*
X0037534D01*
X0037589Y0010935D01*
Y0010769D01*
X0037534Y0010741D01*
X0037478D01*
X0037423Y0010769D01*
X0037589Y0010454D02*
X0037534Y0010399D01*
X0037478Y0010371D01*
X0037367D01*
X0037312Y0010399D01*
X0037256Y0010454D01*
Y0010510D01*
X0037312Y0010565D01*
X0037367Y0010593D01*
X0037478D01*
X0037534Y0010565D01*
X0037589Y0010510D01*
Y0010454D01*
Y0010223D02*
Y0010112D01*
Y0010168D02*
X0037256D01*
X0037312Y0010112D01*
X0037534Y0009909D02*
X0037589Y0009881D01*
Y0009714D01*
X0037534Y0009686D01*
X0037312D01*
X0037256Y0009714D01*
Y0009881D01*
X0037312Y0009909D01*
X0036824Y0011090D02*
Y0010923D01*
X0036990D02*
X0036657D01*
Y0011145D01*
Y0010775D02*
X0036990D01*
X0036935Y0010720D01*
X0036712Y0010609D01*
X0036657Y0010553D01*
X0036990D01*
Y0010266D02*
X0036935Y0010211D01*
X0036879Y0010183D01*
X0036768D01*
X0036712Y0010211D01*
X0036657Y0010266D01*
Y0010322D01*
X0036712Y0010377D01*
X0036768Y0010405D01*
X0036879D01*
X0036935Y0010377D01*
X0036990Y0010322D01*
Y0010266D01*
Y0009896D02*
X0036935Y0009841D01*
X0036879Y0009813D01*
X0036768D01*
X0036712Y0009841D01*
X0036657Y0009896D01*
Y0009952D01*
X0036712Y0010007D01*
X0036768Y0010035D01*
X0036879D01*
X0036935Y0010007D01*
X0036990Y0009952D01*
Y0009896D01*
Y0009665D02*
Y0009554D01*
Y0009610D02*
X0036657D01*
X0036712Y0009554D01*
X0031207Y0009142D02*
X0031373D01*
X0031401Y0009087D01*
Y0009031D01*
X0031373Y0008975D01*
X0031207D01*
X0031179Y0009031D01*
Y0009087D01*
X0031290Y0009309D01*
X0031549D02*
X0031660D01*
X0031604D02*
Y0008975D01*
X0031660Y0009031D01*
X0031946Y0009142D02*
X0031863Y0009309D01*
X0032085Y0009142D02*
X0031919D01*
X0031863Y0009087D01*
Y0009031D01*
X0031919Y0008975D01*
X0032085D01*
Y0009309D01*
X0031367Y0008710D02*
X0031533Y0008543D01*
X0031367Y0008376D01*
X0031589D02*
Y0008710D01*
X0031876D02*
X0031931Y0008654D01*
X0031959Y0008598D01*
Y0008487D01*
X0031931Y0008432D01*
X0031876Y0008376D01*
X0031820D01*
X0031764Y0008432D01*
X0031737Y0008487D01*
Y0008598D01*
X0031764Y0008654D01*
X0031820Y0008710D01*
X0031876D01*
X0032107D02*
X0032218D01*
X0032162D02*
Y0008376D01*
X0032218Y0008432D01*
X0025410Y0013709D02*
X0025244Y0013376D01*
X0025466D01*
X0025614Y0013654D02*
X0025642Y0013709D01*
X0025808D01*
X0025836Y0013654D01*
Y0013432D01*
X0025808Y0013376D01*
X0025642D01*
X0025614Y0013432D01*
X0046964Y0015519D02*
Y0015407D01*
X0046853Y0015185D01*
X0046742Y0015407D01*
Y0015519D01*
X0046400Y0015352D02*
X0046566D01*
X0046594Y0015296D01*
Y0015241D01*
X0046566Y0015185D01*
X0046400D01*
X0046372Y0015241D01*
Y0015296D01*
X0046483Y0015519D01*
X0046224Y0015185D02*
X0046113D01*
X0046169D02*
Y0015519D01*
X0046113Y0015463D01*
X0045910Y0015352D02*
X0045688D01*
X0045484D02*
X0045318D01*
Y0015185D02*
Y0015519D01*
X0045540D01*
X0045170D02*
Y0015185D01*
X0045114Y0015241D01*
X0045003Y0015463D01*
X0044948Y0015519D01*
Y0015185D01*
X0044661D02*
X0044605Y0015241D01*
X0044578Y0015296D01*
Y0015407D01*
X0044605Y0015463D01*
X0044661Y0015519D01*
X0044717D01*
X0044772Y0015463D01*
X0044800Y0015407D01*
Y0015296D01*
X0044772Y0015241D01*
X0044717Y0015185D01*
X0044661D01*
X0044291D02*
X0044235Y0015241D01*
X0044208Y0015296D01*
Y0015407D01*
X0044235Y0015463D01*
X0044291Y0015519D01*
X0044347D01*
X0044402Y0015463D01*
X0044430Y0015407D01*
Y0015296D01*
X0044402Y0015241D01*
X0044347Y0015185D01*
X0044291D01*
X0044060D02*
X0043949D01*
X0044004D02*
Y0015519D01*
X0043949Y0015463D01*
X0043746Y0015352D02*
X0043523D01*
X0043348D02*
X0043181D01*
X0043153Y0015407D01*
Y0015463D01*
X0043181Y0015519D01*
X0043348D01*
X0043376Y0015463D01*
Y0015407D01*
X0043264Y0015185D01*
X0042783Y0015241D02*
X0042839Y0015185D01*
X0042950D01*
X0043006Y0015241D01*
Y0015296D01*
X0042894Y0015407D01*
X0043006Y0015519D01*
X0042783D01*
X0042636Y0015185D02*
Y0015519D01*
X0042580Y0015463D01*
X0042524Y0015352D01*
X0042469Y0015463D01*
X0042413Y0015519D01*
Y0015185D01*
X0042182Y0015352D02*
X0042266Y0015185D01*
X0042043Y0015352D02*
X0042210D01*
X0042266Y0015407D01*
Y0015463D01*
X0042210Y0015519D01*
X0042043D01*
Y0015185D01*
X0041784Y0015352D02*
X0041896D01*
Y0015241D01*
X0041868Y0015185D01*
X0041701D01*
X0041673Y0015241D01*
Y0015463D01*
X0041701Y0015519D01*
X0041868D01*
X0041896Y0015463D01*
X0017676Y0031987D02*
X0017565D01*
X0017621D02*
Y0032320D01*
X0017565Y0032265D01*
X0016784Y0032153D02*
X0016867Y0031987D01*
X0016645Y0032153D02*
X0016811D01*
X0016867Y0032209D01*
Y0032265D01*
X0016811Y0032320D01*
X0016645D01*
Y0031987D01*
X0016441Y0032153D02*
X0016275D01*
X0016497Y0031987D02*
X0016275D01*
Y0032320D01*
X0016497D01*
X0015932Y0031987D02*
Y0032320D01*
X0015905Y0031987D02*
X0016071D01*
X0016127Y0032098D01*
Y0032209D01*
X0016071Y0032320D01*
X0015905D01*
X0015757Y0032098D02*
X0015535D01*
X0015757Y0031987D02*
Y0032153D01*
X0015674Y0032320D01*
X0015618D01*
X0015535Y0032153D01*
Y0031987D01*
X0015331Y0032153D02*
X0015165D01*
X0015387Y0031987D02*
X0015165D01*
Y0032320D01*
X0015387D01*
X0015017Y0032153D02*
X0014795D01*
X0015017Y0031987D02*
Y0032320D01*
X0014795Y0031987D02*
Y0032320D01*
X0033007Y0010513D02*
X0032952Y0010457D01*
X0032896Y0010429D01*
X0032785D01*
X0032729Y0010457D01*
X0032674Y0010513D01*
Y0010568D01*
X0032729Y0010624D01*
X0032785Y0010652D01*
X0032896D01*
X0032952Y0010624D01*
X0033007Y0010568D01*
Y0010513D01*
Y0010282D02*
Y0010171D01*
Y0010226D02*
X0032674D01*
X0032729Y0010171D01*
X0033007Y0009967D02*
Y0009856D01*
Y0009912D02*
X0032674D01*
X0032729Y0009856D01*
X0032952Y0009653D02*
X0033007Y0009625D01*
Y0009459D01*
X0032952Y0009431D01*
X0032729D01*
X0032674Y0009459D01*
Y0009625D01*
X0032729Y0009653D01*
X0032241Y0010834D02*
Y0010667D01*
X0032408D02*
X0032075D01*
Y0010890D01*
Y0010520D02*
X0032408D01*
X0032352Y0010464D01*
X0032130Y0010353D01*
X0032075Y0010297D01*
X0032408D01*
Y0010011D02*
X0032352Y0009955D01*
X0032297Y0009927D01*
X0032186D01*
X0032130Y0009955D01*
X0032075Y0010011D01*
Y0010066D01*
X0032130Y0010122D01*
X0032186Y0010150D01*
X0032297D01*
X0032352Y0010122D01*
X0032408Y0010066D01*
Y0010011D01*
Y0009641D02*
X0032352Y0009585D01*
X0032297Y0009557D01*
X0032186D01*
X0032130Y0009585D01*
X0032075Y0009641D01*
Y0009696D01*
X0032130Y0009752D01*
X0032186Y0009780D01*
X0032297D01*
X0032352Y0009752D01*
X0032408Y0009696D01*
Y0009641D01*
Y0009410D02*
Y0009299D01*
Y0009354D02*
X0032075D01*
X0032130Y0009299D01*
X0035109Y0009761D02*
Y0009983D01*
X0035331Y0009872D01*
Y0009817D01*
X0034997D01*
X0035331Y0010131D02*
X0035053D01*
X0034997Y0010159D01*
Y0010325D01*
X0035053Y0010353D01*
X0035331D01*
X0034714Y0006681D02*
Y0006514D01*
X0034770Y0006459D01*
X0034825D01*
X0034881Y0006514D01*
Y0006681D01*
X0034547D01*
X0034659Y0006829D02*
Y0007051D01*
X0034547Y0006829D02*
X0034714D01*
X0034881Y0006912D01*
Y0006968D01*
X0034714Y0007051D01*
X0034547D01*
X0034603Y0007199D02*
X0034547Y0007227D01*
Y0007393D01*
X0034603Y0007421D01*
X0034825D01*
X0034881Y0007393D01*
Y0007227D01*
X0034825Y0007199D01*
X0034714Y0007624D02*
Y0007791D01*
X0034547Y0007569D02*
Y0007791D01*
X0034881D01*
Y0007569D01*
X0034603Y0008161D02*
X0034547Y0008105D01*
Y0007994D01*
X0034603Y0007939D01*
X0034659D01*
X0034770Y0008050D01*
X0034881Y0007939D01*
Y0008161D01*
X0034547Y0008309D02*
Y0008531D01*
X0034770Y0008309D01*
X0034825D01*
X0034881Y0008337D01*
Y0008503D01*
X0034825Y0008531D01*
X0034547Y0008679D02*
Y0008901D01*
X0034770Y0008679D01*
X0034825D01*
X0034881Y0008707D01*
Y0008873D01*
X0034825Y0008901D01*
X0034603Y0009271D02*
X0034547Y0009215D01*
Y0009104D01*
X0034603Y0009049D01*
X0034659D01*
X0034770Y0009160D01*
X0034881Y0009049D01*
Y0009271D01*
X0034547Y0009419D02*
X0034881Y0009585D01*
Y0009419D02*
X0034547Y0009585D01*
X0034659Y0009761D02*
Y0009983D01*
X0034547Y0009761D02*
X0034714D01*
X0034881Y0009844D01*
Y0009900D01*
X0034714Y0009983D01*
X0034547D01*
Y0010131D02*
X0034881D01*
X0034825Y0010187D01*
X0034714Y0010242D01*
X0034825Y0010298D01*
X0034881Y0010353D01*
X0034547D01*
X0045687Y0034757D02*
X0045854D01*
X0045881Y0034702D01*
Y0034646D01*
X0045854Y0034590D01*
X0045687D01*
X0045659Y0034646D01*
Y0034702D01*
X0045770Y0034924D01*
X0045511Y0034590D02*
X0045400D01*
X0045456D02*
Y0034924D01*
X0045400Y0034868D01*
X0045003Y0034702D02*
Y0034646D01*
X0045030Y0034590D01*
X0045142D01*
X0045169Y0034646D01*
Y0034924D01*
X0045197D02*
X0045086D01*
X0022564Y0012436D02*
Y0012658D01*
X0022786Y0012547D01*
Y0012492D01*
X0022453D01*
X0022508Y0012806D02*
X0022453Y0012834D01*
Y0013001D01*
X0022508Y0013028D01*
X0022731D01*
X0022786Y0013001D01*
Y0012834D01*
X0022731Y0012806D01*
X0039071Y0009727D02*
X0039127Y0009783D01*
X0039182Y0009810D01*
X0039293D01*
X0039349Y0009783D01*
X0039404Y0009727D01*
Y0009671D01*
X0039349Y0009616D01*
X0039293Y0009588D01*
X0039182D01*
X0039127Y0009616D01*
X0039071Y0009671D01*
Y0009727D01*
Y0009958D02*
Y0010180D01*
X0039293Y0009958D01*
X0039349D01*
X0039404Y0009986D01*
Y0010153D01*
X0039349Y0010180D01*
X0039238Y0010411D02*
X0039071Y0010328D01*
X0039238Y0010550D02*
Y0010384D01*
X0039293Y0010328D01*
X0039349D01*
X0039404Y0010384D01*
Y0010550D01*
X0039071D01*
X0039670Y0009462D02*
X0039837Y0009628D01*
X0040004Y0009462D01*
Y0009684D02*
X0039670D01*
Y0009971D02*
X0039726Y0010026D01*
X0039781Y0010054D01*
X0039892D01*
X0039948Y0010026D01*
X0040004Y0009971D01*
Y0009915D01*
X0039948Y0009859D01*
X0039892Y0009832D01*
X0039781D01*
X0039726Y0009859D01*
X0039670Y0009915D01*
Y0009971D01*
Y0010341D02*
X0039726Y0010396D01*
X0039781Y0010424D01*
X0039892D01*
X0039948Y0010396D01*
X0040004Y0010341D01*
Y0010285D01*
X0039948Y0010229D01*
X0039892Y0010202D01*
X0039781D01*
X0039726Y0010229D01*
X0039670Y0010285D01*
Y0010341D01*
Y0010572D02*
Y0010683D01*
Y0010627D02*
X0040004D01*
X0039948Y0010683D01*
X0047884Y0035015D02*
X0047773D01*
X0047829D02*
Y0035349D01*
X0047773Y0035293D01*
X0046992Y0035182D02*
X0047075Y0035015D01*
X0046853Y0035182D02*
X0047019D01*
X0047075Y0035238D01*
Y0035293D01*
X0047019Y0035349D01*
X0046853D01*
Y0035015D01*
X0046649Y0035182D02*
X0046483D01*
X0046705Y0035015D02*
X0046483D01*
Y0035349D01*
X0046705D01*
X0046140Y0035015D02*
Y0035349D01*
X0046113Y0035015D02*
X0046279D01*
X0046335Y0035127D01*
Y0035238D01*
X0046279Y0035349D01*
X0046113D01*
X0045965Y0035127D02*
X0045743D01*
X0045965Y0035015D02*
Y0035182D01*
X0045882Y0035349D01*
X0045826D01*
X0045743Y0035182D01*
Y0035015D01*
X0045539Y0035182D02*
X0045373D01*
X0045595Y0035015D02*
X0045373D01*
Y0035349D01*
X0045595D01*
X0045225Y0035182D02*
X0045003D01*
X0045225Y0035015D02*
Y0035349D01*
X0045003Y0035015D02*
Y0035349D01*
X0038088Y0006398D02*
Y0006621D01*
X0038310Y0006398D01*
X0038366D01*
X0038421Y0006426D01*
Y0006593D01*
X0038366Y0006621D01*
X0038088Y0006963D02*
X0038421D01*
X0038088Y0006991D02*
Y0006824D01*
X0038199Y0006768D01*
X0038310D01*
X0038421Y0006824D01*
Y0006991D01*
X0039035Y0006458D02*
Y0006569D01*
Y0006513D02*
X0039369D01*
X0039313Y0006569D01*
X0039035Y0006967D02*
X0039369D01*
X0039035Y0006994D02*
Y0006828D01*
X0039147Y0006772D01*
X0039258D01*
X0039369Y0006828D01*
Y0006994D01*
X0039635Y0004837D02*
X0039968D01*
X0039635Y0004865D02*
Y0004698D01*
X0039746Y0004643D01*
X0039857D01*
X0039968Y0004698D01*
Y0004865D01*
X0039801Y0005068D02*
Y0005235D01*
X0039635Y0005013D02*
Y0005235D01*
X0039968D01*
Y0005013D01*
X0039635Y0005383D02*
Y0005577D01*
X0039968D01*
X0039635Y0006414D02*
X0039968D01*
X0039635Y0006442D02*
Y0006276D01*
X0039746Y0006220D01*
X0039857D01*
X0039968Y0006276D01*
Y0006442D01*
X0039801Y0006646D02*
Y0006812D01*
X0039635Y0006590D02*
Y0006812D01*
X0039968D01*
Y0006590D01*
X0039801Y0007043D02*
X0039635Y0006960D01*
X0039801Y0007182D02*
Y0007016D01*
X0039857Y0006960D01*
X0039912D01*
X0039968Y0007016D01*
Y0007182D01*
X0039635D01*
X0023385Y0008240D02*
X0023274D01*
X0023052Y0008351D01*
X0023274Y0008462D01*
X0023385D01*
X0023052Y0008749D02*
X0023107Y0008804D01*
X0023163Y0008832D01*
X0023274D01*
X0023330Y0008804D01*
X0023385Y0008749D01*
Y0008693D01*
X0023330Y0008637D01*
X0023274Y0008610D01*
X0023163D01*
X0023107Y0008637D01*
X0023052Y0008693D01*
Y0008749D01*
X0023107Y0009202D02*
X0023052Y0009174D01*
Y0009007D01*
X0023107Y0008980D01*
X0023219D01*
X0023274Y0009035D01*
Y0009202D01*
X0023385D01*
Y0008980D01*
X0023219Y0009350D02*
Y0009572D01*
Y0009775D02*
Y0009942D01*
X0023052D02*
X0023385D01*
Y0009720D01*
X0023219Y0010312D02*
Y0010145D01*
X0023274Y0010090D01*
X0023330D01*
X0023385Y0010145D01*
Y0010312D01*
X0023052D01*
Y0010599D02*
X0023107Y0010654D01*
X0023163Y0010682D01*
X0023274D01*
X0023330Y0010654D01*
X0023385Y0010599D01*
Y0010543D01*
X0023330Y0010487D01*
X0023274Y0010460D01*
X0023163D01*
X0023107Y0010487D01*
X0023052Y0010543D01*
Y0010599D01*
Y0010830D02*
Y0010941D01*
Y0010885D02*
X0023385D01*
X0023330Y0010941D01*
X0023219Y0011144D02*
Y0011366D01*
Y0011542D02*
Y0011708D01*
X0023274Y0011736D01*
X0023330D01*
X0023385Y0011708D01*
Y0011542D01*
X0023330Y0011514D01*
X0023274D01*
X0023052Y0011625D01*
X0023107Y0012106D02*
X0023052Y0012051D01*
Y0011940D01*
X0023107Y0011884D01*
X0023163D01*
X0023274Y0011995D01*
X0023385Y0011884D01*
Y0012106D01*
X0023052Y0012254D02*
X0023385D01*
X0023330Y0012310D01*
X0023219Y0012365D01*
X0023330Y0012421D01*
X0023385Y0012476D01*
X0023052D01*
X0023219Y0012707D02*
X0023052Y0012624D01*
X0023219Y0012846D02*
Y0012680D01*
X0023274Y0012624D01*
X0023330D01*
X0023385Y0012680D01*
Y0012846D01*
X0023052D01*
X0023219Y0013105D02*
Y0012994D01*
X0023107D01*
X0023052Y0013022D01*
Y0013188D01*
X0023107Y0013216D01*
X0023330D01*
X0023385Y0013188D01*
Y0013022D01*
X0023330Y0012994D01*
X0046233Y0029443D02*
Y0029554D01*
Y0029498D02*
X0046567D01*
X0046511Y0029554D01*
X0046345Y0029952D02*
X0046289D01*
X0046233Y0029924D01*
Y0029813D01*
X0046289Y0029785D01*
X0046567D01*
Y0029757D02*
Y0029868D01*
X0034617Y0011393D02*
X0034728D01*
X0034673D02*
Y0011060D01*
X0034728Y0011116D01*
X0034932Y0011393D02*
X0035043D01*
X0034987D02*
Y0011060D01*
X0035043Y0011116D01*
X0035246Y0011393D02*
X0035357D01*
X0035302D02*
Y0011060D01*
X0035357Y0011116D01*
X0035560Y0011338D02*
X0035588Y0011393D01*
X0035755D01*
X0035783Y0011338D01*
Y0011116D01*
X0035755Y0011060D01*
X0035588D01*
X0035560Y0011116D01*
X0034380Y0010628D02*
X0034546D01*
Y0010794D02*
Y0010461D01*
X0034324D01*
X0034694D02*
Y0010794D01*
X0034750Y0010739D01*
X0034861Y0010516D01*
X0034916Y0010461D01*
Y0010794D01*
X0035203D02*
X0035258Y0010739D01*
X0035286Y0010683D01*
Y0010572D01*
X0035258Y0010516D01*
X0035203Y0010461D01*
X0035147D01*
X0035092Y0010516D01*
X0035064Y0010572D01*
Y0010683D01*
X0035092Y0010739D01*
X0035147Y0010794D01*
X0035203D01*
X0035573D02*
X0035628Y0010739D01*
X0035656Y0010683D01*
Y0010572D01*
X0035628Y0010516D01*
X0035573Y0010461D01*
X0035517D01*
X0035462Y0010516D01*
X0035434Y0010572D01*
Y0010683D01*
X0035462Y0010739D01*
X0035517Y0010794D01*
X0035573D01*
X0035804D02*
X0035915D01*
X0035859D02*
Y0010461D01*
X0035915Y0010516D01*
X0018568Y0026880D02*
X0018901D01*
X0018568Y0026908D02*
Y0026741D01*
X0018679Y0026685D01*
X0018790D01*
X0018901Y0026741D01*
Y0026908D01*
X0018735Y0027111D02*
Y0027278D01*
X0018568Y0027055D02*
Y0027278D01*
X0018901D01*
Y0027055D01*
X0018568Y0027425D02*
Y0027620D01*
X0018901D01*
X0018568Y0028457D02*
X0018901D01*
X0018568Y0028485D02*
Y0028318D01*
X0018679Y0028263D01*
X0018790D01*
X0018901Y0028318D01*
Y0028485D01*
X0018735Y0028688D02*
Y0028855D01*
X0018568Y0028633D02*
Y0028855D01*
X0018901D01*
Y0028633D01*
X0018735Y0029086D02*
X0018568Y0029003D01*
X0018735Y0029225D02*
Y0029058D01*
X0018790Y0029003D01*
X0018846D01*
X0018901Y0029058D01*
Y0029225D01*
X0018568D01*
X0042860Y0014642D02*
X0042915Y0014586D01*
X0043026D01*
X0043082Y0014642D01*
Y0014697D01*
X0042971Y0014808D01*
X0043082Y0014919D01*
X0042860D01*
X0042712Y0014586D02*
X0042601D01*
X0042657D02*
Y0014919D01*
X0042601Y0014864D01*
X0042398Y0014586D02*
X0042287D01*
X0042342D02*
Y0014919D01*
X0042287Y0014864D01*
X0042083Y0014642D02*
X0042056Y0014586D01*
X0041889D01*
X0041861Y0014642D01*
Y0014864D01*
X0041889Y0014919D01*
X0042056D01*
X0042083Y0014864D01*
X0038091Y0007409D02*
Y0007631D01*
X0038314Y0007409D01*
X0038369D01*
X0038425Y0007437D01*
Y0007603D01*
X0038369Y0007631D01*
X0038091Y0007779D02*
Y0008001D01*
X0038314Y0007779D01*
X0038369D01*
X0038425Y0007807D01*
Y0007973D01*
X0038369Y0008001D01*
X0038258Y0008232D02*
X0038091Y0008149D01*
X0038258Y0008371D02*
Y0008204D01*
X0038314Y0008149D01*
X0038369D01*
X0038425Y0008204D01*
Y0008371D01*
X0038091D01*
X0046840Y0024970D02*
Y0025137D01*
X0046673Y0024914D02*
Y0025137D01*
X0047007D01*
Y0024914D01*
X0046951Y0025284D02*
X0047007Y0025312D01*
Y0025479D01*
X0046951Y0025507D01*
X0046896D01*
X0046840Y0025479D01*
Y0025312D01*
X0046785Y0025284D01*
X0046729D01*
X0046673Y0025312D01*
Y0025479D01*
X0046729Y0025507D01*
X0046673Y0025654D02*
Y0025849D01*
X0047007D01*
Y0025997D02*
X0046729D01*
X0046673Y0026024D01*
Y0026191D01*
X0046729Y0026219D01*
X0047007D01*
X0046840Y0026589D02*
Y0026422D01*
X0046896Y0026367D01*
X0046951D01*
X0047007Y0026422D01*
Y0026589D01*
X0046673D01*
Y0027232D02*
Y0027343D01*
Y0027287D02*
X0047007D01*
X0046951Y0027343D01*
X0046673Y0027546D02*
Y0027768D01*
X0046896Y0027546D01*
X0046951D01*
X0047007Y0027574D01*
Y0027740D01*
X0046951Y0027768D01*
X0046673Y0028110D02*
X0047007D01*
X0046673Y0028138D02*
Y0027972D01*
X0046785Y0027916D01*
X0046896D01*
X0047007Y0027972D01*
Y0028138D01*
X0046840Y0028480D02*
Y0028314D01*
X0046785Y0028286D01*
X0046729D01*
X0046673Y0028314D01*
Y0028480D01*
X0046729Y0028508D01*
X0046785D01*
X0047007Y0028397D01*
X0046673Y0028656D02*
Y0028878D01*
X0046896Y0028656D01*
X0046951D01*
X0047007Y0028684D01*
Y0028850D01*
X0046951Y0028878D01*
X0046673Y0029165D02*
X0046729Y0029220D01*
X0046785Y0029248D01*
X0046896D01*
X0046951Y0029220D01*
X0047007Y0029165D01*
Y0029109D01*
X0046951Y0029054D01*
X0046896Y0029026D01*
X0046785D01*
X0046729Y0029054D01*
X0046673Y0029109D01*
Y0029165D01*
Y0029535D02*
X0046729Y0029590D01*
X0046785Y0029618D01*
X0046896D01*
X0046951Y0029590D01*
X0047007Y0029535D01*
Y0029479D01*
X0046951Y0029424D01*
X0046896Y0029396D01*
X0046785D01*
X0046729Y0029424D01*
X0046673Y0029479D01*
Y0029535D01*
X0046785Y0029960D02*
X0046729D01*
X0046673Y0029933D01*
Y0029821D01*
X0046729Y0029794D01*
X0047007D01*
Y0029766D02*
Y0029877D01*
X0022764Y0010902D02*
X0022820Y0010930D01*
Y0011097D01*
X0022764Y0011124D01*
X0022653D01*
X0022598Y0011069D01*
Y0010902D01*
X0022486D01*
Y0011124D01*
X0022764Y0010754D02*
X0022820Y0010727D01*
Y0010560D01*
X0022764Y0010532D01*
X0022542D01*
X0022486Y0010560D01*
Y0010727D01*
X0022542Y0010754D01*
X0021887Y0015321D02*
X0021998D01*
X0022221Y0015210D01*
X0021998Y0015099D01*
X0021887D01*
X0022221Y0014812D02*
X0022165Y0014756D01*
X0022109Y0014729D01*
X0021998D01*
X0021943Y0014756D01*
X0021887Y0014812D01*
Y0014868D01*
X0021943Y0014923D01*
X0021998Y0014951D01*
X0022109D01*
X0022165Y0014923D01*
X0022221Y0014868D01*
Y0014812D01*
X0022165Y0014359D02*
X0022221Y0014386D01*
Y0014553D01*
X0022165Y0014581D01*
X0022054D01*
X0021998Y0014525D01*
Y0014359D01*
X0021887D01*
Y0014581D01*
X0022054Y0014211D02*
Y0013989D01*
Y0013785D02*
Y0013619D01*
X0022221D02*
X0021887D01*
Y0013841D01*
X0022054Y0013249D02*
Y0013415D01*
X0021998Y0013471D01*
X0021943D01*
X0021887Y0013415D01*
Y0013249D01*
X0022221D01*
Y0012962D02*
X0022165Y0012906D01*
X0022109Y0012879D01*
X0021998D01*
X0021943Y0012906D01*
X0021887Y0012962D01*
Y0013018D01*
X0021943Y0013073D01*
X0021998Y0013101D01*
X0022109D01*
X0022165Y0013073D01*
X0022221Y0013018D01*
Y0012962D01*
Y0012731D02*
Y0012620D01*
Y0012675D02*
X0021887D01*
X0021943Y0012620D01*
X0022054Y0012417D02*
Y0012194D01*
Y0012019D02*
Y0011852D01*
X0021998Y0011824D01*
X0021943D01*
X0021887Y0011852D01*
Y0012019D01*
X0021943Y0012047D01*
X0021998D01*
X0022221Y0011935D01*
X0022165Y0011454D02*
X0022221Y0011510D01*
Y0011621D01*
X0022165Y0011677D01*
X0022109D01*
X0021998Y0011565D01*
X0021887Y0011677D01*
Y0011454D01*
X0022221Y0011307D02*
X0021887D01*
X0021943Y0011251D01*
X0022054Y0011195D01*
X0021943Y0011140D01*
X0021887Y0011084D01*
X0022221D01*
X0022054Y0010853D02*
X0022221Y0010937D01*
X0022054Y0010714D02*
Y0010881D01*
X0021998Y0010937D01*
X0021943D01*
X0021887Y0010881D01*
Y0010714D01*
X0022221D01*
X0022054Y0010455D02*
Y0010567D01*
X0022165D01*
X0022221Y0010539D01*
Y0010372D01*
X0022165Y0010344D01*
X0021943D01*
X0021887Y0010372D01*
Y0010539D01*
X0021943Y0010567D01*
X0015451Y0031617D02*
X0015479Y0031562D01*
X0015646D01*
X0015673Y0031617D01*
Y0031728D01*
X0015618Y0031784D01*
X0015451D01*
Y0031895D01*
X0015673D01*
X0015303Y0031562D02*
X0015192D01*
X0015248D02*
Y0031895D01*
X0015192Y0031840D01*
X0014795Y0031673D02*
Y0031617D01*
X0014822Y0031562D01*
X0014934D01*
X0014961Y0031617D01*
Y0031895D01*
X0014989D02*
X0014878D01*
X0038691Y0008022D02*
X0038857Y0008189D01*
X0039024Y0008022D01*
Y0008245D02*
X0038691D01*
Y0008392D02*
Y0008503D01*
Y0008448D02*
X0039024D01*
X0038968Y0008503D01*
X0039035Y0007474D02*
Y0007585D01*
Y0007529D02*
X0039369D01*
X0039313Y0007585D01*
X0039035Y0007788D02*
Y0008010D01*
X0039258Y0007788D01*
X0039313D01*
X0039369Y0007816D01*
Y0007983D01*
X0039313Y0008010D01*
X0039202Y0008241D02*
X0039035Y0008158D01*
X0039202Y0008380D02*
Y0008214D01*
X0039258Y0008158D01*
X0039313D01*
X0039369Y0008214D01*
Y0008380D01*
X0039035D01*
X0019201Y0028662D02*
X0019146Y0028607D01*
X0019090Y0028579D01*
X0018979D01*
X0018923Y0028607D01*
X0018868Y0028662D01*
Y0028718D01*
X0018923Y0028773D01*
X0018979Y0028801D01*
X0019090D01*
X0019146Y0028773D01*
X0019201Y0028718D01*
Y0028662D01*
X0019090Y0028431D02*
Y0028209D01*
X0018868Y0028320D01*
Y0028375D01*
X0019201D01*
X0019034Y0027978D02*
X0019201Y0028061D01*
X0019034Y0027839D02*
Y0028005D01*
X0018979Y0028061D01*
X0018923D01*
X0018868Y0028005D01*
Y0027839D01*
X0019201D01*
X0039635Y0007801D02*
X0039690Y0007856D01*
X0039746Y0007884D01*
X0039857D01*
X0039912Y0007856D01*
X0039968Y0007801D01*
Y0007745D01*
X0039912Y0007689D01*
X0039857Y0007662D01*
X0039746D01*
X0039690Y0007689D01*
X0039635Y0007745D01*
Y0007801D01*
Y0008171D02*
X0039690Y0008226D01*
X0039746Y0008254D01*
X0039857D01*
X0039912Y0008226D01*
X0039968Y0008171D01*
Y0008115D01*
X0039912Y0008059D01*
X0039857Y0008032D01*
X0039746D01*
X0039690Y0008059D01*
X0039635Y0008115D01*
Y0008171D01*
Y0008402D02*
Y0008513D01*
Y0008457D02*
X0039968D01*
X0039912Y0008513D01*
X0034151Y0015140D02*
X0034095Y0015084D01*
Y0014973D01*
X0034151Y0014918D01*
X0034207D01*
X0034318Y0015029D01*
X0034429Y0014918D01*
Y0015140D01*
X0034207Y0015288D02*
Y0015510D01*
X0034429Y0015399D01*
Y0015343D01*
X0034095D01*
X0034151Y0015658D02*
X0034095Y0015686D01*
Y0015852D01*
X0034151Y0015880D01*
X0034373D01*
X0034429Y0015852D01*
Y0015686D01*
X0034373Y0015658D01*
X0035028Y0011091D02*
X0034917D01*
X0034695Y0011202D01*
X0034917Y0011314D01*
X0035028D01*
X0034695Y0011600D02*
X0034750Y0011656D01*
X0034806Y0011684D01*
X0034917D01*
X0034972Y0011656D01*
X0035028Y0011600D01*
Y0011545D01*
X0034972Y0011489D01*
X0034917Y0011461D01*
X0034806D01*
X0034750Y0011489D01*
X0034695Y0011545D01*
Y0011600D01*
X0034750Y0012054D02*
X0034695Y0012026D01*
Y0011859D01*
X0034750Y0011831D01*
X0034861D01*
X0034917Y0011887D01*
Y0012054D01*
X0035028D01*
Y0011831D01*
X0034861Y0012201D02*
Y0012424D01*
Y0012627D02*
Y0012794D01*
X0034695D02*
X0035028D01*
Y0012571D01*
X0034861Y0013164D02*
Y0012997D01*
X0034917Y0012941D01*
X0034972D01*
X0035028Y0012997D01*
Y0013164D01*
X0034695D01*
Y0013450D02*
X0034750Y0013506D01*
X0034806Y0013534D01*
X0034917D01*
X0034972Y0013506D01*
X0035028Y0013450D01*
Y0013395D01*
X0034972Y0013339D01*
X0034917Y0013311D01*
X0034806D01*
X0034750Y0013339D01*
X0034695Y0013395D01*
Y0013450D01*
Y0013681D02*
Y0013792D01*
Y0013737D02*
X0035028D01*
X0034972Y0013792D01*
X0034861Y0013996D02*
Y0014218D01*
Y0014393D02*
Y0014560D01*
X0034917Y0014588D01*
X0034972D01*
X0035028Y0014560D01*
Y0014393D01*
X0034972Y0014366D01*
X0034917D01*
X0034695Y0014477D01*
X0034750Y0014958D02*
X0034695Y0014902D01*
Y0014791D01*
X0034750Y0014736D01*
X0034806D01*
X0034917Y0014847D01*
X0035028Y0014736D01*
Y0014958D01*
X0034695Y0015106D02*
X0035028D01*
X0034972Y0015161D01*
X0034861Y0015217D01*
X0034972Y0015272D01*
X0035028Y0015328D01*
X0034695D01*
X0034861Y0015559D02*
X0034695Y0015476D01*
X0034861Y0015698D02*
Y0015531D01*
X0034917Y0015476D01*
X0034972D01*
X0035028Y0015531D01*
Y0015698D01*
X0034695D01*
X0034861Y0015957D02*
Y0015846D01*
X0034750D01*
X0034695Y0015873D01*
Y0016040D01*
X0034750Y0016068D01*
X0034972D01*
X0035028Y0016040D01*
Y0015873D01*
X0034972Y0015846D01*
X0021781Y0013124D02*
X0021836Y0013152D01*
Y0013319D01*
X0021781Y0013347D01*
X0021670D01*
X0021614Y0013291D01*
Y0013124D01*
X0021503D01*
Y0013347D01*
X0021670Y0012893D02*
X0021836Y0012977D01*
X0021670Y0012754D02*
Y0012921D01*
X0021614Y0012977D01*
X0021559D01*
X0021503Y0012921D01*
Y0012754D01*
X0021836D01*
X0046766Y0019952D02*
X0046544D01*
X0046655Y0020174D01*
X0046711D01*
Y0019840D01*
X0046396D02*
X0046285D01*
X0046341D02*
Y0020174D01*
X0046285Y0020118D01*
X0045888Y0019952D02*
Y0019896D01*
X0045915Y0019840D01*
X0046027D01*
X0046054Y0019896D01*
Y0020174D01*
X0046082D02*
X0045971D01*
X0018602Y0028419D02*
X0018546Y0028363D01*
X0018491Y0028335D01*
X0018380D01*
X0018324Y0028363D01*
X0018269Y0028419D01*
Y0028474D01*
X0018324Y0028530D01*
X0018380Y0028558D01*
X0018491D01*
X0018546Y0028530D01*
X0018602Y0028474D01*
Y0028419D01*
Y0028049D02*
X0018546Y0027993D01*
X0018491Y0027965D01*
X0018380D01*
X0018324Y0027993D01*
X0018269Y0028049D01*
Y0028104D01*
X0018324Y0028160D01*
X0018380Y0028188D01*
X0018491D01*
X0018546Y0028160D01*
X0018602Y0028104D01*
Y0028049D01*
Y0027818D02*
Y0027707D01*
Y0027762D02*
X0018269D01*
X0018324Y0027707D01*
X0023629Y0011386D02*
Y0011275D01*
Y0011330D02*
X0023296D01*
X0023352Y0011275D01*
X0023629Y0010960D02*
X0023463D01*
X0023296Y0011071D02*
X0023463Y0010988D01*
Y0010932D01*
X0023296Y0010849D01*
X0024129Y0017083D02*
X0024074Y0017028D01*
X0024018Y0017000D01*
X0023907D01*
X0023852Y0017028D01*
X0023796Y0017083D01*
Y0017139D01*
X0023852Y0017194D01*
X0023907Y0017222D01*
X0024018D01*
X0024074Y0017194D01*
X0024129Y0017139D01*
Y0017083D01*
X0024241Y0016852D02*
Y0016630D01*
X0024129Y0016482D02*
Y0016316D01*
X0023796Y0016482D01*
Y0016316D01*
X0023963Y0016140D02*
Y0015918D01*
X0024129Y0016140D02*
X0023796D01*
X0024129Y0015918D02*
X0023796D01*
X0024129Y0015770D02*
X0023796D01*
X0023852Y0015714D01*
X0023963Y0015659D01*
X0023852Y0015603D01*
X0023796Y0015548D01*
X0024129D01*
X0023963Y0015372D02*
X0023907Y0015400D01*
X0023852D01*
X0023796Y0015372D01*
Y0015206D01*
X0023852Y0015178D01*
X0023907D01*
X0023963Y0015206D01*
Y0015372D01*
X0024018Y0015400D01*
X0024074D01*
X0024129Y0015372D01*
Y0015206D01*
X0024074Y0015178D01*
X0024018D01*
X0023963Y0015206D01*
X0024129Y0014891D02*
X0024074Y0014836D01*
X0024018Y0014808D01*
X0023907D01*
X0023852Y0014836D01*
X0023796Y0014891D01*
Y0014947D01*
X0023852Y0015002D01*
X0023907Y0015030D01*
X0024018D01*
X0024074Y0015002D01*
X0024129Y0014947D01*
Y0014891D01*
X0023963Y0014466D02*
Y0014632D01*
X0024018Y0014660D01*
X0024074D01*
X0024129Y0014632D01*
Y0014466D01*
X0024074Y0014438D01*
X0024018D01*
X0023796Y0014549D01*
X0024129Y0014235D02*
Y0014290D01*
X0024074D01*
Y0014235D01*
X0024129D01*
X0024018Y0014031D02*
Y0013809D01*
X0023796Y0013920D01*
Y0013976D01*
X0024129D01*
X0023963Y0013661D02*
Y0013439D01*
X0024129Y0013097D02*
X0023796D01*
X0024129Y0013069D02*
Y0013236D01*
X0024074Y0013291D01*
X0024018D01*
X0023963Y0013263D01*
Y0013097D02*
Y0013263D01*
X0023907Y0013291D01*
X0023852D01*
X0023796Y0013236D01*
Y0013069D01*
Y0012921D02*
X0024074D01*
X0024129Y0012893D01*
Y0012727D01*
X0024074Y0012699D01*
X0023796D01*
X0023852Y0012551D02*
X0023796Y0012523D01*
Y0012357D01*
X0023852Y0012329D01*
X0023907D01*
X0023963Y0012357D01*
Y0012523D01*
X0024018Y0012551D01*
X0024074D01*
X0024129Y0012523D01*
Y0012357D01*
X0024074Y0012329D01*
X0023963Y0012153D02*
Y0011987D01*
X0023907Y0011959D01*
X0023852D01*
X0023796Y0011987D01*
Y0012153D01*
X0023852Y0012181D01*
X0023907D01*
X0024129Y0012070D01*
X0024018Y0011811D02*
Y0011589D01*
X0023796Y0011700D01*
Y0011756D01*
X0024129D01*
X0024074Y0011441D02*
X0024129Y0011413D01*
Y0011247D01*
X0024074Y0011219D01*
X0023852D01*
X0023796Y0011247D01*
Y0011413D01*
X0023852Y0011441D01*
X0023963Y0011071D02*
Y0010849D01*
X0024129Y0011071D02*
X0023796D01*
X0024129Y0010849D02*
X0023796D01*
X0048769Y0020265D02*
X0048658D01*
X0048714D02*
Y0020599D01*
X0048658Y0020543D01*
X0047877Y0020432D02*
X0047960Y0020265D01*
X0047738Y0020432D02*
X0047904D01*
X0047960Y0020488D01*
Y0020543D01*
X0047904Y0020599D01*
X0047738D01*
Y0020265D01*
X0047534Y0020432D02*
X0047368D01*
X0047590Y0020265D02*
X0047368D01*
Y0020599D01*
X0047590D01*
X0047025Y0020265D02*
Y0020599D01*
X0046998Y0020265D02*
X0047164D01*
X0047220Y0020377D01*
Y0020488D01*
X0047164Y0020599D01*
X0046998D01*
X0046850Y0020377D02*
X0046628D01*
X0046850Y0020265D02*
Y0020432D01*
X0046767Y0020599D01*
X0046711D01*
X0046628Y0020432D01*
Y0020265D01*
X0046424Y0020432D02*
X0046258D01*
X0046480Y0020265D02*
X0046258D01*
Y0020599D01*
X0046480D01*
X0046110Y0020432D02*
X0045888D01*
X0046110Y0020265D02*
Y0020599D01*
X0045888Y0020265D02*
Y0020599D01*
X0015909Y0007175D02*
X0015687D01*
X0015909Y0007397D01*
Y0007453D01*
X0015882Y0007508D01*
X0015715D01*
X0015687Y0007453D01*
X0015539Y0007175D02*
X0015428D01*
X0015484D02*
Y0007508D01*
X0015428Y0007453D01*
X0015031Y0007286D02*
Y0007231D01*
X0015058Y0007175D01*
X0015170D01*
X0015197Y0007231D01*
Y0007508D01*
X0015225D02*
X0015114D01*
X0016722Y0028276D02*
X0017056Y0028109D01*
Y0028332D01*
X0016834Y0028674D02*
X0016778D01*
X0016722Y0028646D01*
Y0028535D01*
X0016778Y0028507D01*
X0017056D01*
Y0028479D02*
Y0028591D01*
X0021237Y0013529D02*
X0021071Y0013362D01*
X0020904Y0013529D01*
Y0013307D02*
X0021237D01*
Y0012992D02*
X0020904Y0013159D01*
Y0012937D01*
X0021126Y0012789D02*
Y0012567D01*
X0020904Y0012678D01*
Y0012733D01*
X0021237D01*
X0038687Y0004834D02*
X0039020D01*
X0038687Y0004861D02*
Y0004695D01*
X0038798Y0004639D01*
X0038909D01*
X0039020Y0004695D01*
Y0004861D01*
X0038854Y0005065D02*
Y0005231D01*
X0038687Y0005009D02*
Y0005231D01*
X0039020D01*
Y0005009D01*
X0038687Y0005379D02*
Y0005574D01*
X0039020D01*
X0038687Y0006411D02*
X0039020D01*
X0038687Y0006439D02*
Y0006272D01*
X0038798Y0006216D01*
X0038909D01*
X0039020Y0006272D01*
Y0006439D01*
X0038854Y0006642D02*
Y0006809D01*
X0038687Y0006586D02*
Y0006809D01*
X0039020D01*
Y0006586D01*
X0038854Y0007040D02*
X0038687Y0006956D01*
X0038854Y0007179D02*
Y0007012D01*
X0038909Y0006956D01*
X0038965D01*
X0039020Y0007012D01*
Y0007179D01*
X0038687D01*
X0039163Y0024973D02*
Y0024862D01*
Y0024917D02*
X0038829D01*
X0038885Y0024862D01*
X0039163Y0024658D02*
Y0024547D01*
Y0024603D02*
X0038829D01*
X0038885Y0024547D01*
X0038996Y0024261D02*
X0039163Y0024344D01*
X0038996Y0024122D02*
Y0024288D01*
X0038941Y0024344D01*
X0038885D01*
X0038829Y0024288D01*
Y0024122D01*
X0039163D01*
X0038564Y0028240D02*
X0038508D01*
Y0028184D01*
X0038564D01*
Y0028240D01*
X0038230Y0028212D02*
X0038564Y0028045D01*
X0038230Y0028018D02*
X0038286D01*
Y0028073D01*
X0038230D01*
Y0028018D01*
X0038564Y0027870D02*
Y0027759D01*
Y0027814D02*
X0038230D01*
X0038286Y0027759D01*
X0038508Y0026838D02*
X0038564Y0026866D01*
Y0027033D01*
X0038508Y0027061D01*
X0038397D01*
X0038341Y0027005D01*
Y0026838D01*
X0038230D01*
Y0027061D01*
X0038564Y0026552D02*
X0038508Y0026496D01*
X0038452Y0026468D01*
X0038341D01*
X0038286Y0026496D01*
X0038230Y0026552D01*
Y0026607D01*
X0038286Y0026663D01*
X0038341Y0026691D01*
X0038452D01*
X0038508Y0026663D01*
X0038564Y0026607D01*
Y0026552D01*
X0038397Y0026293D02*
X0038341Y0026321D01*
X0038286D01*
X0038230Y0026293D01*
Y0026126D01*
X0038286Y0026098D01*
X0038341D01*
X0038397Y0026126D01*
Y0026293D01*
X0038452Y0026321D01*
X0038508D01*
X0038564Y0026293D01*
Y0026126D01*
X0038508Y0026098D01*
X0038452D01*
X0038397Y0026126D01*
X0038564Y0025812D02*
X0038508Y0025756D01*
X0038452Y0025728D01*
X0038341D01*
X0038286Y0025756D01*
X0038230Y0025812D01*
Y0025867D01*
X0038286Y0025923D01*
X0038341Y0025951D01*
X0038452D01*
X0038508Y0025923D01*
X0038564Y0025867D01*
Y0025812D01*
X0038397Y0025581D02*
Y0025358D01*
Y0025016D02*
Y0025183D01*
X0038452Y0025211D01*
X0038508D01*
X0038564Y0025183D01*
Y0025016D01*
X0038508Y0024988D01*
X0038452D01*
X0038230Y0025099D01*
X0038397Y0024813D02*
Y0024646D01*
X0038341Y0024618D01*
X0038286D01*
X0038230Y0024646D01*
Y0024813D01*
X0038286Y0024841D01*
X0038341D01*
X0038564Y0024729D01*
Y0024471D02*
X0038397Y0024304D01*
X0038230Y0024471D01*
Y0024248D02*
X0038564D01*
Y0024101D02*
Y0023990D01*
Y0024045D02*
X0038230D01*
X0038286Y0023990D01*
X0017912Y0007600D02*
X0017801D01*
X0017857D02*
Y0007933D01*
X0017801Y0007878D01*
X0017020Y0007767D02*
X0017103Y0007600D01*
X0016881Y0007767D02*
X0017047D01*
X0017103Y0007822D01*
Y0007878D01*
X0017047Y0007933D01*
X0016881D01*
Y0007600D01*
X0016677Y0007767D02*
X0016511D01*
X0016733Y0007600D02*
X0016511D01*
Y0007933D01*
X0016733D01*
X0016168Y0007600D02*
Y0007933D01*
X0016141Y0007600D02*
X0016307D01*
X0016363Y0007711D01*
Y0007822D01*
X0016307Y0007933D01*
X0016141D01*
X0015993Y0007711D02*
X0015771D01*
X0015993Y0007600D02*
Y0007767D01*
X0015910Y0007933D01*
X0015854D01*
X0015771Y0007767D01*
Y0007600D01*
X0015567Y0007767D02*
X0015401D01*
X0015623Y0007600D02*
X0015401D01*
Y0007933D01*
X0015623D01*
X0015253Y0007767D02*
X0015031D01*
X0015253Y0007600D02*
Y0007933D01*
X0015031Y0007600D02*
Y0007933D01*
X0016222Y0024654D02*
Y0024877D01*
X0016445Y0024654D01*
X0016500D01*
X0016556Y0024682D01*
Y0024849D01*
X0016500Y0024877D01*
X0016222Y0025024D02*
X0016556Y0025191D01*
Y0025024D02*
X0016222Y0025191D01*
Y0025506D02*
X0016278Y0025561D01*
X0016334Y0025589D01*
X0016445D01*
X0016500Y0025561D01*
X0016556Y0025506D01*
Y0025450D01*
X0016500Y0025394D01*
X0016445Y0025367D01*
X0016334D01*
X0016278Y0025394D01*
X0016222Y0025450D01*
Y0025506D01*
Y0025737D02*
Y0025959D01*
X0016445Y0025737D01*
X0016500D01*
X0016556Y0025764D01*
Y0025931D01*
X0016500Y0025959D01*
X0016389Y0026685D02*
X0016222Y0026602D01*
X0016389Y0026824D02*
Y0026657D01*
X0016445Y0026602D01*
X0016500D01*
X0016556Y0026657D01*
Y0026824D01*
X0016222D01*
X0016389Y0027027D02*
Y0027194D01*
X0016222Y0026972D02*
Y0027194D01*
X0016556D01*
Y0026972D01*
X0016222Y0027536D02*
X0016556D01*
X0016222Y0027564D02*
Y0027397D01*
X0016334Y0027342D01*
X0016445D01*
X0016556Y0027397D01*
Y0027564D01*
X0016334Y0027712D02*
Y0027934D01*
X0016222Y0027712D02*
X0016389D01*
X0016556Y0027795D01*
Y0027851D01*
X0016389Y0027934D01*
X0016222D01*
X0016389Y0028137D02*
Y0028304D01*
X0016222Y0028082D02*
Y0028304D01*
X0016556D01*
Y0028082D01*
X0016389Y0028452D02*
Y0028674D01*
X0016222Y0028452D02*
X0016556D01*
X0016222Y0028674D02*
X0016556D01*
X0038517Y0009718D02*
X0038573Y0009774D01*
Y0009885D01*
X0038517Y0009941D01*
X0038462D01*
X0038351Y0009830D01*
X0038239Y0009941D01*
Y0009718D01*
X0038573Y0009571D02*
Y0009348D01*
X0038351Y0009571D01*
X0038295D01*
X0038239Y0009543D01*
Y0009376D01*
X0038295Y0009348D01*
X0038406Y0009117D02*
X0038573Y0009201D01*
X0038406Y0008978D02*
Y0009145D01*
X0038351Y0009201D01*
X0038295D01*
X0038239Y0009145D01*
Y0008978D01*
X0038573D01*
X0037974Y0009558D02*
X0037918Y0009503D01*
X0037862Y0009475D01*
X0037751D01*
X0037696Y0009503D01*
X0037640Y0009558D01*
Y0009614D01*
X0037696Y0009669D01*
X0037751Y0009697D01*
X0037862D01*
X0037918Y0009669D01*
X0037974Y0009614D01*
Y0009558D01*
Y0009188D02*
X0037918Y0009133D01*
X0037862Y0009105D01*
X0037751D01*
X0037696Y0009133D01*
X0037640Y0009188D01*
Y0009244D01*
X0037696Y0009299D01*
X0037751Y0009327D01*
X0037862D01*
X0037918Y0009299D01*
X0037974Y0009244D01*
Y0009188D01*
Y0008957D02*
Y0008846D01*
Y0008902D02*
X0037640D01*
X0037696Y0008846D01*
X0034351Y0014267D02*
Y0014045D01*
X0034129Y0014156D01*
Y0014212D01*
X0034462D01*
X0034351Y0013897D02*
Y0013675D01*
X0034129Y0013786D01*
Y0013842D01*
X0034462D01*
X0034407Y0013527D02*
X0034462Y0013500D01*
Y0013333D01*
X0034407Y0013305D01*
X0034185D01*
X0034129Y0013333D01*
Y0013500D01*
X0034185Y0013527D01*
X0033530Y0018094D02*
X0033641D01*
X0033863Y0017983D01*
X0033641Y0017872D01*
X0033530D01*
X0033863Y0017585D02*
X0033808Y0017529D01*
X0033752Y0017502D01*
X0033641D01*
X0033585Y0017529D01*
X0033530Y0017585D01*
Y0017641D01*
X0033585Y0017696D01*
X0033641Y0017724D01*
X0033752D01*
X0033808Y0017696D01*
X0033863Y0017641D01*
Y0017585D01*
X0033808Y0017132D02*
X0033863Y0017159D01*
Y0017326D01*
X0033808Y0017354D01*
X0033697D01*
X0033641Y0017298D01*
Y0017132D01*
X0033530D01*
Y0017354D01*
X0033697Y0016984D02*
Y0016762D01*
Y0016558D02*
Y0016392D01*
X0033863D02*
X0033530D01*
Y0016614D01*
X0033697Y0016022D02*
Y0016188D01*
X0033641Y0016244D01*
X0033585D01*
X0033530Y0016188D01*
Y0016022D01*
X0033863D01*
Y0015735D02*
X0033808Y0015679D01*
X0033752Y0015652D01*
X0033641D01*
X0033585Y0015679D01*
X0033530Y0015735D01*
Y0015791D01*
X0033585Y0015846D01*
X0033641Y0015874D01*
X0033752D01*
X0033808Y0015846D01*
X0033863Y0015791D01*
Y0015735D01*
Y0015504D02*
Y0015393D01*
Y0015448D02*
X0033530D01*
X0033585Y0015393D01*
X0033697Y0015190D02*
Y0014967D01*
Y0014792D02*
Y0014625D01*
X0033641Y0014597D01*
X0033585D01*
X0033530Y0014625D01*
Y0014792D01*
X0033585Y0014820D01*
X0033641D01*
X0033863Y0014708D01*
X0033808Y0014227D02*
X0033863Y0014283D01*
Y0014394D01*
X0033808Y0014450D01*
X0033752D01*
X0033641Y0014338D01*
X0033530Y0014450D01*
Y0014227D01*
X0033863Y0014080D02*
X0033530D01*
X0033585Y0014024D01*
X0033697Y0013968D01*
X0033585Y0013913D01*
X0033530Y0013857D01*
X0033863D01*
X0033697Y0013626D02*
X0033863Y0013710D01*
X0033697Y0013487D02*
Y0013654D01*
X0033641Y0013710D01*
X0033585D01*
X0033530Y0013654D01*
Y0013487D01*
X0033863D01*
X0033697Y0013228D02*
Y0013340D01*
X0033808D01*
X0033863Y0013312D01*
Y0013145D01*
X0033808Y0013117D01*
X0033585D01*
X0033530Y0013145D01*
Y0013312D01*
X0033585Y0013340D01*
X0031997Y0009827D02*
X0032164Y0010160D01*
X0031941D01*
X0031655Y0009827D02*
X0031599Y0009882D01*
X0031571Y0009938D01*
Y0010049D01*
X0031599Y0010105D01*
X0031655Y0010160D01*
X0031710D01*
X0031766Y0010105D01*
X0031794Y0010049D01*
Y0009938D01*
X0031766Y0009882D01*
X0031710Y0009827D01*
X0031655D01*
X0031424D02*
X0031313D01*
X0031368D02*
Y0010160D01*
X0031313Y0010105D01*
X0031109Y0009882D02*
X0031082Y0009827D01*
X0030915D01*
X0030887Y0009882D01*
Y0010105D01*
X0030915Y0010160D01*
X0031082D01*
X0031109Y0010105D01*
X0035990Y0010759D02*
Y0010648D01*
X0035879Y0010426D01*
X0035768Y0010648D01*
Y0010759D01*
X0035426Y0010593D02*
X0035592D01*
X0035620Y0010537D01*
Y0010481D01*
X0035592Y0010426D01*
X0035426D01*
X0035398Y0010481D01*
Y0010537D01*
X0035509Y0010759D01*
X0035250Y0010426D02*
X0035139D01*
X0035195D02*
Y0010759D01*
X0035139Y0010704D01*
X0034936Y0010593D02*
X0034714D01*
X0034510D02*
X0034344D01*
Y0010426D02*
Y0010759D01*
X0034566D01*
X0034196D02*
Y0010426D01*
X0034140Y0010481D01*
X0034029Y0010704D01*
X0033974Y0010759D01*
Y0010426D01*
X0033687D02*
X0033631Y0010481D01*
X0033604Y0010537D01*
Y0010648D01*
X0033631Y0010704D01*
X0033687Y0010759D01*
X0033743D01*
X0033798Y0010704D01*
X0033826Y0010648D01*
Y0010537D01*
X0033798Y0010481D01*
X0033743Y0010426D01*
X0033687D01*
X0033317D02*
X0033261Y0010481D01*
X0033234Y0010537D01*
Y0010648D01*
X0033261Y0010704D01*
X0033317Y0010759D01*
X0033373D01*
X0033428Y0010704D01*
X0033456Y0010648D01*
Y0010537D01*
X0033428Y0010481D01*
X0033373Y0010426D01*
X0033317D01*
X0033086D02*
X0032975D01*
X0033030D02*
Y0010759D01*
X0032975Y0010704D01*
X0032772Y0010593D02*
X0032549D01*
X0032374D02*
X0032207D01*
X0032179Y0010648D01*
Y0010704D01*
X0032207Y0010759D01*
X0032374D01*
X0032402Y0010704D01*
Y0010648D01*
X0032290Y0010426D01*
X0031809Y0010481D02*
X0031865Y0010426D01*
X0031976D01*
X0032032Y0010481D01*
Y0010537D01*
X0031920Y0010648D01*
X0032032Y0010759D01*
X0031809D01*
X0031662Y0010426D02*
Y0010759D01*
X0031606Y0010704D01*
X0031550Y0010593D01*
X0031495Y0010704D01*
X0031439Y0010759D01*
Y0010426D01*
X0031208Y0010593D02*
X0031292Y0010426D01*
X0031069Y0010593D02*
X0031236D01*
X0031292Y0010648D01*
Y0010704D01*
X0031236Y0010759D01*
X0031069D01*
Y0010426D01*
X0030810Y0010593D02*
X0030922D01*
Y0010481D01*
X0030894Y0010426D01*
X0030727D01*
X0030699Y0010481D01*
Y0010704D01*
X0030727Y0010759D01*
X0030894D01*
X0030922Y0010704D01*
X0038517Y0010705D02*
X0038573Y0010761D01*
Y0010872D01*
X0038517Y0010928D01*
X0038462D01*
X0038351Y0010817D01*
X0038239Y0010928D01*
Y0010705D01*
X0038573Y0010363D02*
X0038239D01*
X0038573Y0010335D02*
Y0010502D01*
X0038462Y0010558D01*
X0038351D01*
X0038239Y0010502D01*
Y0010335D01*
X0037974Y0012493D02*
X0037640D01*
X0037974Y0012465D02*
Y0012631D01*
X0037862Y0012687D01*
X0037751D01*
X0037640Y0012631D01*
Y0012465D01*
X0037807Y0012261D02*
Y0012095D01*
X0037974Y0012317D02*
Y0012095D01*
X0037640D01*
Y0012317D01*
X0037974Y0011947D02*
Y0011753D01*
X0037640D01*
X0037974Y0010915D02*
X0037640D01*
X0037974Y0010888D02*
Y0011054D01*
X0037862Y0011110D01*
X0037751D01*
X0037640Y0011054D01*
Y0010888D01*
X0037807Y0010684D02*
Y0010518D01*
X0037974Y0010740D02*
Y0010518D01*
X0037640D01*
Y0010740D01*
X0037807Y0010287D02*
X0037974Y0010370D01*
X0037807Y0010148D02*
Y0010314D01*
X0037751Y0010370D01*
X0037696D01*
X0037640Y0010314D01*
Y0010148D01*
X0037974D01*
X0017969Y0028214D02*
X0018024Y0028269D01*
X0018080Y0028297D01*
X0018191D01*
X0018247Y0028269D01*
X0018302Y0028214D01*
Y0028158D01*
X0018247Y0028103D01*
X0018191Y0028075D01*
X0018080D01*
X0018024Y0028103D01*
X0017969Y0028158D01*
Y0028214D01*
X0018080Y0028445D02*
Y0028667D01*
X0018302Y0028556D01*
Y0028500D01*
X0017969D01*
Y0029009D02*
X0018302D01*
X0017969Y0029037D02*
Y0028870D01*
X0018080Y0028815D01*
X0018191D01*
X0018302Y0028870D01*
Y0029037D01*
X0021047Y0012777D02*
Y0012888D01*
X0021158Y0013110D01*
X0021270Y0012888D01*
Y0012777D01*
X0021556Y0013110D02*
X0021612Y0013055D01*
X0021640Y0012999D01*
Y0012888D01*
X0021612Y0012832D01*
X0021556Y0012777D01*
X0021501D01*
X0021445Y0012832D01*
X0021417Y0012888D01*
Y0012999D01*
X0021445Y0013055D01*
X0021501Y0013110D01*
X0021556D01*
X0022010Y0013055D02*
X0021982Y0013110D01*
X0021815D01*
X0021787Y0013055D01*
Y0012944D01*
X0021843Y0012888D01*
X0022010D01*
Y0012777D01*
X0021787D01*
X0022157Y0012944D02*
X0022380D01*
X0022583D02*
X0022750D01*
Y0013110D02*
Y0012777D01*
X0022527D01*
X0023120Y0012944D02*
X0022953D01*
X0022897Y0012888D01*
Y0012832D01*
X0022953Y0012777D01*
X0023120D01*
Y0013110D01*
X0023406D02*
X0023462Y0013055D01*
X0023490Y0012999D01*
Y0012888D01*
X0023462Y0012832D01*
X0023406Y0012777D01*
X0023351D01*
X0023295Y0012832D01*
X0023267Y0012888D01*
Y0012999D01*
X0023295Y0013055D01*
X0023351Y0013110D01*
X0023406D01*
X0023637D02*
X0023748D01*
X0023693D02*
Y0012777D01*
X0023748Y0012832D01*
X0023952Y0012944D02*
X0024174D01*
X0024349D02*
X0024516D01*
X0024544Y0012888D01*
Y0012832D01*
X0024516Y0012777D01*
X0024349D01*
X0024322Y0012832D01*
Y0012888D01*
X0024433Y0013110D01*
X0024914Y0013055D02*
X0024858Y0013110D01*
X0024747D01*
X0024692Y0013055D01*
Y0012999D01*
X0024803Y0012888D01*
X0024692Y0012777D01*
X0024914D01*
X0025062Y0013110D02*
Y0012777D01*
X0025117Y0012832D01*
X0025173Y0012944D01*
X0025228Y0012832D01*
X0025284Y0012777D01*
Y0013110D01*
X0025515Y0012944D02*
X0025432Y0013110D01*
X0025654Y0012944D02*
X0025487D01*
X0025432Y0012888D01*
Y0012832D01*
X0025487Y0012777D01*
X0025654D01*
Y0013110D01*
X0025913Y0012944D02*
X0025802D01*
Y0013055D01*
X0025829Y0013110D01*
X0025996D01*
X0026024Y0013055D01*
Y0012832D01*
X0025996Y0012777D01*
X0025829D01*
X0025802Y0012832D01*
X0035335Y0014090D02*
X0035390Y0014146D01*
Y0014257D01*
X0035335Y0014313D01*
X0035279D01*
X0035168Y0014201D01*
X0035057Y0014313D01*
Y0014090D01*
X0035390Y0013831D02*
X0035223D01*
X0035057Y0013943D02*
X0035223Y0013859D01*
Y0013804D01*
X0035057Y0013720D01*
X0035890Y0019955D02*
X0035835Y0019899D01*
X0035779Y0019871D01*
X0035668D01*
X0035612Y0019899D01*
X0035557Y0019955D01*
Y0020010D01*
X0035612Y0020066D01*
X0035668Y0020094D01*
X0035779D01*
X0035835Y0020066D01*
X0035890Y0020010D01*
Y0019955D01*
X0036001Y0019724D02*
Y0019501D01*
X0035890Y0019354D02*
Y0019187D01*
X0035557Y0019354D01*
Y0019187D01*
X0035723Y0019011D02*
Y0018789D01*
X0035890Y0019011D02*
X0035557D01*
X0035890Y0018789D02*
X0035557D01*
X0035890Y0018641D02*
X0035557D01*
X0035612Y0018586D01*
X0035723Y0018530D01*
X0035612Y0018475D01*
X0035557Y0018419D01*
X0035890D01*
X0035723Y0018244D02*
X0035668Y0018271D01*
X0035612D01*
X0035557Y0018244D01*
Y0018077D01*
X0035612Y0018049D01*
X0035668D01*
X0035723Y0018077D01*
Y0018244D01*
X0035779Y0018271D01*
X0035835D01*
X0035890Y0018244D01*
Y0018077D01*
X0035835Y0018049D01*
X0035779D01*
X0035723Y0018077D01*
X0035890Y0017762D02*
X0035835Y0017707D01*
X0035779Y0017679D01*
X0035668D01*
X0035612Y0017707D01*
X0035557Y0017762D01*
Y0017818D01*
X0035612Y0017874D01*
X0035668Y0017901D01*
X0035779D01*
X0035835Y0017874D01*
X0035890Y0017818D01*
Y0017762D01*
X0035723Y0017337D02*
Y0017504D01*
X0035779Y0017531D01*
X0035835D01*
X0035890Y0017504D01*
Y0017337D01*
X0035835Y0017309D01*
X0035779D01*
X0035557Y0017420D01*
X0035890Y0017106D02*
Y0017161D01*
X0035835D01*
Y0017106D01*
X0035890D01*
X0035779Y0016903D02*
Y0016680D01*
X0035557Y0016791D01*
Y0016847D01*
X0035890D01*
X0035723Y0016533D02*
Y0016310D01*
X0035890Y0015968D02*
X0035557D01*
X0035890Y0015940D02*
Y0016107D01*
X0035835Y0016163D01*
X0035779D01*
X0035723Y0016135D01*
Y0015968D02*
Y0016135D01*
X0035668Y0016163D01*
X0035612D01*
X0035557Y0016107D01*
Y0015940D01*
Y0015793D02*
X0035835D01*
X0035890Y0015765D01*
Y0015598D01*
X0035835Y0015570D01*
X0035557D01*
X0035612Y0015423D02*
X0035557Y0015395D01*
Y0015228D01*
X0035612Y0015200D01*
X0035668D01*
X0035723Y0015228D01*
Y0015395D01*
X0035779Y0015423D01*
X0035835D01*
X0035890Y0015395D01*
Y0015228D01*
X0035835Y0015200D01*
X0035723Y0015025D02*
Y0014858D01*
X0035668Y0014830D01*
X0035612D01*
X0035557Y0014858D01*
Y0015025D01*
X0035612Y0015053D01*
X0035668D01*
X0035890Y0014941D01*
X0035779Y0014683D02*
Y0014460D01*
X0035557Y0014571D01*
Y0014627D01*
X0035890D01*
X0035835Y0014313D02*
X0035890Y0014285D01*
Y0014118D01*
X0035835Y0014090D01*
X0035612D01*
X0035557Y0014118D01*
Y0014285D01*
X0035612Y0014313D01*
X0035723Y0013943D02*
Y0013720D01*
X0035890Y0013943D02*
X0035557D01*
X0035890Y0013720D02*
X0035557D01*
X0022973Y0005918D02*
Y0008518D01*
X0021473D01*
Y0005918D01*
X0022973D01*
X0023355Y0032496D02*
Y0031696D01*
X0022105D01*
Y0032496D01*
X0023355D01*
X0024789Y0031696D02*
Y0032496D01*
X0026039D01*
Y0031696D01*
X0024789D01*
X0023442D02*
Y0032496D01*
X0024692D01*
Y0031696D01*
X0023442D01*
X0022018Y0032496D02*
Y0031696D01*
X0020768D01*
Y0032496D01*
X0022018D01*
X0025709Y0013106D02*
Y0013906D01*
X0026959D01*
Y0013106D01*
X0025709D01*
X0022149Y0027824D02*
Y0029524D01*
X0020799D01*
X0020449Y0029174D01*
Y0028174D01*
X0020799Y0027824D01*
X0022149D01*
X0025759Y0034146D02*
Y0032446D01*
X0027109D01*
X0027459Y0032796D01*
Y0033796D01*
X0027109Y0034146D01*
X0025759D01*
X0019396Y0011343D02*
Y0013043D01*
X0018046D01*
X0017696Y0012693D01*
Y0011693D01*
X0018046Y0011343D01*
X0019396D01*
X0018797Y0010546D02*
Y0008846D01*
X0020147D01*
X0020497Y0009196D01*
Y0010196D01*
X0020147Y0010546D01*
X0018797D01*
X0021649Y0034185D02*
Y0032485D01*
X0022999D01*
X0023349Y0032835D01*
Y0033835D01*
X0022999Y0034185D01*
X0021649D01*
X0017752Y0029058D02*
X0018552D01*
Y0027808D01*
X0017752D01*
Y0029058D01*
X0019418Y0027818D02*
X0018618D01*
Y0029068D01*
X0019418D01*
Y0027818D01*
X0022053Y0012733D02*
X0021253D01*
Y0013983D01*
X0022053D01*
Y0012733D01*
X0025857Y0013926D02*
Y0013126D01*
X0024607D01*
Y0013926D01*
X0025857D01*
X0037871Y0007012D02*
X0038671D01*
Y0005762D01*
X0037871D01*
Y0007012D01*
X0038789Y0008957D02*
X0037989D01*
Y0010207D01*
X0038789D01*
Y0008957D01*
X0037875Y0008392D02*
X0038675D01*
Y0007142D01*
X0037875D01*
Y0008392D01*
X0022236Y0013050D02*
X0023036D01*
Y0011800D01*
X0022236D01*
Y0013050D01*
X0041840Y0014370D02*
Y0015170D01*
X0043090D01*
Y0014370D01*
X0041840D01*
X0033224Y0008053D02*
X0032424D01*
Y0009303D01*
X0033224D01*
Y0008053D01*
X0037806Y0009665D02*
X0037006D01*
Y0010915D01*
X0037806D01*
Y0009665D01*
X0032107Y0009525D02*
Y0008725D01*
X0030857D01*
Y0009525D01*
X0032107D01*
X0033224Y0009410D02*
X0032424D01*
Y0010660D01*
X0033224D01*
Y0009410D01*
X0036054Y0010661D02*
Y0008101D01*
X0034304D01*
Y0010661D01*
X0036054D01*
X0038855Y0010572D02*
X0039655D01*
Y0009322D01*
X0038855D01*
Y0010572D01*
X0038819Y0007016D02*
X0039619D01*
Y0005766D01*
X0038819D01*
Y0007016D01*
X0035804Y0011610D02*
Y0010810D01*
X0034554D01*
Y0011610D01*
X0035804D01*
X0023036Y0010511D02*
X0022236D01*
Y0011761D01*
X0023036D01*
Y0010511D01*
X0038819Y0008402D02*
X0039619D01*
Y0007152D01*
X0038819D01*
Y0008402D01*
X0033879Y0015901D02*
X0034679D01*
Y0014651D01*
X0033879D01*
Y0015901D01*
X0023093Y0010451D02*
Y0012971D01*
X0024893D02*
Y0010451D01*
X0039379Y0024101D02*
X0038579D01*
Y0025351D01*
X0039379D01*
Y0024101D01*
X0034679Y0013284D02*
X0033879D01*
Y0014534D01*
X0034679D01*
Y0013284D01*
X0030866Y0009610D02*
Y0010410D01*
X0032116D01*
Y0009610D01*
X0030866D01*
X0038789Y0010314D02*
X0037989D01*
Y0011564D01*
X0038789D01*
Y0010314D01*
X0034854Y0013323D02*
Y0015843D01*
X0036654D02*
Y0013323D01*
G01X0045725Y0033127D02*
G03X0046425Y0033827I0000000J0000700D01*
G01X0045025D02*
G03X0045725Y0033127I0000700J0000000D01*
Y0034527D02*
G03X0045025Y0033827I0000000J0000700D01*
G01X0046425D02*
G03X0045725Y0034527I0000700J0000000D01*
G01X0015517Y0030098D02*
G03X0016217Y0030798I0000000J0000700D01*
G01X0014817D02*
G03X0015517Y0030098I0000700J0000000D01*
Y0031498D02*
G03X0014817Y0030798I0000000J0000700D01*
G01X0016217D02*
G03X0015517Y0031498I0000700J0000000D01*
G01X0046610Y0018377D02*
G03X0047310Y0019077I0000000J0000700D01*
G01X0045910D02*
G03X0046610Y0018377I0000700J0000000D01*
Y0019777D02*
G03X0045910Y0019077I0000000J0000700D01*
G01X0047310D02*
G03X0046610Y0019777I0000700J0000000D01*
G01X0023993Y0009640D02*
G03X0024893Y0010451I0000000J0000905D01*
G01X0023093D02*
G03X0023993Y0009640I0000900J0000094D01*
Y0013796D02*
G03X0023093Y0012971I0000000J0000903D01*
G01X0024893D02*
G03X0023993Y0013796I0000900J0000078D01*
G01X0015753Y0005711D02*
G03X0016453Y0006411I0000000J0000700D01*
G01X0015053D02*
G03X0015753Y0005711I0000700J0000000D01*
Y0007111D02*
G03X0015053Y0006411I0000000J0000700D01*
G01X0016453D02*
G03X0015753Y0007111I0000700J0000000D01*
G01X0035754Y0012511D02*
G03X0036654Y0013323I0000000J0000905D01*
G01X0034854D02*
G03X0035754Y0012511I0000900J0000093D01*
Y0016667D02*
G03X0034854Y0015843I0000000J0000903D01*
G01X0036654D02*
G03X0035754Y0016667I0000900J0000079D01*
G54D61*
G01X0031192Y0018601D02*
X0031136Y0018628D01*
Y0018795D01*
X0031192Y0018823D01*
X0031414D01*
X0031470Y0018795D01*
Y0018628D01*
X0031414Y0018601D01*
X0031136Y0019011D02*
Y0019233D01*
X0031359Y0019011D01*
X0031414D01*
X0031470Y0019038D01*
Y0019205D01*
X0031414Y0019233D01*
X0031136Y0019421D02*
Y0019532D01*
Y0019476D02*
X0031470D01*
Y0019421D02*
Y0019532D01*
X0032136Y0020226D02*
Y0020337D01*
Y0020282D02*
X0032470D01*
X0032414Y0020337D01*
X0030803Y0018767D02*
X0030859Y0018740D01*
X0030914D01*
X0030970Y0018767D01*
Y0018934D01*
X0030914Y0018962D01*
X0030859D01*
X0030803Y0018934D01*
Y0018767D01*
X0030748Y0018740D01*
X0030692D01*
X0030637Y0018767D01*
Y0018934D01*
X0030692Y0018962D01*
X0030748D01*
X0030803Y0018934D01*
X0030637Y0019150D02*
Y0019261D01*
Y0019205D02*
X0030970D01*
X0030914Y0019261D01*
X0030748Y0019698D02*
X0030692D01*
X0030637Y0019671D01*
Y0019559D01*
X0030692Y0019532D01*
X0030970D01*
Y0019504D02*
Y0019615D01*
X0032136Y0020226D02*
Y0020337D01*
Y0020282D02*
X0032470D01*
X0032414Y0020337D01*
X0020669Y0007183D02*
X0020724Y0007239D01*
Y0007350D01*
X0020669Y0007406D01*
X0020613D01*
X0020502Y0007294D01*
X0020391Y0007406D01*
Y0007183D01*
X0020724Y0006996D02*
Y0006885D01*
Y0006940D02*
X0020391D01*
X0020446Y0006885D01*
X0020613Y0006447D02*
X0020669D01*
X0020724Y0006475D01*
Y0006586D01*
X0020669Y0006613D01*
X0020391D01*
Y0006641D02*
Y0006530D01*
X0036220Y0025844D02*
X0036275Y0025788D01*
X0036386D01*
X0036442Y0025844D01*
Y0025899D01*
X0036331Y0026010D01*
X0036442Y0026121D01*
X0036220D01*
X0035414Y0025955D02*
X0035497Y0025788D01*
X0035275Y0025955D02*
X0035441D01*
X0035497Y0026010D01*
Y0026066D01*
X0035441Y0026121D01*
X0035275D01*
Y0025788D01*
X0035031Y0025955D02*
X0034865D01*
X0035087Y0025788D02*
X0034865D01*
Y0026121D01*
X0035087D01*
X0034482Y0025788D02*
Y0026121D01*
X0034455Y0025788D02*
X0034621D01*
X0034677Y0025899D01*
Y0026010D01*
X0034621Y0026121D01*
X0034455D01*
X0034267Y0025899D02*
X0034045D01*
X0034267Y0025788D02*
Y0025955D01*
X0034184Y0026121D01*
X0034128D01*
X0034045Y0025955D01*
Y0025788D01*
X0033801Y0025955D02*
X0033635D01*
X0033857Y0025788D02*
X0033635D01*
Y0026121D01*
X0033857D01*
X0033447Y0025955D02*
X0033225D01*
X0033447Y0025788D02*
Y0026121D01*
X0033225Y0025788D02*
Y0026121D01*
X0020224Y0009775D02*
Y0009553D01*
X0020002Y0009775D01*
X0019947D01*
X0019891Y0009747D01*
Y0009581D01*
X0019947Y0009553D01*
X0020058Y0008747D02*
X0020224Y0008830D01*
X0020058Y0008608D02*
Y0008775D01*
X0020002Y0008830D01*
X0019947D01*
X0019891Y0008775D01*
Y0008608D01*
X0020224D01*
X0020058Y0008365D02*
Y0008198D01*
X0020224Y0008420D02*
Y0008198D01*
X0019891D01*
Y0008420D01*
X0020224Y0007816D02*
X0019891D01*
X0020224Y0007788D02*
Y0007955D01*
X0020113Y0008010D01*
X0020002D01*
X0019891Y0007955D01*
Y0007788D01*
X0020113Y0007600D02*
Y0007378D01*
X0020224Y0007600D02*
X0020058D01*
X0019891Y0007517D01*
Y0007461D01*
X0020058Y0007378D01*
X0020224D01*
X0020058Y0007135D02*
Y0006968D01*
X0020224Y0007190D02*
Y0006968D01*
X0019891D01*
Y0007190D01*
X0020058Y0006780D02*
Y0006558D01*
X0020224Y0006780D02*
X0019891D01*
X0020224Y0006558D02*
X0019891D01*
X0019224Y0005919D02*
Y0005808D01*
Y0005864D02*
X0018891D01*
X0018947Y0005808D01*
X0019224Y0005919D02*
Y0005808D01*
Y0005864D02*
X0018891D01*
X0018947Y0005808D01*
X0023801Y0007321D02*
Y0007432D01*
Y0007377D02*
X0024134D01*
X0024079Y0007432D01*
X0023801Y0007676D02*
Y0007787D01*
Y0007731D02*
X0024134D01*
X0024079Y0007787D01*
X0023912Y0008224D02*
X0023856D01*
X0023801Y0008197D01*
Y0008085D01*
X0023856Y0008058D01*
X0024134D01*
Y0008030D02*
Y0008141D01*
X0024301Y0004896D02*
Y0005118D01*
X0024523Y0004896D01*
X0024579D01*
X0024634Y0004924D01*
Y0005090D01*
X0024579Y0005118D01*
X0024467Y0005924D02*
X0024301Y0005841D01*
X0024467Y0006063D02*
Y0005897D01*
X0024523Y0005841D01*
X0024579D01*
X0024634Y0005897D01*
Y0006063D01*
X0024301D01*
X0024467Y0006307D02*
Y0006473D01*
X0024301Y0006251D02*
Y0006473D01*
X0024634D01*
Y0006251D01*
X0024301Y0006855D02*
X0024634D01*
X0024301Y0006883D02*
Y0006717D01*
X0024412Y0006661D01*
X0024523D01*
X0024634Y0006717D01*
Y0006883D01*
X0024412Y0007071D02*
Y0007293D01*
X0024301Y0007071D02*
X0024467D01*
X0024634Y0007154D01*
Y0007210D01*
X0024467Y0007293D01*
X0024301D01*
X0024467Y0007537D02*
Y0007703D01*
X0024301Y0007481D02*
Y0007703D01*
X0024634D01*
Y0007481D01*
X0024467Y0007891D02*
Y0008113D01*
X0024301Y0007891D02*
X0024634D01*
X0024301Y0008113D02*
X0024634D01*
X0025301Y0008752D02*
Y0008863D01*
Y0008808D02*
X0025634D01*
X0025579Y0008863D01*
X0025301Y0008752D02*
Y0008863D01*
Y0008808D02*
X0025634D01*
X0025579Y0008863D01*
X0034226Y0027488D02*
X0034392Y0027822D01*
X0034170D01*
X0033982Y0027488D02*
X0033871D01*
X0033927D02*
Y0027822D01*
X0033871Y0027766D01*
X0033433Y0027599D02*
Y0027544D01*
X0033461Y0027488D01*
X0033572D01*
X0033600Y0027544D01*
Y0027822D01*
X0033628D02*
X0033517D01*
X0018108Y0029166D02*
X0018163Y0029110D01*
X0018191Y0029055D01*
Y0028944D01*
X0018163Y0028888D01*
X0018108Y0028833D01*
X0018052D01*
X0017996Y0028888D01*
X0017969Y0028944D01*
Y0029055D01*
X0017996Y0029110D01*
X0018052Y0029166D01*
X0018108D01*
X0018379D02*
X0018490D01*
X0018434D02*
Y0028833D01*
X0018490Y0028888D01*
X0018927Y0029055D02*
Y0029110D01*
X0018900Y0029166D01*
X0018788D01*
X0018761Y0029110D01*
Y0028833D01*
X0018733D02*
X0018844D01*
X0016091Y0030861D02*
X0016036Y0030916D01*
X0015925D01*
X0015869Y0030861D01*
Y0030805D01*
X0015980Y0030694D01*
X0015869Y0030583D01*
X0016091D01*
X0016897Y0030749D02*
X0016814Y0030916D01*
X0017036Y0030749D02*
X0016870D01*
X0016814Y0030694D01*
Y0030638D01*
X0016870Y0030583D01*
X0017036D01*
Y0030916D01*
X0017280Y0030749D02*
X0017446D01*
X0017224Y0030916D02*
X0017446D01*
Y0030583D01*
X0017224D01*
X0017828Y0030916D02*
Y0030583D01*
X0017856Y0030916D02*
X0017690D01*
X0017634Y0030805D01*
Y0030694D01*
X0017690Y0030583D01*
X0017856D01*
X0018044Y0030805D02*
X0018266D01*
X0018044Y0030916D02*
Y0030749D01*
X0018127Y0030583D01*
X0018183D01*
X0018266Y0030749D01*
Y0030916D01*
X0018510Y0030749D02*
X0018676D01*
X0018454Y0030916D02*
X0018676D01*
Y0030583D01*
X0018454D01*
X0018864Y0030749D02*
X0019086D01*
X0018864Y0030916D02*
Y0030583D01*
X0019086Y0030916D02*
Y0030583D01*
X0028078Y0005752D02*
X0027967D01*
X0028022D02*
Y0006085D01*
X0027967Y0006030D01*
X0028078Y0005752D02*
X0027967D01*
X0028022D02*
Y0006085D01*
X0027967Y0006030D01*
X0028133Y0006752D02*
X0027911D01*
X0028133Y0006974D01*
Y0007030D01*
X0028106Y0007085D01*
X0027939D01*
X0027911Y0007030D01*
X0028133Y0006752D02*
X0027911D01*
X0028133Y0006974D01*
Y0007030D01*
X0028106Y0007085D01*
X0027939D01*
X0027911Y0007030D01*
X0032863Y0011754D02*
Y0011977D01*
X0033085Y0011754D01*
X0033140D01*
X0033196Y0011782D01*
Y0011949D01*
X0033140Y0011977D01*
X0032974Y0012359D02*
X0032918D01*
X0032863Y0012331D01*
Y0012220D01*
X0032918Y0012192D01*
X0033196D01*
Y0012164D02*
Y0012275D01*
X0031390Y0011475D02*
X0031446Y0011503D01*
Y0011670D01*
X0031390Y0011698D01*
X0031335D01*
X0031279Y0011670D01*
Y0011503D01*
X0031224Y0011475D01*
X0031168D01*
X0031112Y0011503D01*
Y0011670D01*
X0031168Y0011698D01*
X0031112Y0011885D02*
Y0012108D01*
X0031335Y0011885D01*
X0031390D01*
X0031446Y0011913D01*
Y0012080D01*
X0031390Y0012108D01*
X0031112Y0012490D02*
X0031446D01*
X0031112Y0012518D02*
Y0012351D01*
X0031168Y0012295D01*
X0031224D01*
X0031279Y0012323D01*
Y0012490D02*
Y0012323D01*
X0031335Y0012295D01*
X0031390D01*
X0031446Y0012351D01*
Y0012518D01*
X0029443Y0021604D02*
X0029609D01*
X0029637Y0021548D01*
Y0021493D01*
X0029609Y0021437D01*
X0029443D01*
X0029415Y0021493D01*
Y0021548D01*
X0029526Y0021771D01*
X0029005Y0021493D02*
X0029033Y0021437D01*
X0029199D01*
X0029227Y0021493D01*
Y0021604D01*
X0029172Y0021659D01*
X0029005D01*
Y0021771D01*
X0029227D01*
X0028817Y0021437D02*
X0028595D01*
X0028817Y0021659D01*
Y0021715D01*
X0028789Y0021771D01*
X0028623D01*
X0028595Y0021715D01*
X0028407Y0021548D02*
X0028185D01*
X0028407Y0021437D02*
Y0021604D01*
X0028324Y0021771D01*
X0028268D01*
X0028185Y0021604D01*
Y0021437D01*
X0027886Y0021604D02*
X0027997D01*
Y0021493D01*
X0027969Y0021437D01*
X0027803D01*
X0027775Y0021493D01*
Y0021715D01*
X0027803Y0021771D01*
X0027969D01*
X0027997Y0021715D01*
X0027393Y0021437D02*
Y0021771D01*
X0027365Y0021437D02*
X0027532D01*
X0027587Y0021493D01*
Y0021548D01*
X0027559Y0021604D01*
X0027393D02*
X0027559D01*
X0027587Y0021659D01*
Y0021715D01*
X0027532Y0021771D01*
X0027365D01*
X0027177Y0021604D02*
X0026955D01*
X0026628Y0021437D02*
X0026573Y0021493D01*
X0026545Y0021548D01*
Y0021659D01*
X0026573Y0021715D01*
X0026628Y0021771D01*
X0026684D01*
X0026739Y0021715D01*
X0026767Y0021659D01*
Y0021548D01*
X0026739Y0021493D01*
X0026684Y0021437D01*
X0026628D01*
X0026218D02*
X0026163Y0021493D01*
X0026135Y0021548D01*
Y0021659D01*
X0026163Y0021715D01*
X0026218Y0021771D01*
X0026274D01*
X0026329Y0021715D01*
X0026357Y0021659D01*
Y0021548D01*
X0026329Y0021493D01*
X0026274Y0021437D01*
X0026218D01*
X0025947D02*
X0025725D01*
X0025947Y0021659D01*
Y0021715D01*
X0025919Y0021771D01*
X0025753D01*
X0025725Y0021715D01*
X0025509Y0021604D02*
X0025343D01*
X0025315Y0021659D01*
Y0021715D01*
X0025343Y0021771D01*
X0025509D01*
X0025537Y0021715D01*
Y0021659D01*
X0025426Y0021437D01*
X0025127D02*
Y0021771D01*
X0025072Y0021715D01*
X0025016Y0021604D01*
X0024961Y0021715D01*
X0024905Y0021771D01*
Y0021437D01*
X0024634Y0021604D02*
X0024717Y0021437D01*
X0024495Y0021604D02*
X0024662D01*
X0024717Y0021659D01*
Y0021715D01*
X0024662Y0021771D01*
X0024495D01*
Y0021437D01*
X0024307D02*
X0024196D01*
X0024252D02*
Y0021771D01*
X0024196Y0021715D01*
X0023925Y0021604D02*
X0023758D01*
X0023731Y0021659D01*
Y0021715D01*
X0023758Y0021771D01*
X0023925D01*
X0023953Y0021715D01*
Y0021659D01*
X0023842Y0021437D01*
X0023432D02*
Y0021771D01*
X0023543D02*
X0023321D01*
X0023133Y0021548D02*
X0022911D01*
X0023133Y0021437D02*
Y0021604D01*
X0023050Y0021771D01*
X0022994D01*
X0022911Y0021604D01*
Y0021437D01*
X0037890Y0020966D02*
X0037667D01*
X0037890Y0021188D01*
Y0021244D01*
X0037862Y0021299D01*
X0037695D01*
X0037667Y0021244D01*
X0037480Y0021299D02*
Y0021021D01*
X0037452Y0020966D01*
X0037285D01*
X0037257Y0021021D01*
Y0021299D01*
X0039706Y0021721D02*
X0039484D01*
X0039706Y0021610D02*
Y0021777D01*
X0039623Y0021943D01*
X0039567D01*
X0039484Y0021777D01*
Y0021610D01*
X0039296D02*
X0039074D01*
X0039296Y0021832D01*
Y0021888D01*
X0039268Y0021943D01*
X0039102D01*
X0039074Y0021888D01*
X0038720Y0021610D02*
X0038886Y0021943D01*
X0038664D01*
X0038448Y0021777D02*
X0038282D01*
X0038254Y0021832D01*
Y0021888D01*
X0038282Y0021943D01*
X0038448D01*
X0038476Y0021888D01*
Y0021832D01*
X0038365Y0021610D01*
X0037955D02*
Y0021943D01*
X0038066D02*
X0037844D01*
X0037656Y0021610D02*
X0037490Y0021943D01*
X0037656D02*
X0037490Y0021610D01*
X0037274D02*
X0037080D01*
Y0021943D01*
X0031534Y0028395D02*
X0031367D01*
X0031339Y0028450D01*
Y0028506D01*
X0031367Y0028562D01*
X0031534D01*
X0031562Y0028506D01*
Y0028450D01*
X0031450Y0028228D01*
X0031944Y0028450D02*
Y0028506D01*
X0031916Y0028562D01*
X0031805D01*
X0031777Y0028506D01*
Y0028228D01*
X0031749D02*
X0031860D01*
X0024075Y0020793D02*
X0023964D01*
X0024020D02*
Y0021127D01*
X0023964Y0021071D01*
X0023721Y0021127D02*
Y0020793D01*
X0023665Y0020849D01*
X0023554Y0021071D01*
X0023498Y0021127D01*
Y0020793D01*
X0023311D02*
Y0021127D01*
X0023255Y0021071D01*
X0023200Y0020960D01*
X0023144Y0021071D01*
X0023088Y0021127D01*
Y0020793D01*
X0029080Y0030095D02*
X0028913D01*
X0028885Y0030151D01*
Y0030206D01*
X0028913Y0030262D01*
X0029080D01*
X0029108Y0030206D01*
Y0030151D01*
X0028996Y0029928D01*
X0029914Y0030095D02*
X0029830Y0030262D01*
X0030053Y0030095D02*
X0029886D01*
X0029830Y0030040D01*
Y0029984D01*
X0029886Y0029928D01*
X0030053D01*
Y0030262D01*
X0030296Y0030095D02*
X0030463D01*
X0030240Y0030262D02*
X0030463D01*
Y0029928D01*
X0030240D01*
X0030845Y0030262D02*
Y0029928D01*
X0030873Y0030262D02*
X0030706D01*
X0030650Y0030151D01*
Y0030040D01*
X0030706Y0029928D01*
X0030873D01*
X0031060Y0030151D02*
X0031283D01*
X0031060Y0030262D02*
Y0030095D01*
X0031144Y0029928D01*
X0031199D01*
X0031283Y0030095D01*
Y0030262D01*
X0031526Y0030095D02*
X0031693D01*
X0031470Y0030262D02*
X0031693D01*
Y0029928D01*
X0031470D01*
X0031880Y0030095D02*
X0032103D01*
X0031880Y0030262D02*
Y0029928D01*
X0032103Y0030262D02*
Y0029928D01*
X0036468Y0007090D02*
X0036579D01*
X0036524D02*
Y0006757D01*
X0036579Y0006812D01*
X0036412Y0006090D02*
X0036635D01*
X0036412Y0005868D01*
Y0005812D01*
X0036440Y0005757D01*
X0036607D01*
X0036635Y0005812D01*
X0036412Y0006090D02*
X0036635D01*
X0036412Y0005868D01*
Y0005812D01*
X0036440Y0005757D01*
X0036607D01*
X0036635Y0005812D01*
X0036468Y0007090D02*
X0036579D01*
X0036524D02*
Y0006757D01*
X0036579Y0006812D01*
X0032804Y0017782D02*
X0031804D01*
Y0019782D01*
X0032804D01*
Y0017782D01*
X0018557Y0008364D02*
X0019557D01*
Y0006364D01*
X0018557D01*
Y0008364D01*
X0025968Y0006308D02*
X0024968D01*
Y0008308D01*
X0025968D01*
Y0006308D01*
X0032520Y0026306D02*
X0035520D01*
Y0027306D01*
X0032520D01*
Y0026306D01*
X0032470Y0026256D01*
X0019341Y0030374D02*
X0017341D01*
Y0029374D01*
X0019341D01*
Y0030374D01*
X0019391Y0030424D01*
X0017059Y0029802D02*
X0016659Y0029402D01*
X0017059Y0029002D01*
Y0029802D01*
X0016509D02*
X0016409Y0029902D01*
X0015609D01*
X0015509Y0029802D01*
X0015409Y0029902D01*
X0014609D01*
X0014509Y0029802D01*
Y0029002D01*
X0014609Y0028902D01*
X0014509Y0028802D01*
Y0028002D01*
X0014609Y0027902D01*
X0014509Y0027802D01*
Y0027002D01*
X0014609Y0026902D01*
X0014509Y0026802D01*
Y0026002D01*
X0014609Y0025902D01*
X0014509Y0025802D01*
Y0025002D01*
X0014609Y0024902D01*
X0014509Y0024802D01*
Y0024002D01*
X0014609Y0023902D01*
X0014509Y0023802D01*
Y0023002D01*
X0014609Y0022902D01*
X0014509Y0022802D01*
Y0022002D01*
X0014609Y0021902D01*
X0014509Y0021802D01*
Y0021002D01*
X0014609Y0020902D01*
X0014509Y0020802D01*
Y0020002D01*
X0014609Y0019902D01*
X0014509Y0019802D01*
Y0019002D01*
X0014609Y0018902D01*
X0014509Y0018802D01*
Y0018002D01*
X0014609Y0017902D01*
X0014509Y0017802D01*
Y0017002D01*
X0014609Y0016902D01*
X0014509Y0016802D01*
Y0016002D01*
X0014609Y0015902D01*
X0014509Y0015802D01*
Y0015002D01*
X0014609Y0014902D01*
X0014509Y0014802D01*
Y0014002D01*
X0014609Y0013902D01*
X0014509Y0013802D01*
Y0013002D01*
X0014609Y0012902D01*
X0014509Y0012802D01*
Y0012002D01*
X0014609Y0011902D01*
X0014509Y0011802D01*
Y0011002D01*
X0014609Y0010902D01*
X0014509Y0010802D01*
Y0010002D01*
X0014609Y0009902D01*
X0015409D01*
X0015509Y0010002D01*
X0015609Y0009902D01*
X0016409D01*
X0016509Y0010002D01*
Y0010802D01*
X0016409Y0010902D01*
X0016509Y0011002D01*
Y0011802D01*
X0016409Y0011902D01*
X0016509Y0012002D01*
Y0012802D01*
X0016409Y0012902D01*
X0016509Y0013002D01*
Y0013802D01*
X0016409Y0013902D01*
X0016509Y0014002D01*
Y0014802D01*
X0016409Y0014902D01*
X0016509Y0015002D01*
Y0015802D01*
X0016409Y0015902D01*
X0016509Y0016002D01*
Y0016802D01*
X0016409Y0016902D01*
X0016509Y0017002D01*
Y0017802D01*
X0016409Y0017902D01*
X0016509Y0018002D01*
Y0018802D01*
X0016409Y0018902D01*
X0016509Y0019002D01*
Y0019802D01*
X0016409Y0019902D01*
X0016509Y0020002D01*
Y0020802D01*
X0016409Y0020902D01*
X0016509Y0021002D01*
Y0021802D01*
X0016409Y0021902D01*
X0016509Y0022002D01*
Y0022802D01*
X0016409Y0022902D01*
X0016509Y0023002D01*
Y0023802D01*
X0016409Y0023902D01*
X0016509Y0024002D01*
Y0024802D01*
X0016409Y0024902D01*
X0016509Y0025002D01*
Y0025802D01*
X0016409Y0025902D01*
X0016509Y0026002D01*
Y0026802D01*
X0016409Y0026902D01*
X0016509Y0027002D01*
Y0027802D01*
X0016409Y0027902D01*
X0016509Y0028002D01*
Y0028802D01*
X0016409Y0028902D01*
X0016509Y0029002D01*
Y0029802D01*
X0034307Y0029744D02*
X0028307D01*
Y0028744D01*
X0034307D01*
Y0029744D01*
X0034357Y0029794D01*
X0047214Y0026529D02*
X0048104D01*
Y0032769D01*
X0047214D01*
Y0033139D01*
X0047704D01*
Y0032769D01*
X0040824D01*
X0039064Y0032749D01*
Y0026539D01*
X0047714D01*
Y0026149D01*
X0047214D01*
Y0026529D01*
X0031655Y0012772D02*
Y0010772D01*
X0032655D01*
Y0012772D01*
X0031655D01*
X0031605Y0012822D01*
X0033934Y0010731D02*
X0033734Y0010931D01*
X0034134D01*
X0033934Y0010731D01*
X0016409Y0028902D02*
X0014609D01*
X0014509Y0028802D01*
Y0028002D01*
X0014609Y0027902D01*
X0016409D01*
X0016509Y0027802D01*
Y0027002D01*
X0016409Y0026902D01*
X0014609D01*
X0014509Y0026802D01*
Y0026002D01*
X0014609Y0025902D01*
X0016409D01*
X0016509Y0025802D01*
Y0025002D01*
X0016409Y0024902D01*
X0014609D01*
X0014509Y0024802D01*
Y0024002D01*
X0014609Y0023902D01*
X0016409D01*
X0016509Y0023802D01*
Y0023002D01*
X0016409Y0022902D01*
X0014609D01*
X0014509Y0022802D01*
Y0022002D01*
X0014609Y0021902D01*
X0016409D01*
X0016509Y0021802D01*
Y0021002D01*
X0016409Y0020902D01*
X0014609D01*
X0014509Y0020802D01*
Y0020002D01*
X0014609Y0019902D01*
X0016409D01*
X0016509Y0019802D01*
Y0019002D01*
X0016409Y0018902D01*
X0014609D01*
X0014509Y0018802D01*
Y0018002D01*
X0014609Y0017902D01*
X0016409D01*
X0016509Y0017802D01*
Y0017002D01*
X0016409Y0016902D01*
X0014609D01*
X0014509Y0016802D01*
Y0016002D01*
X0014609Y0015902D01*
X0016409D01*
X0016509Y0015802D01*
Y0015002D01*
X0016409Y0014902D01*
X0014609D01*
X0014509Y0014802D01*
Y0014002D01*
X0014609Y0013902D01*
X0016409D01*
X0016509Y0013802D01*
Y0013002D01*
X0016409Y0012902D01*
X0014609D01*
X0014509Y0012802D01*
Y0012002D01*
X0014609Y0011902D01*
X0016409D01*
X0016509Y0011802D01*
Y0011002D01*
X0016409Y0010902D01*
X0014609D01*
X0022993Y0010411D02*
Y0013021D01*
X0024993D02*
Y0010411D01*
X0034754Y0013283D02*
Y0015893D01*
X0036754D02*
Y0013283D01*
G01X0023993Y0013906D02*
G03X0022993Y0013021I0000000J0001008D01*
G01X0024993D02*
G03X0023993Y0013906I0001000J0000123D01*
Y0009529D02*
G03X0024993Y0010411I0000000J0001008D01*
G01X0022993D02*
G03X0023993Y0009529I0001000J0000126D01*
G01X0035754Y0016777D02*
G03X0034754Y0015893I0000000J0001008D01*
G01X0036754D02*
G03X0035754Y0016777I0001000J0000124D01*
Y0012400D02*
G03X0036754Y0013283I0000000J0001008D01*
G01X0034754D02*
G03X0035754Y0012400I0001000J0000125D01*
G54D62*
G01X0025837Y0013709D02*
X0025504D01*
X0025837Y0014043D01*
Y0014126D01*
X0025795Y0014209D01*
X0025545D01*
X0025504Y0014126D01*
X0025095Y0013709D02*
Y0013959D01*
X0025262Y0014209D02*
X0025137Y0013959D01*
X0025054D01*
X0024929Y0014209D01*
X0032229Y0029013D02*
X0032187Y0029097D01*
X0031937D01*
X0031896Y0029013D01*
Y0028847D01*
X0031979Y0028763D01*
X0032229D01*
Y0028597D01*
X0031896D01*
X0032762Y0028930D02*
Y0029013D01*
X0032721Y0029097D01*
X0032554D01*
X0032512Y0029013D01*
Y0028597D01*
X0032471D02*
X0032637D01*
X0020255Y0033640D02*
X0020338Y0033598D01*
X0020422D01*
X0020505Y0033640D01*
Y0033890D01*
X0020422Y0033931D01*
X0020338D01*
X0020255Y0033890D01*
Y0033640D01*
X0020172Y0033598D01*
X0020088D01*
X0020005Y0033640D01*
Y0033890D01*
X0020088Y0033931D01*
X0020172D01*
X0020255Y0033890D01*
X0020172Y0034465D02*
X0020088D01*
X0020005Y0034423D01*
Y0034256D01*
X0020088Y0034215D01*
X0020505D01*
Y0034173D02*
Y0034340D01*
X0027876Y0025973D02*
X0027848Y0026028D01*
X0027681D01*
X0027654Y0025973D01*
Y0025861D01*
X0027709Y0025806D01*
X0027876D01*
Y0025695D01*
X0027654D01*
X0028243Y0026028D02*
X0028298Y0025973D01*
X0028326Y0025917D01*
Y0025806D01*
X0028298Y0025750D01*
X0028243Y0025695D01*
X0028187D01*
X0028131Y0025750D01*
X0028104Y0025806D01*
Y0025917D01*
X0028131Y0025973D01*
X0028187Y0026028D01*
X0028243D01*
X0028554D02*
X0028665D01*
X0028609D02*
Y0025695D01*
X0028665Y0025750D01*
X0018664Y0024850D02*
X0018997Y0024683D01*
Y0024905D01*
X0018719Y0025355D02*
X0018664Y0025327D01*
Y0025161D01*
X0018719Y0025133D01*
X0018830D01*
X0018886Y0025189D01*
Y0025355D01*
X0018997D01*
Y0025133D01*
X0018664Y0025583D02*
Y0025694D01*
Y0025638D02*
X0018997D01*
X0018942Y0025694D01*
X0036693Y0033362D02*
X0036610Y0033279D01*
X0036527Y0033237D01*
X0036360D01*
X0036277Y0033279D01*
X0036193Y0033362D01*
Y0033446D01*
X0036277Y0033529D01*
X0036360Y0033571D01*
X0036527D01*
X0036610Y0033529D01*
X0036693Y0033446D01*
Y0033362D01*
Y0032787D02*
X0036610Y0032704D01*
X0036527Y0032662D01*
X0036360D01*
X0036277Y0032704D01*
X0036193Y0032787D01*
Y0032871D01*
X0036277Y0032954D01*
X0036360Y0032996D01*
X0036527D01*
X0036610Y0032954D01*
X0036693Y0032871D01*
Y0032787D01*
Y0032421D02*
Y0032254D01*
Y0032337D02*
X0036193D01*
X0036277Y0032254D01*
X0036193Y0031929D02*
X0036610D01*
X0036693Y0031887D01*
Y0031637D01*
X0036610Y0031596D01*
X0036193D01*
X0018762Y0015943D02*
X0018651D01*
X0018706D02*
Y0016277D01*
X0018651Y0016221D01*
X0036431Y0019491D02*
X0036320D01*
X0036375D02*
Y0019824D01*
X0036320Y0019769D01*
X0039543Y0020108D02*
X0039209Y0020275D01*
Y0020052D01*
X0039543Y0019825D02*
Y0019714D01*
Y0019769D02*
X0039209D01*
X0039265Y0019714D01*
X0038801Y0022770D02*
X0038745Y0022826D01*
X0038634D01*
X0038578Y0022770D01*
Y0022715D01*
X0038689Y0022604D01*
X0038578Y0022492D01*
X0038801D01*
X0039251Y0022770D02*
X0039195Y0022826D01*
X0039084D01*
X0039028Y0022770D01*
Y0022715D01*
X0039139Y0022604D01*
X0039028Y0022492D01*
X0039251D01*
X0036374Y0021889D02*
Y0022056D01*
X0036430Y0022084D01*
X0036486D01*
X0036541Y0022056D01*
Y0021889D01*
X0036486Y0021861D01*
X0036430D01*
X0036208Y0021972D01*
X0036319Y0022311D02*
Y0022534D01*
X0036541Y0022422D01*
Y0022367D01*
X0036208D01*
X0028693Y0016435D02*
X0028749Y0016491D01*
Y0016602D01*
X0028693Y0016658D01*
X0028638D01*
X0028527Y0016547D01*
X0028415Y0016658D01*
Y0016435D01*
X0028693Y0015985D02*
X0028749Y0016013D01*
Y0016180D01*
X0028693Y0016208D01*
X0028582D01*
X0028527Y0016152D01*
Y0015985D01*
X0028415D01*
Y0016208D01*
X0018456Y0026486D02*
X0018206D01*
Y0026236D01*
X0029206D02*
Y0026486D01*
X0028956D01*
Y0015486D02*
X0029206D01*
Y0015736D01*
X0018206D02*
X0018456Y0015486D01*
Y0014924D01*
X0036125Y0023158D02*
X0035875D01*
Y0022908D01*
X0039875D02*
Y0023158D01*
X0039625D01*
Y0019158D02*
X0039875D01*
Y0019408D01*
X0035875D02*
X0036125Y0019158D01*
X0036188D01*
Y0018533D01*
G54D63*
G01X0021473Y0007858D02*
X0020923D01*
Y0006618D01*
X0021473D01*
Y0005918D01*
X0021573Y0006018D01*
X0022873D01*
X0022963Y0005928D01*
Y0006168D01*
X0023523D01*
Y0006468D01*
X0022963D01*
Y0007068D01*
X0023523D01*
Y0007368D01*
X0022963D01*
Y0007968D01*
X0023523D01*
Y0008268D01*
X0022963D01*
Y0008508D01*
X0022873Y0008418D01*
X0021573D01*
X0021473Y0008518D01*
Y0005918D01*
X0021573Y0006018D01*
Y0008418D01*
X0022883D01*
Y0006018D01*
X0022004Y0028984D02*
X0021649D01*
X0022015Y0028957D02*
X0021649D01*
X0022025Y0028930D02*
X0021649D01*
X0022034Y0028903D02*
X0021649D01*
X0022042Y0028876D02*
X0021649D01*
X0022049Y0028849D02*
X0021649D01*
X0022054Y0028822D02*
X0021649D01*
X0022059Y0028795D02*
X0021649D01*
X0022063Y0028768D02*
X0021649D01*
X0022066Y0028741D02*
X0021649D01*
X0022068Y0028714D02*
X0021649D01*
X0022069Y0028687D02*
X0021649D01*
X0022069Y0028660D02*
X0021649D01*
X0022068Y0028633D02*
X0021649D01*
X0022066Y0028606D02*
X0021649D01*
X0022063Y0028579D02*
X0021649D01*
X0022059Y0028552D02*
X0021649D01*
X0022054Y0028525D02*
X0021649D01*
X0022049Y0028498D02*
X0021649D01*
X0022042Y0028471D02*
X0021649D01*
X0022034Y0028444D02*
X0021649D01*
X0022025Y0028417D02*
X0021649D01*
X0022015Y0028390D02*
X0021649D01*
X0022004Y0028363D02*
X0021649D01*
X0021991Y0028336D02*
X0021649D01*
X0021977Y0028309D02*
X0021649D01*
X0021962Y0028282D02*
X0021649D01*
X0021946Y0028255D02*
X0021649D01*
X0021927Y0028228D02*
X0021649D01*
X0021907Y0028201D02*
X0021649D01*
X0021886Y0028174D02*
X0021649D01*
X0021862Y0028147D02*
X0021649D01*
X0021835Y0028120D02*
X0021649D01*
X0021806Y0028093D02*
X0021649D01*
X0021774Y0028066D02*
X0021649D01*
X0021738Y0028039D02*
X0021649D01*
X0021696Y0028012D02*
X0021649D01*
X0021674Y0027999D02*
X0021649D01*
Y0029349D02*
Y0027999D01*
X0021674Y0029349D02*
X0021649D01*
X0022067Y0028729D02*
Y0028619D01*
X0022040Y0028884D02*
Y0028464D01*
X0022013Y0028963D02*
Y0028385D01*
X0021986Y0029022D02*
Y0028325D01*
X0021959Y0029072D02*
Y0028276D01*
X0021932Y0029113D02*
Y0028234D01*
X0021905Y0029150D02*
Y0028197D01*
X0021878Y0029183D02*
Y0028165D01*
X0021851Y0029212D02*
Y0028135D01*
X0021824Y0029239D02*
Y0028109D01*
X0021797Y0029263D02*
Y0028085D01*
X0021770Y0029285D02*
Y0028063D01*
X0021743Y0029305D02*
Y0028043D01*
X0021716Y0029323D02*
Y0028024D01*
X0021689Y0029340D02*
Y0028008D01*
X0021662Y0029349D02*
Y0027999D01*
X0021698Y0029335D02*
X0021649D01*
X0021739Y0029308D02*
X0021649D01*
X0021775Y0029281D02*
X0021649D01*
X0021807Y0029254D02*
X0021649D01*
X0021836Y0029227D02*
X0021649D01*
X0021863Y0029200D02*
X0021649D01*
X0021887Y0029173D02*
X0021649D01*
X0021908Y0029146D02*
X0021649D01*
X0021928Y0029119D02*
X0021649D01*
X0021946Y0029092D02*
X0021649D01*
X0021963Y0029065D02*
X0021649D01*
X0021978Y0029038D02*
X0021649D01*
X0021992Y0029011D02*
X0021649D01*
X0026259Y0033606D02*
X0025904D01*
X0026259Y0033579D02*
X0025892D01*
X0026259Y0033552D02*
X0025882D01*
X0026259Y0033525D02*
X0025873D01*
X0026259Y0033498D02*
X0025866D01*
X0026259Y0033471D02*
X0025859D01*
X0026259Y0033444D02*
X0025853D01*
X0026259Y0033417D02*
X0025848D01*
X0026259Y0033390D02*
X0025844D01*
X0026259Y0033363D02*
X0025842D01*
X0026259Y0033336D02*
X0025840D01*
X0026259Y0033309D02*
X0025839D01*
X0026259Y0033282D02*
X0025839D01*
X0026259Y0033255D02*
X0025840D01*
X0026259Y0033228D02*
X0025842D01*
X0026259Y0033201D02*
X0025845D01*
X0026259Y0033174D02*
X0025848D01*
X0026259Y0033147D02*
X0025853D01*
X0026259Y0033120D02*
X0025859D01*
X0026259Y0033093D02*
X0025866D01*
X0026259Y0033066D02*
X0025874D01*
X0026259Y0033039D02*
X0025883D01*
X0026259Y0033012D02*
X0025893D01*
X0026259Y0032985D02*
X0025904D01*
X0026259Y0032958D02*
X0025916D01*
X0026259Y0032931D02*
X0025930D01*
X0026259Y0032904D02*
X0025945D01*
X0026259Y0032877D02*
X0025962D01*
X0026259Y0032850D02*
X0025980D01*
X0026259Y0032823D02*
X0026000D01*
X0026259Y0032796D02*
X0026022D01*
X0026259Y0032769D02*
X0026046D01*
X0026259Y0032742D02*
X0026072D01*
X0026259Y0032715D02*
X0026101D01*
X0026259Y0032688D02*
X0026134D01*
X0026259Y0032661D02*
X0026170D01*
X0026259Y0032634D02*
X0026212D01*
X0026259Y0033971D02*
X0026234D01*
X0026259D02*
Y0032621D01*
X0026234D01*
X0026230Y0033971D02*
Y0032621D01*
X0026203Y0033952D02*
Y0032639D01*
X0026176Y0033934D02*
Y0032657D01*
X0026149Y0033915D02*
Y0032676D01*
X0026122Y0033894D02*
Y0032697D01*
X0026095Y0033871D02*
Y0032720D01*
X0026068Y0033845D02*
Y0032746D01*
X0026041Y0033817D02*
Y0032774D01*
X0026014Y0033786D02*
Y0032805D01*
X0025987Y0033751D02*
Y0032840D01*
X0025960Y0033711D02*
Y0032880D01*
X0025933Y0033665D02*
Y0032926D01*
X0025906Y0033611D02*
Y0032980D01*
X0025879Y0033541D02*
Y0033050D01*
X0025852Y0033437D02*
Y0033154D01*
X0026259Y0033957D02*
X0026210D01*
X0026259Y0033930D02*
X0026169D01*
X0026259Y0033903D02*
X0026132D01*
X0026259Y0033876D02*
X0026100D01*
X0026259Y0033849D02*
X0026071D01*
X0026259Y0033822D02*
X0026045D01*
X0026259Y0033795D02*
X0026021D01*
X0026259Y0033768D02*
X0025999D01*
X0026259Y0033741D02*
X0025979D01*
X0026259Y0033714D02*
X0025961D01*
X0026259Y0033687D02*
X0025945D01*
X0026259Y0033660D02*
X0025930D01*
X0026259Y0033633D02*
X0025916D01*
X0019251Y0012503D02*
X0018896D01*
X0019262Y0012476D02*
X0018896D01*
X0019272Y0012449D02*
X0018896D01*
X0019281Y0012422D02*
X0018896D01*
X0019289Y0012395D02*
X0018896D01*
X0019295Y0012368D02*
X0018896D01*
X0019301Y0012341D02*
X0018896D01*
X0019306Y0012314D02*
X0018896D01*
X0019310Y0012287D02*
X0018896D01*
X0019313Y0012260D02*
X0018896D01*
X0019314Y0012233D02*
X0018896D01*
X0019315Y0012206D02*
X0018896D01*
X0019315Y0012179D02*
X0018896D01*
X0019314Y0012152D02*
X0018896D01*
X0019312Y0012125D02*
X0018896D01*
X0019310Y0012098D02*
X0018896D01*
X0019306Y0012071D02*
X0018896D01*
X0019301Y0012044D02*
X0018896D01*
X0019295Y0012017D02*
X0018896D01*
X0019288Y0011990D02*
X0018896D01*
X0019280Y0011963D02*
X0018896D01*
X0019272Y0011936D02*
X0018896D01*
X0019261Y0011909D02*
X0018896D01*
X0019250Y0011882D02*
X0018896D01*
X0019238Y0011855D02*
X0018896D01*
X0019224Y0011828D02*
X0018896D01*
X0019209Y0011801D02*
X0018896D01*
X0019192Y0011774D02*
X0018896D01*
X0019174Y0011747D02*
X0018896D01*
X0019154Y0011720D02*
X0018896D01*
X0019132Y0011693D02*
X0018896D01*
X0019108Y0011666D02*
X0018896D01*
X0019082Y0011639D02*
X0018896D01*
X0019053Y0011612D02*
X0018896D01*
X0019021Y0011585D02*
X0018896D01*
X0018984Y0011558D02*
X0018896D01*
X0018943Y0011531D02*
X0018896D01*
X0018921Y0011518D02*
X0018896D01*
Y0012868D02*
Y0011518D01*
X0018921Y0012868D02*
X0018896D01*
X0019314Y0012248D02*
Y0012138D01*
X0019287Y0012403D02*
Y0011983D01*
X0019260Y0012482D02*
Y0011904D01*
X0019233Y0012542D02*
Y0011845D01*
X0019206Y0012591D02*
Y0011795D01*
X0019179Y0012633D02*
Y0011754D01*
X0019152Y0012670D02*
Y0011717D01*
X0019125Y0012702D02*
Y0011684D01*
X0019098Y0012732D02*
Y0011655D01*
X0019071Y0012758D02*
Y0011628D01*
X0019044Y0012782D02*
Y0011604D01*
X0019017Y0012804D02*
Y0011582D01*
X0018990Y0012824D02*
Y0011562D01*
X0018963Y0012843D02*
Y0011544D01*
X0018936Y0012859D02*
Y0011527D01*
X0018909Y0012868D02*
Y0011518D01*
X0018944Y0012854D02*
X0018896D01*
X0018986Y0012827D02*
X0018896D01*
X0019022Y0012800D02*
X0018896D01*
X0019054Y0012773D02*
X0018896D01*
X0019083Y0012746D02*
X0018896D01*
X0019109Y0012719D02*
X0018896D01*
X0019133Y0012692D02*
X0018896D01*
X0019155Y0012665D02*
X0018896D01*
X0019175Y0012638D02*
X0018896D01*
X0019193Y0012611D02*
X0018896D01*
X0019209Y0012584D02*
X0018896D01*
X0019225Y0012557D02*
X0018896D01*
X0019238Y0012530D02*
X0018896D01*
X0019297Y0010006D02*
X0018942D01*
X0019297Y0009979D02*
X0018930D01*
X0019297Y0009952D02*
X0018920D01*
X0019297Y0009925D02*
X0018911D01*
X0019297Y0009898D02*
X0018904D01*
X0019297Y0009871D02*
X0018897D01*
X0019297Y0009844D02*
X0018891D01*
X0019297Y0009817D02*
X0018886D01*
X0019297Y0009790D02*
X0018882D01*
X0019297Y0009763D02*
X0018880D01*
X0019297Y0009736D02*
X0018878D01*
X0019297Y0009709D02*
X0018877D01*
X0019297Y0009682D02*
X0018877D01*
X0019297Y0009655D02*
X0018878D01*
X0019297Y0009628D02*
X0018880D01*
X0019297Y0009601D02*
X0018883D01*
X0019297Y0009574D02*
X0018886D01*
X0019297Y0009547D02*
X0018891D01*
X0019297Y0009520D02*
X0018897D01*
X0019297Y0009493D02*
X0018904D01*
X0019297Y0009466D02*
X0018912D01*
X0019297Y0009439D02*
X0018921D01*
X0019297Y0009412D02*
X0018931D01*
X0019297Y0009385D02*
X0018942D01*
X0019297Y0009358D02*
X0018954D01*
X0019297Y0009331D02*
X0018968D01*
X0019297Y0009304D02*
X0018983D01*
X0019297Y0009277D02*
X0019000D01*
X0019297Y0009250D02*
X0019018D01*
X0019297Y0009223D02*
X0019038D01*
X0019297Y0009196D02*
X0019060D01*
X0019297Y0009169D02*
X0019084D01*
X0019297Y0009142D02*
X0019110D01*
X0019297Y0009115D02*
X0019139D01*
X0019297Y0009088D02*
X0019172D01*
X0019297Y0009061D02*
X0019208D01*
X0019297Y0009034D02*
X0019250D01*
X0019297Y0010371D02*
X0019272D01*
X0019297D02*
Y0009021D01*
X0019272D01*
X0019268Y0010371D02*
Y0009021D01*
X0019241Y0010352D02*
Y0009039D01*
X0019214Y0010334D02*
Y0009057D01*
X0019187Y0010315D02*
Y0009076D01*
X0019160Y0010294D02*
Y0009097D01*
X0019133Y0010271D02*
Y0009120D01*
X0019106Y0010245D02*
Y0009146D01*
X0019079Y0010217D02*
Y0009174D01*
X0019052Y0010186D02*
Y0009205D01*
X0019025Y0010151D02*
Y0009240D01*
X0018998Y0010111D02*
Y0009280D01*
X0018971Y0010065D02*
Y0009326D01*
X0018944Y0010011D02*
Y0009380D01*
X0018917Y0009941D02*
Y0009450D01*
X0018890Y0009837D02*
Y0009554D01*
X0019297Y0010357D02*
X0019248D01*
X0019297Y0010330D02*
X0019207D01*
X0019297Y0010303D02*
X0019170D01*
X0019297Y0010276D02*
X0019138D01*
X0019297Y0010249D02*
X0019109D01*
X0019297Y0010222D02*
X0019083D01*
X0019297Y0010195D02*
X0019059D01*
X0019297Y0010168D02*
X0019037D01*
X0019297Y0010141D02*
X0019017D01*
X0019297Y0010114D02*
X0018999D01*
X0019297Y0010087D02*
X0018983D01*
X0019297Y0010060D02*
X0018968D01*
X0019297Y0010033D02*
X0018954D01*
X0022149Y0033645D02*
X0021793D01*
X0022149Y0033618D02*
X0021782D01*
X0022149Y0033591D02*
X0021772D01*
X0022149Y0033564D02*
X0021763D01*
X0022149Y0033537D02*
X0021755D01*
X0022149Y0033510D02*
X0021748D01*
X0022149Y0033483D02*
X0021743D01*
X0022149Y0033456D02*
X0021738D01*
X0022149Y0033429D02*
X0021734D01*
X0022149Y0033402D02*
X0021731D01*
X0022149Y0033375D02*
X0021729D01*
X0022149Y0033348D02*
X0021729D01*
X0022149Y0033321D02*
X0021729D01*
X0022149Y0033294D02*
X0021729D01*
X0022149Y0033267D02*
X0021731D01*
X0022149Y0033240D02*
X0021734D01*
X0022149Y0033213D02*
X0021738D01*
X0022149Y0033186D02*
X0021743D01*
X0022149Y0033159D02*
X0021749D01*
X0022149Y0033132D02*
X0021755D01*
X0022149Y0033105D02*
X0021763D01*
X0022149Y0033078D02*
X0021772D01*
X0022149Y0033051D02*
X0021782D01*
X0022149Y0033024D02*
X0021794D01*
X0022149Y0032997D02*
X0021806D01*
X0022149Y0032970D02*
X0021820D01*
X0022149Y0032943D02*
X0021835D01*
X0022149Y0032916D02*
X0021852D01*
X0022149Y0032889D02*
X0021870D01*
X0022149Y0032862D02*
X0021890D01*
X0022149Y0032835D02*
X0021912D01*
X0022149Y0032808D02*
X0021935D01*
X0022149Y0032781D02*
X0021962D01*
X0022149Y0032754D02*
X0021991D01*
X0022149Y0032727D02*
X0022023D01*
X0022149Y0032700D02*
X0022060D01*
X0022149Y0032673D02*
X0022101D01*
X0022149Y0034010D02*
X0022124D01*
X0022149D02*
Y0032660D01*
X0022124D01*
X0022119Y0034010D02*
Y0032660D01*
X0022092Y0033991D02*
Y0032678D01*
X0022065Y0033974D02*
Y0032696D01*
X0022038Y0033954D02*
Y0032715D01*
X0022011Y0033933D02*
Y0032736D01*
X0021984Y0033910D02*
Y0032760D01*
X0021957Y0033884D02*
Y0032785D01*
X0021930Y0033856D02*
Y0032813D01*
X0021903Y0033825D02*
Y0032845D01*
X0021876Y0033790D02*
Y0032880D01*
X0021849Y0033750D02*
Y0032919D01*
X0021822Y0033705D02*
Y0032965D01*
X0021795Y0033650D02*
Y0033020D01*
X0021768Y0033580D02*
Y0033089D01*
X0021741Y0033476D02*
Y0033194D01*
X0022149Y0033996D02*
X0022100D01*
X0022149Y0033969D02*
X0022058D01*
X0022149Y0033942D02*
X0022022D01*
X0022149Y0033915D02*
X0021990D01*
X0022149Y0033888D02*
X0021961D01*
X0022149Y0033861D02*
X0021935D01*
X0022149Y0033834D02*
X0021911D01*
X0022149Y0033807D02*
X0021889D01*
X0022149Y0033780D02*
X0021869D01*
X0022149Y0033753D02*
X0021851D01*
X0022149Y0033726D02*
X0021834D01*
X0022149Y0033699D02*
X0021819D01*
X0022149Y0033672D02*
X0021806D01*
X0045175Y0033727D02*
Y0033927D01*
X0045225Y0033977D01*
X0046225D01*
X0046275Y0033927D01*
Y0033727D01*
X0046225Y0033677D01*
X0045225D01*
X0045175Y0033727D01*
X0014967Y0030698D02*
Y0030898D01*
X0015017Y0030948D01*
X0016017D01*
X0016067Y0030898D01*
Y0030698D01*
X0016017Y0030648D01*
X0015017D01*
X0014967Y0030698D01*
X0044914Y0032779D02*
X0039014D01*
Y0026499D01*
X0040814Y0026539D01*
X0044914D01*
Y0027749D01*
X0042764D01*
Y0028049D01*
X0044914D01*
Y0028249D01*
X0042764D01*
Y0028549D01*
X0044914D01*
Y0028749D01*
X0042764D01*
Y0029049D01*
X0044914D01*
Y0029249D01*
X0042764D01*
Y0029549D01*
X0044914D01*
Y0029749D01*
X0042764D01*
Y0030049D01*
X0044914D01*
Y0030249D01*
X0042764D01*
Y0030549D01*
X0044914D01*
Y0030749D01*
X0042764D01*
Y0031049D01*
X0044914D01*
Y0031249D01*
X0042764D01*
Y0031549D01*
X0044914D01*
Y0032779D01*
X0046114Y0027999D02*
X0042814D01*
Y0027799D01*
X0046114D01*
Y0027999D01*
Y0031499D02*
X0042814D01*
Y0031299D01*
X0046114D01*
Y0031499D01*
X0048084Y0032779D02*
X0040804D01*
X0039014Y0032799D01*
Y0026529D01*
X0048084D01*
Y0032779D01*
X0046114Y0028499D02*
X0042814D01*
Y0028299D01*
X0046114D01*
Y0028499D01*
Y0028999D02*
X0042814D01*
Y0028799D01*
X0046114D01*
Y0028999D01*
Y0029499D02*
X0042814D01*
Y0029299D01*
X0046114D01*
Y0029499D01*
Y0029999D02*
X0042814D01*
Y0029799D01*
X0046114D01*
Y0029999D01*
Y0030499D02*
X0042814D01*
Y0030299D01*
X0046114D01*
Y0030499D01*
Y0030999D02*
X0042814D01*
Y0030799D01*
X0046114D01*
Y0030999D01*
X0036394Y0009811D02*
X0036054D01*
Y0009731D01*
X0036394D01*
Y0009811D01*
Y0009551D02*
Y0009471D01*
X0036054D01*
Y0009551D01*
X0036394D01*
Y0009291D02*
Y0009211D01*
X0036054D01*
Y0009291D01*
X0036394D01*
Y0009041D02*
X0036054D01*
Y0008961D01*
X0036394D01*
Y0009041D01*
Y0008781D02*
Y0008701D01*
X0036054D01*
Y0008781D01*
X0036394D01*
Y0008521D02*
Y0008441D01*
X0036054D01*
Y0008521D01*
X0036394D01*
Y0008271D02*
X0036054D01*
Y0008191D01*
X0036394D01*
Y0008271D01*
X0034314Y0010571D02*
Y0010491D01*
X0033924D01*
Y0010571D01*
X0034314D01*
Y0010321D02*
X0033924D01*
Y0010241D01*
X0034314D01*
Y0010321D01*
Y0010061D02*
X0033924D01*
Y0009981D01*
X0034314D01*
Y0010061D01*
Y0009811D02*
Y0009731D01*
X0033924D01*
Y0009811D01*
X0034314D01*
X0034304Y0009551D02*
X0033924D01*
Y0009471D01*
X0034304D01*
Y0009551D01*
Y0009291D02*
Y0009211D01*
X0033924D01*
Y0009291D01*
X0034304D01*
Y0009041D02*
X0033924D01*
Y0008961D01*
X0034304D01*
Y0009041D01*
X0034314Y0008781D02*
X0033924D01*
Y0008701D01*
X0034314D01*
Y0008781D01*
Y0008521D02*
Y0008441D01*
X0033924D01*
Y0008521D01*
X0034314D01*
Y0008271D02*
Y0008191D01*
X0033924D01*
Y0008271D01*
X0034314D01*
X0036394Y0010571D02*
Y0010491D01*
X0036054D01*
Y0010571D01*
X0036394D01*
Y0010321D02*
X0036054D01*
Y0010241D01*
X0036394D01*
Y0010321D01*
Y0010061D02*
Y0009981D01*
X0036054D01*
Y0010061D01*
X0036394D01*
X0034434Y0010541D02*
Y0008221D01*
X0035944D01*
Y0010541D01*
X0035334D01*
Y0010481D01*
X0035034D02*
Y0010541D01*
X0034434D01*
X0036054Y0010661D02*
X0035944Y0010551D01*
Y0008211D01*
X0036054Y0008101D01*
Y0010661D01*
X0034434Y0010531D02*
X0034304Y0010661D01*
Y0008101D01*
X0034434Y0008231D01*
Y0010531D01*
X0046060Y0018977D02*
Y0019177D01*
X0046110Y0019227D01*
X0047110D01*
X0047160Y0019177D01*
Y0018977D01*
X0047110Y0018927D01*
X0046110D01*
X0046060Y0018977D01*
X0015203Y0006311D02*
Y0006511D01*
X0015253Y0006561D01*
X0016253D01*
X0016303Y0006511D01*
Y0006311D01*
X0016253Y0006261D01*
X0015253D01*
X0015203Y0006311D01*
G01X0022069Y0028674D02*
G03X0021674Y0029349I0000774J0000000D01*
Y0027999D02*
G03X0022069Y0028674I0000379J0000675D01*
G01X0021299Y0027899D02*
G03X0022074Y0028674I0000000J0000775D01*
G01X0020524D02*
G03X0021299Y0027899I0000775J0000000D01*
Y0029449D02*
G03X0020524Y0028674I0000000J0000775D01*
G01X0022074D02*
G03X0021299Y0029449I0000775J0000000D01*
G01X0025839Y0033296D02*
G03X0026234Y0032621I0000774J0000000D01*
Y0033971D02*
G03X0025839Y0033296I0000379J0000675D01*
G01X0026609Y0032521D02*
G03X0027384Y0033296I0000000J0000775D01*
G01X0025834D02*
G03X0026609Y0032521I0000775J0000000D01*
Y0034071D02*
G03X0025834Y0033296I0000000J0000775D01*
G01X0027384D02*
G03X0026609Y0034071I0000775J0000000D01*
G01X0019315Y0012193D02*
G03X0018921Y0012868I0000774J0000000D01*
Y0011518D02*
G03X0019316Y0012193I0000380J0000675D01*
G01X0018546Y0011418D02*
G03X0019321Y0012193I0000000J0000775D01*
G01X0017771D02*
G03X0018546Y0011418I0000775J0000000D01*
Y0012968D02*
G03X0017771Y0012193I0000000J0000775D01*
G01X0019321D02*
G03X0018546Y0012968I0000775J0000000D01*
G01X0018877Y0009696D02*
G03X0019272Y0009021I0000774J0000000D01*
Y0010371D02*
G03X0018877Y0009696I0000379J0000675D01*
G01X0019647Y0008921D02*
G03X0020422Y0009696I0000000J0000775D01*
G01X0018872D02*
G03X0019647Y0008921I0000775J0000000D01*
Y0010471D02*
G03X0018872Y0009696I0000000J0000775D01*
G01X0020422D02*
G03X0019647Y0010471I0000775J0000000D01*
G01X0021728Y0033335D02*
G03X0022124Y0032660I0000775J0000000D01*
Y0034010D02*
G03X0021729Y0033335I0000379J0000675D01*
G01X0022499Y0032560D02*
G03X0023274Y0033335I0000000J0000775D01*
G01X0021724D02*
G03X0022499Y0032560I0000775J0000000D01*
Y0034110D02*
G03X0021724Y0033335I0000000J0000775D01*
G01X0023274D02*
G03X0022499Y0034110I0000775J0000000D01*
G01X0034534Y0010367D02*
G03X0034598Y0010431I0000000J0000064D01*
G01X0034470D02*
G03X0034534Y0010367I0000064J0000000D01*
Y0010495D02*
G03X0034470Y0010431I0000000J0000064D01*
G01X0034598D02*
G03X0034534Y0010495I0000064J0000000D01*
G01X0035184Y0010341D02*
G03X0035334Y0010481I0000000J0000150D01*
G01X0035034D02*
G03X0035184Y0010341I0000150J0000010D01*
G54D64*
G01X0019664Y0009690D02*
X0019930Y0009590D01*
Y0009723D01*
X0019708Y0009973D02*
X0019664Y0009957D01*
Y0009857D01*
X0019708Y0009840D01*
X0019797D01*
X0019842Y0009873D01*
Y0009973D01*
X0019930D01*
Y0009840D01*
X0019708Y0010090D02*
X0019664Y0010107D01*
Y0010207D01*
X0019708Y0010223D01*
X0019886D01*
X0019930Y0010207D01*
Y0010107D01*
X0019886Y0010090D01*
X0022649Y0033346D02*
Y0033246D01*
X0022604Y0033229D01*
X0022560D01*
X0022515Y0033246D01*
Y0033346D01*
X0022560Y0033363D01*
X0022604D01*
X0022782Y0033296D01*
X0022560Y0033613D02*
X0022515Y0033596D01*
Y0033496D01*
X0022560Y0033479D01*
X0022649D01*
X0022693Y0033513D01*
Y0033613D01*
X0022782D01*
Y0033479D01*
X0022560Y0033729D02*
X0022515Y0033746D01*
Y0033846D01*
X0022560Y0033863D01*
X0022738D01*
X0022782Y0033846D01*
Y0033746D01*
X0022738Y0033729D01*
X0021282Y0028696D02*
X0021238Y0028663D01*
X0021193Y0028646D01*
X0021104D01*
X0021060Y0028663D01*
X0021015Y0028696D01*
Y0028730D01*
X0021060Y0028763D01*
X0021104Y0028780D01*
X0021193D01*
X0021238Y0028763D01*
X0021282Y0028730D01*
Y0028696D01*
X0021149Y0028413D02*
Y0028513D01*
X0021193Y0028530D01*
X0021238D01*
X0021282Y0028513D01*
Y0028413D01*
X0021238Y0028396D01*
X0021193D01*
X0021015Y0028463D01*
X0021238Y0028280D02*
X0021282Y0028263D01*
Y0028163D01*
X0021238Y0028146D01*
X0021060D01*
X0021015Y0028163D01*
Y0028263D01*
X0021060Y0028280D01*
X0026759Y0033207D02*
Y0033307D01*
X0026804Y0033323D01*
X0026848D01*
X0026892Y0033307D01*
Y0033207D01*
X0026848Y0033190D01*
X0026804D01*
X0026626Y0033257D01*
X0026670Y0033573D02*
X0026626Y0033557D01*
Y0033457D01*
X0026670Y0033440D01*
X0026759D01*
X0026804Y0033473D01*
Y0033573D01*
X0026892D01*
Y0033440D01*
X0026670Y0033690D02*
X0026626Y0033707D01*
Y0033807D01*
X0026670Y0033823D01*
X0026848D01*
X0026892Y0033807D01*
Y0033707D01*
X0026848Y0033690D01*
X0018395Y0012282D02*
X0018351Y0012299D01*
X0018306D01*
X0018262Y0012282D01*
Y0012182D01*
X0018306Y0012165D01*
X0018351D01*
X0018395Y0012182D01*
Y0012282D01*
X0018440Y0012299D01*
X0018484D01*
X0018529Y0012282D01*
Y0012182D01*
X0018484Y0012165D01*
X0018440D01*
X0018395Y0012182D01*
X0018484Y0011915D02*
X0018529Y0011932D01*
Y0012032D01*
X0018484Y0012049D01*
X0018395D01*
X0018351Y0012015D01*
Y0011915D01*
X0018262D01*
Y0012049D01*
X0018484Y0011799D02*
X0018529Y0011782D01*
Y0011682D01*
X0018484Y0011665D01*
X0018306D01*
X0018262Y0011682D01*
Y0011782D01*
X0018306Y0011799D01*
G54D67*
G01X0021649Y0033235D02*
X0021549D01*
Y0033435D01*
X0021649D01*
X0020449Y0028574D02*
X0020349D01*
Y0028774D01*
X0020449D01*
X0022149D02*
X0022249D01*
Y0028574D01*
X0022149D01*
X0027459Y0033396D02*
X0027559D01*
Y0033196D01*
X0027459D01*
X0025759D02*
X0025659D01*
Y0033396D01*
X0025759D01*
X0017696Y0012093D02*
X0017596D01*
Y0012293D01*
X0017696D01*
X0019396D02*
X0019496D01*
Y0012093D01*
X0019396D01*
X0020497Y0009796D02*
X0020597D01*
Y0009596D01*
X0020497D01*
X0018797D02*
X0018697D01*
Y0009796D01*
X0018797D01*
X0023349Y0033435D02*
X0023449D01*
Y0033235D01*
X0023349D01*
X0016209Y0020602D02*
Y0020202D01*
X0016309Y0020102D01*
Y0020702D01*
X0016209Y0020602D01*
X0015809D01*
Y0020202D01*
X0015709Y0020102D01*
X0016309D01*
X0016209Y0020202D01*
X0015809D01*
Y0020602D01*
X0015709Y0020702D01*
Y0020102D01*
X0015809Y0020202D01*
Y0020602D01*
X0015709Y0020702D01*
X0016309D01*
X0016209Y0020602D01*
X0015209Y0021602D02*
Y0021202D01*
X0015309Y0021102D01*
Y0021702D01*
X0015209Y0021602D01*
X0014809D01*
Y0021202D01*
X0014709Y0021102D01*
X0015309D01*
X0015209Y0021202D01*
X0014809D01*
Y0021602D01*
X0014709Y0021702D01*
Y0021102D01*
X0014809Y0021202D01*
Y0021602D01*
X0014709Y0021702D01*
X0015309D01*
X0015209Y0021602D01*
Y0022602D02*
Y0022202D01*
X0015309Y0022102D01*
Y0022702D01*
X0015209Y0022602D01*
X0014809D01*
Y0022202D01*
X0014709Y0022102D01*
X0015309D01*
X0015209Y0022202D01*
X0014809D01*
Y0022602D01*
X0014709Y0022702D01*
Y0022102D01*
X0014809Y0022202D01*
Y0022602D01*
X0014709Y0022702D01*
X0015309D01*
X0015209Y0022602D01*
X0016209Y0023602D02*
Y0023202D01*
X0016309Y0023102D01*
Y0023702D01*
X0016209Y0023602D01*
X0015809D01*
Y0023202D01*
X0015709Y0023102D01*
X0016309D01*
X0016209Y0023202D01*
X0015809D01*
Y0023602D01*
X0015709Y0023702D01*
Y0023102D01*
X0015809Y0023202D01*
Y0023602D01*
X0015709Y0023702D01*
X0016309D01*
X0016209Y0023602D01*
Y0022602D02*
Y0022202D01*
X0016309Y0022102D01*
Y0022702D01*
X0016209Y0022602D01*
X0015809D01*
Y0022202D01*
X0015709Y0022102D01*
X0016309D01*
X0016209Y0022202D01*
X0015809D01*
Y0022602D01*
X0015709Y0022702D01*
Y0022102D01*
X0015809Y0022202D01*
Y0022602D01*
X0015709Y0022702D01*
X0016309D01*
X0016209Y0022602D01*
X0015209Y0023602D02*
Y0023202D01*
X0015309Y0023102D01*
Y0023702D01*
X0015209Y0023602D01*
X0014809D01*
Y0023202D01*
X0014709Y0023102D01*
X0015309D01*
X0015209Y0023202D01*
X0014809D01*
Y0023602D01*
X0014709Y0023702D01*
Y0023102D01*
X0014809Y0023202D01*
Y0023602D01*
X0014709Y0023702D01*
X0015309D01*
X0015209Y0023602D01*
Y0024602D02*
Y0024202D01*
X0015309Y0024102D01*
Y0024702D01*
X0015209Y0024602D01*
X0014809D01*
Y0024202D01*
X0014709Y0024102D01*
X0015309D01*
X0015209Y0024202D01*
X0014809D01*
Y0024602D01*
X0014709Y0024702D01*
Y0024102D01*
X0014809Y0024202D01*
Y0024602D01*
X0014709Y0024702D01*
X0015309D01*
X0015209Y0024602D01*
X0016209Y0025602D02*
Y0025202D01*
X0016309Y0025102D01*
Y0025702D01*
X0016209Y0025602D01*
X0015809D01*
Y0025202D01*
X0015709Y0025102D01*
X0016309D01*
X0016209Y0025202D01*
X0015809D01*
Y0025602D01*
X0015709Y0025702D01*
Y0025102D01*
X0015809Y0025202D01*
Y0025602D01*
X0015709Y0025702D01*
X0016309D01*
X0016209Y0025602D01*
Y0024602D02*
Y0024202D01*
X0016309Y0024102D01*
Y0024702D01*
X0016209Y0024602D01*
X0015809D01*
Y0024202D01*
X0015709Y0024102D01*
X0016309D01*
X0016209Y0024202D01*
X0015809D01*
Y0024602D01*
X0015709Y0024702D01*
Y0024102D01*
X0015809Y0024202D01*
Y0024602D01*
X0015709Y0024702D01*
X0016309D01*
X0016209Y0024602D01*
Y0010602D02*
Y0010202D01*
X0016309Y0010102D01*
Y0010702D01*
X0016209Y0010602D01*
X0015809D01*
Y0010202D01*
X0015709Y0010102D01*
X0016309D01*
X0016209Y0010202D01*
X0015809D01*
Y0010602D01*
X0015709Y0010702D01*
Y0010102D01*
X0015809Y0010202D01*
Y0010602D01*
X0015709Y0010702D01*
X0016309D01*
X0016209Y0010602D01*
X0015209Y0025602D02*
Y0025202D01*
X0015309Y0025102D01*
Y0025702D01*
X0015209Y0025602D01*
X0014809D01*
Y0025202D01*
X0014709Y0025102D01*
X0015309D01*
X0015209Y0025202D01*
X0014809D01*
Y0025602D01*
X0014709Y0025702D01*
Y0025102D01*
X0014809Y0025202D01*
Y0025602D01*
X0014709Y0025702D01*
X0015309D01*
X0015209Y0025602D01*
Y0026602D02*
Y0026202D01*
X0015309Y0026102D01*
Y0026702D01*
X0015209Y0026602D01*
X0014809D01*
Y0026202D01*
X0014709Y0026102D01*
X0015309D01*
X0015209Y0026202D01*
X0014809D01*
Y0026602D01*
X0014709Y0026702D01*
Y0026102D01*
X0014809Y0026202D01*
Y0026602D01*
X0014709Y0026702D01*
X0015309D01*
X0015209Y0026602D01*
X0016209Y0011602D02*
Y0011202D01*
X0016309Y0011102D01*
Y0011702D01*
X0016209Y0011602D01*
X0015809D01*
Y0011202D01*
X0015709Y0011102D01*
X0016309D01*
X0016209Y0011202D01*
X0015809D01*
Y0011602D01*
X0015709Y0011702D01*
Y0011102D01*
X0015809Y0011202D01*
Y0011602D01*
X0015709Y0011702D01*
X0016309D01*
X0016209Y0011602D01*
X0015209Y0010602D02*
Y0010202D01*
X0015309Y0010102D01*
Y0010702D01*
X0015209Y0010602D01*
X0014809D01*
Y0010202D01*
X0014709Y0010102D01*
X0015309D01*
X0015209Y0010202D01*
X0014809D01*
Y0010602D01*
X0014709Y0010702D01*
Y0010102D01*
X0014809Y0010202D01*
Y0010602D01*
X0014709Y0010702D01*
X0015309D01*
X0015209Y0010602D01*
X0016209Y0027602D02*
Y0027202D01*
X0016309Y0027102D01*
Y0027702D01*
X0016209Y0027602D01*
X0015809D01*
Y0027202D01*
X0015709Y0027102D01*
X0016309D01*
X0016209Y0027202D01*
X0015809D01*
Y0027602D01*
X0015709Y0027702D01*
Y0027102D01*
X0015809Y0027202D01*
Y0027602D01*
X0015709Y0027702D01*
X0016309D01*
X0016209Y0027602D01*
Y0026602D02*
Y0026202D01*
X0016309Y0026102D01*
Y0026702D01*
X0016209Y0026602D01*
X0015809D01*
Y0026202D01*
X0015709Y0026102D01*
X0016309D01*
X0016209Y0026202D01*
X0015809D01*
Y0026602D01*
X0015709Y0026702D01*
Y0026102D01*
X0015809Y0026202D01*
Y0026602D01*
X0015709Y0026702D01*
X0016309D01*
X0016209Y0026602D01*
X0015209Y0027602D02*
Y0027202D01*
X0015309Y0027102D01*
Y0027702D01*
X0015209Y0027602D01*
X0014809D01*
Y0027202D01*
X0014709Y0027102D01*
X0015309D01*
X0015209Y0027202D01*
X0014809D01*
Y0027602D01*
X0014709Y0027702D01*
Y0027102D01*
X0014809Y0027202D01*
Y0027602D01*
X0014709Y0027702D01*
X0015309D01*
X0015209Y0027602D01*
Y0028602D02*
Y0028202D01*
X0015309Y0028102D01*
Y0028702D01*
X0015209Y0028602D01*
X0014809D01*
Y0028202D01*
X0014709Y0028102D01*
X0015309D01*
X0015209Y0028202D01*
X0014809D01*
Y0028602D01*
X0014709Y0028702D01*
Y0028102D01*
X0014809Y0028202D01*
Y0028602D01*
X0014709Y0028702D01*
X0015309D01*
X0015209Y0028602D01*
X0016209Y0029602D02*
Y0029202D01*
X0016309Y0029102D01*
Y0029702D01*
X0016209Y0029602D01*
X0015809D01*
Y0029202D01*
X0015709Y0029102D01*
X0016309D01*
X0016209Y0029202D01*
X0015809D01*
Y0029602D01*
X0015709Y0029702D01*
Y0029102D01*
X0015809Y0029202D01*
Y0029602D01*
X0015709Y0029702D01*
X0016309D01*
X0016209Y0029602D01*
Y0028602D02*
Y0028202D01*
X0016309Y0028102D01*
Y0028702D01*
X0016209Y0028602D01*
X0015809D01*
Y0028202D01*
X0015709Y0028102D01*
X0016309D01*
X0016209Y0028202D01*
X0015809D01*
Y0028602D01*
X0015709Y0028702D01*
Y0028102D01*
X0015809Y0028202D01*
Y0028602D01*
X0015709Y0028702D01*
X0016309D01*
X0016209Y0028602D01*
Y0013602D02*
Y0013202D01*
X0016309Y0013102D01*
Y0013702D01*
X0016209Y0013602D01*
X0015809D01*
Y0013202D01*
X0015709Y0013102D01*
X0016309D01*
X0016209Y0013202D01*
X0015809D01*
Y0013602D01*
X0015709Y0013702D01*
Y0013102D01*
X0015809Y0013202D01*
Y0013602D01*
X0015709Y0013702D01*
X0016309D01*
X0016209Y0013602D01*
X0015209Y0012602D02*
Y0012202D01*
X0015309Y0012102D01*
Y0012702D01*
X0015209Y0012602D01*
X0014809D01*
Y0012202D01*
X0014709Y0012102D01*
X0015309D01*
X0015209Y0012202D01*
X0014809D01*
Y0012602D01*
X0014709Y0012702D01*
Y0012102D01*
X0014809Y0012202D01*
Y0012602D01*
X0014709Y0012702D01*
X0015309D01*
X0015209Y0012602D01*
Y0029602D02*
Y0029202D01*
X0015309Y0029102D01*
Y0029702D01*
X0015209Y0029602D01*
X0014809D01*
Y0029202D01*
X0014709Y0029102D01*
X0015309D01*
X0015209Y0029202D01*
X0014809D01*
Y0029602D01*
X0014709Y0029702D01*
Y0029102D01*
X0014809Y0029202D01*
Y0029602D01*
X0014709Y0029702D01*
X0015309D01*
X0015209Y0029602D01*
Y0019602D02*
Y0019202D01*
X0015309Y0019102D01*
Y0019702D01*
X0015209Y0019602D01*
X0014809D01*
Y0019202D01*
X0014709Y0019102D01*
X0015309D01*
X0015209Y0019202D01*
X0014809D01*
Y0019602D01*
X0014709Y0019702D01*
Y0019102D01*
X0014809Y0019202D01*
Y0019602D01*
X0014709Y0019702D01*
X0015309D01*
X0015209Y0019602D01*
X0016209D02*
Y0019202D01*
X0016309Y0019102D01*
Y0019702D01*
X0016209Y0019602D01*
X0015809D01*
Y0019202D01*
X0015709Y0019102D01*
X0016309D01*
X0016209Y0019202D01*
X0015809D01*
Y0019602D01*
X0015709Y0019702D01*
Y0019102D01*
X0015809Y0019202D01*
Y0019602D01*
X0015709Y0019702D01*
X0016309D01*
X0016209Y0019602D01*
X0015209Y0018602D02*
Y0018202D01*
X0015309Y0018102D01*
Y0018702D01*
X0015209Y0018602D01*
X0014809D01*
Y0018202D01*
X0014709Y0018102D01*
X0015309D01*
X0015209Y0018202D01*
X0014809D01*
Y0018602D01*
X0014709Y0018702D01*
Y0018102D01*
X0014809Y0018202D01*
Y0018602D01*
X0014709Y0018702D01*
X0015309D01*
X0015209Y0018602D01*
X0016209D02*
Y0018202D01*
X0016309Y0018102D01*
Y0018702D01*
X0016209Y0018602D01*
X0015809D01*
Y0018202D01*
X0015709Y0018102D01*
X0016309D01*
X0016209Y0018202D01*
X0015809D01*
Y0018602D01*
X0015709Y0018702D01*
Y0018102D01*
X0015809Y0018202D01*
Y0018602D01*
X0015709Y0018702D01*
X0016309D01*
X0016209Y0018602D01*
X0015209Y0017602D02*
Y0017202D01*
X0015309Y0017102D01*
Y0017702D01*
X0015209Y0017602D01*
X0014809D01*
Y0017202D01*
X0014709Y0017102D01*
X0015309D01*
X0015209Y0017202D01*
X0014809D01*
Y0017602D01*
X0014709Y0017702D01*
Y0017102D01*
X0014809Y0017202D01*
Y0017602D01*
X0014709Y0017702D01*
X0015309D01*
X0015209Y0017602D01*
X0016209D02*
Y0017202D01*
X0016309Y0017102D01*
Y0017702D01*
X0016209Y0017602D01*
X0015809D01*
Y0017202D01*
X0015709Y0017102D01*
X0016309D01*
X0016209Y0017202D01*
X0015809D01*
Y0017602D01*
X0015709Y0017702D01*
Y0017102D01*
X0015809Y0017202D01*
Y0017602D01*
X0015709Y0017702D01*
X0016309D01*
X0016209Y0017602D01*
X0015209Y0016602D02*
Y0016202D01*
X0015309Y0016102D01*
Y0016702D01*
X0015209Y0016602D01*
X0014809D01*
Y0016202D01*
X0014709Y0016102D01*
X0015309D01*
X0015209Y0016202D01*
X0014809D01*
Y0016602D01*
X0014709Y0016702D01*
Y0016102D01*
X0014809Y0016202D01*
Y0016602D01*
X0014709Y0016702D01*
X0015309D01*
X0015209Y0016602D01*
X0016209D02*
Y0016202D01*
X0016309Y0016102D01*
Y0016702D01*
X0016209Y0016602D01*
X0015809D01*
Y0016202D01*
X0015709Y0016102D01*
X0016309D01*
X0016209Y0016202D01*
X0015809D01*
Y0016602D01*
X0015709Y0016702D01*
Y0016102D01*
X0015809Y0016202D01*
Y0016602D01*
X0015709Y0016702D01*
X0016309D01*
X0016209Y0016602D01*
X0015209Y0015602D02*
Y0015202D01*
X0015309Y0015102D01*
Y0015702D01*
X0015209Y0015602D01*
X0014809D01*
Y0015202D01*
X0014709Y0015102D01*
X0015309D01*
X0015209Y0015202D01*
X0014809D01*
Y0015602D01*
X0014709Y0015702D01*
Y0015102D01*
X0014809Y0015202D01*
Y0015602D01*
X0014709Y0015702D01*
X0015309D01*
X0015209Y0015602D01*
X0016209D02*
Y0015202D01*
X0016309Y0015102D01*
Y0015702D01*
X0016209Y0015602D01*
X0015809D01*
Y0015202D01*
X0015709Y0015102D01*
X0016309D01*
X0016209Y0015202D01*
X0015809D01*
Y0015602D01*
X0015709Y0015702D01*
Y0015102D01*
X0015809Y0015202D01*
Y0015602D01*
X0015709Y0015702D01*
X0016309D01*
X0016209Y0015602D01*
X0015209Y0014602D02*
Y0014202D01*
X0015309Y0014102D01*
Y0014702D01*
X0015209Y0014602D01*
X0014809D01*
Y0014202D01*
X0014709Y0014102D01*
X0015309D01*
X0015209Y0014202D01*
X0014809D01*
Y0014602D01*
X0014709Y0014702D01*
Y0014102D01*
X0014809Y0014202D01*
Y0014602D01*
X0014709Y0014702D01*
X0015309D01*
X0015209Y0014602D01*
X0016209Y0012602D02*
Y0012202D01*
X0016309Y0012102D01*
Y0012702D01*
X0016209Y0012602D01*
X0015809D01*
Y0012202D01*
X0015709Y0012102D01*
X0016309D01*
X0016209Y0012202D01*
X0015809D01*
Y0012602D01*
X0015709Y0012702D01*
Y0012102D01*
X0015809Y0012202D01*
Y0012602D01*
X0015709Y0012702D01*
X0016309D01*
X0016209Y0012602D01*
X0015209Y0011602D02*
Y0011202D01*
X0015309Y0011102D01*
Y0011702D01*
X0015209Y0011602D01*
X0014809D01*
Y0011202D01*
X0014709Y0011102D01*
X0015309D01*
X0015209Y0011202D01*
X0014809D01*
Y0011602D01*
X0014709Y0011702D01*
Y0011102D01*
X0014809Y0011202D01*
Y0011602D01*
X0014709Y0011702D01*
X0015309D01*
X0015209Y0011602D01*
X0016209Y0014602D02*
Y0014202D01*
X0016309Y0014102D01*
Y0014702D01*
X0016209Y0014602D01*
X0015809D01*
Y0014202D01*
X0015709Y0014102D01*
X0016309D01*
X0016209Y0014202D01*
X0015809D01*
Y0014602D01*
X0015709Y0014702D01*
Y0014102D01*
X0015809Y0014202D01*
Y0014602D01*
X0015709Y0014702D01*
X0016309D01*
X0016209Y0014602D01*
X0015209Y0013602D02*
Y0013202D01*
X0015309Y0013102D01*
Y0013702D01*
X0015209Y0013602D01*
X0014809D01*
Y0013202D01*
X0014709Y0013102D01*
X0015309D01*
X0015209Y0013202D01*
X0014809D01*
Y0013602D01*
X0014709Y0013702D01*
Y0013102D01*
X0014809Y0013202D01*
Y0013602D01*
X0014709Y0013702D01*
X0015309D01*
X0015209Y0013602D01*
Y0020602D02*
Y0020202D01*
X0015309Y0020102D01*
Y0020702D01*
X0015209Y0020602D01*
X0014809D01*
Y0020202D01*
X0014709Y0020102D01*
X0015309D01*
X0015209Y0020202D01*
X0014809D01*
Y0020602D01*
X0014709Y0020702D01*
Y0020102D01*
X0014809Y0020202D01*
Y0020602D01*
X0014709Y0020702D01*
X0015309D01*
X0015209Y0020602D01*
X0016209Y0021602D02*
Y0021202D01*
X0016309Y0021102D01*
Y0021702D01*
X0016209Y0021602D01*
X0015809D01*
Y0021202D01*
X0015709Y0021102D01*
X0016309D01*
X0016209Y0021202D01*
X0015809D01*
Y0021602D01*
X0015709Y0021702D01*
Y0021102D01*
X0015809Y0021202D01*
Y0021602D01*
X0015709Y0021702D01*
X0016309D01*
X0016209Y0021602D01*
G54D99*
G01X0015109Y0021352D02*
Y0021252D01*
X0014909D01*
Y0021352D01*
X0015109D01*
Y0021552D02*
Y0021452D01*
X0014909D01*
Y0021552D01*
X0015109D01*
Y0022552D02*
Y0022452D01*
X0014909D01*
Y0022552D01*
X0015109D01*
X0016109Y0022352D02*
Y0022252D01*
X0015909D01*
Y0022352D01*
X0016109D01*
Y0022552D02*
Y0022452D01*
X0015909D01*
Y0022552D01*
X0016109D01*
Y0023352D02*
Y0023252D01*
X0015909D01*
Y0023352D01*
X0016109D01*
Y0023552D02*
Y0023452D01*
X0015909D01*
Y0023552D01*
X0016109D01*
X0015109Y0022352D02*
Y0022252D01*
X0014909D01*
Y0022352D01*
X0015109D01*
Y0023352D02*
Y0023252D01*
X0014909D01*
Y0023352D01*
X0015109D01*
Y0023552D02*
Y0023452D01*
X0014909D01*
Y0023552D01*
X0015109D01*
Y0024552D02*
Y0024452D01*
X0014909D01*
Y0024552D01*
X0015109D01*
X0016109Y0024352D02*
Y0024252D01*
X0015909D01*
Y0024352D01*
X0016109D01*
Y0024552D02*
Y0024452D01*
X0015909D01*
Y0024552D01*
X0016109D01*
Y0025352D02*
Y0025252D01*
X0015909D01*
Y0025352D01*
X0016109D01*
Y0025552D02*
Y0025452D01*
X0015909D01*
Y0025552D01*
X0016109D01*
X0015109Y0024352D02*
Y0024252D01*
X0014909D01*
Y0024352D01*
X0015109D01*
Y0025352D02*
Y0025252D01*
X0014909D01*
Y0025352D01*
X0015109D01*
Y0025552D02*
Y0025452D01*
X0014909D01*
Y0025552D01*
X0015109D01*
Y0026552D02*
Y0026452D01*
X0014909D01*
Y0026552D01*
X0015109D01*
X0016109Y0026352D02*
Y0026252D01*
X0015909D01*
Y0026352D01*
X0016109D01*
Y0026552D02*
Y0026452D01*
X0015909D01*
Y0026552D01*
X0016109D01*
Y0012352D02*
Y0012252D01*
X0015909D01*
Y0012352D01*
X0016109D01*
Y0012552D02*
Y0012452D01*
X0015909D01*
Y0012552D01*
X0016109D01*
X0015109Y0012352D02*
Y0012252D01*
X0014909D01*
Y0012352D01*
X0015109D01*
X0016109Y0027352D02*
Y0027252D01*
X0015909D01*
Y0027352D01*
X0016109D01*
Y0027552D02*
Y0027452D01*
X0015909D01*
Y0027552D01*
X0016109D01*
X0015109Y0010552D02*
Y0010452D01*
X0014909D01*
Y0010552D01*
X0015109D01*
Y0026352D02*
Y0026252D01*
X0014909D01*
Y0026352D01*
X0015109D01*
Y0027352D02*
Y0027252D01*
X0014909D01*
Y0027352D01*
X0015109D01*
Y0027552D02*
Y0027452D01*
X0014909D01*
Y0027552D01*
X0015109D01*
Y0028552D02*
Y0028452D01*
X0014909D01*
Y0028552D01*
X0015109D01*
X0016109Y0028352D02*
Y0028252D01*
X0015909D01*
Y0028352D01*
X0016109D01*
Y0028552D02*
Y0028452D01*
X0015909D01*
Y0028552D01*
X0016109D01*
Y0029352D02*
Y0029252D01*
X0015909D01*
Y0029352D01*
X0016109D01*
Y0029552D02*
Y0029452D01*
X0015909D01*
Y0029552D01*
X0016109D01*
X0015109Y0028352D02*
Y0028252D01*
X0014909D01*
Y0028352D01*
X0015109D01*
Y0029352D02*
Y0029252D01*
X0014909D01*
Y0029352D01*
X0015109D01*
Y0012552D02*
Y0012452D01*
X0014909D01*
Y0012552D01*
X0015109D01*
Y0029552D02*
Y0029452D01*
X0014909D01*
Y0029552D01*
X0015109D01*
Y0019552D02*
Y0019452D01*
X0014909D01*
Y0019552D01*
X0015109D01*
X0016109Y0019352D02*
Y0019252D01*
X0015909D01*
Y0019352D01*
X0016109D01*
Y0019552D02*
Y0019452D01*
X0015909D01*
Y0019552D01*
X0016109D01*
X0015109Y0019352D02*
Y0019252D01*
X0014909D01*
Y0019352D01*
X0015109D01*
Y0018552D02*
Y0018452D01*
X0014909D01*
Y0018552D01*
X0015109D01*
X0016109Y0018352D02*
Y0018252D01*
X0015909D01*
Y0018352D01*
X0016109D01*
Y0018552D02*
Y0018452D01*
X0015909D01*
Y0018552D01*
X0016109D01*
X0015109Y0018352D02*
Y0018252D01*
X0014909D01*
Y0018352D01*
X0015109D01*
Y0017552D02*
Y0017452D01*
X0014909D01*
Y0017552D01*
X0015109D01*
X0016109Y0017352D02*
Y0017252D01*
X0015909D01*
Y0017352D01*
X0016109D01*
Y0011352D02*
Y0011252D01*
X0015909D01*
Y0011352D01*
X0016109D01*
Y0011552D02*
Y0011452D01*
X0015909D01*
Y0011552D01*
X0016109D01*
X0015109Y0011352D02*
Y0011252D01*
X0014909D01*
Y0011352D01*
X0015109D01*
X0016109Y0017552D02*
Y0017452D01*
X0015909D01*
Y0017552D01*
X0016109D01*
X0015109Y0017352D02*
Y0017252D01*
X0014909D01*
Y0017352D01*
X0015109D01*
Y0016552D02*
Y0016452D01*
X0014909D01*
Y0016552D01*
X0015109D01*
X0014967Y0030798D02*
X0016067D01*
X0016109Y0016352D02*
Y0016252D01*
X0015909D01*
Y0016352D01*
X0016109D01*
Y0016552D02*
Y0016452D01*
X0015909D01*
Y0016552D01*
X0016109D01*
X0015109Y0016352D02*
Y0016252D01*
X0014909D01*
Y0016352D01*
X0015109D01*
Y0015552D02*
Y0015452D01*
X0014909D01*
Y0015552D01*
X0015109D01*
X0016109Y0015352D02*
Y0015252D01*
X0015909D01*
Y0015352D01*
X0016109D01*
Y0015552D02*
Y0015452D01*
X0015909D01*
Y0015552D01*
X0016109D01*
X0015109Y0015352D02*
Y0015252D01*
X0014909D01*
Y0015352D01*
X0015109D01*
Y0014552D02*
Y0014452D01*
X0014909D01*
Y0014552D01*
X0015109D01*
Y0011552D02*
Y0011452D01*
X0014909D01*
Y0011552D01*
X0015109D01*
X0016109Y0014352D02*
Y0014252D01*
X0015909D01*
Y0014352D01*
X0016109D01*
Y0014552D02*
Y0014452D01*
X0015909D01*
Y0014552D01*
X0016109D01*
X0015109Y0014352D02*
Y0014252D01*
X0014909D01*
Y0014352D01*
X0015109D01*
X0016109Y0010352D02*
Y0010252D01*
X0015909D01*
Y0010352D01*
X0016109D01*
Y0010552D02*
Y0010452D01*
X0015909D01*
Y0010552D01*
X0016109D01*
X0015109Y0010352D02*
Y0010252D01*
X0014909D01*
Y0010352D01*
X0015109D01*
Y0013552D02*
Y0013452D01*
X0014909D01*
Y0013552D01*
X0015109D01*
X0016109Y0013352D02*
Y0013252D01*
X0015909D01*
Y0013352D01*
X0016109D01*
Y0013552D02*
Y0013452D01*
X0015909D01*
Y0013552D01*
X0016109D01*
X0015109Y0013352D02*
Y0013252D01*
X0014909D01*
Y0013352D01*
X0015109D01*
X0046060Y0019077D02*
X0047160D01*
X0015109Y0020552D02*
Y0020452D01*
X0014909D01*
Y0020552D01*
X0015109D01*
X0016109Y0020352D02*
Y0020252D01*
X0015909D01*
Y0020352D01*
X0016109D01*
Y0020552D02*
Y0020452D01*
X0015909D01*
Y0020552D01*
X0016109D01*
Y0021352D02*
Y0021252D01*
X0015909D01*
Y0021352D01*
X0016109D01*
Y0021552D02*
Y0021452D01*
X0015909D01*
Y0021552D01*
X0016109D01*
X0015109Y0020352D02*
Y0020252D01*
X0014909D01*
Y0020352D01*
X0015109D01*
X0015203Y0006411D02*
X0016303D01*
X0045175Y0033827D02*
X0046275D01*
G54D120*
G01X0014455Y0004799D02*
X0048360D01*
Y0035085D01*
X0014357D01*
Y0004799D01*
X0014455D01*
G54D10*
X0023010Y0032096D03*
X0022450D03*
X0023787D03*
X0024347D03*
X0031762Y0009125D03*
X0031202D03*
X0021673Y0032096D03*
X0021113D03*
X0025134D03*
X0025694D03*
X0042185Y0014770D03*
X0042745D03*
X0035459Y0011210D03*
X0034899D03*
X0031211Y0010010D03*
X0031771D03*
X0026054Y0013506D03*
X0026614D03*
X0025512Y0013526D03*
X0024952D03*
G54D11*
X0019018Y0028163D03*
Y0028723D03*
X0038389Y0009302D03*
Y0009862D03*
X0038275Y0008047D03*
Y0007487D03*
X0039219Y0008057D03*
Y0007497D03*
X0039255Y0010227D03*
Y0009667D03*
X0038979Y0024446D03*
Y0025006D03*
X0021653Y0013078D03*
Y0013638D03*
X0018152Y0028713D03*
Y0028153D03*
X0038389Y0010659D03*
Y0011219D03*
X0038271Y0006667D03*
Y0006107D03*
X0039219Y0006671D03*
Y0006111D03*
X0032824Y0008398D03*
Y0008958D03*
Y0009755D03*
Y0010315D03*
X0037406Y0010010D03*
Y0010570D03*
X0034279Y0013629D03*
Y0014189D03*
Y0015556D03*
Y0014996D03*
X0022636Y0010856D03*
Y0011416D03*
Y0012705D03*
Y0012145D03*
G54D16*
X0034020Y0026806D03*
X0035020D03*
X0017841Y0029874D03*
X0032807Y0029244D03*
X0031807D03*
X0030807D03*
X0029807D03*
X0028807D03*
X0032155Y0011272D03*
G54D17*
X0033020Y0026806D03*
X0018841Y0029874D03*
X0033807Y0029244D03*
X0032155Y0012272D03*
G54D18*
X0028772Y0006920D03*
X0029772Y0005920D03*
Y0006920D03*
X0030772Y0005920D03*
Y0006920D03*
X0031772Y0005920D03*
Y0006920D03*
X0035774Y0005923D03*
X0034774Y0006923D03*
Y0005923D03*
X0033774Y0006923D03*
Y0005923D03*
X0032774Y0006923D03*
Y0005923D03*
G54D19*
X0028772Y0005920D03*
X0035774Y0006923D03*
G54D26*
X0040253Y0019681D03*
Y0019878D03*
Y0020075D03*
Y0020469D03*
Y0020666D03*
Y0020863D03*
Y0021060D03*
Y0021257D03*
Y0021454D03*
Y0021651D03*
Y0021848D03*
Y0022045D03*
Y0022439D03*
Y0022636D03*
X0035498D03*
Y0022242D03*
Y0022045D03*
Y0021848D03*
Y0021651D03*
Y0021454D03*
Y0021257D03*
Y0021060D03*
Y0020863D03*
Y0020666D03*
Y0020272D03*
Y0020075D03*
Y0019878D03*
Y0019681D03*
X0029510Y0015963D03*
Y0016160D03*
Y0016357D03*
Y0016554D03*
Y0016751D03*
Y0016948D03*
Y0017145D03*
Y0017539D03*
Y0017736D03*
Y0017933D03*
Y0018130D03*
Y0018327D03*
Y0018524D03*
Y0018721D03*
Y0018918D03*
Y0019115D03*
Y0019509D03*
Y0019706D03*
Y0019903D03*
Y0020100D03*
Y0020297D03*
Y0020494D03*
Y0020691D03*
Y0020888D03*
Y0021085D03*
Y0021479D03*
Y0021676D03*
Y0021873D03*
Y0022070D03*
Y0022267D03*
Y0022464D03*
Y0022661D03*
Y0022858D03*
Y0023055D03*
Y0023449D03*
Y0023646D03*
Y0023843D03*
Y0024040D03*
Y0024237D03*
Y0024434D03*
Y0024631D03*
Y0024828D03*
Y0025025D03*
Y0025419D03*
Y0025616D03*
Y0025813D03*
Y0026010D03*
X0017903D03*
Y0025813D03*
Y0025616D03*
Y0025222D03*
Y0025025D03*
Y0024828D03*
Y0024631D03*
Y0024434D03*
Y0024237D03*
Y0024040D03*
Y0023843D03*
Y0023646D03*
Y0023252D03*
Y0023055D03*
Y0022858D03*
Y0022661D03*
Y0022464D03*
Y0022267D03*
Y0022070D03*
Y0021873D03*
Y0021676D03*
Y0021282D03*
Y0021085D03*
Y0020888D03*
Y0020691D03*
Y0020494D03*
Y0020297D03*
Y0020100D03*
Y0019903D03*
Y0019706D03*
Y0019312D03*
Y0019115D03*
Y0018918D03*
Y0018721D03*
Y0018524D03*
Y0018327D03*
Y0018130D03*
Y0017933D03*
Y0017736D03*
Y0017342D03*
Y0017145D03*
Y0016948D03*
Y0016751D03*
Y0016554D03*
Y0016357D03*
Y0016160D03*
Y0015963D03*
G54D27*
X0040253Y0020272D03*
Y0022242D03*
X0035498Y0022439D03*
Y0020469D03*
X0029510Y0017342D03*
Y0019312D03*
Y0021282D03*
Y0023252D03*
Y0025222D03*
X0017903Y0025419D03*
Y0023449D03*
Y0021479D03*
Y0019509D03*
Y0017539D03*
G54D28*
X0036595Y0018781D03*
X0036792D03*
X0036989D03*
X0037186D03*
X0037383D03*
X0037580D03*
X0037777D03*
X0037974D03*
X0038368D03*
X0038565D03*
X0038762D03*
X0038959D03*
X0039156D03*
X0039353D03*
Y0023536D03*
X0039156D03*
X0038959D03*
X0038762D03*
X0038565D03*
X0038368D03*
X0038171D03*
X0037777D03*
X0037580D03*
X0037383D03*
X0037186D03*
X0036989D03*
X0036792D03*
X0036595D03*
X0036398D03*
X0018880Y0015183D03*
X0019077D03*
X0019274D03*
X0019471D03*
X0019668D03*
X0019865D03*
X0020062D03*
X0020259D03*
X0020653D03*
X0020850D03*
X0021047D03*
X0021244D03*
X0021441D03*
X0021638D03*
X0021835D03*
X0022032D03*
X0022229D03*
X0022623D03*
X0022820D03*
X0023017D03*
X0023214D03*
X0023411D03*
X0023608D03*
X0023805D03*
X0024002D03*
X0024199D03*
X0024593D03*
X0024790D03*
X0024987D03*
X0025184D03*
X0025381D03*
X0025578D03*
X0025775D03*
X0025972D03*
X0026169D03*
X0026563D03*
X0026760D03*
X0026957D03*
X0027154D03*
X0027351D03*
X0027548D03*
X0027745D03*
X0027942D03*
X0028139D03*
X0028533D03*
X0028730D03*
Y0026790D03*
X0028533D03*
X0028336D03*
X0028139D03*
X0027942D03*
X0027548D03*
X0027351D03*
X0027154D03*
X0026957D03*
X0026760D03*
X0026563D03*
X0026366D03*
X0026169D03*
X0025972D03*
X0025578D03*
X0025381D03*
X0025184D03*
X0024987D03*
X0024790D03*
X0024593D03*
X0024396D03*
X0024199D03*
X0024002D03*
X0023608D03*
X0023411D03*
X0023214D03*
X0023017D03*
X0022820D03*
X0022623D03*
X0022426D03*
X0022229D03*
X0022032D03*
X0021638D03*
X0021441D03*
X0021244D03*
X0021047D03*
X0020850D03*
X0020653D03*
X0020456D03*
X0020259D03*
X0020062D03*
X0019668D03*
X0019471D03*
X0019274D03*
X0019077D03*
X0018880D03*
X0018683D03*
G54D29*
X0036398Y0018781D03*
X0038171D03*
X0037974Y0023536D03*
X0018683Y0015183D03*
X0020456D03*
X0022426D03*
X0024396D03*
X0026366D03*
X0028336D03*
X0027745Y0026790D03*
X0025775D03*
X0023805D03*
X0021835D03*
X0019865D03*
G54D129*
X0032304Y0018282D03*
X0019057Y0007864D03*
X0025468Y0006808D03*
G54D130*
X0032304Y0019282D03*
X0019057Y0006864D03*
X0025468Y0007808D03*
M02*
