*
G04 Mass Parameters ***
*
G04 Image ***
*
%INC:\CAIN\ONLY_AT91\ONLY_AT91_2SIDE_V4.ASB*%
%ICAS*%
%MOIN*%
%IPPOS*%
%ASAXBY*%
G74*%FSLAN2X34Y34*%
*
G04 Aperture Definitions ***
*
%AMTHERMAL37*
1,1,0.1110,0,0,*
1,0,0.0870,0,0,*
21,0,0.1110,0.0100,0,0,315.0*
21,0,0.1110,0.0100,0,0,45.0*%
%AMTHERMAL38*
1,1,0.1370,0,0,*
1,0,0.1130,0,0,*
21,0,0.1370,0.0100,0,0,315.0*
21,0,0.1370,0.0100,0,0,45.0*%
%AMTHERMAL41*
1,1,0.1080,0,0,*
1,0,0.0840,0,0,*
21,0,0.1080,0.0100,0,0,45.0*
21,0,0.1080,0.0100,0,0,135.0*%
%AMTHERMAL46*
1,1,0.1840,0,0,*
1,0,0.1600,0,0,*
21,0,0.1840,0.0100,0,0,315.0*
21,0,0.1840,0.0100,0,0,45.0*%
%AMTHERMAL48*
1,1,0.1080,0,0,*
1,0,0.0840,0,0,*
21,0,0.1080,0.0100,0,0,225.0*
21,0,0.1080,0.0100,0,0,315.0*%
%AMTHERMAL72*
1,1,0.1110,0,0,*
1,0,0.0870,0,0,*
21,0,0.1110,0.0100,0,0,225.0*
21,0,0.1110,0.0100,0,0,315.0*%
%AMTHERMAL73*
1,1,0.1370,0,0,*
1,0,0.1130,0,0,*
21,0,0.1370,0.0100,0,0,225.0*
21,0,0.1370,0.0100,0,0,315.0*%
%AMTHERMAL74*
1,1,0.1080,0,0,*
1,0,0.0840,0,0,*
21,0,0.1080,0.0100,0,0,135.0*
21,0,0.1080,0.0100,0,0,225.0*%
%AMTHERMAL89*
1,1,0.1120,0,0,*
1,0,0.0880,0,0,*
21,0,0.1120,0.0100,0,0,45.0*
21,0,0.1120,0.0100,0,0,135.0*%
%AMTHERMAL91*
1,1,0.1020,0,0,*
1,0,0.0780,0,0,*
21,0,0.1020,0.0100,0,0,45.0*
21,0,0.1020,0.0100,0,0,135.0*%
%AMTHERMAL94*
1,1,0.1020,0,0,*
1,0,0.0780,0,0,*
21,0,0.1020,0.0100,0,0,46.2*
21,0,0.1020,0.0100,0,0,136.2*%
%AMTHERMAL108*
1,1,0.1160,0,0,*
1,0,0.0920,0,0,*
21,0,0.1160,0.0100,0,0,225.0*
21,0,0.1160,0.0100,0,0,315.0*%
%AMTHERMAL109*
1,1,0.1110,0,0,*
1,0,0.0870,0,0,*
21,0,0.1110,0.0100,0,0,45.0*
21,0,0.1110,0.0100,0,0,135.0*%
%ADD10R,0.0400X0.0500*%
%ADD11R,0.0500X0.0400*%
%ADD12R,0.1030X0.1080*%
%ADD13C,0.0600*%
%ADD14C,0.0870*%
%ADD15C,0.1250*%
%ADD16C,0.0550*%
%ADD17R,0.0550X0.0550*%
%ADD18C,0.0620*%
%ADD19R,0.0620X0.0620*%
%ADD20C,0.0620X0.0310*%
%ADD21R,0.0787X0.0669*%
%ADD22R,0.0590X0.0394*%
%ADD23R,0.0250X0.0750*%
%ADD24R,0.0500X0.0500*%
%ADD25R,0.0750X0.1600*%
%ADD26O,0.0700X0.0110*%
%ADD27R,0.0700X0.0110*%
%ADD28O,0.0110X0.0700*%
%ADD29R,0.0110X0.0700*%
%ADD30C,0.1340*%
%ADD31R,0.0600X0.0100*%
%ADD32R,0.0160X0.0700*%
%ADD33R,0.0138X0.0394*%
%ADD34C,0.0090*%
%ADD35R,0.0197X0.0551*%
%ADD36C,0.0670*%
%ADD37THERMAL37*%
%ADD38THERMAL38*%
%ADD39C,0.1550*%
%ADD40C,0.0750*%
%ADD41THERMAL41*%
%ADD42C,0.0820*%
%ADD43R,0.0820X0.0820*%
%ADD44C,0.0700*%
%ADD45C,0.1400*%
%ADD46THERMAL46*%
%ADD47C,0.0650*%
%ADD48THERMAL48*%
%ADD49C,0.0930*%
%ADD50R,0.0750X0.0750*%
%ADD51C,0.0920*%
%ADD52C,0.1350*%
%ADD53R,0.0300X0.0800*%
%ADD54R,0.0450X0.0550*%
%ADD55R,0.0800X0.1650*%
%ADD56C,0.1390*%
%ADD57R,0.0650X0.0140*%
%ADD58R,0.0210X0.0750*%
%ADD59R,0.0236X0.0590*%
%ADD60C,0.0060*%
%ADD61C,0.0080*%
%ADD62C,0.0100*%
%ADD63C,0.0030*%
%ADD64C,0.0050*%
%ADD65C,0.0039*%
%ADD66C,0.0070*%
%ADD67C,0.0040*%
%ADD68R,0.1600X0.0750*%
%ADD69R,0.0700X0.0160*%
%ADD70R,0.1080X0.1030*%
%ADD71R,0.0100X0.0600*%
%ADD72THERMAL72*%
%ADD73THERMAL73*%
%ADD74THERMAL74*%
%ADD75R,0.1650X0.0800*%
%ADD76R,0.0750X0.0210*%
%ADD77R,0.0140X0.0650*%
%ADD78C,0.0910*%
%ADD79C,0.0320*%
%ADD80C,0.0330*%
%ADD81C,0.0330*%
%ADD82C,0.0250*%
%ADD83C,0.0236*%
%ADD84C,0.0165*%
%ADD85R,0.0440X0.1130*%
%ADD86R,0.0394X0.0138*%
%ADD87R,0.0390X0.0270*%
%ADD88C,0.0300*%
%ADD89THERMAL89*%
%ADD90C,0.0420*%
%ADD91THERMAL91*%
%ADD92C,0.0118*%
%ADD93C,0.0420*%
%ADD94THERMAL94*%
%ADD95C,0.0380*%
%ADD96C,0.0380*%
%ADD97R,0.0440X0.0320*%
%ADD98C,0.0010*%
%ADD99C,0.0020*%
%ADD100C,0.0280*%
%ADD101C,0.0280*%
%ADD102C,0.0200*%
%ADD103C,0.0197*%
%ADD104R,0.0550X0.0350*%
%ADD105R,0.0450X0.0350*%
%ADD106C,0.0069*%
%ADD107C,0.0335*%
%ADD108THERMAL108*%
%ADD109THERMAL109*%
%ADD110C,0.0079*%
%ADD111C,0.0980*%
%ADD112R,0.0670X0.0670*%
%ADD113R,0.0550X0.0450*%
%ADD114R,0.0600X0.0400*%
%ADD115R,0.1000X0.0600*%
%ADD116R,0.1102X0.2283*%
%ADD117C,0.0159*%
%ADD118C,0.0157*%
%ADD119C,0.0354*%
%ADD120C,0.0394*%
%ADD121R,0.0350X0.0550*%
%ADD122R,0.0350X0.0450*%
%ADD123R,0.0880X0.1420*%
%ADD124R,0.0880X0.0480*%
%ADD125R,0.1050X0.0650*%
%ADD126R,0.0400X0.0600*%
%ADD127R,0.0930X0.1470*%
%ADD128R,0.0930X0.0530*%
%ADD129C,0.0580*%
%ADD130R,0.0580X0.0580*%
%ADD131C,0.0315*%
%ADD132C,0.0780*%
%ADD133R,0.0780X0.0780*%
%ADD134C,0.1024*%
%ADD135O,0.0320X0.0394*%
%ADD136C,0.0512*%
%ADD137R,0.0827X0.0630*%
%ADD138R,0.0728X0.0551*%
%ADD139R,0.0472X0.0905*%
*
G04 Plot Data ***
*
G54D60*
G01X0025123Y0017903D02*
X0024901D01*
X0025123Y0017681D01*
Y0017625D01*
X0025096Y0017570D01*
X0024929D01*
X0024901Y0017625D01*
X0024559Y0017736D02*
X0024726D01*
X0024753Y0017792D01*
Y0017848D01*
X0024726Y0017903D01*
X0024559D01*
X0024531Y0017848D01*
Y0017792D01*
X0024642Y0017570D01*
X0024383Y0017848D02*
X0024356Y0017903D01*
X0024189D01*
X0024161Y0017848D01*
Y0017625D01*
X0024189Y0017570D01*
X0024356D01*
X0024383Y0017625D01*
X0029264Y0016971D02*
Y0017082D01*
X0029153Y0017304D01*
X0029042Y0017082D01*
Y0016971D01*
X0028755Y0017304D02*
X0028700Y0017248D01*
X0028672Y0017193D01*
Y0017082D01*
X0028700Y0017026D01*
X0028755Y0016971D01*
X0028811D01*
X0028867Y0017026D01*
X0028894Y0017082D01*
Y0017193D01*
X0028867Y0017248D01*
X0028811Y0017304D01*
X0028755D01*
X0028302Y0017248D02*
X0028330Y0017304D01*
X0028497D01*
X0028524Y0017248D01*
Y0017137D01*
X0028469Y0017082D01*
X0028302D01*
Y0016971D01*
X0028524D01*
X0028154Y0017137D02*
X0027932D01*
X0027729D02*
X0027562D01*
Y0017304D02*
Y0016971D01*
X0027784D01*
X0027414D02*
Y0017304D01*
X0027359Y0017248D01*
X0027248Y0017026D01*
X0027192Y0016971D01*
Y0017304D01*
X0026878D02*
X0027044Y0016971D01*
X0026822D01*
X0026619Y0017304D02*
X0026674D01*
Y0017248D01*
X0026619D01*
Y0017304D01*
X0026416Y0017193D02*
X0026193D01*
X0026304Y0016971D01*
X0026360D01*
Y0017304D01*
X0026046Y0017137D02*
X0025823D01*
X0025648D02*
X0025481D01*
X0025453Y0017082D01*
Y0017026D01*
X0025481Y0016971D01*
X0025648D01*
X0025676Y0017026D01*
Y0017082D01*
X0025564Y0017304D01*
X0025083Y0017248D02*
X0025139Y0017304D01*
X0025250D01*
X0025306Y0017248D01*
Y0017193D01*
X0025194Y0017082D01*
X0025306Y0016971D01*
X0025083D01*
X0024936Y0017304D02*
Y0016971D01*
X0024880Y0017026D01*
X0024824Y0017137D01*
X0024769Y0017026D01*
X0024713Y0016971D01*
Y0017304D01*
X0024482Y0017137D02*
X0024566Y0017304D01*
X0024343Y0017137D02*
X0024510D01*
X0024566Y0017082D01*
Y0017026D01*
X0024510Y0016971D01*
X0024343D01*
Y0017304D01*
X0024084Y0017137D02*
X0024196D01*
Y0017248D01*
X0024168Y0017304D01*
X0024001D01*
X0023973Y0017248D01*
Y0017026D01*
X0024001Y0016971D01*
X0024168D01*
X0024196Y0017026D01*
X0025790Y0017536D02*
X0025901D01*
X0025846D02*
Y0017869D01*
X0025901Y0017814D01*
X0026299Y0017703D02*
X0026132D01*
X0026104Y0017647D01*
Y0017592D01*
X0026132Y0017536D01*
X0026299D01*
X0026327Y0017592D01*
Y0017647D01*
X0026216Y0017869D01*
X0026474Y0017592D02*
X0026502Y0017536D01*
X0026669D01*
X0026697Y0017592D01*
Y0017814D01*
X0026669Y0017869D01*
X0026502D01*
X0026474Y0017814D01*
X0025979Y0016467D02*
X0026146Y0016134D01*
X0025924D01*
X0025776Y0016467D02*
X0025554D01*
X0025776Y0016245D01*
Y0016190D01*
X0025748Y0016134D01*
X0025582D01*
X0025554Y0016190D01*
X0025323Y0016301D02*
X0025406Y0016467D01*
X0025184Y0016301D02*
X0025350D01*
X0025406Y0016245D01*
Y0016190D01*
X0025350Y0016134D01*
X0025184D01*
Y0016467D01*
X0029302Y0015868D02*
Y0015813D01*
X0029246D01*
Y0015868D01*
X0029302D01*
X0029274Y0015535D02*
X0029107Y0015868D01*
X0029080Y0015535D02*
Y0015590D01*
X0029135D01*
Y0015535D01*
X0029080D01*
X0028932Y0015868D02*
X0028821D01*
X0028876D02*
Y0015535D01*
X0028821Y0015590D01*
X0027900Y0015813D02*
X0027928Y0015868D01*
X0028095D01*
X0028123Y0015813D01*
Y0015702D01*
X0028067Y0015646D01*
X0027900D01*
Y0015535D01*
X0028123D01*
X0027614Y0015868D02*
X0027558Y0015813D01*
X0027530Y0015757D01*
Y0015646D01*
X0027558Y0015590D01*
X0027614Y0015535D01*
X0027669D01*
X0027725Y0015590D01*
X0027753Y0015646D01*
Y0015757D01*
X0027725Y0015813D01*
X0027669Y0015868D01*
X0027614D01*
X0027355Y0015702D02*
X0027383Y0015646D01*
Y0015590D01*
X0027355Y0015535D01*
X0027188D01*
X0027160Y0015590D01*
Y0015646D01*
X0027188Y0015702D01*
X0027355D01*
X0027383Y0015757D01*
Y0015813D01*
X0027355Y0015868D01*
X0027188D01*
X0027160Y0015813D01*
Y0015757D01*
X0027188Y0015702D01*
X0026874Y0015868D02*
X0026818Y0015813D01*
X0026790Y0015757D01*
Y0015646D01*
X0026818Y0015590D01*
X0026874Y0015535D01*
X0026929D01*
X0026985Y0015590D01*
X0027013Y0015646D01*
Y0015757D01*
X0026985Y0015813D01*
X0026929Y0015868D01*
X0026874D01*
X0026643Y0015702D02*
X0026420D01*
X0026078D02*
X0026245D01*
X0026273Y0015757D01*
Y0015813D01*
X0026245Y0015868D01*
X0026078D01*
X0026050Y0015813D01*
Y0015757D01*
X0026161Y0015535D01*
X0025875Y0015702D02*
X0025708D01*
X0025680Y0015646D01*
Y0015590D01*
X0025708Y0015535D01*
X0025875D01*
X0025903Y0015590D01*
Y0015646D01*
X0025791Y0015868D01*
X0025533D02*
X0025366Y0015702D01*
X0025533Y0015535D01*
X0025310D02*
Y0015868D01*
X0025163D02*
X0025052D01*
X0025107D02*
Y0015535D01*
X0025052Y0015590D01*
X0024366Y0016267D02*
X0024338Y0016323D01*
Y0016378D01*
X0024366Y0016434D01*
X0024533D01*
X0024560Y0016378D01*
Y0016323D01*
X0024533Y0016267D01*
X0024366D01*
X0024338Y0016212D01*
Y0016156D01*
X0024366Y0016100D01*
X0024533D01*
X0024560Y0016156D01*
Y0016212D01*
X0024533Y0016267D01*
X0024708Y0016100D02*
X0024930D01*
X0024708Y0016323D01*
Y0016378D01*
X0024736Y0016434D01*
X0024903D01*
X0024930Y0016378D01*
X0025161Y0016267D02*
X0025078Y0016100D01*
X0025300Y0016267D02*
X0025134D01*
X0025078Y0016323D01*
Y0016378D01*
X0025134Y0016434D01*
X0025300D01*
Y0016100D01*
X0021182Y0016700D02*
Y0016755D01*
X0021238D01*
Y0016700D01*
X0021182D01*
X0021210Y0017033D02*
X0021377Y0016700D01*
X0021405Y0017033D02*
Y0016977D01*
X0021349D01*
Y0017033D01*
X0021405D01*
X0021552Y0016700D02*
X0021663D01*
X0021608D02*
Y0017033D01*
X0021663Y0016977D01*
X0022584Y0016755D02*
X0022556Y0016700D01*
X0022389D01*
X0022362Y0016755D01*
Y0016866D01*
X0022417Y0016922D01*
X0022584D01*
Y0017033D01*
X0022362D01*
X0022871Y0016700D02*
X0022926Y0016755D01*
X0022954Y0016811D01*
Y0016922D01*
X0022926Y0016977D01*
X0022871Y0017033D01*
X0022815D01*
X0022759Y0016977D01*
X0022732Y0016922D01*
Y0016811D01*
X0022759Y0016755D01*
X0022815Y0016700D01*
X0022871D01*
X0023129Y0016866D02*
X0023102Y0016922D01*
Y0016977D01*
X0023129Y0017033D01*
X0023296D01*
X0023324Y0016977D01*
Y0016922D01*
X0023296Y0016866D01*
X0023129D01*
X0023102Y0016811D01*
Y0016755D01*
X0023129Y0016700D01*
X0023296D01*
X0023324Y0016755D01*
Y0016811D01*
X0023296Y0016866D01*
X0023611Y0016700D02*
X0023666Y0016755D01*
X0023694Y0016811D01*
Y0016922D01*
X0023666Y0016977D01*
X0023611Y0017033D01*
X0023555D01*
X0023499Y0016977D01*
X0023472Y0016922D01*
Y0016811D01*
X0023499Y0016755D01*
X0023555Y0016700D01*
X0023611D01*
X0023842Y0016866D02*
X0024064D01*
X0024406D02*
X0024239D01*
X0024212Y0016811D01*
Y0016755D01*
X0024239Y0016700D01*
X0024406D01*
X0024434Y0016755D01*
Y0016811D01*
X0024323Y0017033D01*
X0024609Y0016866D02*
X0024776D01*
X0024804Y0016922D01*
Y0016977D01*
X0024776Y0017033D01*
X0024609D01*
X0024582Y0016977D01*
Y0016922D01*
X0024693Y0016700D01*
X0024952D02*
X0025118Y0016866D01*
X0024952Y0017033D01*
X0025174D02*
Y0016700D01*
X0025322D02*
X0025433D01*
X0025377D02*
Y0017033D01*
X0025433Y0016977D01*
X0021593Y0018469D02*
Y0018357D01*
X0021705Y0018135D01*
X0021816Y0018357D01*
Y0018469D01*
X0022102Y0018135D02*
X0022158Y0018191D01*
X0022186Y0018246D01*
Y0018357D01*
X0022158Y0018413D01*
X0022102Y0018469D01*
X0022047D01*
X0021991Y0018413D01*
X0021963Y0018357D01*
Y0018246D01*
X0021991Y0018191D01*
X0022047Y0018135D01*
X0022102D01*
X0022556Y0018191D02*
X0022528Y0018135D01*
X0022361D01*
X0022333Y0018191D01*
Y0018302D01*
X0022389Y0018357D01*
X0022556D01*
Y0018469D01*
X0022333D01*
X0022703Y0018302D02*
X0022926D01*
X0023129D02*
X0023296D01*
Y0018135D02*
Y0018469D01*
X0023073D01*
X0023443D02*
Y0018135D01*
X0023499Y0018191D01*
X0023610Y0018413D01*
X0023666Y0018469D01*
Y0018135D01*
X0023980D02*
X0023813Y0018469D01*
X0024036D01*
X0024239Y0018135D02*
X0024183D01*
Y0018191D01*
X0024239D01*
Y0018135D01*
X0024442Y0018246D02*
X0024665D01*
X0024553Y0018469D01*
X0024498D01*
Y0018135D01*
X0024812Y0018302D02*
X0025035D01*
X0025210D02*
X0025377D01*
X0025405Y0018357D01*
Y0018413D01*
X0025377Y0018469D01*
X0025210D01*
X0025182Y0018413D01*
Y0018357D01*
X0025293Y0018135D01*
X0025775Y0018191D02*
X0025719Y0018135D01*
X0025608D01*
X0025552Y0018191D01*
Y0018246D01*
X0025663Y0018357D01*
X0025552Y0018469D01*
X0025775D01*
X0025922Y0018135D02*
Y0018469D01*
X0025978Y0018413D01*
X0026033Y0018302D01*
X0026089Y0018413D01*
X0026145Y0018469D01*
Y0018135D01*
X0026376Y0018302D02*
X0026292Y0018135D01*
X0026515Y0018302D02*
X0026348D01*
X0026292Y0018357D01*
Y0018413D01*
X0026348Y0018469D01*
X0026515D01*
Y0018135D01*
X0026773Y0018302D02*
X0026662D01*
Y0018191D01*
X0026690Y0018135D01*
X0026857D01*
X0026885Y0018191D01*
Y0018413D01*
X0026857Y0018469D01*
X0026690D01*
X0026662Y0018413D01*
X0025628Y0033871D02*
X0025962D01*
X0025906Y0033816D01*
X0025795Y0033760D01*
X0025906Y0033705D01*
X0025962Y0033649D01*
X0025628D01*
X0025517Y0033501D02*
Y0033279D01*
X0025628Y0032965D02*
X0025962Y0033131D01*
Y0032909D01*
X0025628Y0032761D02*
Y0032650D01*
Y0032706D02*
X0025962D01*
X0025906Y0032650D01*
X0025628Y0032447D02*
Y0032336D01*
Y0032391D02*
X0025962D01*
X0025906Y0032336D01*
X0025628Y0032133D02*
Y0032022D01*
Y0032077D02*
X0025962D01*
X0025906Y0032022D01*
X0025628Y0031707D02*
X0025962D01*
Y0031818D02*
Y0031596D01*
X0025628Y0031448D02*
Y0031254D01*
X0025962D01*
X0026184Y0032308D02*
X0026128Y0032364D01*
Y0032475D01*
X0026184Y0032530D01*
X0026240D01*
X0026351Y0032419D01*
X0026462Y0032530D01*
Y0032308D01*
X0026128Y0032021D02*
X0026184Y0031966D01*
X0026240Y0031938D01*
X0026351D01*
X0026406Y0031966D01*
X0026462Y0032021D01*
Y0032077D01*
X0026406Y0032133D01*
X0026351Y0032160D01*
X0026240D01*
X0026184Y0032133D01*
X0026128Y0032077D01*
Y0032021D01*
Y0031790D02*
Y0031679D01*
Y0031735D02*
X0026462D01*
X0026406Y0031679D01*
X0026462Y0031476D02*
X0026184D01*
X0026128Y0031448D01*
Y0031282D01*
X0026184Y0031254D01*
X0026462D01*
X0021665Y0034417D02*
X0021721Y0034444D01*
X0021776D01*
X0021832Y0034417D01*
Y0034250D01*
X0021776Y0034222D01*
X0021721D01*
X0021665Y0034250D01*
Y0034417D01*
X0021610Y0034444D01*
X0021554D01*
X0021498Y0034417D01*
Y0034250D01*
X0021554Y0034222D01*
X0021610D01*
X0021665Y0034250D01*
X0021498Y0034019D02*
Y0034074D01*
X0021554D01*
Y0034019D01*
X0021498D01*
Y0033816D02*
Y0033705D01*
Y0033760D02*
X0021832D01*
X0021776Y0033705D01*
X0021665Y0033501D02*
Y0033279D01*
X0021498Y0032965D02*
X0021832Y0033131D01*
Y0032909D01*
X0021498Y0032761D02*
Y0032650D01*
Y0032706D02*
X0021832D01*
X0021776Y0032650D01*
X0021498Y0032447D02*
Y0032336D01*
Y0032391D02*
X0021832D01*
X0021776Y0032336D01*
X0021498Y0032133D02*
Y0032022D01*
Y0032077D02*
X0021832D01*
X0021776Y0032022D01*
X0021498Y0031707D02*
X0021832D01*
Y0031818D02*
Y0031596D01*
X0021498Y0031448D02*
Y0031254D01*
X0021832D01*
X0021998Y0032530D02*
Y0032308D01*
X0022221Y0032530D01*
X0022276D01*
X0022332Y0032503D01*
Y0032336D01*
X0022276Y0032308D01*
X0021998Y0032021D02*
X0022054Y0031966D01*
X0022110Y0031938D01*
X0022221D01*
X0022276Y0031966D01*
X0022332Y0032021D01*
Y0032077D01*
X0022276Y0032133D01*
X0022221Y0032160D01*
X0022110D01*
X0022054Y0032133D01*
X0021998Y0032077D01*
Y0032021D01*
Y0031790D02*
Y0031679D01*
Y0031735D02*
X0022332D01*
X0022276Y0031679D01*
X0022332Y0031476D02*
X0022054D01*
X0021998Y0031448D01*
Y0031282D01*
X0022054Y0031254D01*
X0022332D01*
X0026020Y0027452D02*
X0026048Y0027396D01*
Y0027341D01*
X0026020Y0027285D01*
X0025853D01*
X0025825Y0027341D01*
Y0027396D01*
X0025853Y0027452D01*
X0026020D01*
X0026048Y0027507D01*
Y0027563D01*
X0026020Y0027618D01*
X0025853D01*
X0025825Y0027563D01*
Y0027507D01*
X0025853Y0027452D01*
X0025678Y0027618D02*
X0025455D01*
X0025678Y0027396D01*
Y0027341D01*
X0025650Y0027285D01*
X0025483D01*
X0025455Y0027341D01*
X0025308Y0027563D02*
X0025280Y0027618D01*
X0025113D01*
X0025085Y0027563D01*
Y0027341D01*
X0025113Y0027285D01*
X0025280D01*
X0025308Y0027341D01*
X0030189Y0026686D02*
Y0026797D01*
X0030077Y0027019D01*
X0029966Y0026797D01*
Y0026686D01*
X0029624Y0026853D02*
X0029791D01*
X0029819Y0026908D01*
Y0026964D01*
X0029791Y0027019D01*
X0029624D01*
X0029596Y0026964D01*
Y0026908D01*
X0029707Y0026686D01*
X0029449Y0027019D02*
X0029338D01*
X0029393D02*
Y0026686D01*
X0029338Y0026741D01*
X0029134Y0026853D02*
X0028912D01*
X0028709D02*
X0028542D01*
Y0027019D02*
Y0026686D01*
X0028764D01*
X0028394D02*
Y0027019D01*
X0028339Y0026964D01*
X0028228Y0026741D01*
X0028172Y0026686D01*
Y0027019D01*
X0027885D02*
X0027830Y0026964D01*
X0027802Y0026908D01*
Y0026797D01*
X0027830Y0026741D01*
X0027885Y0026686D01*
X0027941D01*
X0027996Y0026741D01*
X0028024Y0026797D01*
Y0026908D01*
X0027996Y0026964D01*
X0027941Y0027019D01*
X0027885D01*
X0027515D02*
X0027460Y0026964D01*
X0027432Y0026908D01*
Y0026797D01*
X0027460Y0026741D01*
X0027515Y0026686D01*
X0027571D01*
X0027626Y0026741D01*
X0027654Y0026797D01*
Y0026908D01*
X0027626Y0026964D01*
X0027571Y0027019D01*
X0027515D01*
X0027284D02*
X0027173D01*
X0027229D02*
Y0026686D01*
X0027173Y0026741D01*
X0026970Y0026853D02*
X0026748D01*
X0026572D02*
X0026405D01*
X0026378Y0026797D01*
Y0026741D01*
X0026405Y0026686D01*
X0026572D01*
X0026600Y0026741D01*
Y0026797D01*
X0026489Y0027019D01*
X0026008Y0026964D02*
X0026063Y0027019D01*
X0026174D01*
X0026230Y0026964D01*
Y0026908D01*
X0026119Y0026797D01*
X0026230Y0026686D01*
X0026008D01*
X0025860Y0027019D02*
Y0026686D01*
X0025804Y0026741D01*
X0025749Y0026853D01*
X0025693Y0026741D01*
X0025638Y0026686D01*
Y0027019D01*
X0025407Y0026853D02*
X0025490Y0027019D01*
X0025268Y0026853D02*
X0025434D01*
X0025490Y0026797D01*
Y0026741D01*
X0025434Y0026686D01*
X0025268D01*
Y0027019D01*
X0025009Y0026853D02*
X0025120D01*
Y0026964D01*
X0025092Y0027019D01*
X0024925D01*
X0024898Y0026964D01*
Y0026741D01*
X0024925Y0026686D01*
X0025092D01*
X0025120Y0026741D01*
X0033630Y0007598D02*
X0033852D01*
X0033741Y0007820D01*
X0033686D01*
Y0007486D01*
X0034000D02*
X0034222D01*
X0034000Y0007709D01*
Y0007764D01*
X0034028Y0007820D01*
X0034195D01*
X0034222Y0007764D01*
X0034453Y0007653D02*
X0034370Y0007486D01*
X0034592Y0007653D02*
X0034426D01*
X0034370Y0007709D01*
Y0007764D01*
X0034426Y0007820D01*
X0034592D01*
Y0007486D01*
X0034013Y0008086D02*
X0034068Y0008141D01*
X0034096Y0008197D01*
Y0008308D01*
X0034068Y0008363D01*
X0034013Y0008419D01*
X0033957D01*
X0033901Y0008363D01*
X0033874Y0008308D01*
Y0008197D01*
X0033901Y0008141D01*
X0033957Y0008086D01*
X0034013D01*
X0034383D02*
X0034438Y0008141D01*
X0034466Y0008197D01*
Y0008308D01*
X0034438Y0008363D01*
X0034383Y0008419D01*
X0034327D01*
X0034271Y0008363D01*
X0034244Y0008308D01*
Y0008197D01*
X0034271Y0008141D01*
X0034327Y0008086D01*
X0034383D01*
X0034614D02*
X0034725D01*
X0034669D02*
Y0008419D01*
X0034725Y0008363D01*
X0036024Y0031261D02*
X0035857Y0031428D01*
X0035690Y0031261D01*
Y0031483D02*
X0036024D01*
Y0031770D02*
X0035968Y0031825D01*
X0035912Y0031853D01*
X0035801D01*
X0035746Y0031825D01*
X0035690Y0031770D01*
Y0031714D01*
X0035746Y0031659D01*
X0035801Y0031631D01*
X0035912D01*
X0035968Y0031659D01*
X0036024Y0031714D01*
Y0031770D01*
Y0032001D02*
Y0032112D01*
Y0032056D02*
X0035690D01*
X0035746Y0032112D01*
X0027091Y0012849D02*
X0027035Y0012905D01*
Y0013016D01*
X0027091Y0013071D01*
X0027146D01*
X0027257Y0012960D01*
X0027368Y0013071D01*
Y0012849D01*
X0027091Y0012701D02*
X0027035Y0012674D01*
Y0012507D01*
X0027091Y0012479D01*
X0027313D01*
X0027368Y0012507D01*
Y0012674D01*
X0027313Y0012701D01*
X0027968Y0017694D02*
X0027856D01*
X0027634Y0017582D01*
X0027856Y0017471D01*
X0027968D01*
X0027634Y0017185D02*
X0027690Y0017129D01*
X0027745Y0017101D01*
X0027856D01*
X0027912Y0017129D01*
X0027968Y0017185D01*
Y0017240D01*
X0027912Y0017296D01*
X0027856Y0017324D01*
X0027745D01*
X0027690Y0017296D01*
X0027634Y0017240D01*
Y0017185D01*
X0027690Y0016731D02*
X0027634Y0016759D01*
Y0016926D01*
X0027690Y0016954D01*
X0027801D01*
X0027856Y0016898D01*
Y0016731D01*
X0027968D01*
Y0016954D01*
X0027801Y0016584D02*
Y0016361D01*
Y0016158D02*
Y0015991D01*
X0027634D02*
X0027968D01*
Y0016214D01*
X0027801Y0015621D02*
Y0015788D01*
X0027856Y0015844D01*
X0027912D01*
X0027968Y0015788D01*
Y0015621D01*
X0027634D01*
Y0015335D02*
X0027690Y0015279D01*
X0027745Y0015251D01*
X0027856D01*
X0027912Y0015279D01*
X0027968Y0015335D01*
Y0015390D01*
X0027912Y0015446D01*
X0027856Y0015474D01*
X0027745D01*
X0027690Y0015446D01*
X0027634Y0015390D01*
Y0015335D01*
Y0014937D02*
X0027968Y0015104D01*
Y0014881D01*
X0027745Y0014734D02*
Y0014511D01*
X0027968Y0014622D01*
Y0014678D01*
X0027634D01*
X0027801Y0014364D02*
Y0014141D01*
Y0013966D02*
Y0013799D01*
X0027856Y0013771D01*
X0027912D01*
X0027968Y0013799D01*
Y0013966D01*
X0027912Y0013994D01*
X0027856D01*
X0027634Y0013882D01*
X0027690Y0013401D02*
X0027634Y0013457D01*
Y0013568D01*
X0027690Y0013624D01*
X0027745D01*
X0027856Y0013512D01*
X0027968Y0013624D01*
Y0013401D01*
X0027634Y0013254D02*
X0027968D01*
X0027912Y0013198D01*
X0027801Y0013142D01*
X0027912Y0013087D01*
X0027968Y0013031D01*
X0027634D01*
X0027801Y0012800D02*
X0027634Y0012884D01*
X0027801Y0012661D02*
Y0012828D01*
X0027856Y0012884D01*
X0027912D01*
X0027968Y0012828D01*
Y0012661D01*
X0027634D01*
X0027801Y0012402D02*
Y0012514D01*
X0027690D01*
X0027634Y0012486D01*
Y0012319D01*
X0027690Y0012291D01*
X0027912D01*
X0027968Y0012319D01*
Y0012486D01*
X0027912Y0012514D01*
X0039471Y0029223D02*
X0039526Y0029195D01*
Y0029029D01*
X0039471Y0029001D01*
X0039360D01*
X0039304Y0029056D01*
Y0029223D01*
X0039193D01*
Y0029001D01*
X0039415Y0029371D02*
Y0029593D01*
X0039193Y0029482D01*
Y0029426D01*
X0039526D01*
X0039471Y0029741D02*
X0039526Y0029769D01*
Y0029935D01*
X0039471Y0029963D01*
X0039249D01*
X0039193Y0029935D01*
Y0029769D01*
X0039249Y0029741D01*
X0019303Y0027028D02*
X0019247Y0027056D01*
Y0027223D01*
X0019303Y0027251D01*
X0019414D01*
X0019469Y0027195D01*
Y0027028D01*
X0019580D01*
Y0027251D01*
X0019247Y0026881D02*
Y0026770D01*
Y0026825D02*
X0019580D01*
X0019525Y0026770D01*
X0019303Y0026566D02*
X0019247Y0026539D01*
Y0026372D01*
X0019303Y0026344D01*
X0019525D01*
X0019580Y0026372D01*
Y0026539D01*
X0019525Y0026566D01*
X0020180Y0031447D02*
X0020068D01*
X0019846Y0031336D01*
X0020068Y0031225D01*
X0020180D01*
X0020013Y0030883D02*
Y0031049D01*
X0019957Y0031077D01*
X0019902D01*
X0019846Y0031049D01*
Y0030883D01*
X0019902Y0030855D01*
X0019957D01*
X0020180Y0030966D01*
X0019846Y0030707D02*
Y0030596D01*
Y0030652D02*
X0020180D01*
X0020124Y0030596D01*
X0020013Y0030393D02*
Y0030171D01*
Y0029967D02*
Y0029801D01*
X0019846D02*
X0020180D01*
Y0030023D01*
Y0029653D02*
X0019846D01*
X0019902Y0029597D01*
X0020124Y0029486D01*
X0020180Y0029431D01*
X0019846D01*
Y0029144D02*
X0019902Y0029088D01*
X0019957Y0029061D01*
X0020068D01*
X0020124Y0029088D01*
X0020180Y0029144D01*
Y0029200D01*
X0020124Y0029255D01*
X0020068Y0029283D01*
X0019957D01*
X0019902Y0029255D01*
X0019846Y0029200D01*
Y0029144D01*
Y0028774D02*
X0019902Y0028718D01*
X0019957Y0028691D01*
X0020068D01*
X0020124Y0028718D01*
X0020180Y0028774D01*
Y0028830D01*
X0020124Y0028885D01*
X0020068Y0028913D01*
X0019957D01*
X0019902Y0028885D01*
X0019846Y0028830D01*
Y0028774D01*
Y0028543D02*
Y0028432D01*
Y0028487D02*
X0020180D01*
X0020124Y0028432D01*
X0020013Y0028229D02*
Y0028006D01*
Y0027831D02*
Y0027664D01*
X0020068Y0027636D01*
X0020124D01*
X0020180Y0027664D01*
Y0027831D01*
X0020124Y0027859D01*
X0020068D01*
X0019846Y0027747D01*
X0019902Y0027266D02*
X0019846Y0027322D01*
Y0027433D01*
X0019902Y0027489D01*
X0019957D01*
X0020068Y0027377D01*
X0020180Y0027489D01*
Y0027266D01*
X0019846Y0027119D02*
X0020180D01*
X0020124Y0027063D01*
X0020013Y0027007D01*
X0020124Y0026952D01*
X0020180Y0026896D01*
X0019846D01*
X0020013Y0026665D02*
X0019846Y0026749D01*
X0020013Y0026526D02*
Y0026693D01*
X0020068Y0026749D01*
X0020124D01*
X0020180Y0026693D01*
Y0026526D01*
X0019846D01*
X0020013Y0026267D02*
Y0026379D01*
X0019902D01*
X0019846Y0026351D01*
Y0026184D01*
X0019902Y0026156D01*
X0020124D01*
X0020180Y0026184D01*
Y0026351D01*
X0020124Y0026379D01*
X0040341Y0030934D02*
X0040397Y0030878D01*
Y0030767D01*
X0040341Y0030711D01*
X0040286D01*
X0040175Y0030823D01*
X0040063Y0030711D01*
Y0030934D01*
X0040397Y0031081D02*
Y0031192D01*
Y0031137D02*
X0040063D01*
X0040119Y0031192D01*
X0040230Y0031479D02*
X0040397Y0031396D01*
X0040230Y0031618D02*
Y0031451D01*
X0040175Y0031396D01*
X0040119D01*
X0040063Y0031451D01*
Y0031618D01*
X0040397D01*
X0039798Y0027500D02*
X0039742D01*
Y0027556D01*
X0039798D01*
Y0027500D01*
X0039464Y0027528D02*
X0039798Y0027694D01*
X0039464Y0027722D02*
X0039520D01*
Y0027667D01*
X0039464D01*
Y0027722D01*
X0039798Y0027870D02*
Y0027981D01*
Y0027925D02*
X0039464D01*
X0039520Y0027981D01*
X0039742Y0028902D02*
X0039798Y0028874D01*
Y0028707D01*
X0039742Y0028679D01*
X0039631D01*
X0039575Y0028735D01*
Y0028902D01*
X0039464D01*
Y0028679D01*
X0039798Y0029188D02*
X0039742Y0029244D01*
X0039686Y0029272D01*
X0039575D01*
X0039520Y0029244D01*
X0039464Y0029188D01*
Y0029133D01*
X0039520Y0029077D01*
X0039575Y0029049D01*
X0039686D01*
X0039742Y0029077D01*
X0039798Y0029133D01*
Y0029188D01*
X0039631Y0029447D02*
X0039575Y0029419D01*
X0039520D01*
X0039464Y0029447D01*
Y0029614D01*
X0039520Y0029642D01*
X0039575D01*
X0039631Y0029614D01*
Y0029447D01*
X0039686Y0029419D01*
X0039742D01*
X0039798Y0029447D01*
Y0029614D01*
X0039742Y0029642D01*
X0039686D01*
X0039631Y0029614D01*
X0039798Y0029928D02*
X0039742Y0029984D01*
X0039686Y0030012D01*
X0039575D01*
X0039520Y0029984D01*
X0039464Y0029928D01*
Y0029873D01*
X0039520Y0029817D01*
X0039575Y0029789D01*
X0039686D01*
X0039742Y0029817D01*
X0039798Y0029873D01*
Y0029928D01*
X0039631Y0030159D02*
Y0030382D01*
Y0030724D02*
Y0030557D01*
X0039686Y0030529D01*
X0039742D01*
X0039798Y0030557D01*
Y0030724D01*
X0039742Y0030752D01*
X0039686D01*
X0039464Y0030640D01*
X0039631Y0030927D02*
Y0031094D01*
X0039575Y0031122D01*
X0039520D01*
X0039464Y0031094D01*
Y0030927D01*
X0039520Y0030899D01*
X0039575D01*
X0039798Y0031010D01*
Y0031269D02*
X0039631Y0031436D01*
X0039464Y0031269D01*
Y0031492D02*
X0039798D01*
Y0031639D02*
Y0031750D01*
Y0031695D02*
X0039464D01*
X0039520Y0031750D01*
X0022423Y0015563D02*
X0022590Y0015229D01*
X0022367D01*
X0022220Y0015563D02*
X0022109D01*
X0022164D02*
Y0015229D01*
X0022109Y0015285D01*
X0021905Y0015507D02*
X0021878Y0015563D01*
X0021711D01*
X0021683Y0015507D01*
Y0015285D01*
X0021711Y0015229D01*
X0021878D01*
X0021905Y0015285D01*
X0046983Y0029419D02*
X0047038Y0029363D01*
Y0029252D01*
X0046983Y0029196D01*
X0046927D01*
X0046816Y0029308D01*
X0046705Y0029196D01*
Y0029419D01*
X0047038Y0029566D02*
Y0029761D01*
X0046705D01*
X0047927Y0022500D02*
Y0022722D01*
X0048038Y0022500D02*
X0047872D01*
X0047705Y0022583D01*
Y0022639D01*
X0047872Y0022722D01*
X0048038D01*
X0047872Y0022898D02*
X0047816Y0022870D01*
X0047760D01*
X0047705Y0022898D01*
Y0023064D01*
X0047760Y0023092D01*
X0047816D01*
X0047872Y0023064D01*
Y0022898D01*
X0047927Y0022870D01*
X0047983D01*
X0048038Y0022898D01*
Y0023064D01*
X0047983Y0023092D01*
X0047927D01*
X0047872Y0023064D01*
X0048149Y0023268D02*
X0048094Y0023240D01*
X0047983D01*
Y0023296D01*
X0048038D01*
Y0023240D01*
X0047983Y0023749D02*
X0048038Y0023693D01*
Y0023582D01*
X0047983Y0023527D01*
X0047927D01*
X0047816Y0023638D01*
X0047705Y0023527D01*
Y0023749D01*
X0047872Y0023897D02*
Y0024119D01*
Y0024267D02*
Y0024489D01*
X0048038Y0024267D02*
X0047705D01*
X0048038Y0024489D02*
X0047705D01*
Y0024637D02*
X0047983D01*
X0048038Y0024664D01*
Y0024831D01*
X0047983Y0024859D01*
X0047705D01*
X0048038Y0025007D02*
Y0025229D01*
X0047816Y0025007D01*
X0047760D01*
X0047705Y0025034D01*
Y0025201D01*
X0047760Y0025229D01*
X0048038Y0025377D02*
Y0025599D01*
X0047816Y0025377D01*
X0047760D01*
X0047705Y0025404D01*
Y0025571D01*
X0047760Y0025599D01*
X0047872Y0025747D02*
Y0025969D01*
X0048038Y0026117D02*
Y0026339D01*
X0047816Y0026117D01*
X0047760D01*
X0047705Y0026144D01*
Y0026311D01*
X0047760Y0026339D01*
X0048038Y0026653D02*
X0047705Y0026487D01*
Y0026709D01*
X0048038Y0026857D02*
Y0026968D01*
Y0026912D02*
X0047705D01*
X0047760Y0026968D01*
X0048038Y0027171D02*
Y0027282D01*
Y0027226D02*
X0047705D01*
X0047760Y0027282D01*
X0047872Y0027708D02*
Y0027541D01*
X0047816Y0027485D01*
X0047760D01*
X0047705Y0027541D01*
Y0027708D01*
X0048038D01*
X0047872Y0027855D02*
Y0028078D01*
Y0028281D02*
Y0028448D01*
X0048038Y0028225D02*
Y0028448D01*
X0047705D01*
Y0028225D01*
X0047760Y0028595D02*
X0047705Y0028623D01*
Y0028790D01*
X0047760Y0028818D01*
X0047816D01*
X0047872Y0028790D01*
Y0028623D01*
X0047927Y0028595D01*
X0047983D01*
X0048038Y0028623D01*
Y0028790D01*
X0047983Y0028818D01*
X0048038Y0028965D02*
Y0029160D01*
X0047705D01*
Y0029307D02*
X0047983D01*
X0048038Y0029335D01*
Y0029502D01*
X0047983Y0029530D01*
X0047705D01*
X0047872Y0029900D02*
Y0029733D01*
X0047816Y0029677D01*
X0047760D01*
X0047705Y0029733D01*
Y0029900D01*
X0048038D01*
X0040949Y0023929D02*
X0040921Y0023874D01*
X0040754D01*
X0040727Y0023929D01*
Y0024040D01*
X0040782Y0024096D01*
X0040949D01*
Y0024207D01*
X0040727D01*
X0041097Y0023874D02*
X0041291D01*
Y0024207D01*
X0034030Y0022985D02*
X0034252D01*
X0034030Y0022873D02*
Y0023040D01*
X0034113Y0023207D01*
X0034169D01*
X0034252Y0023040D01*
Y0022873D01*
X0034428Y0023040D02*
X0034400Y0023096D01*
Y0023151D01*
X0034428Y0023207D01*
X0034595D01*
X0034622Y0023151D01*
Y0023096D01*
X0034595Y0023040D01*
X0034428D01*
X0034400Y0022985D01*
Y0022929D01*
X0034428Y0022873D01*
X0034595D01*
X0034622Y0022929D01*
Y0022985D01*
X0034595Y0023040D01*
X0034798Y0022762D02*
X0034770Y0022818D01*
Y0022929D01*
X0034826D01*
Y0022873D01*
X0034770D01*
X0035279Y0022929D02*
X0035223Y0022873D01*
X0035112D01*
X0035057Y0022929D01*
Y0022985D01*
X0035168Y0023096D01*
X0035057Y0023207D01*
X0035279D01*
X0035427Y0023040D02*
X0035649D01*
X0035797D02*
X0036019D01*
X0035797Y0022873D02*
Y0023207D01*
X0036019Y0022873D02*
Y0023207D01*
X0036167D02*
Y0022929D01*
X0036195Y0022873D01*
X0036361D01*
X0036389Y0022929D01*
Y0023207D01*
X0036537Y0022873D02*
X0036759D01*
X0036537Y0023096D01*
Y0023151D01*
X0036565Y0023207D01*
X0036731D01*
X0036759Y0023151D01*
X0036907Y0022873D02*
X0037129D01*
X0036907Y0023096D01*
Y0023151D01*
X0036935Y0023207D01*
X0037101D01*
X0037129Y0023151D01*
X0037277Y0023040D02*
X0037499D01*
X0037647Y0022873D02*
X0037869D01*
X0037647Y0023096D01*
Y0023151D01*
X0037675Y0023207D01*
X0037841D01*
X0037869Y0023151D01*
X0038183Y0022873D02*
X0038017Y0023207D01*
X0038239D01*
X0038387Y0022873D02*
X0038498D01*
X0038442D02*
Y0023207D01*
X0038498Y0023151D01*
X0038701Y0022873D02*
X0038812D01*
X0038757D02*
Y0023207D01*
X0038812Y0023151D01*
X0039238Y0023040D02*
X0039071D01*
X0039015Y0023096D01*
Y0023151D01*
X0039071Y0023207D01*
X0039238D01*
Y0022873D01*
X0039385Y0023040D02*
X0039608D01*
X0039811D02*
X0039978D01*
X0039755Y0022873D02*
X0039978D01*
Y0023207D01*
X0039755D01*
X0040125Y0023151D02*
X0040153Y0023207D01*
X0040320D01*
X0040348Y0023151D01*
Y0023096D01*
X0040320Y0023040D01*
X0040153D01*
X0040125Y0022985D01*
Y0022929D01*
X0040153Y0022873D01*
X0040320D01*
X0040348Y0022929D01*
X0040495Y0022873D02*
X0040690D01*
Y0023207D01*
X0040838D02*
Y0022929D01*
X0040865Y0022873D01*
X0041032D01*
X0041060Y0022929D01*
Y0023207D01*
X0041430Y0023040D02*
X0041263D01*
X0041208Y0023096D01*
Y0023151D01*
X0041263Y0023207D01*
X0041430D01*
Y0022873D01*
X0020309Y0027306D02*
Y0027084D01*
X0020531Y0027306D01*
X0020587D01*
X0020642Y0027279D01*
Y0027112D01*
X0020587Y0027084D01*
X0020309Y0026936D02*
Y0026714D01*
X0020531Y0026936D01*
X0020587D01*
X0020642Y0026909D01*
Y0026742D01*
X0020587Y0026714D01*
X0020365Y0026566D02*
X0020309Y0026539D01*
Y0026372D01*
X0020365Y0026344D01*
X0020587D01*
X0020642Y0026372D01*
Y0026539D01*
X0020587Y0026566D01*
X0021242Y0031447D02*
X0021130D01*
X0020908Y0031336D01*
X0021130Y0031225D01*
X0021242D01*
X0021075Y0030883D02*
Y0031049D01*
X0021019Y0031077D01*
X0020964D01*
X0020908Y0031049D01*
Y0030883D01*
X0020964Y0030855D01*
X0021019D01*
X0021242Y0030966D01*
X0020908Y0030707D02*
Y0030596D01*
Y0030652D02*
X0021242D01*
X0021186Y0030596D01*
X0021075Y0030393D02*
Y0030171D01*
Y0029967D02*
Y0029801D01*
X0020908D02*
X0021242D01*
Y0030023D01*
Y0029653D02*
X0020908D01*
X0020964Y0029597D01*
X0021186Y0029486D01*
X0021242Y0029431D01*
X0020908D01*
Y0029144D02*
X0020964Y0029088D01*
X0021019Y0029061D01*
X0021130D01*
X0021186Y0029088D01*
X0021242Y0029144D01*
Y0029200D01*
X0021186Y0029255D01*
X0021130Y0029283D01*
X0021019D01*
X0020964Y0029255D01*
X0020908Y0029200D01*
Y0029144D01*
Y0028774D02*
X0020964Y0028718D01*
X0021019Y0028691D01*
X0021130D01*
X0021186Y0028718D01*
X0021242Y0028774D01*
Y0028830D01*
X0021186Y0028885D01*
X0021130Y0028913D01*
X0021019D01*
X0020964Y0028885D01*
X0020908Y0028830D01*
Y0028774D01*
Y0028543D02*
Y0028432D01*
Y0028487D02*
X0021242D01*
X0021186Y0028432D01*
X0021075Y0028229D02*
Y0028006D01*
Y0027831D02*
Y0027664D01*
X0021130Y0027636D01*
X0021186D01*
X0021242Y0027664D01*
Y0027831D01*
X0021186Y0027859D01*
X0021130D01*
X0020908Y0027747D01*
X0020964Y0027266D02*
X0020908Y0027322D01*
Y0027433D01*
X0020964Y0027489D01*
X0021019D01*
X0021130Y0027377D01*
X0021242Y0027489D01*
Y0027266D01*
X0020908Y0027119D02*
X0021242D01*
X0021186Y0027063D01*
X0021075Y0027007D01*
X0021186Y0026952D01*
X0021242Y0026896D01*
X0020908D01*
X0021075Y0026665D02*
X0020908Y0026749D01*
X0021075Y0026526D02*
Y0026693D01*
X0021130Y0026749D01*
X0021186D01*
X0021242Y0026693D01*
Y0026526D01*
X0020908D01*
X0021075Y0026267D02*
Y0026379D01*
X0020964D01*
X0020908Y0026351D01*
Y0026184D01*
X0020964Y0026156D01*
X0021186D01*
X0021242Y0026184D01*
Y0026351D01*
X0021186Y0026379D01*
X0037832Y0020186D02*
X0037888Y0020130D01*
X0037943Y0020102D01*
X0038054D01*
X0038110Y0020130D01*
X0038165Y0020186D01*
Y0020241D01*
X0038110Y0020297D01*
X0038054Y0020325D01*
X0037943D01*
X0037888Y0020297D01*
X0037832Y0020241D01*
Y0020186D01*
X0037888Y0019732D02*
X0037832Y0019760D01*
Y0019927D01*
X0037888Y0019955D01*
X0037999D01*
X0038054Y0019899D01*
Y0019732D01*
X0038165D01*
Y0019955D01*
X0037888Y0019585D02*
X0037832Y0019557D01*
Y0019390D01*
X0037888Y0019362D01*
X0038110D01*
X0038165Y0019390D01*
Y0019557D01*
X0038110Y0019585D01*
X0038765Y0024466D02*
X0038653D01*
X0038431Y0024354D01*
X0038653Y0024243D01*
X0038765D01*
X0038598Y0023901D02*
Y0024068D01*
X0038542Y0024096D01*
X0038487D01*
X0038431Y0024068D01*
Y0023901D01*
X0038487Y0023873D01*
X0038542D01*
X0038765Y0023984D01*
X0038431Y0023726D02*
Y0023615D01*
Y0023670D02*
X0038765D01*
X0038709Y0023615D01*
X0038598Y0023411D02*
Y0023189D01*
Y0022986D02*
Y0022819D01*
X0038431D02*
X0038765D01*
Y0023041D01*
Y0022671D02*
X0038431D01*
X0038487Y0022616D01*
X0038709Y0022505D01*
X0038765Y0022449D01*
X0038431D01*
Y0022162D02*
X0038487Y0022107D01*
X0038542Y0022079D01*
X0038653D01*
X0038709Y0022107D01*
X0038765Y0022162D01*
Y0022218D01*
X0038709Y0022273D01*
X0038653Y0022301D01*
X0038542D01*
X0038487Y0022273D01*
X0038431Y0022218D01*
Y0022162D01*
Y0021792D02*
X0038487Y0021737D01*
X0038542Y0021709D01*
X0038653D01*
X0038709Y0021737D01*
X0038765Y0021792D01*
Y0021848D01*
X0038709Y0021903D01*
X0038653Y0021931D01*
X0038542D01*
X0038487Y0021903D01*
X0038431Y0021848D01*
Y0021792D01*
Y0021561D02*
Y0021450D01*
Y0021506D02*
X0038765D01*
X0038709Y0021450D01*
X0038598Y0021247D02*
Y0021025D01*
Y0020849D02*
Y0020682D01*
X0038653Y0020655D01*
X0038709D01*
X0038765Y0020682D01*
Y0020849D01*
X0038709Y0020877D01*
X0038653D01*
X0038431Y0020766D01*
X0038487Y0020285D02*
X0038431Y0020340D01*
Y0020451D01*
X0038487Y0020507D01*
X0038542D01*
X0038653Y0020396D01*
X0038765Y0020507D01*
Y0020285D01*
X0038431Y0020137D02*
X0038765D01*
X0038709Y0020081D01*
X0038598Y0020026D01*
X0038709Y0019970D01*
X0038765Y0019915D01*
X0038431D01*
X0038598Y0019684D02*
X0038431Y0019767D01*
X0038598Y0019545D02*
Y0019711D01*
X0038653Y0019767D01*
X0038709D01*
X0038765Y0019711D01*
Y0019545D01*
X0038431D01*
X0038598Y0019286D02*
Y0019397D01*
X0038487D01*
X0038431Y0019369D01*
Y0019202D01*
X0038487Y0019175D01*
X0038709D01*
X0038765Y0019202D01*
Y0019369D01*
X0038709Y0019397D01*
X0045928Y0028475D02*
X0046150D01*
X0045928Y0028697D01*
Y0028753D01*
X0045956Y0028808D01*
X0046122D01*
X0046150Y0028753D01*
X0046298Y0028586D02*
X0046520D01*
X0046409Y0028808D01*
X0046354D01*
Y0028475D01*
X0046668Y0028530D02*
X0046696Y0028475D01*
X0046862D01*
X0046890Y0028530D01*
Y0028753D01*
X0046862Y0028808D01*
X0046696D01*
X0046668Y0028753D01*
X0040231Y0029595D02*
Y0029429D01*
X0040286Y0029401D01*
X0040342D01*
X0040397Y0029429D01*
Y0029595D01*
X0040342Y0029623D01*
X0040286D01*
X0040064Y0029512D01*
X0040231Y0029170D02*
X0040064Y0029253D01*
X0040231Y0029031D02*
Y0029197D01*
X0040286Y0029253D01*
X0040342D01*
X0040397Y0029197D01*
Y0029031D01*
X0040064D01*
X0040719Y0031803D02*
X0040663Y0031831D01*
Y0031997D01*
X0040719Y0032025D01*
X0040830D01*
X0040885Y0031970D01*
Y0031803D01*
X0040997D01*
Y0032025D01*
X0040663Y0031516D02*
X0040719Y0031461D01*
X0040774Y0031433D01*
X0040885D01*
X0040941Y0031461D01*
X0040997Y0031516D01*
Y0031572D01*
X0040941Y0031627D01*
X0040885Y0031655D01*
X0040774D01*
X0040719Y0031627D01*
X0040663Y0031572D01*
Y0031516D01*
X0040830Y0031257D02*
X0040885Y0031285D01*
X0040941D01*
X0040997Y0031257D01*
Y0031091D01*
X0040941Y0031063D01*
X0040885D01*
X0040830Y0031091D01*
Y0031257D01*
X0040774Y0031285D01*
X0040719D01*
X0040663Y0031257D01*
Y0031091D01*
X0040719Y0031063D01*
X0040774D01*
X0040830Y0031091D01*
X0040663Y0030776D02*
X0040719Y0030721D01*
X0040774Y0030693D01*
X0040885D01*
X0040941Y0030721D01*
X0040997Y0030776D01*
Y0030832D01*
X0040941Y0030887D01*
X0040885Y0030915D01*
X0040774D01*
X0040719Y0030887D01*
X0040663Y0030832D01*
Y0030776D01*
X0040830Y0030545D02*
Y0030323D01*
Y0030147D02*
Y0029981D01*
X0040885Y0029953D01*
X0040941D01*
X0040997Y0029981D01*
Y0030147D01*
X0040941Y0030175D01*
X0040885D01*
X0040663Y0030064D01*
X0040830Y0029722D02*
X0040663Y0029805D01*
X0040830Y0029583D02*
Y0029750D01*
X0040885Y0029805D01*
X0040941D01*
X0040997Y0029750D01*
Y0029583D01*
X0040663D01*
X0040830Y0029407D02*
Y0029241D01*
X0040885Y0029213D01*
X0040941D01*
X0040997Y0029241D01*
Y0029407D01*
X0040941Y0029435D01*
X0040885D01*
X0040663Y0029324D01*
X0040774Y0029065D02*
Y0028843D01*
X0040997Y0028954D01*
Y0029010D01*
X0040663D01*
X0022394Y0013409D02*
Y0013298D01*
Y0013353D02*
X0022727D01*
X0022672Y0013298D01*
X0022394Y0013094D02*
Y0012983D01*
Y0013039D02*
X0022727D01*
X0022672Y0012983D01*
X0022449Y0012780D02*
X0022394Y0012752D01*
Y0012586D01*
X0022449Y0012558D01*
X0022672D01*
X0022727Y0012586D01*
Y0012752D01*
X0022672Y0012780D01*
X0023326Y0017772D02*
X0023215D01*
X0022993Y0017661D01*
X0023215Y0017550D01*
X0023326D01*
X0022993Y0017263D02*
X0023048Y0017208D01*
X0023104Y0017180D01*
X0023215D01*
X0023271Y0017208D01*
X0023326Y0017263D01*
Y0017319D01*
X0023271Y0017374D01*
X0023215Y0017402D01*
X0023104D01*
X0023048Y0017374D01*
X0022993Y0017319D01*
Y0017263D01*
X0023048Y0016810D02*
X0022993Y0016838D01*
Y0017004D01*
X0023048Y0017032D01*
X0023160D01*
X0023215Y0016977D01*
Y0016810D01*
X0023326D01*
Y0017032D01*
X0023160Y0016662D02*
Y0016440D01*
Y0016237D02*
Y0016070D01*
X0022993D02*
X0023326D01*
Y0016292D01*
X0023160Y0015700D02*
Y0015867D01*
X0023215Y0015922D01*
X0023271D01*
X0023326Y0015867D01*
Y0015700D01*
X0022993D01*
Y0015413D02*
X0023048Y0015358D01*
X0023104Y0015330D01*
X0023215D01*
X0023271Y0015358D01*
X0023326Y0015413D01*
Y0015469D01*
X0023271Y0015524D01*
X0023215Y0015552D01*
X0023104D01*
X0023048Y0015524D01*
X0022993Y0015469D01*
Y0015413D01*
X0023160Y0015154D02*
X0023215Y0015182D01*
X0023271D01*
X0023326Y0015154D01*
Y0014988D01*
X0023271Y0014960D01*
X0023215D01*
X0023160Y0014988D01*
Y0015154D01*
X0023104Y0015182D01*
X0023048D01*
X0022993Y0015154D01*
Y0014988D01*
X0023048Y0014960D01*
X0023104D01*
X0023160Y0014988D01*
Y0014618D02*
Y0014784D01*
X0023104Y0014812D01*
X0023048D01*
X0022993Y0014784D01*
Y0014618D01*
X0023048Y0014590D01*
X0023104D01*
X0023326Y0014701D01*
X0023160Y0014442D02*
Y0014220D01*
Y0014044D02*
Y0013878D01*
X0023215Y0013850D01*
X0023271D01*
X0023326Y0013878D01*
Y0014044D01*
X0023271Y0014072D01*
X0023215D01*
X0022993Y0013961D01*
X0023048Y0013480D02*
X0022993Y0013536D01*
Y0013647D01*
X0023048Y0013702D01*
X0023104D01*
X0023215Y0013591D01*
X0023326Y0013702D01*
Y0013480D01*
X0022993Y0013332D02*
X0023326D01*
X0023271Y0013277D01*
X0023160Y0013221D01*
X0023271Y0013166D01*
X0023326Y0013110D01*
X0022993D01*
X0023160Y0012879D02*
X0022993Y0012962D01*
X0023160Y0012740D02*
Y0012907D01*
X0023215Y0012962D01*
X0023271D01*
X0023326Y0012907D01*
Y0012740D01*
X0022993D01*
X0023160Y0012481D02*
Y0012592D01*
X0023048D01*
X0022993Y0012564D01*
Y0012398D01*
X0023048Y0012370D01*
X0023271D01*
X0023326Y0012398D01*
Y0012564D01*
X0023271Y0012592D01*
X0017208Y0024900D02*
Y0024788D01*
X0017319Y0024566D01*
X0017430Y0024788D01*
Y0024900D01*
X0017772Y0024733D02*
X0017606D01*
X0017578Y0024677D01*
Y0024622D01*
X0017606Y0024566D01*
X0017772D01*
X0017800Y0024622D01*
Y0024677D01*
X0017689Y0024900D01*
X0017948Y0024566D02*
X0018059D01*
X0018003D02*
Y0024900D01*
X0018059Y0024844D01*
X0018262Y0024733D02*
X0018485D01*
X0018688D02*
X0018855D01*
Y0024566D02*
Y0024900D01*
X0018632D01*
X0019002D02*
Y0024566D01*
X0019058Y0024622D01*
X0019169Y0024844D01*
X0019225Y0024900D01*
Y0024566D01*
X0019511D02*
X0019567Y0024622D01*
X0019595Y0024677D01*
Y0024788D01*
X0019567Y0024844D01*
X0019511Y0024900D01*
X0019456D01*
X0019400Y0024844D01*
X0019372Y0024788D01*
Y0024677D01*
X0019400Y0024622D01*
X0019456Y0024566D01*
X0019511D01*
X0019881D02*
X0019937Y0024622D01*
X0019965Y0024677D01*
Y0024788D01*
X0019937Y0024844D01*
X0019881Y0024900D01*
X0019826D01*
X0019770Y0024844D01*
X0019742Y0024788D01*
Y0024677D01*
X0019770Y0024622D01*
X0019826Y0024566D01*
X0019881D01*
X0020112D02*
X0020223D01*
X0020168D02*
Y0024900D01*
X0020223Y0024844D01*
X0020427Y0024733D02*
X0020649D01*
X0020824D02*
X0020991D01*
X0021019Y0024788D01*
Y0024844D01*
X0020991Y0024900D01*
X0020824D01*
X0020797Y0024844D01*
Y0024788D01*
X0020908Y0024566D01*
X0021389Y0024622D02*
X0021333Y0024566D01*
X0021222D01*
X0021167Y0024622D01*
Y0024677D01*
X0021278Y0024788D01*
X0021167Y0024900D01*
X0021389D01*
X0021537Y0024566D02*
Y0024900D01*
X0021592Y0024844D01*
X0021648Y0024733D01*
X0021703Y0024844D01*
X0021759Y0024900D01*
Y0024566D01*
X0021990Y0024733D02*
X0021907Y0024566D01*
X0022129Y0024733D02*
X0021962D01*
X0021907Y0024788D01*
Y0024844D01*
X0021962Y0024900D01*
X0022129D01*
Y0024566D01*
X0022388Y0024733D02*
X0022277D01*
Y0024622D01*
X0022304Y0024566D01*
X0022471D01*
X0022499Y0024622D01*
Y0024844D01*
X0022471Y0024900D01*
X0022304D01*
X0022277Y0024844D01*
X0038594Y0022968D02*
X0038705D01*
X0038927Y0023080D01*
X0038705Y0023191D01*
X0038594D01*
X0038927Y0023477D02*
X0038872Y0023533D01*
X0038816Y0023561D01*
X0038705D01*
X0038649Y0023533D01*
X0038594Y0023477D01*
Y0023422D01*
X0038649Y0023366D01*
X0038705Y0023338D01*
X0038816D01*
X0038872Y0023366D01*
X0038927Y0023422D01*
Y0023477D01*
Y0023847D02*
X0038872Y0023903D01*
X0038816Y0023931D01*
X0038705D01*
X0038649Y0023903D01*
X0038594Y0023847D01*
Y0023792D01*
X0038649Y0023736D01*
X0038705Y0023708D01*
X0038816D01*
X0038872Y0023736D01*
X0038927Y0023792D01*
Y0023847D01*
Y0024078D02*
Y0024189D01*
Y0024134D02*
X0038594D01*
X0038649Y0024189D01*
X0038761Y0024393D02*
Y0024615D01*
Y0024818D02*
Y0024985D01*
X0038927D02*
X0038594D01*
Y0024763D01*
Y0025133D02*
X0038927D01*
X0038872Y0025188D01*
X0038649Y0025299D01*
X0038594Y0025355D01*
X0038927D01*
Y0025642D02*
X0038872Y0025697D01*
X0038816Y0025725D01*
X0038705D01*
X0038649Y0025697D01*
X0038594Y0025642D01*
Y0025586D01*
X0038649Y0025531D01*
X0038705Y0025503D01*
X0038816D01*
X0038872Y0025531D01*
X0038927Y0025586D01*
Y0025642D01*
Y0026012D02*
X0038872Y0026067D01*
X0038816Y0026095D01*
X0038705D01*
X0038649Y0026067D01*
X0038594Y0026012D01*
Y0025956D01*
X0038649Y0025901D01*
X0038705Y0025873D01*
X0038816D01*
X0038872Y0025901D01*
X0038927Y0025956D01*
Y0026012D01*
Y0026243D02*
Y0026354D01*
Y0026298D02*
X0038594D01*
X0038649Y0026354D01*
X0038761Y0027052D02*
Y0027274D01*
Y0027617D02*
Y0027450D01*
X0038816Y0027422D01*
X0038872D01*
X0038927Y0027450D01*
Y0027617D01*
X0038872Y0027644D01*
X0038816D01*
X0038594Y0027533D01*
X0038927Y0027931D02*
X0038872Y0027987D01*
X0038816Y0028014D01*
X0038705D01*
X0038649Y0027987D01*
X0038594Y0027931D01*
Y0027875D01*
X0038649Y0027820D01*
X0038705Y0027792D01*
X0038816D01*
X0038872Y0027820D01*
X0038927Y0027875D01*
Y0027931D01*
Y0028162D02*
Y0028384D01*
X0038705Y0028162D01*
X0038649D01*
X0038594Y0028190D01*
Y0028357D01*
X0038649Y0028384D01*
X0038927Y0028532D02*
Y0028643D01*
Y0028588D02*
X0038594D01*
X0038649Y0028643D01*
X0038761Y0028846D02*
Y0029069D01*
Y0029300D02*
X0038927Y0029216D01*
X0038761Y0029439D02*
Y0029272D01*
X0038705Y0029216D01*
X0038649D01*
X0038594Y0029272D01*
Y0029439D01*
X0038927D01*
Y0029753D02*
X0038594Y0029586D01*
Y0029809D01*
X0038927Y0029956D02*
X0038594Y0030123D01*
Y0029956D02*
X0038927Y0030123D01*
X0041204Y0021733D02*
X0041260Y0021760D01*
X0041316D01*
X0041371Y0021733D01*
Y0021566D01*
X0041316Y0021538D01*
X0041260D01*
X0041204Y0021566D01*
Y0021733D01*
X0041149Y0021760D01*
X0041093D01*
X0041038Y0021733D01*
Y0021566D01*
X0041093Y0021538D01*
X0041149D01*
X0041204Y0021566D01*
X0041149Y0021390D02*
Y0021168D01*
X0041371Y0021279D01*
Y0021335D01*
X0041038D01*
X0041093Y0021020D02*
X0041038Y0020993D01*
Y0020826D01*
X0041093Y0020798D01*
X0041316D01*
X0041371Y0020826D01*
Y0020993D01*
X0041316Y0021020D01*
X0041970Y0025901D02*
X0041859D01*
X0041637Y0025790D01*
X0041859Y0025679D01*
X0041970D01*
X0041804Y0025337D02*
Y0025503D01*
X0041748Y0025531D01*
X0041692D01*
X0041637Y0025503D01*
Y0025337D01*
X0041692Y0025309D01*
X0041748D01*
X0041970Y0025420D01*
X0041637Y0025161D02*
Y0025050D01*
Y0025106D02*
X0041970D01*
X0041915Y0025050D01*
X0041804Y0024847D02*
Y0024625D01*
Y0024421D02*
Y0024255D01*
X0041637D02*
X0041970D01*
Y0024477D01*
Y0024107D02*
X0041637D01*
X0041692Y0024051D01*
X0041915Y0023940D01*
X0041970Y0023885D01*
X0041637D01*
Y0023598D02*
X0041692Y0023542D01*
X0041748Y0023515D01*
X0041859D01*
X0041915Y0023542D01*
X0041970Y0023598D01*
Y0023654D01*
X0041915Y0023709D01*
X0041859Y0023737D01*
X0041748D01*
X0041692Y0023709D01*
X0041637Y0023654D01*
Y0023598D01*
Y0023228D02*
X0041692Y0023172D01*
X0041748Y0023145D01*
X0041859D01*
X0041915Y0023172D01*
X0041970Y0023228D01*
Y0023284D01*
X0041915Y0023339D01*
X0041859Y0023367D01*
X0041748D01*
X0041692Y0023339D01*
X0041637Y0023284D01*
Y0023228D01*
Y0022997D02*
Y0022886D01*
Y0022941D02*
X0041970D01*
X0041915Y0022886D01*
X0041804Y0022683D02*
Y0022460D01*
Y0022285D02*
Y0022118D01*
X0041859Y0022090D01*
X0041915D01*
X0041970Y0022118D01*
Y0022285D01*
X0041915Y0022313D01*
X0041859D01*
X0041637Y0022201D01*
X0041692Y0021720D02*
X0041637Y0021776D01*
Y0021887D01*
X0041692Y0021943D01*
X0041748D01*
X0041859Y0021831D01*
X0041970Y0021943D01*
Y0021720D01*
X0041637Y0021573D02*
X0041970D01*
X0041915Y0021517D01*
X0041804Y0021461D01*
X0041915Y0021406D01*
X0041970Y0021350D01*
X0041637D01*
X0041804Y0021119D02*
X0041637Y0021203D01*
X0041804Y0020980D02*
Y0021147D01*
X0041859Y0021203D01*
X0041915D01*
X0041970Y0021147D01*
Y0020980D01*
X0041637D01*
X0041804Y0020721D02*
Y0020833D01*
X0041692D01*
X0041637Y0020805D01*
Y0020638D01*
X0041692Y0020610D01*
X0041915D01*
X0041970Y0020638D01*
Y0020805D01*
X0041915Y0020833D01*
X0017716Y0017533D02*
X0017689Y0017477D01*
X0017522D01*
X0017494Y0017533D01*
Y0017644D01*
X0017550Y0017699D01*
X0017716D01*
Y0017810D01*
X0017494D01*
X0017864Y0017477D02*
X0018086D01*
X0017864Y0017699D01*
Y0017755D01*
X0017892Y0017810D01*
X0018059D01*
X0018086Y0017755D01*
X0018234Y0017533D02*
X0018262Y0017477D01*
X0018429D01*
X0018456Y0017533D01*
Y0017755D01*
X0018429Y0017810D01*
X0018262D01*
X0018234Y0017755D01*
X0045984Y0029340D02*
X0046095D01*
X0046039D02*
Y0029674D01*
X0046095Y0029618D01*
X0046298Y0029451D02*
X0046520D01*
X0046409Y0029674D01*
X0046354D01*
Y0029340D01*
X0046668Y0029396D02*
X0046696Y0029340D01*
X0046862D01*
X0046890Y0029396D01*
Y0029618D01*
X0046862Y0029674D01*
X0046696D01*
X0046668Y0029618D01*
X0041787Y0030273D02*
Y0030162D01*
X0041898Y0029939D01*
X0042009Y0030162D01*
Y0030273D01*
X0042352Y0030106D02*
X0042185D01*
X0042157Y0030051D01*
Y0029995D01*
X0042185Y0029939D01*
X0042352D01*
X0042379Y0029995D01*
Y0030051D01*
X0042268Y0030273D01*
X0042527Y0029939D02*
X0042638D01*
X0042583D02*
Y0030273D01*
X0042638Y0030217D01*
X0042841Y0030106D02*
X0043064D01*
X0043267D02*
X0043434D01*
Y0029939D02*
Y0030273D01*
X0043211D01*
X0043581D02*
Y0029939D01*
X0043637Y0029995D01*
X0043748Y0030217D01*
X0043804Y0030273D01*
Y0029939D01*
X0044090D02*
X0044146Y0029995D01*
X0044174Y0030051D01*
Y0030162D01*
X0044146Y0030217D01*
X0044090Y0030273D01*
X0044035D01*
X0043979Y0030217D01*
X0043951Y0030162D01*
Y0030051D01*
X0043979Y0029995D01*
X0044035Y0029939D01*
X0044090D01*
X0044460D02*
X0044516Y0029995D01*
X0044544Y0030051D01*
Y0030162D01*
X0044516Y0030217D01*
X0044460Y0030273D01*
X0044405D01*
X0044349Y0030217D01*
X0044321Y0030162D01*
Y0030051D01*
X0044349Y0029995D01*
X0044405Y0029939D01*
X0044460D01*
X0044691D02*
X0044802D01*
X0044747D02*
Y0030273D01*
X0044802Y0030217D01*
X0045006Y0030106D02*
X0045228D01*
X0045404D02*
X0045570D01*
X0045598Y0030162D01*
Y0030217D01*
X0045570Y0030273D01*
X0045404D01*
X0045376Y0030217D01*
Y0030162D01*
X0045487Y0029939D01*
X0045968Y0029995D02*
X0045912Y0029939D01*
X0045801D01*
X0045746Y0029995D01*
Y0030051D01*
X0045857Y0030162D01*
X0045746Y0030273D01*
X0045968D01*
X0046116Y0029939D02*
Y0030273D01*
X0046171Y0030217D01*
X0046227Y0030106D01*
X0046282Y0030217D01*
X0046338Y0030273D01*
Y0029939D01*
X0046569Y0030106D02*
X0046486Y0029939D01*
X0046708Y0030106D02*
X0046541D01*
X0046486Y0030162D01*
Y0030217D01*
X0046541Y0030273D01*
X0046708D01*
Y0029939D01*
X0046967Y0030106D02*
X0046856D01*
Y0029995D01*
X0046884Y0029939D01*
X0047050D01*
X0047078Y0029995D01*
Y0030217D01*
X0047050Y0030273D01*
X0046884D01*
X0046856Y0030217D01*
X0026786Y0014630D02*
Y0014741D01*
X0026675Y0014964D01*
X0026564Y0014741D01*
Y0014630D01*
X0026222Y0014797D02*
X0026388D01*
X0026416Y0014852D01*
Y0014908D01*
X0026388Y0014964D01*
X0026222D01*
X0026194Y0014908D01*
Y0014852D01*
X0026305Y0014630D01*
X0026046Y0014964D02*
X0025935D01*
X0025991D02*
Y0014630D01*
X0025935Y0014686D01*
X0025732Y0014797D02*
X0025510D01*
X0025306D02*
X0025140D01*
Y0014964D02*
Y0014630D01*
X0025362D01*
X0024992D02*
Y0014964D01*
X0024936Y0014908D01*
X0024825Y0014686D01*
X0024770Y0014630D01*
Y0014964D01*
X0024483D02*
X0024427Y0014908D01*
X0024400Y0014852D01*
Y0014741D01*
X0024427Y0014686D01*
X0024483Y0014630D01*
X0024539D01*
X0024594Y0014686D01*
X0024622Y0014741D01*
Y0014852D01*
X0024594Y0014908D01*
X0024539Y0014964D01*
X0024483D01*
X0024113D02*
X0024057Y0014908D01*
X0024030Y0014852D01*
Y0014741D01*
X0024057Y0014686D01*
X0024113Y0014630D01*
X0024169D01*
X0024224Y0014686D01*
X0024252Y0014741D01*
Y0014852D01*
X0024224Y0014908D01*
X0024169Y0014964D01*
X0024113D01*
X0023882D02*
X0023771D01*
X0023826D02*
Y0014630D01*
X0023771Y0014686D01*
X0023568Y0014797D02*
X0023345D01*
X0023170D02*
X0023003D01*
X0022975Y0014741D01*
Y0014686D01*
X0023003Y0014630D01*
X0023170D01*
X0023198Y0014686D01*
Y0014741D01*
X0023086Y0014964D01*
X0022605Y0014908D02*
X0022661Y0014964D01*
X0022772D01*
X0022828Y0014908D01*
Y0014852D01*
X0022716Y0014741D01*
X0022828Y0014630D01*
X0022605D01*
X0022458Y0014964D02*
Y0014630D01*
X0022402Y0014686D01*
X0022346Y0014797D01*
X0022291Y0014686D01*
X0022235Y0014630D01*
Y0014964D01*
X0022004Y0014797D02*
X0022088Y0014964D01*
X0021865Y0014797D02*
X0022032D01*
X0022088Y0014741D01*
Y0014686D01*
X0022032Y0014630D01*
X0021865D01*
Y0014964D01*
X0021606Y0014797D02*
X0021718D01*
Y0014908D01*
X0021690Y0014964D01*
X0021523D01*
X0021495Y0014908D01*
Y0014686D01*
X0021523Y0014630D01*
X0021690D01*
X0021718Y0014686D01*
X0023121Y0027581D02*
Y0027359D01*
X0023344Y0027581D01*
X0023399D01*
X0023455Y0027554D01*
Y0027387D01*
X0023399Y0027359D01*
X0023121Y0027072D02*
X0023177Y0027017D01*
X0023233Y0026989D01*
X0023344D01*
X0023399Y0027017D01*
X0023455Y0027072D01*
Y0027128D01*
X0023399Y0027184D01*
X0023344Y0027211D01*
X0023233D01*
X0023177Y0027184D01*
X0023121Y0027128D01*
Y0027072D01*
Y0026841D02*
Y0026730D01*
Y0026786D02*
X0023455D01*
X0023399Y0026730D01*
X0023177Y0026527D02*
X0023121Y0026499D01*
Y0026333D01*
X0023177Y0026305D01*
X0023399D01*
X0023455Y0026333D01*
Y0026499D01*
X0023399Y0026527D01*
X0024054Y0031408D02*
X0023943D01*
X0023721Y0031297D01*
X0023943Y0031186D01*
X0024054D01*
X0023887Y0030843D02*
Y0031010D01*
X0023832Y0031038D01*
X0023776D01*
X0023721Y0031010D01*
Y0030843D01*
X0023776Y0030816D01*
X0023832D01*
X0024054Y0030927D01*
X0023721Y0030668D02*
Y0030557D01*
Y0030612D02*
X0024054D01*
X0023998Y0030557D01*
X0023887Y0030354D02*
Y0030131D01*
Y0029928D02*
Y0029761D01*
X0023721D02*
X0024054D01*
Y0029984D01*
Y0029614D02*
X0023721D01*
X0023776Y0029558D01*
X0023998Y0029447D01*
X0024054Y0029391D01*
X0023721D01*
Y0029105D02*
X0023776Y0029049D01*
X0023832Y0029021D01*
X0023943D01*
X0023998Y0029049D01*
X0024054Y0029105D01*
Y0029160D01*
X0023998Y0029216D01*
X0023943Y0029244D01*
X0023832D01*
X0023776Y0029216D01*
X0023721Y0029160D01*
Y0029105D01*
Y0028735D02*
X0023776Y0028679D01*
X0023832Y0028651D01*
X0023943D01*
X0023998Y0028679D01*
X0024054Y0028735D01*
Y0028790D01*
X0023998Y0028846D01*
X0023943Y0028874D01*
X0023832D01*
X0023776Y0028846D01*
X0023721Y0028790D01*
Y0028735D01*
Y0028504D02*
Y0028393D01*
Y0028448D02*
X0024054D01*
X0023998Y0028393D01*
X0023887Y0028189D02*
Y0027967D01*
Y0027791D02*
Y0027625D01*
X0023943Y0027597D01*
X0023998D01*
X0024054Y0027625D01*
Y0027791D01*
X0023998Y0027819D01*
X0023943D01*
X0023721Y0027708D01*
X0023776Y0027227D02*
X0023721Y0027283D01*
Y0027394D01*
X0023776Y0027449D01*
X0023832D01*
X0023943Y0027338D01*
X0024054Y0027449D01*
Y0027227D01*
X0023721Y0027079D02*
X0024054D01*
X0023998Y0027024D01*
X0023887Y0026968D01*
X0023998Y0026913D01*
X0024054Y0026857D01*
X0023721D01*
X0023887Y0026626D02*
X0023721Y0026709D01*
X0023887Y0026487D02*
Y0026654D01*
X0023943Y0026709D01*
X0023998D01*
X0024054Y0026654D01*
Y0026487D01*
X0023721D01*
X0023887Y0026228D02*
Y0026339D01*
X0023776D01*
X0023721Y0026311D01*
Y0026145D01*
X0023776Y0026117D01*
X0023998D01*
X0024054Y0026145D01*
Y0026311D01*
X0023998Y0026339D01*
X0040516Y0023962D02*
X0040294D01*
X0040405Y0023740D01*
X0040461D01*
Y0024074D01*
X0040146D02*
X0039952D01*
Y0023740D01*
X0047213Y0024963D02*
X0046990D01*
X0047213Y0025074D02*
Y0024907D01*
X0047129Y0024740D01*
X0047074D01*
X0046990Y0024907D01*
Y0025074D01*
X0046815Y0024907D02*
X0046843Y0024852D01*
Y0024796D01*
X0046815Y0024740D01*
X0046648D01*
X0046620Y0024796D01*
Y0024852D01*
X0046648Y0024907D01*
X0046815D01*
X0046843Y0024963D01*
Y0025018D01*
X0046815Y0025074D01*
X0046648D01*
X0046620Y0025018D01*
Y0024963D01*
X0046648Y0024907D01*
X0046445Y0025185D02*
X0046473Y0025129D01*
Y0025018D01*
X0046417D01*
Y0025074D01*
X0046473D01*
X0045964Y0025018D02*
X0046019Y0025074D01*
X0046130D01*
X0046186Y0025018D01*
Y0024963D01*
X0046075Y0024852D01*
X0046186Y0024740D01*
X0045964D01*
X0045816Y0024907D02*
X0045594D01*
X0045446D02*
X0045224D01*
X0045446Y0025074D02*
Y0024740D01*
X0045224Y0025074D02*
Y0024740D01*
X0045076D02*
Y0025018D01*
X0045048Y0025074D01*
X0044882D01*
X0044854Y0025018D01*
Y0024740D01*
X0044706Y0025074D02*
X0044484D01*
X0044706Y0024852D01*
Y0024796D01*
X0044678Y0024740D01*
X0044512D01*
X0044484Y0024796D01*
X0044336Y0025074D02*
X0044114D01*
X0044336Y0024852D01*
Y0024796D01*
X0044308Y0024740D01*
X0044142D01*
X0044114Y0024796D01*
X0043966Y0024907D02*
X0043744D01*
X0043596Y0025074D02*
X0043374D01*
X0043596Y0024852D01*
Y0024796D01*
X0043568Y0024740D01*
X0043402D01*
X0043374Y0024796D01*
X0043059Y0025074D02*
X0043226Y0024740D01*
X0043004D01*
X0042856Y0025074D02*
X0042745D01*
X0042801D02*
Y0024740D01*
X0042745Y0024796D01*
X0042542Y0025074D02*
X0042431D01*
X0042486D02*
Y0024740D01*
X0042431Y0024796D01*
X0042005Y0024907D02*
X0042172D01*
X0042227Y0024852D01*
Y0024796D01*
X0042172Y0024740D01*
X0042005D01*
Y0025074D01*
X0041857Y0024907D02*
X0041635D01*
X0041432D02*
X0041265D01*
X0041487Y0025074D02*
X0041265D01*
Y0024740D01*
X0041487D01*
X0041117Y0024796D02*
X0041090Y0024740D01*
X0040923D01*
X0040895Y0024796D01*
Y0024852D01*
X0040923Y0024907D01*
X0041090D01*
X0041117Y0024963D01*
Y0025018D01*
X0041090Y0025074D01*
X0040923D01*
X0040895Y0025018D01*
X0040747Y0025074D02*
X0040553D01*
Y0024740D01*
X0040405D02*
Y0025018D01*
X0040377Y0025074D01*
X0040211D01*
X0040183Y0025018D01*
Y0024740D01*
X0039813Y0024907D02*
X0039980D01*
X0040035Y0024852D01*
Y0024796D01*
X0039980Y0024740D01*
X0039813D01*
Y0025074D01*
X0024384Y0015198D02*
Y0015364D01*
X0024328Y0015392D01*
X0024273D01*
X0024217Y0015364D01*
Y0015198D01*
X0024273Y0015170D01*
X0024328D01*
X0024550Y0015281D01*
X0024495Y0015540D02*
X0024550Y0015568D01*
Y0015734D01*
X0024495Y0015762D01*
X0024273D01*
X0024217Y0015734D01*
Y0015568D01*
X0024273Y0015540D01*
X0023618Y0010659D02*
X0023729D01*
X0023951Y0010770D01*
X0023729Y0010881D01*
X0023618D01*
X0023785Y0011223D02*
Y0011057D01*
X0023840Y0011029D01*
X0023896D01*
X0023951Y0011057D01*
Y0011223D01*
X0023896Y0011251D01*
X0023840D01*
X0023618Y0011140D01*
X0023951Y0011399D02*
Y0011510D01*
Y0011454D02*
X0023618D01*
X0023673Y0011510D01*
X0023785Y0011713D02*
Y0011936D01*
Y0012139D02*
Y0012306D01*
X0023951D02*
X0023618D01*
Y0012083D01*
Y0012453D02*
X0023951D01*
X0023896Y0012509D01*
X0023673Y0012620D01*
X0023618Y0012676D01*
X0023951D01*
Y0012962D02*
X0023896Y0013018D01*
X0023840Y0013046D01*
X0023729D01*
X0023673Y0013018D01*
X0023618Y0012962D01*
Y0012907D01*
X0023673Y0012851D01*
X0023729Y0012823D01*
X0023840D01*
X0023896Y0012851D01*
X0023951Y0012907D01*
Y0012962D01*
Y0013332D02*
X0023896Y0013388D01*
X0023840Y0013416D01*
X0023729D01*
X0023673Y0013388D01*
X0023618Y0013332D01*
Y0013277D01*
X0023673Y0013221D01*
X0023729Y0013193D01*
X0023840D01*
X0023896Y0013221D01*
X0023951Y0013277D01*
Y0013332D01*
Y0013563D02*
Y0013674D01*
Y0013619D02*
X0023618D01*
X0023673Y0013674D01*
X0023785Y0013878D02*
Y0014100D01*
Y0014275D02*
Y0014442D01*
X0023729Y0014470D01*
X0023673D01*
X0023618Y0014442D01*
Y0014275D01*
X0023673Y0014248D01*
X0023729D01*
X0023951Y0014359D01*
X0023896Y0014840D02*
X0023951Y0014784D01*
Y0014673D01*
X0023896Y0014618D01*
X0023840D01*
X0023729Y0014729D01*
X0023618Y0014618D01*
Y0014840D01*
X0023951Y0014988D02*
X0023618D01*
X0023673Y0015043D01*
X0023785Y0015099D01*
X0023673Y0015154D01*
X0023618Y0015210D01*
X0023951D01*
X0023785Y0015441D02*
X0023951Y0015358D01*
X0023785Y0015580D02*
Y0015413D01*
X0023729Y0015358D01*
X0023673D01*
X0023618Y0015413D01*
Y0015580D01*
X0023951D01*
X0023785Y0015839D02*
Y0015728D01*
X0023896D01*
X0023951Y0015755D01*
Y0015922D01*
X0023896Y0015950D01*
X0023673D01*
X0023618Y0015922D01*
Y0015755D01*
X0023673Y0015728D01*
X0017538Y0019846D02*
X0017510Y0019902D01*
Y0019958D01*
X0017538Y0020013D01*
X0017705D01*
X0017733Y0019958D01*
Y0019902D01*
X0017705Y0019846D01*
X0017538D01*
X0017510Y0019791D01*
Y0019735D01*
X0017538Y0019680D01*
X0017705D01*
X0017733Y0019735D01*
Y0019791D01*
X0017705Y0019846D01*
X0017880Y0019680D02*
X0017991D01*
X0017936D02*
Y0020013D01*
X0017991Y0019958D01*
X0018195Y0019735D02*
X0018223Y0019680D01*
X0018389D01*
X0018417Y0019735D01*
Y0019958D01*
X0018389Y0020013D01*
X0018223D01*
X0018195Y0019958D01*
X0013314Y0020612D02*
Y0020501D01*
X0013425Y0020279D01*
X0013536Y0020501D01*
Y0020612D01*
X0013878Y0020446D02*
X0013712D01*
X0013684Y0020390D01*
Y0020334D01*
X0013712Y0020279D01*
X0013878D01*
X0013906Y0020334D01*
Y0020390D01*
X0013795Y0020612D01*
X0014054Y0020279D02*
X0014165D01*
X0014109D02*
Y0020612D01*
X0014165Y0020557D01*
X0014368Y0020446D02*
X0014591D01*
X0014794D02*
X0014961D01*
Y0020279D02*
Y0020612D01*
X0014738D01*
X0015108D02*
Y0020279D01*
X0015164Y0020334D01*
X0015275Y0020557D01*
X0015331Y0020612D01*
Y0020279D01*
X0015617D02*
X0015673Y0020334D01*
X0015701Y0020390D01*
Y0020501D01*
X0015673Y0020557D01*
X0015617Y0020612D01*
X0015562D01*
X0015506Y0020557D01*
X0015478Y0020501D01*
Y0020390D01*
X0015506Y0020334D01*
X0015562Y0020279D01*
X0015617D01*
X0015987D02*
X0016043Y0020334D01*
X0016071Y0020390D01*
Y0020501D01*
X0016043Y0020557D01*
X0015987Y0020612D01*
X0015932D01*
X0015876Y0020557D01*
X0015848Y0020501D01*
Y0020390D01*
X0015876Y0020334D01*
X0015932Y0020279D01*
X0015987D01*
X0016218D02*
X0016329D01*
X0016274D02*
Y0020612D01*
X0016329Y0020557D01*
X0016533Y0020446D02*
X0016755D01*
X0016930D02*
X0017097D01*
X0017125Y0020501D01*
Y0020557D01*
X0017097Y0020612D01*
X0016930D01*
X0016903Y0020557D01*
Y0020501D01*
X0017014Y0020279D01*
X0017495Y0020334D02*
X0017439Y0020279D01*
X0017328D01*
X0017273Y0020334D01*
Y0020390D01*
X0017384Y0020501D01*
X0017273Y0020612D01*
X0017495D01*
X0017643Y0020279D02*
Y0020612D01*
X0017698Y0020557D01*
X0017754Y0020446D01*
X0017809Y0020557D01*
X0017865Y0020612D01*
Y0020279D01*
X0018096Y0020446D02*
X0018013Y0020279D01*
X0018235Y0020446D02*
X0018068D01*
X0018013Y0020501D01*
Y0020557D01*
X0018068Y0020612D01*
X0018235D01*
Y0020279D01*
X0018494Y0020446D02*
X0018383D01*
Y0020334D01*
X0018410Y0020279D01*
X0018577D01*
X0018605Y0020334D01*
Y0020557D01*
X0018577Y0020612D01*
X0018410D01*
X0018383Y0020557D01*
X0026177Y0016971D02*
Y0017082D01*
X0026065Y0017304D01*
X0025954Y0017082D01*
Y0016971D01*
X0025612Y0017137D02*
X0025779D01*
X0025807Y0017193D01*
Y0017248D01*
X0025779Y0017304D01*
X0025612D01*
X0025584Y0017248D01*
Y0017193D01*
X0025695Y0016971D01*
X0025437Y0017304D02*
X0025326D01*
X0025381D02*
Y0016971D01*
X0025326Y0017026D01*
X0025122Y0017137D02*
X0024900D01*
X0024697D02*
X0024530D01*
Y0017304D02*
Y0016971D01*
X0024752D01*
X0024382D02*
Y0017304D01*
X0024327Y0017248D01*
X0024216Y0017026D01*
X0024160Y0016971D01*
Y0017304D01*
X0023873D02*
X0023818Y0017248D01*
X0023790Y0017193D01*
Y0017082D01*
X0023818Y0017026D01*
X0023873Y0016971D01*
X0023929D01*
X0023984Y0017026D01*
X0024012Y0017082D01*
Y0017193D01*
X0023984Y0017248D01*
X0023929Y0017304D01*
X0023873D01*
X0023503D02*
X0023448Y0017248D01*
X0023420Y0017193D01*
Y0017082D01*
X0023448Y0017026D01*
X0023503Y0016971D01*
X0023559D01*
X0023614Y0017026D01*
X0023642Y0017082D01*
Y0017193D01*
X0023614Y0017248D01*
X0023559Y0017304D01*
X0023503D01*
X0023272D02*
X0023161D01*
X0023217D02*
Y0016971D01*
X0023161Y0017026D01*
X0022958Y0017137D02*
X0022736D01*
X0022560D02*
X0022393D01*
X0022366Y0017082D01*
Y0017026D01*
X0022393Y0016971D01*
X0022560D01*
X0022588Y0017026D01*
Y0017082D01*
X0022477Y0017304D01*
X0021996Y0017248D02*
X0022051Y0017304D01*
X0022162D01*
X0022218Y0017248D01*
Y0017193D01*
X0022107Y0017082D01*
X0022218Y0016971D01*
X0021996D01*
X0021848Y0017304D02*
Y0016971D01*
X0021792Y0017026D01*
X0021737Y0017137D01*
X0021681Y0017026D01*
X0021626Y0016971D01*
Y0017304D01*
X0021395Y0017137D02*
X0021478Y0017304D01*
X0021256Y0017137D02*
X0021422D01*
X0021478Y0017082D01*
Y0017026D01*
X0021422Y0016971D01*
X0021256D01*
Y0017304D01*
X0020997Y0017137D02*
X0021108D01*
Y0017248D01*
X0021080Y0017304D01*
X0020913D01*
X0020886Y0017248D01*
Y0017026D01*
X0020913Y0016971D01*
X0021080D01*
X0021108Y0017026D01*
X0041776Y0032102D02*
Y0031991D01*
X0041887Y0031769D01*
X0041999Y0031991D01*
Y0032102D01*
X0042341Y0031936D02*
X0042174D01*
X0042146Y0031880D01*
Y0031824D01*
X0042174Y0031769D01*
X0042341D01*
X0042369Y0031824D01*
Y0031880D01*
X0042257Y0032102D01*
X0042516Y0031769D02*
X0042627D01*
X0042572D02*
Y0032102D01*
X0042627Y0032047D01*
X0042831Y0031936D02*
X0043053D01*
X0043256D02*
X0043423D01*
Y0031769D02*
Y0032102D01*
X0043201D01*
X0043571D02*
Y0031769D01*
X0043626Y0031824D01*
X0043737Y0032047D01*
X0043793Y0032102D01*
Y0031769D01*
X0044080D02*
X0044135Y0031824D01*
X0044163Y0031880D01*
Y0031991D01*
X0044135Y0032047D01*
X0044080Y0032102D01*
X0044024D01*
X0043968Y0032047D01*
X0043941Y0031991D01*
Y0031880D01*
X0043968Y0031824D01*
X0044024Y0031769D01*
X0044080D01*
X0044450D02*
X0044505Y0031824D01*
X0044533Y0031880D01*
Y0031991D01*
X0044505Y0032047D01*
X0044450Y0032102D01*
X0044394D01*
X0044338Y0032047D01*
X0044311Y0031991D01*
Y0031880D01*
X0044338Y0031824D01*
X0044394Y0031769D01*
X0044450D01*
X0044681D02*
X0044792D01*
X0044736D02*
Y0032102D01*
X0044792Y0032047D01*
X0044995Y0031936D02*
X0045217D01*
X0045393D02*
X0045559D01*
X0045587Y0031991D01*
Y0032047D01*
X0045559Y0032102D01*
X0045393D01*
X0045365Y0032047D01*
Y0031991D01*
X0045476Y0031769D01*
X0045957Y0031824D02*
X0045902Y0031769D01*
X0045791D01*
X0045735Y0031824D01*
Y0031880D01*
X0045846Y0031991D01*
X0045735Y0032102D01*
X0045957D01*
X0046105Y0031769D02*
Y0032102D01*
X0046161Y0032047D01*
X0046216Y0031936D01*
X0046272Y0032047D01*
X0046327Y0032102D01*
Y0031769D01*
X0046558Y0031936D02*
X0046475Y0031769D01*
X0046697Y0031936D02*
X0046531D01*
X0046475Y0031991D01*
Y0032047D01*
X0046531Y0032102D01*
X0046697D01*
Y0031769D01*
X0046956Y0031936D02*
X0046845D01*
Y0031824D01*
X0046873Y0031769D01*
X0047039D01*
X0047067Y0031824D01*
Y0032047D01*
X0047039Y0032102D01*
X0046873D01*
X0046845Y0032047D01*
X0023149Y0012357D02*
X0023094Y0012302D01*
X0023066Y0012246D01*
Y0012135D01*
X0023094Y0012079D01*
X0023149Y0012024D01*
X0023205D01*
X0023261Y0012079D01*
X0023288Y0012135D01*
Y0012246D01*
X0023261Y0012302D01*
X0023205Y0012357D01*
X0023149D01*
X0022918D02*
X0022807D01*
X0022863D02*
Y0012024D01*
X0022807Y0012079D01*
X0022604Y0012302D02*
X0022576Y0012357D01*
X0022410D01*
X0022382Y0012302D01*
Y0012079D01*
X0022410Y0012024D01*
X0022576D01*
X0022604Y0012079D01*
X0027485Y0011425D02*
Y0011536D01*
X0027374Y0011758D01*
X0027263Y0011536D01*
Y0011425D01*
X0026976Y0011758D02*
X0026921Y0011702D01*
X0026893Y0011647D01*
Y0011536D01*
X0026921Y0011480D01*
X0026976Y0011425D01*
X0027032D01*
X0027087Y0011480D01*
X0027115Y0011536D01*
Y0011647D01*
X0027087Y0011702D01*
X0027032Y0011758D01*
X0026976D01*
X0026523Y0011702D02*
X0026551Y0011758D01*
X0026717D01*
X0026745Y0011702D01*
Y0011591D01*
X0026689Y0011536D01*
X0026523D01*
Y0011425D01*
X0026745D01*
X0026375Y0011591D02*
X0026153D01*
X0025949D02*
X0025783D01*
Y0011758D02*
Y0011425D01*
X0026005D01*
X0025635D02*
Y0011758D01*
X0025579Y0011702D01*
X0025468Y0011480D01*
X0025413Y0011425D01*
Y0011758D01*
X0025071Y0011591D02*
X0025237D01*
X0025265Y0011647D01*
Y0011702D01*
X0025237Y0011758D01*
X0025071D01*
X0025043Y0011702D01*
Y0011647D01*
X0025154Y0011425D01*
X0024840Y0011758D02*
X0024895D01*
Y0011702D01*
X0024840D01*
Y0011758D01*
X0024414Y0011702D02*
X0024442Y0011758D01*
X0024608D01*
X0024636Y0011702D01*
Y0011591D01*
X0024581Y0011536D01*
X0024414D01*
Y0011425D01*
X0024636D01*
X0024266Y0011591D02*
X0024044D01*
X0023868D02*
X0023702D01*
X0023674Y0011536D01*
Y0011480D01*
X0023702Y0011425D01*
X0023868D01*
X0023896Y0011480D01*
Y0011536D01*
X0023785Y0011758D01*
X0023304Y0011702D02*
X0023360Y0011758D01*
X0023471D01*
X0023526Y0011702D01*
Y0011647D01*
X0023415Y0011536D01*
X0023526Y0011425D01*
X0023304D01*
X0023156Y0011758D02*
Y0011425D01*
X0023101Y0011480D01*
X0023045Y0011591D01*
X0022990Y0011480D01*
X0022934Y0011425D01*
Y0011758D01*
X0022703Y0011591D02*
X0022786Y0011758D01*
X0022564Y0011591D02*
X0022731D01*
X0022786Y0011536D01*
Y0011480D01*
X0022731Y0011425D01*
X0022564D01*
Y0011758D01*
X0022305Y0011591D02*
X0022416D01*
Y0011702D01*
X0022388Y0011758D01*
X0022222D01*
X0022194Y0011702D01*
Y0011480D01*
X0022222Y0011425D01*
X0022388D01*
X0022416Y0011480D01*
X0028618Y0023060D02*
Y0023227D01*
X0028562Y0023255D01*
X0028507D01*
X0028451Y0023227D01*
Y0023060D01*
X0028507Y0023032D01*
X0028562D01*
X0028784Y0023144D01*
X0028451Y0022746D02*
X0028507Y0022690D01*
X0028562Y0022662D01*
X0028673D01*
X0028729Y0022690D01*
X0028784Y0022746D01*
Y0022801D01*
X0028729Y0022857D01*
X0028673Y0022885D01*
X0028562D01*
X0028507Y0022857D01*
X0028451Y0022801D01*
Y0022746D01*
Y0022515D02*
Y0022404D01*
Y0022459D02*
X0028784D01*
X0028729Y0022404D01*
X0028507Y0022200D02*
X0028451Y0022173D01*
Y0022006D01*
X0028507Y0021978D01*
X0028729D01*
X0028784Y0022006D01*
Y0022173D01*
X0028729Y0022200D01*
X0028451Y0016886D02*
Y0016775D01*
Y0016831D02*
X0028784D01*
X0028729Y0016775D01*
X0028507Y0016350D02*
X0028451Y0016405D01*
Y0016516D01*
X0028507Y0016572D01*
X0028562D01*
X0028673Y0016461D01*
X0028784Y0016572D01*
Y0016350D01*
X0028507Y0016202D02*
X0028451Y0016174D01*
Y0016008D01*
X0028507Y0015980D01*
X0028729D01*
X0028784Y0016008D01*
Y0016174D01*
X0028729Y0016202D01*
X0029384Y0021083D02*
X0029272D01*
X0029050Y0020972D01*
X0029272Y0020861D01*
X0029384D01*
X0029217Y0020518D02*
Y0020685D01*
X0029161Y0020713D01*
X0029106D01*
X0029050Y0020685D01*
Y0020518D01*
X0029106Y0020491D01*
X0029161D01*
X0029384Y0020602D01*
X0029050Y0020343D02*
Y0020232D01*
Y0020287D02*
X0029384D01*
X0029328Y0020232D01*
X0029217Y0020029D02*
Y0019806D01*
Y0019603D02*
Y0019436D01*
X0029050D02*
X0029384D01*
Y0019659D01*
Y0019289D02*
X0029050D01*
X0029106Y0019233D01*
X0029328Y0019122D01*
X0029384Y0019066D01*
X0029050D01*
Y0018780D02*
X0029106Y0018724D01*
X0029161Y0018696D01*
X0029272D01*
X0029328Y0018724D01*
X0029384Y0018780D01*
Y0018835D01*
X0029328Y0018891D01*
X0029272Y0018919D01*
X0029161D01*
X0029106Y0018891D01*
X0029050Y0018835D01*
Y0018780D01*
Y0018410D02*
X0029106Y0018354D01*
X0029161Y0018326D01*
X0029272D01*
X0029328Y0018354D01*
X0029384Y0018410D01*
Y0018465D01*
X0029328Y0018521D01*
X0029272Y0018549D01*
X0029161D01*
X0029106Y0018521D01*
X0029050Y0018465D01*
Y0018410D01*
Y0018179D02*
Y0018068D01*
Y0018123D02*
X0029384D01*
X0029328Y0018068D01*
X0029217Y0017864D02*
Y0017642D01*
Y0017466D02*
Y0017300D01*
X0029272Y0017272D01*
X0029328D01*
X0029384Y0017300D01*
Y0017466D01*
X0029328Y0017494D01*
X0029272D01*
X0029050Y0017383D01*
X0029106Y0016902D02*
X0029050Y0016958D01*
Y0017069D01*
X0029106Y0017124D01*
X0029161D01*
X0029272Y0017013D01*
X0029384Y0017124D01*
Y0016902D01*
X0029050Y0016754D02*
X0029384D01*
X0029328Y0016699D01*
X0029217Y0016643D01*
X0029328Y0016588D01*
X0029384Y0016532D01*
X0029050D01*
X0029217Y0016301D02*
X0029050Y0016384D01*
X0029217Y0016162D02*
Y0016329D01*
X0029272Y0016384D01*
X0029328D01*
X0029384Y0016329D01*
Y0016162D01*
X0029050D01*
X0029217Y0015903D02*
Y0016014D01*
X0029106D01*
X0029050Y0015986D01*
Y0015820D01*
X0029106Y0015792D01*
X0029328D01*
X0029384Y0015820D01*
Y0015986D01*
X0029328Y0016014D01*
X0034607Y0033501D02*
Y0033390D01*
Y0033446D02*
X0034940D01*
X0034885Y0033390D01*
X0034607Y0033048D02*
X0034662Y0032992D01*
X0034718Y0032964D01*
X0034829D01*
X0034885Y0032992D01*
X0034940Y0033048D01*
Y0033103D01*
X0034885Y0033159D01*
X0034829Y0033187D01*
X0034718D01*
X0034662Y0033159D01*
X0034607Y0033103D01*
Y0033048D01*
X0034662Y0032594D02*
X0034607Y0032650D01*
Y0032761D01*
X0034662Y0032817D01*
X0034718D01*
X0034829Y0032706D01*
X0034940Y0032817D01*
Y0032594D01*
X0034773Y0032363D02*
X0034607Y0032447D01*
X0034773Y0032224D02*
Y0032391D01*
X0034829Y0032447D01*
X0034885D01*
X0034940Y0032391D01*
Y0032224D01*
X0034607D01*
X0044373Y0030638D02*
X0044400Y0030582D01*
Y0030527D01*
X0044373Y0030471D01*
X0044206D01*
X0044178Y0030527D01*
Y0030582D01*
X0044206Y0030638D01*
X0044373D01*
X0044400Y0030693D01*
Y0030749D01*
X0044373Y0030804D01*
X0044206D01*
X0044178Y0030749D01*
Y0030693D01*
X0044206Y0030638D01*
X0043947D02*
X0044030Y0030804D01*
X0043808Y0030638D02*
X0043975D01*
X0044030Y0030582D01*
Y0030527D01*
X0043975Y0030471D01*
X0043808D01*
Y0030804D01*
X0047926Y0030205D02*
Y0030150D01*
X0047871D01*
Y0030205D01*
X0047926D01*
X0047898Y0029872D02*
X0047732Y0030205D01*
X0047704Y0029872D02*
Y0029927D01*
X0047760D01*
Y0029872D01*
X0047704D01*
X0047556Y0030205D02*
X0047445D01*
X0047501D02*
Y0029872D01*
X0047445Y0029927D01*
X0046525Y0030150D02*
X0046552Y0030205D01*
X0046719D01*
X0046747Y0030150D01*
Y0030039D01*
X0046691Y0029983D01*
X0046525D01*
Y0029872D01*
X0046747D01*
X0046238Y0030205D02*
X0046182Y0030150D01*
X0046155Y0030094D01*
Y0029983D01*
X0046182Y0029927D01*
X0046238Y0029872D01*
X0046294D01*
X0046349Y0029927D01*
X0046377Y0029983D01*
Y0030094D01*
X0046349Y0030150D01*
X0046294Y0030205D01*
X0046238D01*
X0045979Y0030039D02*
X0046007Y0029983D01*
Y0029927D01*
X0045979Y0029872D01*
X0045812D01*
X0045785Y0029927D01*
Y0029983D01*
X0045812Y0030039D01*
X0045979D01*
X0046007Y0030094D01*
Y0030150D01*
X0045979Y0030205D01*
X0045812D01*
X0045785Y0030150D01*
Y0030094D01*
X0045812Y0030039D01*
X0045498Y0030205D02*
X0045442Y0030150D01*
X0045415Y0030094D01*
Y0029983D01*
X0045442Y0029927D01*
X0045498Y0029872D01*
X0045554D01*
X0045609Y0029927D01*
X0045637Y0029983D01*
Y0030094D01*
X0045609Y0030150D01*
X0045554Y0030205D01*
X0045498D01*
X0045267Y0030039D02*
X0045045D01*
X0044702D02*
X0044869D01*
X0044897Y0030094D01*
Y0030150D01*
X0044869Y0030205D01*
X0044702D01*
X0044675Y0030150D01*
Y0030094D01*
X0044786Y0029872D01*
X0044499Y0030039D02*
X0044332D01*
X0044305Y0029983D01*
Y0029927D01*
X0044332Y0029872D01*
X0044499D01*
X0044527Y0029927D01*
Y0029983D01*
X0044416Y0030205D01*
X0044157D02*
X0043990Y0030039D01*
X0044157Y0029872D01*
X0043935D02*
Y0030205D01*
X0043787D02*
X0043676D01*
X0043731D02*
Y0029872D01*
X0043676Y0029927D01*
X0028204Y0031644D02*
X0028092D01*
X0027870Y0031533D01*
X0028092Y0031422D01*
X0028204D01*
X0028037Y0031079D02*
Y0031246D01*
X0027981Y0031274D01*
X0027926D01*
X0027870Y0031246D01*
Y0031079D01*
X0027926Y0031052D01*
X0027981D01*
X0028204Y0031163D01*
X0027870Y0030904D02*
Y0030793D01*
Y0030848D02*
X0028204D01*
X0028148Y0030793D01*
X0028037Y0030590D02*
Y0030367D01*
Y0030164D02*
Y0029997D01*
X0027870D02*
X0028204D01*
Y0030220D01*
Y0029850D02*
X0027870D01*
X0027926Y0029794D01*
X0028148Y0029683D01*
X0028204Y0029627D01*
X0027870D01*
Y0029341D02*
X0027926Y0029285D01*
X0027981Y0029257D01*
X0028092D01*
X0028148Y0029285D01*
X0028204Y0029341D01*
Y0029396D01*
X0028148Y0029452D01*
X0028092Y0029480D01*
X0027981D01*
X0027926Y0029452D01*
X0027870Y0029396D01*
Y0029341D01*
Y0028971D02*
X0027926Y0028915D01*
X0027981Y0028887D01*
X0028092D01*
X0028148Y0028915D01*
X0028204Y0028971D01*
Y0029026D01*
X0028148Y0029082D01*
X0028092Y0029110D01*
X0027981D01*
X0027926Y0029082D01*
X0027870Y0029026D01*
Y0028971D01*
Y0028740D02*
Y0028629D01*
Y0028684D02*
X0028204D01*
X0028148Y0028629D01*
X0028037Y0028425D02*
Y0028203D01*
Y0028027D02*
Y0027861D01*
X0028092Y0027833D01*
X0028148D01*
X0028204Y0027861D01*
Y0028027D01*
X0028148Y0028055D01*
X0028092D01*
X0027870Y0027944D01*
X0027926Y0027463D02*
X0027870Y0027519D01*
Y0027630D01*
X0027926Y0027685D01*
X0027981D01*
X0028092Y0027574D01*
X0028204Y0027685D01*
Y0027463D01*
X0027870Y0027315D02*
X0028204D01*
X0028148Y0027260D01*
X0028037Y0027204D01*
X0028148Y0027149D01*
X0028204Y0027093D01*
X0027870D01*
X0028037Y0026862D02*
X0027870Y0026945D01*
X0028037Y0026723D02*
Y0026890D01*
X0028092Y0026945D01*
X0028148D01*
X0028204Y0026890D01*
Y0026723D01*
X0027870D01*
X0028037Y0026464D02*
Y0026575D01*
X0027926D01*
X0027870Y0026547D01*
Y0026381D01*
X0027926Y0026353D01*
X0028148D01*
X0028204Y0026381D01*
Y0026547D01*
X0028148Y0026575D01*
X0036809Y0022718D02*
Y0022607D01*
Y0022663D02*
X0037143D01*
X0037087Y0022607D01*
X0036865Y0022181D02*
X0036809Y0022209D01*
Y0022376D01*
X0036865Y0022404D01*
X0036976D01*
X0037032Y0022348D01*
Y0022181D01*
X0037143D01*
Y0022404D01*
X0036865Y0022034D02*
X0036809Y0022006D01*
Y0021839D01*
X0036865Y0021811D01*
X0037087D01*
X0037143Y0021839D01*
Y0022006D01*
X0037087Y0022034D01*
X0037742Y0026915D02*
X0037631D01*
X0037409Y0026803D01*
X0037631Y0026692D01*
X0037742D01*
X0037575Y0026350D02*
Y0026517D01*
X0037520Y0026545D01*
X0037464D01*
X0037409Y0026517D01*
Y0026350D01*
X0037464Y0026322D01*
X0037520D01*
X0037742Y0026433D01*
X0037409Y0026175D02*
Y0026064D01*
Y0026119D02*
X0037742D01*
X0037686Y0026064D01*
X0037575Y0025860D02*
Y0025638D01*
Y0025435D02*
Y0025268D01*
X0037409D02*
X0037742D01*
Y0025490D01*
Y0025120D02*
X0037409D01*
X0037464Y0025065D01*
X0037686Y0024954D01*
X0037742Y0024898D01*
X0037409D01*
Y0024611D02*
X0037464Y0024556D01*
X0037520Y0024528D01*
X0037631D01*
X0037686Y0024556D01*
X0037742Y0024611D01*
Y0024667D01*
X0037686Y0024722D01*
X0037631Y0024750D01*
X0037520D01*
X0037464Y0024722D01*
X0037409Y0024667D01*
Y0024611D01*
Y0024241D02*
X0037464Y0024186D01*
X0037520Y0024158D01*
X0037631D01*
X0037686Y0024186D01*
X0037742Y0024241D01*
Y0024297D01*
X0037686Y0024352D01*
X0037631Y0024380D01*
X0037520D01*
X0037464Y0024352D01*
X0037409Y0024297D01*
Y0024241D01*
Y0024010D02*
Y0023899D01*
Y0023955D02*
X0037742D01*
X0037686Y0023899D01*
X0037575Y0023696D02*
Y0023474D01*
Y0023298D02*
Y0023131D01*
X0037631Y0023104D01*
X0037686D01*
X0037742Y0023131D01*
Y0023298D01*
X0037686Y0023326D01*
X0037631D01*
X0037409Y0023215D01*
X0037464Y0022734D02*
X0037409Y0022789D01*
Y0022900D01*
X0037464Y0022956D01*
X0037520D01*
X0037631Y0022845D01*
X0037742Y0022956D01*
Y0022734D01*
X0037409Y0022586D02*
X0037742D01*
X0037686Y0022530D01*
X0037575Y0022475D01*
X0037686Y0022419D01*
X0037742Y0022364D01*
X0037409D01*
X0037575Y0022133D02*
X0037409Y0022216D01*
X0037575Y0021994D02*
Y0022160D01*
X0037631Y0022216D01*
X0037686D01*
X0037742Y0022160D01*
Y0021994D01*
X0037409D01*
X0037575Y0021735D02*
Y0021846D01*
X0037464D01*
X0037409Y0021818D01*
Y0021651D01*
X0037464Y0021624D01*
X0037686D01*
X0037742Y0021651D01*
Y0021818D01*
X0037686Y0021846D01*
X0035658Y0031606D02*
X0035713Y0031662D01*
X0035741Y0031718D01*
Y0031829D01*
X0035713Y0031884D01*
X0035658Y0031940D01*
X0035602D01*
X0035546Y0031884D01*
X0035519Y0031829D01*
Y0031718D01*
X0035546Y0031662D01*
X0035602Y0031606D01*
X0035658D01*
X0036111Y0031662D02*
X0036055Y0031606D01*
X0035944D01*
X0035889Y0031662D01*
Y0031718D01*
X0036000Y0031829D01*
X0035889Y0031940D01*
X0036111D01*
X0036259Y0031606D02*
X0036370D01*
X0036314D02*
Y0031940D01*
X0036370Y0031884D01*
X0036795Y0031773D02*
X0036629D01*
X0036573Y0031829D01*
Y0031884D01*
X0036629Y0031940D01*
X0036795D01*
Y0031606D01*
X0036943Y0031662D02*
X0036971Y0031606D01*
X0037137D01*
X0037165Y0031662D01*
Y0031884D01*
X0037137Y0031940D01*
X0036971D01*
X0036943Y0031884D01*
X0037313Y0031606D02*
Y0031940D01*
X0037369Y0031884D01*
X0037424Y0031773D01*
X0037480Y0031884D01*
X0037535Y0031940D01*
Y0031606D01*
X0027947Y0016971D02*
Y0017082D01*
X0027835Y0017304D01*
X0027724Y0017082D01*
Y0016971D01*
X0027382Y0017137D02*
X0027549D01*
X0027577Y0017193D01*
Y0017248D01*
X0027549Y0017304D01*
X0027382D01*
X0027354Y0017248D01*
Y0017193D01*
X0027465Y0016971D01*
X0027207Y0017304D02*
X0027096D01*
X0027151D02*
Y0016971D01*
X0027096Y0017026D01*
X0026892Y0017137D02*
X0026670D01*
X0026467D02*
X0026300D01*
Y0017304D02*
Y0016971D01*
X0026522D01*
X0026152D02*
Y0017304D01*
X0026097Y0017248D01*
X0025986Y0017026D01*
X0025930Y0016971D01*
Y0017304D01*
X0025643D02*
X0025588Y0017248D01*
X0025560Y0017193D01*
Y0017082D01*
X0025588Y0017026D01*
X0025643Y0016971D01*
X0025699D01*
X0025754Y0017026D01*
X0025782Y0017082D01*
Y0017193D01*
X0025754Y0017248D01*
X0025699Y0017304D01*
X0025643D01*
X0025273D02*
X0025218Y0017248D01*
X0025190Y0017193D01*
Y0017082D01*
X0025218Y0017026D01*
X0025273Y0016971D01*
X0025329D01*
X0025384Y0017026D01*
X0025412Y0017082D01*
Y0017193D01*
X0025384Y0017248D01*
X0025329Y0017304D01*
X0025273D01*
X0025042D02*
X0024931D01*
X0024987D02*
Y0016971D01*
X0024931Y0017026D01*
X0024728Y0017137D02*
X0024506D01*
X0024330D02*
X0024163D01*
X0024136Y0017082D01*
Y0017026D01*
X0024163Y0016971D01*
X0024330D01*
X0024358Y0017026D01*
Y0017082D01*
X0024247Y0017304D01*
X0023766Y0017248D02*
X0023821Y0017304D01*
X0023932D01*
X0023988Y0017248D01*
Y0017193D01*
X0023877Y0017082D01*
X0023988Y0016971D01*
X0023766D01*
X0023618Y0017304D02*
Y0016971D01*
X0023562Y0017026D01*
X0023507Y0017137D01*
X0023451Y0017026D01*
X0023396Y0016971D01*
Y0017304D01*
X0023165Y0017137D02*
X0023248Y0017304D01*
X0023026Y0017137D02*
X0023192D01*
X0023248Y0017082D01*
Y0017026D01*
X0023192Y0016971D01*
X0023026D01*
Y0017304D01*
X0022767Y0017137D02*
X0022878D01*
Y0017248D01*
X0022850Y0017304D01*
X0022683D01*
X0022656Y0017248D01*
Y0017026D01*
X0022683Y0016971D01*
X0022850D01*
X0022878Y0017026D01*
X0031189Y0019298D02*
X0031133Y0019242D01*
X0031022D01*
X0030967Y0019298D01*
Y0019354D01*
X0031078Y0019465D01*
X0030967Y0019576D01*
X0031189D01*
X0031420Y0019409D02*
X0031337Y0019242D01*
X0031559Y0019409D02*
X0031392D01*
X0031337Y0019465D01*
Y0019520D01*
X0031392Y0019576D01*
X0031559D01*
Y0019242D01*
X0030785Y0019842D02*
X0030951Y0020008D01*
X0030785Y0020175D01*
X0031007D02*
Y0019842D01*
X0031321D02*
X0031155Y0020175D01*
X0031377D01*
X0031525Y0019953D02*
X0031747D01*
X0031636Y0020175D01*
X0031580D01*
Y0019842D01*
X0025609Y0028192D02*
X0025553Y0028136D01*
X0025442D01*
X0025386Y0028192D01*
Y0028248D01*
X0025498Y0028359D01*
X0025386Y0028470D01*
X0025609D01*
X0025756Y0028136D02*
X0025867D01*
X0025812D02*
Y0028470D01*
X0025867Y0028414D01*
X0026071Y0028192D02*
X0026099Y0028136D01*
X0026265D01*
X0026293Y0028192D01*
Y0028414D01*
X0026265Y0028470D01*
X0026099D01*
X0026071Y0028414D01*
X0021190Y0029069D02*
Y0028958D01*
X0021301Y0028736D01*
X0021412Y0028958D01*
Y0029069D01*
X0021754Y0028902D02*
X0021588D01*
X0021560Y0028847D01*
Y0028791D01*
X0021588Y0028736D01*
X0021754D01*
X0021782Y0028791D01*
Y0028847D01*
X0021671Y0029069D01*
X0021930Y0028736D02*
X0022041D01*
X0021985D02*
Y0029069D01*
X0022041Y0029013D01*
X0022244Y0028902D02*
X0022467D01*
X0022670D02*
X0022837D01*
Y0028736D02*
Y0029069D01*
X0022614D01*
X0022984D02*
Y0028736D01*
X0023040Y0028791D01*
X0023151Y0029013D01*
X0023207Y0029069D01*
Y0028736D01*
X0023493D02*
X0023549Y0028791D01*
X0023577Y0028847D01*
Y0028958D01*
X0023549Y0029013D01*
X0023493Y0029069D01*
X0023438D01*
X0023382Y0029013D01*
X0023354Y0028958D01*
Y0028847D01*
X0023382Y0028791D01*
X0023438Y0028736D01*
X0023493D01*
X0023863D02*
X0023919Y0028791D01*
X0023947Y0028847D01*
Y0028958D01*
X0023919Y0029013D01*
X0023863Y0029069D01*
X0023808D01*
X0023752Y0029013D01*
X0023724Y0028958D01*
Y0028847D01*
X0023752Y0028791D01*
X0023808Y0028736D01*
X0023863D01*
X0024094D02*
X0024205D01*
X0024150D02*
Y0029069D01*
X0024205Y0029013D01*
X0024409Y0028902D02*
X0024631D01*
X0024806D02*
X0024973D01*
X0025001Y0028958D01*
Y0029013D01*
X0024973Y0029069D01*
X0024806D01*
X0024779Y0029013D01*
Y0028958D01*
X0024890Y0028736D01*
X0025371Y0028791D02*
X0025315Y0028736D01*
X0025204D01*
X0025149Y0028791D01*
Y0028847D01*
X0025260Y0028958D01*
X0025149Y0029069D01*
X0025371D01*
X0025519Y0028736D02*
Y0029069D01*
X0025574Y0029013D01*
X0025630Y0028902D01*
X0025685Y0029013D01*
X0025741Y0029069D01*
Y0028736D01*
X0025972Y0028902D02*
X0025889Y0028736D01*
X0026111Y0028902D02*
X0025944D01*
X0025889Y0028958D01*
Y0029013D01*
X0025944Y0029069D01*
X0026111D01*
Y0028736D01*
X0026370Y0028902D02*
X0026259D01*
Y0028791D01*
X0026286Y0028736D01*
X0026453D01*
X0026481Y0028791D01*
Y0029013D01*
X0026453Y0029069D01*
X0026286D01*
X0026259Y0029013D01*
X0035469Y0033421D02*
X0035525Y0033365D01*
X0035580Y0033337D01*
X0035691D01*
X0035747Y0033365D01*
X0035802Y0033421D01*
Y0033476D01*
X0035747Y0033532D01*
X0035691Y0033560D01*
X0035580D01*
X0035525Y0033532D01*
X0035469Y0033476D01*
Y0033421D01*
Y0033051D02*
X0035525Y0032995D01*
X0035580Y0032967D01*
X0035691D01*
X0035747Y0032995D01*
X0035802Y0033051D01*
Y0033106D01*
X0035747Y0033162D01*
X0035691Y0033190D01*
X0035580D01*
X0035525Y0033162D01*
X0035469Y0033106D01*
Y0033051D01*
X0035525Y0032597D02*
X0035469Y0032653D01*
Y0032764D01*
X0035525Y0032820D01*
X0035580D01*
X0035691Y0032709D01*
X0035802Y0032820D01*
Y0032597D01*
X0035525Y0032450D02*
X0035469Y0032422D01*
Y0032255D01*
X0035525Y0032227D01*
X0035747D01*
X0035802Y0032255D01*
Y0032422D01*
X0035747Y0032450D01*
X0029384Y0022420D02*
X0029272D01*
X0029050Y0022309D01*
X0029272Y0022198D01*
X0029384D01*
X0029217Y0021856D02*
Y0022022D01*
X0029161Y0022050D01*
X0029106D01*
X0029050Y0022022D01*
Y0021856D01*
X0029106Y0021828D01*
X0029161D01*
X0029384Y0021939D01*
X0029050Y0021680D02*
Y0021569D01*
Y0021625D02*
X0029384D01*
X0029328Y0021569D01*
X0029217Y0021366D02*
Y0021144D01*
Y0020940D02*
Y0020774D01*
X0029050D02*
X0029384D01*
Y0020996D01*
Y0020626D02*
X0029050D01*
X0029106Y0020570D01*
X0029328Y0020459D01*
X0029384Y0020404D01*
X0029050D01*
Y0020117D02*
X0029106Y0020061D01*
X0029161Y0020034D01*
X0029272D01*
X0029328Y0020061D01*
X0029384Y0020117D01*
Y0020173D01*
X0029328Y0020228D01*
X0029272Y0020256D01*
X0029161D01*
X0029106Y0020228D01*
X0029050Y0020173D01*
Y0020117D01*
Y0019747D02*
X0029106Y0019691D01*
X0029161Y0019664D01*
X0029272D01*
X0029328Y0019691D01*
X0029384Y0019747D01*
Y0019803D01*
X0029328Y0019858D01*
X0029272Y0019886D01*
X0029161D01*
X0029106Y0019858D01*
X0029050Y0019803D01*
Y0019747D01*
Y0019516D02*
Y0019405D01*
Y0019460D02*
X0029384D01*
X0029328Y0019405D01*
X0029217Y0019202D02*
Y0018979D01*
Y0018804D02*
Y0018637D01*
X0029272Y0018609D01*
X0029328D01*
X0029384Y0018637D01*
Y0018804D01*
X0029328Y0018832D01*
X0029272D01*
X0029050Y0018720D01*
X0029106Y0018239D02*
X0029050Y0018295D01*
Y0018406D01*
X0029106Y0018462D01*
X0029161D01*
X0029272Y0018350D01*
X0029384Y0018462D01*
Y0018239D01*
X0029050Y0018092D02*
X0029384D01*
X0029328Y0018036D01*
X0029217Y0017980D01*
X0029328Y0017925D01*
X0029384Y0017869D01*
X0029050D01*
X0029217Y0017638D02*
X0029050Y0017722D01*
X0029217Y0017499D02*
Y0017666D01*
X0029272Y0017722D01*
X0029328D01*
X0029384Y0017666D01*
Y0017499D01*
X0029050D01*
X0029217Y0017240D02*
Y0017352D01*
X0029106D01*
X0029050Y0017324D01*
Y0017157D01*
X0029106Y0017129D01*
X0029328D01*
X0029384Y0017157D01*
Y0017324D01*
X0029328Y0017352D01*
X0031118Y0008086D02*
Y0008419D01*
X0031145Y0008086D02*
X0030979D01*
X0030923Y0008197D01*
Y0008308D01*
X0030979Y0008419D01*
X0031145D01*
X0031349Y0008252D02*
X0031515D01*
X0031293Y0008086D02*
X0031515D01*
Y0008419D01*
X0031293D01*
X0031663Y0008086D02*
X0031858D01*
Y0008419D01*
X0032695Y0008086D02*
Y0008419D01*
X0032723Y0008086D02*
X0032556D01*
X0032500Y0008197D01*
Y0008308D01*
X0032556Y0008419D01*
X0032723D01*
X0032926Y0008252D02*
X0033093D01*
X0032870Y0008086D02*
X0033093D01*
Y0008419D01*
X0032870D01*
X0033324Y0008252D02*
X0033240Y0008086D01*
X0033463Y0008252D02*
X0033296D01*
X0033240Y0008308D01*
Y0008363D01*
X0033296Y0008419D01*
X0033463D01*
Y0008086D01*
X0027674Y0012318D02*
X0027452D01*
X0027674Y0012096D01*
Y0012040D01*
X0027647Y0011984D01*
X0027480D01*
X0027452Y0012040D01*
X0027304Y0012262D02*
X0027277Y0012318D01*
X0027110D01*
X0027082Y0012262D01*
Y0012040D01*
X0027110Y0011984D01*
X0027277D01*
X0027304Y0012040D01*
X0032185Y0011385D02*
Y0011496D01*
X0032074Y0011719D01*
X0031963Y0011496D01*
Y0011385D01*
X0031676Y0011719D02*
X0031621Y0011663D01*
X0031593Y0011607D01*
Y0011496D01*
X0031621Y0011441D01*
X0031676Y0011385D01*
X0031732D01*
X0031788Y0011441D01*
X0031815Y0011496D01*
Y0011607D01*
X0031788Y0011663D01*
X0031732Y0011719D01*
X0031676D01*
X0031223Y0011663D02*
X0031251Y0011719D01*
X0031418D01*
X0031445Y0011663D01*
Y0011552D01*
X0031390Y0011496D01*
X0031223D01*
Y0011385D01*
X0031445D01*
X0031075Y0011552D02*
X0030853D01*
X0030650D02*
X0030483D01*
Y0011719D02*
Y0011385D01*
X0030705D01*
X0030335D02*
Y0011719D01*
X0030280Y0011663D01*
X0030169Y0011441D01*
X0030113Y0011385D01*
Y0011719D01*
X0029799D02*
X0029965Y0011385D01*
X0029743D01*
X0029540Y0011719D02*
X0029595D01*
Y0011663D01*
X0029540D01*
Y0011719D01*
X0029337Y0011607D02*
X0029114D01*
X0029225Y0011385D01*
X0029281D01*
Y0011719D01*
X0028967Y0011552D02*
X0028744D01*
X0028569D02*
X0028402D01*
X0028374Y0011496D01*
Y0011441D01*
X0028402Y0011385D01*
X0028569D01*
X0028597Y0011441D01*
Y0011496D01*
X0028485Y0011719D01*
X0028004Y0011663D02*
X0028060Y0011719D01*
X0028171D01*
X0028227Y0011663D01*
Y0011607D01*
X0028115Y0011496D01*
X0028227Y0011385D01*
X0028004D01*
X0027857Y0011719D02*
Y0011385D01*
X0027801Y0011441D01*
X0027745Y0011552D01*
X0027690Y0011441D01*
X0027634Y0011385D01*
Y0011719D01*
X0027403Y0011552D02*
X0027487Y0011719D01*
X0027264Y0011552D02*
X0027431D01*
X0027487Y0011496D01*
Y0011441D01*
X0027431Y0011385D01*
X0027264D01*
Y0011719D01*
X0027005Y0011552D02*
X0027117D01*
Y0011663D01*
X0027089Y0011719D01*
X0026922D01*
X0026894Y0011663D01*
Y0011441D01*
X0026922Y0011385D01*
X0027089D01*
X0027117Y0011441D01*
X0022128Y0017848D02*
X0022183Y0017903D01*
X0022294D01*
X0022350Y0017848D01*
Y0017792D01*
X0022239Y0017681D01*
X0022350Y0017570D01*
X0022128D01*
X0021841Y0017903D02*
X0021786Y0017848D01*
X0021758Y0017792D01*
Y0017681D01*
X0021786Y0017625D01*
X0021841Y0017570D01*
X0021897D01*
X0021952Y0017625D01*
X0021980Y0017681D01*
Y0017792D01*
X0021952Y0017848D01*
X0021897Y0017903D01*
X0021841D01*
X0021610D02*
X0021499D01*
X0021555D02*
Y0017570D01*
X0021499Y0017625D01*
X0021296Y0017848D02*
X0021268Y0017903D01*
X0021101D01*
X0021073Y0017848D01*
Y0017625D01*
X0021101Y0017570D01*
X0021268D01*
X0021296Y0017625D01*
X0029851Y0019685D02*
Y0019852D01*
X0029796Y0019880D01*
X0029740D01*
X0029684Y0019852D01*
Y0019685D01*
X0029740Y0019657D01*
X0029796D01*
X0030018Y0019769D01*
Y0020027D02*
Y0020250D01*
X0029796Y0020027D01*
X0029740D01*
X0029684Y0020055D01*
Y0020222D01*
X0029740Y0020250D01*
X0029962Y0020397D02*
X0030018Y0020425D01*
Y0020592D01*
X0029962Y0020620D01*
X0029740D01*
X0029684Y0020592D01*
Y0020425D01*
X0029740Y0020397D01*
X0032682Y0007598D02*
X0032905D01*
X0032794Y0007820D01*
X0032738D01*
Y0007486D01*
X0033247D02*
Y0007820D01*
X0033275Y0007486D02*
X0033108D01*
X0033052Y0007598D01*
Y0007709D01*
X0033108Y0007820D01*
X0033275D01*
X0016530Y0020715D02*
X0016753D01*
X0016642Y0020937D01*
X0016586D01*
Y0020604D01*
X0016900D02*
X0017123D01*
X0016900Y0020826D01*
Y0020882D01*
X0016928Y0020937D01*
X0017095D01*
X0017123Y0020882D01*
X0017270Y0020660D02*
X0017298Y0020604D01*
X0017465D01*
X0017493Y0020660D01*
Y0020882D01*
X0017465Y0020937D01*
X0017298D01*
X0017270Y0020882D01*
X0040431Y0028094D02*
X0040376Y0028150D01*
X0040320Y0028177D01*
X0040209D01*
X0040153Y0028150D01*
X0040098Y0028094D01*
Y0028038D01*
X0040153Y0027983D01*
X0040209Y0027955D01*
X0040320D01*
X0040376Y0027983D01*
X0040431Y0028038D01*
Y0028094D01*
Y0028325D02*
Y0028436D01*
Y0028381D02*
X0040098D01*
X0040153Y0028436D01*
X0040264Y0028723D02*
X0040431Y0028639D01*
X0040264Y0028862D02*
Y0028695D01*
X0040209Y0028639D01*
X0040153D01*
X0040098Y0028695D01*
Y0028862D01*
X0040431D01*
X0039776Y0026090D02*
X0039832Y0026062D01*
Y0025895D01*
X0039776Y0025867D01*
X0039665D01*
X0039610Y0025923D01*
Y0026090D01*
X0039499D01*
Y0025867D01*
X0039832Y0026376D02*
X0039776Y0026432D01*
X0039721Y0026460D01*
X0039610D01*
X0039554Y0026432D01*
X0039499Y0026376D01*
Y0026321D01*
X0039554Y0026265D01*
X0039610Y0026237D01*
X0039721D01*
X0039776Y0026265D01*
X0039832Y0026321D01*
Y0026376D01*
X0039665Y0026635D02*
X0039610Y0026607D01*
X0039554D01*
X0039499Y0026635D01*
Y0026802D01*
X0039554Y0026830D01*
X0039610D01*
X0039665Y0026802D01*
Y0026635D01*
X0039721Y0026607D01*
X0039776D01*
X0039832Y0026635D01*
Y0026802D01*
X0039776Y0026830D01*
X0039721D01*
X0039665Y0026802D01*
X0039832Y0027116D02*
X0039776Y0027172D01*
X0039721Y0027200D01*
X0039610D01*
X0039554Y0027172D01*
X0039499Y0027116D01*
Y0027061D01*
X0039554Y0027005D01*
X0039610Y0026977D01*
X0039721D01*
X0039776Y0027005D01*
X0039832Y0027061D01*
Y0027116D01*
X0039665Y0027347D02*
Y0027570D01*
Y0027745D02*
Y0027912D01*
X0039610Y0027940D01*
X0039554D01*
X0039499Y0027912D01*
Y0027745D01*
X0039554Y0027717D01*
X0039610D01*
X0039832Y0027828D01*
X0039665Y0028171D02*
X0039832Y0028087D01*
X0039665Y0028310D02*
Y0028143D01*
X0039610Y0028087D01*
X0039554D01*
X0039499Y0028143D01*
Y0028310D01*
X0039832D01*
X0039665Y0028485D02*
Y0028652D01*
X0039610Y0028680D01*
X0039554D01*
X0039499Y0028652D01*
Y0028485D01*
X0039554Y0028457D01*
X0039610D01*
X0039832Y0028568D01*
X0039721Y0028827D02*
Y0029050D01*
X0039499Y0028938D01*
Y0028883D01*
X0039832D01*
X0036402Y0037331D02*
X0036290D01*
X0036068Y0037219D01*
X0036290Y0037108D01*
X0036402D01*
X0036235Y0036766D02*
Y0036933D01*
X0036179Y0036961D01*
X0036124D01*
X0036068Y0036933D01*
Y0036766D01*
X0036124Y0036738D01*
X0036179D01*
X0036402Y0036849D01*
X0036068Y0036591D02*
Y0036480D01*
Y0036535D02*
X0036402D01*
X0036346Y0036480D01*
X0036235Y0036276D02*
Y0036054D01*
Y0035851D02*
Y0035684D01*
X0036068D02*
X0036402D01*
Y0035906D01*
Y0035536D02*
X0036068D01*
X0036124Y0035481D01*
X0036346Y0035370D01*
X0036402Y0035314D01*
X0036068D01*
Y0035027D02*
X0036124Y0034972D01*
X0036179Y0034944D01*
X0036290D01*
X0036346Y0034972D01*
X0036402Y0035027D01*
Y0035083D01*
X0036346Y0035138D01*
X0036290Y0035166D01*
X0036179D01*
X0036124Y0035138D01*
X0036068Y0035083D01*
Y0035027D01*
Y0034657D02*
X0036124Y0034602D01*
X0036179Y0034574D01*
X0036290D01*
X0036346Y0034602D01*
X0036402Y0034657D01*
Y0034713D01*
X0036346Y0034768D01*
X0036290Y0034796D01*
X0036179D01*
X0036124Y0034768D01*
X0036068Y0034713D01*
Y0034657D01*
Y0034426D02*
Y0034315D01*
Y0034371D02*
X0036402D01*
X0036346Y0034315D01*
X0036235Y0034112D02*
Y0033890D01*
Y0033714D02*
Y0033547D01*
X0036290Y0033520D01*
X0036346D01*
X0036402Y0033547D01*
Y0033714D01*
X0036346Y0033742D01*
X0036290D01*
X0036068Y0033631D01*
X0036124Y0033150D02*
X0036068Y0033205D01*
Y0033316D01*
X0036124Y0033372D01*
X0036179D01*
X0036290Y0033261D01*
X0036402Y0033372D01*
Y0033150D01*
X0036068Y0033002D02*
X0036402D01*
X0036346Y0032946D01*
X0036235Y0032891D01*
X0036346Y0032835D01*
X0036402Y0032780D01*
X0036068D01*
X0036235Y0032549D02*
X0036068Y0032632D01*
X0036235Y0032410D02*
Y0032576D01*
X0036290Y0032632D01*
X0036346D01*
X0036402Y0032576D01*
Y0032410D01*
X0036068D01*
X0036235Y0032151D02*
Y0032262D01*
X0036124D01*
X0036068Y0032234D01*
Y0032067D01*
X0036124Y0032040D01*
X0036346D01*
X0036402Y0032067D01*
Y0032234D01*
X0036346Y0032262D01*
X0027763Y0013016D02*
Y0012905D01*
Y0012960D02*
X0028096D01*
X0028041Y0012905D01*
X0027929Y0012618D02*
X0027763Y0012701D01*
X0027929Y0012479D02*
Y0012646D01*
X0027985Y0012701D01*
X0028041D01*
X0028096Y0012646D01*
Y0012479D01*
X0027763D01*
X0028362Y0016597D02*
X0028417D01*
Y0016542D01*
X0028362D01*
Y0016597D01*
X0028695Y0016569D02*
X0028362Y0016403D01*
X0028695Y0016375D02*
X0028640D01*
Y0016431D01*
X0028695D01*
Y0016375D01*
X0028362Y0016227D02*
Y0016116D01*
Y0016172D02*
X0028695D01*
X0028640Y0016116D01*
X0028417Y0015196D02*
X0028362Y0015223D01*
Y0015390D01*
X0028417Y0015418D01*
X0028529D01*
X0028584Y0015362D01*
Y0015196D01*
X0028695D01*
Y0015418D01*
X0028362Y0014909D02*
X0028417Y0014853D01*
X0028473Y0014826D01*
X0028584D01*
X0028640Y0014853D01*
X0028695Y0014909D01*
Y0014965D01*
X0028640Y0015020D01*
X0028584Y0015048D01*
X0028473D01*
X0028417Y0015020D01*
X0028362Y0014965D01*
Y0014909D01*
X0028529Y0014650D02*
X0028584Y0014678D01*
X0028640D01*
X0028695Y0014650D01*
Y0014483D01*
X0028640Y0014456D01*
X0028584D01*
X0028529Y0014483D01*
Y0014650D01*
X0028473Y0014678D01*
X0028417D01*
X0028362Y0014650D01*
Y0014483D01*
X0028417Y0014456D01*
X0028473D01*
X0028529Y0014483D01*
X0028362Y0014169D02*
X0028417Y0014113D01*
X0028473Y0014086D01*
X0028584D01*
X0028640Y0014113D01*
X0028695Y0014169D01*
Y0014225D01*
X0028640Y0014280D01*
X0028584Y0014308D01*
X0028473D01*
X0028417Y0014280D01*
X0028362Y0014225D01*
Y0014169D01*
X0028529Y0013938D02*
Y0013716D01*
Y0013373D02*
Y0013540D01*
X0028473Y0013568D01*
X0028417D01*
X0028362Y0013540D01*
Y0013373D01*
X0028417Y0013346D01*
X0028473D01*
X0028695Y0013457D01*
X0028529Y0013170D02*
Y0013003D01*
X0028584Y0012976D01*
X0028640D01*
X0028695Y0013003D01*
Y0013170D01*
X0028640Y0013198D01*
X0028584D01*
X0028362Y0013087D01*
Y0012828D02*
X0028529Y0012661D01*
X0028695Y0012828D01*
Y0012606D02*
X0028362D01*
Y0012458D02*
Y0012347D01*
Y0012402D02*
X0028695D01*
X0028640Y0012347D01*
X0020260Y0015558D02*
X0020204Y0015503D01*
X0020176Y0015447D01*
Y0015336D01*
X0020204Y0015280D01*
X0020260Y0015225D01*
X0020315D01*
X0020371Y0015280D01*
X0020399Y0015336D01*
Y0015447D01*
X0020371Y0015503D01*
X0020315Y0015558D01*
X0020260D01*
X0020029D02*
X0019806D01*
X0020029Y0015336D01*
Y0015280D01*
X0020001Y0015225D01*
X0019834D01*
X0019806Y0015280D01*
X0019659Y0015503D02*
X0019631Y0015558D01*
X0019464D01*
X0019436Y0015503D01*
Y0015280D01*
X0019464Y0015225D01*
X0019631D01*
X0019659Y0015280D01*
X0034026Y0010935D02*
Y0010769D01*
X0034082Y0010741D01*
X0034137D01*
X0034193Y0010769D01*
Y0010935D01*
X0034137Y0010963D01*
X0034082D01*
X0033859Y0010852D01*
Y0010454D02*
X0033915Y0010399D01*
X0033971Y0010371D01*
X0034082D01*
X0034137Y0010399D01*
X0034193Y0010454D01*
Y0010510D01*
X0034137Y0010565D01*
X0034082Y0010593D01*
X0033971D01*
X0033915Y0010565D01*
X0033859Y0010510D01*
Y0010454D01*
Y0010223D02*
Y0010112D01*
Y0010168D02*
X0034193D01*
X0034137Y0010112D01*
X0033915Y0009909D02*
X0033859Y0009881D01*
Y0009714D01*
X0033915Y0009686D01*
X0034137D01*
X0034193Y0009714D01*
Y0009881D01*
X0034137Y0009909D01*
X0034625Y0011090D02*
Y0010923D01*
X0034459D02*
X0034792D01*
Y0011145D01*
Y0010775D02*
X0034459D01*
X0034514Y0010720D01*
X0034736Y0010609D01*
X0034792Y0010553D01*
X0034459D01*
Y0010266D02*
X0034514Y0010211D01*
X0034570Y0010183D01*
X0034681D01*
X0034736Y0010211D01*
X0034792Y0010266D01*
Y0010322D01*
X0034736Y0010377D01*
X0034681Y0010405D01*
X0034570D01*
X0034514Y0010377D01*
X0034459Y0010322D01*
Y0010266D01*
Y0009896D02*
X0034514Y0009841D01*
X0034570Y0009813D01*
X0034681D01*
X0034736Y0009841D01*
X0034792Y0009896D01*
Y0009952D01*
X0034736Y0010007D01*
X0034681Y0010035D01*
X0034570D01*
X0034514Y0010007D01*
X0034459Y0009952D01*
Y0009896D01*
Y0009665D02*
Y0009554D01*
Y0009610D02*
X0034792D01*
X0034736Y0009554D01*
X0046825Y0037502D02*
Y0037280D01*
X0046714Y0037502D02*
X0046881D01*
X0047047Y0037419D01*
Y0037363D01*
X0046881Y0037280D01*
X0046714D01*
X0046881Y0037104D02*
X0046936Y0037132D01*
X0046992D01*
X0047047Y0037104D01*
Y0036938D01*
X0046992Y0036910D01*
X0046936D01*
X0046881Y0036938D01*
Y0037104D01*
X0046825Y0037132D01*
X0046770D01*
X0046714Y0037104D01*
Y0036938D01*
X0046770Y0036910D01*
X0046825D01*
X0046881Y0036938D01*
X0046603Y0036734D02*
X0046659Y0036762D01*
X0046770D01*
Y0036706D01*
X0046714D01*
Y0036762D01*
X0046770Y0036253D02*
X0046714Y0036309D01*
Y0036420D01*
X0046770Y0036475D01*
X0046825D01*
X0046936Y0036364D01*
X0047047Y0036475D01*
Y0036253D01*
X0046881Y0036105D02*
Y0035883D01*
Y0035735D02*
Y0035513D01*
X0046714Y0035735D02*
X0047047D01*
X0046714Y0035513D02*
X0047047D01*
Y0035365D02*
X0046770D01*
X0046714Y0035338D01*
Y0035171D01*
X0046770Y0035143D01*
X0047047D01*
X0046714Y0034995D02*
Y0034773D01*
X0046936Y0034995D01*
X0046992D01*
X0047047Y0034968D01*
Y0034801D01*
X0046992Y0034773D01*
X0046714Y0034625D02*
Y0034403D01*
X0046936Y0034625D01*
X0046992D01*
X0047047Y0034598D01*
Y0034431D01*
X0046992Y0034403D01*
X0046881Y0034255D02*
Y0034033D01*
X0046714Y0033885D02*
Y0033663D01*
X0046936Y0033885D01*
X0046992D01*
X0047047Y0033858D01*
Y0033691D01*
X0046992Y0033663D01*
X0046714Y0033349D02*
X0047047Y0033515D01*
Y0033293D01*
X0046714Y0033145D02*
Y0033034D01*
Y0033090D02*
X0047047D01*
X0046992Y0033034D01*
X0046714Y0032831D02*
Y0032720D01*
Y0032776D02*
X0047047D01*
X0046992Y0032720D01*
X0046881Y0032294D02*
Y0032461D01*
X0046936Y0032517D01*
X0046992D01*
X0047047Y0032461D01*
Y0032294D01*
X0046714D01*
X0046881Y0032147D02*
Y0031924D01*
Y0031721D02*
Y0031554D01*
X0046714Y0031777D02*
Y0031554D01*
X0047047D01*
Y0031777D01*
X0046992Y0031407D02*
X0047047Y0031379D01*
Y0031212D01*
X0046992Y0031184D01*
X0046936D01*
X0046881Y0031212D01*
Y0031379D01*
X0046825Y0031407D01*
X0046770D01*
X0046714Y0031379D01*
Y0031212D01*
X0046770Y0031184D01*
X0046714Y0031037D02*
Y0030842D01*
X0047047D01*
Y0030695D02*
X0046770D01*
X0046714Y0030667D01*
Y0030500D01*
X0046770Y0030472D01*
X0047047D01*
X0046881Y0030102D02*
Y0030269D01*
X0046936Y0030325D01*
X0046992D01*
X0047047Y0030269D01*
Y0030102D01*
X0046714D01*
X0038032Y0027323D02*
X0038254D01*
X0038143Y0027545D01*
X0038088D01*
Y0027212D01*
X0038402D02*
X0038513D01*
X0038458D02*
Y0027545D01*
X0038513Y0027490D01*
X0038800Y0027379D02*
X0038716Y0027212D01*
X0038939Y0027379D02*
X0038772D01*
X0038716Y0027434D01*
Y0027490D01*
X0038772Y0027545D01*
X0038939D01*
Y0027212D01*
X0034821Y0027811D02*
Y0027867D01*
X0034876D01*
Y0027811D01*
X0034821D01*
X0034848Y0028145D02*
X0035015Y0027811D01*
X0035043Y0028145D02*
Y0028089D01*
X0034987D01*
Y0028145D01*
X0035043D01*
X0035191Y0027811D02*
X0035302D01*
X0035246D02*
Y0028145D01*
X0035302Y0028089D01*
X0036222Y0027867D02*
X0036194Y0027811D01*
X0036028D01*
X0036000Y0027867D01*
Y0027978D01*
X0036056Y0028033D01*
X0036222D01*
Y0028145D01*
X0036000D01*
X0036509Y0027811D02*
X0036564Y0027867D01*
X0036592Y0027922D01*
Y0028033D01*
X0036564Y0028089D01*
X0036509Y0028145D01*
X0036453D01*
X0036398Y0028089D01*
X0036370Y0028033D01*
Y0027922D01*
X0036398Y0027867D01*
X0036453Y0027811D01*
X0036509D01*
X0036768Y0027978D02*
X0036740Y0028033D01*
Y0028089D01*
X0036768Y0028145D01*
X0036934D01*
X0036962Y0028089D01*
Y0028033D01*
X0036934Y0027978D01*
X0036768D01*
X0036740Y0027922D01*
Y0027867D01*
X0036768Y0027811D01*
X0036934D01*
X0036962Y0027867D01*
Y0027922D01*
X0036934Y0027978D01*
X0037249Y0027811D02*
X0037304Y0027867D01*
X0037332Y0027922D01*
Y0028033D01*
X0037304Y0028089D01*
X0037249Y0028145D01*
X0037193D01*
X0037138Y0028089D01*
X0037110Y0028033D01*
Y0027922D01*
X0037138Y0027867D01*
X0037193Y0027811D01*
X0037249D01*
X0037480Y0027978D02*
X0037702D01*
X0038044D02*
X0037878D01*
X0037850Y0027922D01*
Y0027867D01*
X0037878Y0027811D01*
X0038044D01*
X0038072Y0027867D01*
Y0027922D01*
X0037961Y0028145D01*
X0038248Y0027978D02*
X0038414D01*
X0038442Y0028033D01*
Y0028089D01*
X0038414Y0028145D01*
X0038248D01*
X0038220Y0028089D01*
Y0028033D01*
X0038331Y0027811D01*
X0038590D02*
X0038757Y0027978D01*
X0038590Y0028145D01*
X0038812D02*
Y0027811D01*
X0038960D02*
X0039071D01*
X0039015D02*
Y0028145D01*
X0039071Y0028089D01*
X0012390Y0021537D02*
Y0021425D01*
X0012501Y0021203D01*
X0012612Y0021425D01*
Y0021537D01*
X0012954Y0021370D02*
X0012787D01*
X0012760Y0021314D01*
Y0021259D01*
X0012787Y0021203D01*
X0012954D01*
X0012982Y0021259D01*
Y0021314D01*
X0012871Y0021537D01*
X0013130Y0021203D02*
X0013241D01*
X0013185D02*
Y0021537D01*
X0013241Y0021481D01*
X0013444Y0021370D02*
X0013666D01*
X0013870D02*
X0014036D01*
Y0021203D02*
Y0021537D01*
X0013814D01*
X0014184D02*
Y0021203D01*
X0014240Y0021259D01*
X0014351Y0021481D01*
X0014406Y0021537D01*
Y0021203D01*
X0014693D02*
X0014748Y0021259D01*
X0014776Y0021314D01*
Y0021425D01*
X0014748Y0021481D01*
X0014693Y0021537D01*
X0014637D01*
X0014582Y0021481D01*
X0014554Y0021425D01*
Y0021314D01*
X0014582Y0021259D01*
X0014637Y0021203D01*
X0014693D01*
X0015063D02*
X0015118Y0021259D01*
X0015146Y0021314D01*
Y0021425D01*
X0015118Y0021481D01*
X0015063Y0021537D01*
X0015007D01*
X0014952Y0021481D01*
X0014924Y0021425D01*
Y0021314D01*
X0014952Y0021259D01*
X0015007Y0021203D01*
X0015063D01*
X0015294D02*
X0015405D01*
X0015349D02*
Y0021537D01*
X0015405Y0021481D01*
X0015608Y0021370D02*
X0015831D01*
X0016006D02*
X0016173D01*
X0016201Y0021425D01*
Y0021481D01*
X0016173Y0021537D01*
X0016006D01*
X0015978Y0021481D01*
Y0021425D01*
X0016089Y0021203D01*
X0016571Y0021259D02*
X0016515Y0021203D01*
X0016404D01*
X0016348Y0021259D01*
Y0021314D01*
X0016459Y0021425D01*
X0016348Y0021537D01*
X0016571D01*
X0016718Y0021203D02*
Y0021537D01*
X0016774Y0021481D01*
X0016829Y0021370D01*
X0016885Y0021481D01*
X0016941Y0021537D01*
Y0021203D01*
X0017172Y0021370D02*
X0017088Y0021203D01*
X0017311Y0021370D02*
X0017144D01*
X0017088Y0021425D01*
Y0021481D01*
X0017144Y0021537D01*
X0017311D01*
Y0021203D01*
X0017569Y0021370D02*
X0017458D01*
Y0021259D01*
X0017486Y0021203D01*
X0017653D01*
X0017681Y0021259D01*
Y0021481D01*
X0017653Y0021537D01*
X0017486D01*
X0017458Y0021481D01*
X0037869Y0022335D02*
X0038091D01*
X0037869Y0022557D01*
Y0022613D01*
X0037897Y0022668D01*
X0038063D01*
X0038091Y0022613D01*
X0038461Y0022390D02*
X0038433Y0022335D01*
X0038267D01*
X0038239Y0022390D01*
Y0022501D01*
X0038294Y0022557D01*
X0038461D01*
Y0022668D01*
X0038239D01*
X0038609Y0022390D02*
X0038637Y0022335D01*
X0038803D01*
X0038831Y0022390D01*
Y0022613D01*
X0038803Y0022668D01*
X0038637D01*
X0038609Y0022613D01*
X0033728Y0023267D02*
Y0023156D01*
X0033839Y0022934D01*
X0033950Y0023156D01*
Y0023267D01*
X0034292Y0023101D02*
X0034126D01*
X0034098Y0023045D01*
Y0022989D01*
X0034126Y0022934D01*
X0034292D01*
X0034320Y0022989D01*
Y0023045D01*
X0034209Y0023267D01*
X0034468Y0022934D02*
X0034579D01*
X0034523D02*
Y0023267D01*
X0034579Y0023212D01*
X0034782Y0023101D02*
X0035005D01*
X0035208D02*
X0035375D01*
Y0022934D02*
Y0023267D01*
X0035152D01*
X0035522D02*
Y0022934D01*
X0035578Y0022989D01*
X0035689Y0023212D01*
X0035745Y0023267D01*
Y0022934D01*
X0036031D02*
X0036087Y0022989D01*
X0036115Y0023045D01*
Y0023156D01*
X0036087Y0023212D01*
X0036031Y0023267D01*
X0035976D01*
X0035920Y0023212D01*
X0035892Y0023156D01*
Y0023045D01*
X0035920Y0022989D01*
X0035976Y0022934D01*
X0036031D01*
X0036401D02*
X0036457Y0022989D01*
X0036485Y0023045D01*
Y0023156D01*
X0036457Y0023212D01*
X0036401Y0023267D01*
X0036346D01*
X0036290Y0023212D01*
X0036262Y0023156D01*
Y0023045D01*
X0036290Y0022989D01*
X0036346Y0022934D01*
X0036401D01*
X0036632D02*
X0036743D01*
X0036688D02*
Y0023267D01*
X0036743Y0023212D01*
X0036947Y0023101D02*
X0037169D01*
X0037344D02*
X0037511D01*
X0037539Y0023156D01*
Y0023212D01*
X0037511Y0023267D01*
X0037344D01*
X0037317Y0023212D01*
Y0023156D01*
X0037428Y0022934D01*
X0037909Y0022989D02*
X0037853Y0022934D01*
X0037742D01*
X0037687Y0022989D01*
Y0023045D01*
X0037798Y0023156D01*
X0037687Y0023267D01*
X0037909D01*
X0038057Y0022934D02*
Y0023267D01*
X0038112Y0023212D01*
X0038168Y0023101D01*
X0038223Y0023212D01*
X0038279Y0023267D01*
Y0022934D01*
X0038510Y0023101D02*
X0038427Y0022934D01*
X0038649Y0023101D02*
X0038482D01*
X0038427Y0023156D01*
Y0023212D01*
X0038482Y0023267D01*
X0038649D01*
Y0022934D01*
X0038908Y0023101D02*
X0038797D01*
Y0022989D01*
X0038824Y0022934D01*
X0038991D01*
X0039019Y0022989D01*
Y0023212D01*
X0038991Y0023267D01*
X0038824D01*
X0038797Y0023212D01*
X0021173Y0023967D02*
X0021229Y0024023D01*
X0021257Y0024078D01*
Y0024189D01*
X0021229Y0024245D01*
X0021173Y0024300D01*
X0021118D01*
X0021062Y0024245D01*
X0021034Y0024189D01*
Y0024078D01*
X0021062Y0024023D01*
X0021118Y0023967D01*
X0021173D01*
X0021543D02*
X0021599Y0024023D01*
X0021627Y0024078D01*
Y0024189D01*
X0021599Y0024245D01*
X0021543Y0024300D01*
X0021488D01*
X0021432Y0024245D01*
X0021404Y0024189D01*
Y0024078D01*
X0021432Y0024023D01*
X0021488Y0023967D01*
X0021543D01*
X0021774D02*
X0021885D01*
X0021830D02*
Y0024300D01*
X0021885Y0024245D01*
X0022089Y0024023D02*
X0022117Y0023967D01*
X0022283D01*
X0022311Y0024023D01*
Y0024245D01*
X0022283Y0024300D01*
X0022117D01*
X0022089Y0024245D01*
X0024120Y0017792D02*
X0023898D01*
X0024009Y0017570D01*
X0024064D01*
Y0017903D01*
X0023611D02*
X0023556Y0017848D01*
X0023528Y0017792D01*
Y0017681D01*
X0023556Y0017625D01*
X0023611Y0017570D01*
X0023667D01*
X0023722Y0017625D01*
X0023750Y0017681D01*
Y0017792D01*
X0023722Y0017848D01*
X0023667Y0017903D01*
X0023611D01*
X0023380D02*
X0023269D01*
X0023325D02*
Y0017570D01*
X0023269Y0017625D01*
X0023066Y0017848D02*
X0023038Y0017903D01*
X0022871D01*
X0022843Y0017848D01*
Y0017625D01*
X0022871Y0017570D01*
X0023038D01*
X0023066Y0017625D01*
X0020064Y0031727D02*
Y0031838D01*
Y0031782D02*
X0019730D01*
X0019786Y0031838D01*
X0020064Y0032041D02*
Y0032236D01*
X0019730D01*
X0020453Y0024786D02*
Y0025008D01*
X0020564Y0024786D02*
X0020397D01*
X0020230Y0024869D01*
Y0024925D01*
X0020397Y0025008D01*
X0020564D01*
X0020397Y0025184D02*
X0020342Y0025156D01*
X0020286D01*
X0020230Y0025184D01*
Y0025350D01*
X0020286Y0025378D01*
X0020342D01*
X0020397Y0025350D01*
Y0025184D01*
X0020453Y0025156D01*
X0020508D01*
X0020564Y0025184D01*
Y0025350D01*
X0020508Y0025378D01*
X0020453D01*
X0020397Y0025350D01*
X0020675Y0025554D02*
X0020619Y0025526D01*
X0020508D01*
Y0025581D01*
X0020564D01*
Y0025526D01*
X0020508Y0026035D02*
X0020564Y0025979D01*
Y0025868D01*
X0020508Y0025812D01*
X0020453D01*
X0020342Y0025924D01*
X0020230Y0025812D01*
Y0026035D01*
X0020397Y0026182D02*
Y0026405D01*
Y0026552D02*
Y0026775D01*
X0020564Y0026552D02*
X0020230D01*
X0020564Y0026775D02*
X0020230D01*
Y0026922D02*
X0020508D01*
X0020564Y0026950D01*
Y0027117D01*
X0020508Y0027145D01*
X0020230D01*
X0020564Y0027292D02*
Y0027515D01*
X0020342Y0027292D01*
X0020286D01*
X0020230Y0027320D01*
Y0027487D01*
X0020286Y0027515D01*
X0020564Y0027662D02*
Y0027885D01*
X0020342Y0027662D01*
X0020286D01*
X0020230Y0027690D01*
Y0027857D01*
X0020286Y0027885D01*
X0020397Y0028032D02*
Y0028255D01*
X0020564Y0028402D02*
Y0028625D01*
X0020342Y0028402D01*
X0020286D01*
X0020230Y0028430D01*
Y0028597D01*
X0020286Y0028625D01*
X0020564Y0028939D02*
X0020230Y0028772D01*
Y0028995D01*
X0020564Y0029142D02*
Y0029253D01*
Y0029198D02*
X0020230D01*
X0020286Y0029253D01*
X0020564Y0029457D02*
Y0029568D01*
Y0029512D02*
X0020230D01*
X0020286Y0029568D01*
X0020397Y0029993D02*
Y0029827D01*
X0020342Y0029771D01*
X0020286D01*
X0020230Y0029827D01*
Y0029993D01*
X0020564D01*
X0020397Y0030141D02*
Y0030363D01*
Y0030567D02*
Y0030733D01*
X0020564Y0030511D02*
Y0030733D01*
X0020230D01*
Y0030511D01*
X0020286Y0030881D02*
X0020230Y0030909D01*
Y0031076D01*
X0020286Y0031103D01*
X0020342D01*
X0020397Y0031076D01*
Y0030909D01*
X0020453Y0030881D01*
X0020508D01*
X0020564Y0030909D01*
Y0031076D01*
X0020508Y0031103D01*
X0020564Y0031251D02*
Y0031446D01*
X0020230D01*
Y0031593D02*
X0020508D01*
X0020564Y0031621D01*
Y0031788D01*
X0020508Y0031816D01*
X0020230D01*
X0020397Y0032186D02*
Y0032019D01*
X0020342Y0031963D01*
X0020286D01*
X0020230Y0032019D01*
Y0032186D01*
X0020564D01*
X0040472Y0015182D02*
X0040583D01*
X0040806Y0015293D01*
X0040583Y0015405D01*
X0040472D01*
X0040639Y0015747D02*
Y0015580D01*
X0040694Y0015552D01*
X0040750D01*
X0040806Y0015580D01*
Y0015747D01*
X0040750Y0015775D01*
X0040694D01*
X0040472Y0015663D01*
X0040806Y0015922D02*
Y0016033D01*
Y0015978D02*
X0040472D01*
X0040528Y0016033D01*
X0040639Y0016237D02*
Y0016459D01*
Y0016662D02*
Y0016829D01*
X0040806D02*
X0040472D01*
Y0016607D01*
Y0016977D02*
X0040806D01*
X0040750Y0017032D01*
X0040528Y0017143D01*
X0040472Y0017199D01*
X0040806D01*
Y0017486D02*
X0040750Y0017541D01*
X0040694Y0017569D01*
X0040583D01*
X0040528Y0017541D01*
X0040472Y0017486D01*
Y0017430D01*
X0040528Y0017374D01*
X0040583Y0017347D01*
X0040694D01*
X0040750Y0017374D01*
X0040806Y0017430D01*
Y0017486D01*
Y0017856D02*
X0040750Y0017911D01*
X0040694Y0017939D01*
X0040583D01*
X0040528Y0017911D01*
X0040472Y0017856D01*
Y0017800D01*
X0040528Y0017744D01*
X0040583Y0017717D01*
X0040694D01*
X0040750Y0017744D01*
X0040806Y0017800D01*
Y0017856D01*
Y0018087D02*
Y0018198D01*
Y0018142D02*
X0040472D01*
X0040528Y0018198D01*
X0040639Y0018401D02*
Y0018623D01*
Y0018799D02*
Y0018965D01*
X0040583Y0018993D01*
X0040528D01*
X0040472Y0018965D01*
Y0018799D01*
X0040528Y0018771D01*
X0040583D01*
X0040806Y0018882D01*
X0040750Y0019363D02*
X0040806Y0019308D01*
Y0019197D01*
X0040750Y0019141D01*
X0040694D01*
X0040583Y0019252D01*
X0040472Y0019141D01*
Y0019363D01*
X0040806Y0019511D02*
X0040472D01*
X0040528Y0019567D01*
X0040639Y0019622D01*
X0040528Y0019678D01*
X0040472Y0019733D01*
X0040806D01*
X0040639Y0019964D02*
X0040806Y0019881D01*
X0040639Y0020103D02*
Y0019937D01*
X0040583Y0019881D01*
X0040528D01*
X0040472Y0019937D01*
Y0020103D01*
X0040806D01*
X0040639Y0020362D02*
Y0020251D01*
X0040750D01*
X0040806Y0020279D01*
Y0020445D01*
X0040750Y0020473D01*
X0040528D01*
X0040472Y0020445D01*
Y0020279D01*
X0040528Y0020251D01*
X0023629Y0020991D02*
X0023657Y0020936D01*
Y0020880D01*
X0023629Y0020825D01*
X0023462D01*
X0023434Y0020880D01*
Y0020936D01*
X0023462Y0020991D01*
X0023629D01*
X0023657Y0021047D01*
Y0021103D01*
X0023629Y0021158D01*
X0023462D01*
X0023434Y0021103D01*
Y0021047D01*
X0023462Y0020991D01*
X0023287Y0020825D02*
Y0021158D01*
X0023231Y0021103D01*
X0023120Y0020880D01*
X0023064Y0020825D01*
Y0021158D01*
X0022917D02*
Y0020825D01*
X0022861Y0020880D01*
X0022805Y0020991D01*
X0022750Y0020880D01*
X0022694Y0020825D01*
Y0021158D01*
X0027532Y0021491D02*
X0027643D01*
Y0021603D01*
X0027615Y0021658D01*
X0027449D01*
X0027421Y0021603D01*
Y0021380D01*
X0027449Y0021325D01*
X0027615D01*
X0027643Y0021380D01*
X0027162Y0021658D02*
Y0021325D01*
X0027273D02*
X0027051D01*
X0026903Y0021658D02*
X0026681D01*
X0026903Y0021436D01*
Y0021380D01*
X0026875Y0021325D01*
X0026709D01*
X0026681Y0021380D01*
X0026533Y0021547D02*
X0026311D01*
X0026533Y0021658D02*
Y0021491D01*
X0026450Y0021325D01*
X0026394D01*
X0026311Y0021491D01*
Y0021658D01*
X0025969Y0021491D02*
X0026135D01*
X0026163Y0021547D01*
Y0021603D01*
X0026135Y0021658D01*
X0025969D01*
X0025941Y0021603D01*
Y0021547D01*
X0026052Y0021325D01*
X0025793Y0021658D02*
X0025682D01*
X0025738D02*
Y0021325D01*
X0025682Y0021380D01*
X0025479Y0021658D02*
Y0021325D01*
X0025423Y0021380D01*
X0025368Y0021491D01*
X0025312Y0021380D01*
X0025256Y0021325D01*
Y0021658D01*
X0025109Y0021547D02*
X0024886D01*
X0024998Y0021325D01*
X0025053D01*
Y0021658D01*
X0024739Y0021603D02*
X0024711Y0021658D01*
X0024544D01*
X0024516Y0021603D01*
Y0021380D01*
X0024544Y0021325D01*
X0024711D01*
X0024739Y0021380D01*
X0024369Y0021658D02*
X0024174D01*
Y0021325D01*
X0023999Y0021491D02*
X0024027Y0021436D01*
Y0021380D01*
X0023999Y0021325D01*
X0023832D01*
X0023804Y0021380D01*
Y0021436D01*
X0023832Y0021491D01*
X0023999D01*
X0024027Y0021547D01*
Y0021603D01*
X0023999Y0021658D01*
X0023832D01*
X0023804Y0021603D01*
Y0021547D01*
X0023832Y0021491D01*
X0023657Y0021547D02*
X0023434D01*
X0023545Y0021325D01*
X0023601D01*
Y0021658D01*
X0023175D02*
Y0021325D01*
X0023287D02*
X0023064D01*
X0022917Y0021658D02*
Y0021325D01*
X0022861Y0021380D01*
X0022805Y0021491D01*
X0022750Y0021380D01*
X0022694Y0021325D01*
Y0021658D01*
X0017756Y0024495D02*
X0017700Y0024439D01*
X0017589D01*
X0017533Y0024495D01*
Y0024550D01*
X0017645Y0024661D01*
X0017533Y0024772D01*
X0017756D01*
X0017903Y0024439D02*
X0018126D01*
X0017903Y0024661D01*
Y0024717D01*
X0017931Y0024772D01*
X0018098D01*
X0018126Y0024717D01*
X0018273Y0024495D02*
X0018301Y0024439D01*
X0018468D01*
X0018496Y0024495D01*
Y0024717D01*
X0018468Y0024772D01*
X0018301D01*
X0018273Y0024717D01*
X0013393Y0025372D02*
Y0025260D01*
X0013504Y0025038D01*
X0013615Y0025260D01*
Y0025372D01*
X0013957Y0025205D02*
X0013790D01*
X0013763Y0025149D01*
Y0025094D01*
X0013790Y0025038D01*
X0013957D01*
X0013985Y0025094D01*
Y0025149D01*
X0013874Y0025372D01*
X0014133Y0025038D02*
X0014244D01*
X0014188D02*
Y0025372D01*
X0014244Y0025316D01*
X0014447Y0025205D02*
X0014669D01*
X0014873D02*
X0015039D01*
Y0025038D02*
Y0025372D01*
X0014817D01*
X0015187D02*
Y0025038D01*
X0015243Y0025094D01*
X0015354Y0025316D01*
X0015409Y0025372D01*
Y0025038D01*
X0015696D02*
X0015751Y0025094D01*
X0015779Y0025149D01*
Y0025260D01*
X0015751Y0025316D01*
X0015696Y0025372D01*
X0015640D01*
X0015585Y0025316D01*
X0015557Y0025260D01*
Y0025149D01*
X0015585Y0025094D01*
X0015640Y0025038D01*
X0015696D01*
X0016066D02*
X0016121Y0025094D01*
X0016149Y0025149D01*
Y0025260D01*
X0016121Y0025316D01*
X0016066Y0025372D01*
X0016010D01*
X0015955Y0025316D01*
X0015927Y0025260D01*
Y0025149D01*
X0015955Y0025094D01*
X0016010Y0025038D01*
X0016066D01*
X0016297D02*
X0016408D01*
X0016352D02*
Y0025372D01*
X0016408Y0025316D01*
X0016611Y0025205D02*
X0016834D01*
X0017009D02*
X0017176D01*
X0017204Y0025260D01*
Y0025316D01*
X0017176Y0025372D01*
X0017009D01*
X0016981Y0025316D01*
Y0025260D01*
X0017092Y0025038D01*
X0017574Y0025094D02*
X0017518Y0025038D01*
X0017407D01*
X0017351Y0025094D01*
Y0025149D01*
X0017462Y0025260D01*
X0017351Y0025372D01*
X0017574D01*
X0017721Y0025038D02*
Y0025372D01*
X0017777Y0025316D01*
X0017832Y0025205D01*
X0017888Y0025316D01*
X0017944Y0025372D01*
Y0025038D01*
X0018175Y0025205D02*
X0018091Y0025038D01*
X0018314Y0025205D02*
X0018147D01*
X0018091Y0025260D01*
Y0025316D01*
X0018147Y0025372D01*
X0018314D01*
Y0025038D01*
X0018572Y0025205D02*
X0018461D01*
Y0025094D01*
X0018489Y0025038D01*
X0018656D01*
X0018684Y0025094D01*
Y0025316D01*
X0018656Y0025372D01*
X0018489D01*
X0018461Y0025316D01*
X0019070Y0031813D02*
Y0031591D01*
X0019292Y0031813D01*
X0019348D01*
X0019403Y0031786D01*
Y0031619D01*
X0019348Y0031591D01*
X0019070Y0031443D02*
Y0031332D01*
Y0031388D02*
X0019403D01*
X0019348Y0031332D01*
X0019126Y0031129D02*
X0019070Y0031101D01*
Y0030935D01*
X0019126Y0030907D01*
X0019348D01*
X0019403Y0030935D01*
Y0031101D01*
X0019348Y0031129D01*
X0020003Y0036010D02*
X0019891D01*
X0019669Y0035899D01*
X0019891Y0035788D01*
X0020003D01*
X0019836Y0035445D02*
Y0035612D01*
X0019780Y0035640D01*
X0019725D01*
X0019669Y0035612D01*
Y0035445D01*
X0019725Y0035418D01*
X0019780D01*
X0020003Y0035529D01*
X0019669Y0035270D02*
Y0035159D01*
Y0035214D02*
X0020003D01*
X0019947Y0035159D01*
X0019836Y0034956D02*
Y0034733D01*
Y0034530D02*
Y0034363D01*
X0019669D02*
X0020003D01*
Y0034586D01*
Y0034216D02*
X0019669D01*
X0019725Y0034160D01*
X0019947Y0034049D01*
X0020003Y0033993D01*
X0019669D01*
Y0033707D02*
X0019725Y0033651D01*
X0019780Y0033623D01*
X0019891D01*
X0019947Y0033651D01*
X0020003Y0033707D01*
Y0033762D01*
X0019947Y0033818D01*
X0019891Y0033846D01*
X0019780D01*
X0019725Y0033818D01*
X0019669Y0033762D01*
Y0033707D01*
Y0033337D02*
X0019725Y0033281D01*
X0019780Y0033253D01*
X0019891D01*
X0019947Y0033281D01*
X0020003Y0033337D01*
Y0033392D01*
X0019947Y0033448D01*
X0019891Y0033476D01*
X0019780D01*
X0019725Y0033448D01*
X0019669Y0033392D01*
Y0033337D01*
Y0033106D02*
Y0032995D01*
Y0033050D02*
X0020003D01*
X0019947Y0032995D01*
X0019836Y0032791D02*
Y0032569D01*
Y0032393D02*
Y0032227D01*
X0019891Y0032199D01*
X0019947D01*
X0020003Y0032227D01*
Y0032393D01*
X0019947Y0032421D01*
X0019891D01*
X0019669Y0032310D01*
X0019725Y0031829D02*
X0019669Y0031885D01*
Y0031996D01*
X0019725Y0032051D01*
X0019780D01*
X0019891Y0031940D01*
X0020003Y0032051D01*
Y0031829D01*
X0019669Y0031681D02*
X0020003D01*
X0019947Y0031626D01*
X0019836Y0031570D01*
X0019947Y0031515D01*
X0020003Y0031459D01*
X0019669D01*
X0019836Y0031228D02*
X0019669Y0031311D01*
X0019836Y0031089D02*
Y0031256D01*
X0019891Y0031311D01*
X0019947D01*
X0020003Y0031256D01*
Y0031089D01*
X0019669D01*
X0019836Y0030830D02*
Y0030941D01*
X0019725D01*
X0019669Y0030913D01*
Y0030747D01*
X0019725Y0030719D01*
X0019947D01*
X0020003Y0030747D01*
Y0030913D01*
X0019947Y0030941D01*
X0047714Y0030806D02*
Y0030583D01*
X0047936Y0030806D01*
X0047992D01*
X0048048Y0030778D01*
Y0030611D01*
X0047992Y0030583D01*
X0047714Y0030436D02*
Y0030241D01*
X0048048D01*
X0020661Y0013637D02*
Y0013414D01*
X0020883Y0013526D01*
Y0013581D01*
X0020550D01*
Y0013267D02*
Y0013156D01*
Y0013211D02*
X0020883D01*
X0020828Y0013156D01*
X0020605Y0012952D02*
X0020550Y0012925D01*
Y0012758D01*
X0020605Y0012730D01*
X0020828D01*
X0020883Y0012758D01*
Y0012925D01*
X0020828Y0012952D01*
X0044268Y0029275D02*
X0044435Y0028942D01*
X0044213D01*
X0043982Y0029108D02*
X0044065Y0029275D01*
X0043843Y0029108D02*
X0044009D01*
X0044065Y0029053D01*
Y0028997D01*
X0044009Y0028942D01*
X0043843D01*
Y0029275D01*
X0047961Y0028676D02*
Y0028620D01*
X0047905D01*
Y0028676D01*
X0047961D01*
X0047933Y0028343D02*
X0047766Y0028676D01*
X0047739Y0028343D02*
Y0028398D01*
X0047794D01*
Y0028343D01*
X0047739D01*
X0047591Y0028676D02*
X0047480D01*
X0047535D02*
Y0028343D01*
X0047480Y0028398D01*
X0046559Y0028620D02*
X0046587Y0028676D01*
X0046754D01*
X0046782Y0028620D01*
Y0028509D01*
X0046726Y0028454D01*
X0046559D01*
Y0028343D01*
X0046782D01*
X0046273Y0028676D02*
X0046217Y0028620D01*
X0046189Y0028565D01*
Y0028454D01*
X0046217Y0028398D01*
X0046273Y0028343D01*
X0046328D01*
X0046384Y0028398D01*
X0046412Y0028454D01*
Y0028565D01*
X0046384Y0028620D01*
X0046328Y0028676D01*
X0046273D01*
X0046014Y0028509D02*
X0046042Y0028454D01*
Y0028398D01*
X0046014Y0028343D01*
X0045847D01*
X0045819Y0028398D01*
Y0028454D01*
X0045847Y0028509D01*
X0046014D01*
X0046042Y0028565D01*
Y0028620D01*
X0046014Y0028676D01*
X0045847D01*
X0045819Y0028620D01*
Y0028565D01*
X0045847Y0028509D01*
X0045533Y0028676D02*
X0045477Y0028620D01*
X0045449Y0028565D01*
Y0028454D01*
X0045477Y0028398D01*
X0045533Y0028343D01*
X0045588D01*
X0045644Y0028398D01*
X0045672Y0028454D01*
Y0028565D01*
X0045644Y0028620D01*
X0045588Y0028676D01*
X0045533D01*
X0045302Y0028509D02*
X0045079D01*
X0044737D02*
X0044904D01*
X0044932Y0028565D01*
Y0028620D01*
X0044904Y0028676D01*
X0044737D01*
X0044709Y0028620D01*
Y0028565D01*
X0044820Y0028343D01*
X0044534Y0028509D02*
X0044367D01*
X0044339Y0028454D01*
Y0028398D01*
X0044367Y0028343D01*
X0044534D01*
X0044562Y0028398D01*
Y0028454D01*
X0044450Y0028676D01*
X0044192D02*
X0044025Y0028509D01*
X0044192Y0028343D01*
X0043969D02*
Y0028676D01*
X0043822D02*
X0043711D01*
X0043766D02*
Y0028343D01*
X0043711Y0028398D01*
X0027438Y0027420D02*
Y0027253D01*
X0027493Y0027225D01*
X0027549D01*
X0027604Y0027253D01*
Y0027420D01*
X0027549Y0027447D01*
X0027493D01*
X0027271Y0027336D01*
Y0027077D02*
Y0026966D01*
Y0027022D02*
X0027604D01*
X0027549Y0026966D01*
X0027327Y0026763D02*
X0027271Y0026735D01*
Y0026569D01*
X0027327Y0026541D01*
X0027549D01*
X0027604Y0026569D01*
Y0026735D01*
X0027549Y0026763D01*
X0023308Y0012956D02*
Y0013122D01*
X0023252Y0013150D01*
X0023197D01*
X0023141Y0013122D01*
Y0012956D01*
X0023197Y0012928D01*
X0023252D01*
X0023474Y0013039D01*
X0023308Y0012697D02*
X0023141Y0012780D01*
X0023308Y0012558D02*
Y0012724D01*
X0023363Y0012780D01*
X0023419D01*
X0023474Y0012724D01*
Y0012558D01*
X0023141D01*
X0023740Y0016676D02*
X0023796D01*
Y0016620D01*
X0023740D01*
Y0016676D01*
X0024074Y0016648D02*
X0023740Y0016481D01*
X0024074Y0016454D02*
X0024018D01*
Y0016509D01*
X0024074D01*
Y0016454D01*
X0023740Y0016306D02*
Y0016195D01*
Y0016250D02*
X0024074D01*
X0024018Y0016195D01*
X0023796Y0015274D02*
X0023740Y0015302D01*
Y0015469D01*
X0023796Y0015497D01*
X0023907D01*
X0023962Y0015441D01*
Y0015274D01*
X0024074D01*
Y0015497D01*
X0023740Y0014988D02*
X0023796Y0014932D01*
X0023851Y0014904D01*
X0023962D01*
X0024018Y0014932D01*
X0024074Y0014988D01*
Y0015043D01*
X0024018Y0015099D01*
X0023962Y0015127D01*
X0023851D01*
X0023796Y0015099D01*
X0023740Y0015043D01*
Y0014988D01*
X0023907Y0014729D02*
X0023962Y0014757D01*
X0024018D01*
X0024074Y0014729D01*
Y0014562D01*
X0024018Y0014534D01*
X0023962D01*
X0023907Y0014562D01*
Y0014729D01*
X0023851Y0014757D01*
X0023796D01*
X0023740Y0014729D01*
Y0014562D01*
X0023796Y0014534D01*
X0023851D01*
X0023907Y0014562D01*
X0023740Y0014248D02*
X0023796Y0014192D01*
X0023851Y0014164D01*
X0023962D01*
X0024018Y0014192D01*
X0024074Y0014248D01*
Y0014303D01*
X0024018Y0014359D01*
X0023962Y0014387D01*
X0023851D01*
X0023796Y0014359D01*
X0023740Y0014303D01*
Y0014248D01*
X0023907Y0014017D02*
Y0013794D01*
X0023740Y0013480D02*
X0024074Y0013647D01*
Y0013424D01*
X0023740Y0013277D02*
Y0013054D01*
X0023962Y0013277D01*
X0024018D01*
X0024074Y0013249D01*
Y0013082D01*
X0024018Y0013054D01*
X0023740Y0012907D02*
X0023907Y0012740D01*
X0024074Y0012907D01*
Y0012684D02*
X0023740D01*
Y0012537D02*
Y0012426D01*
Y0012481D02*
X0024074D01*
X0024018Y0012426D01*
X0041787Y0029407D02*
Y0029296D01*
X0041898Y0029074D01*
X0042009Y0029296D01*
Y0029407D01*
X0042352Y0029241D02*
X0042185D01*
X0042157Y0029185D01*
Y0029130D01*
X0042185Y0029074D01*
X0042352D01*
X0042379Y0029130D01*
Y0029185D01*
X0042268Y0029407D01*
X0042527Y0029074D02*
X0042638D01*
X0042583D02*
Y0029407D01*
X0042638Y0029352D01*
X0042841Y0029241D02*
X0043064D01*
X0043267D02*
X0043434D01*
Y0029074D02*
Y0029407D01*
X0043211D01*
X0043581D02*
Y0029074D01*
X0043637Y0029130D01*
X0043748Y0029352D01*
X0043804Y0029407D01*
Y0029074D01*
X0044090D02*
X0044146Y0029130D01*
X0044174Y0029185D01*
Y0029296D01*
X0044146Y0029352D01*
X0044090Y0029407D01*
X0044035D01*
X0043979Y0029352D01*
X0043951Y0029296D01*
Y0029185D01*
X0043979Y0029130D01*
X0044035Y0029074D01*
X0044090D01*
X0044460D02*
X0044516Y0029130D01*
X0044544Y0029185D01*
Y0029296D01*
X0044516Y0029352D01*
X0044460Y0029407D01*
X0044405D01*
X0044349Y0029352D01*
X0044321Y0029296D01*
Y0029185D01*
X0044349Y0029130D01*
X0044405Y0029074D01*
X0044460D01*
X0044691D02*
X0044802D01*
X0044747D02*
Y0029407D01*
X0044802Y0029352D01*
X0045006Y0029241D02*
X0045228D01*
X0045404D02*
X0045570D01*
X0045598Y0029296D01*
Y0029352D01*
X0045570Y0029407D01*
X0045404D01*
X0045376Y0029352D01*
Y0029296D01*
X0045487Y0029074D01*
X0045968Y0029130D02*
X0045912Y0029074D01*
X0045801D01*
X0045746Y0029130D01*
Y0029185D01*
X0045857Y0029296D01*
X0045746Y0029407D01*
X0045968D01*
X0046116Y0029074D02*
Y0029407D01*
X0046171Y0029352D01*
X0046227Y0029241D01*
X0046282Y0029352D01*
X0046338Y0029407D01*
Y0029074D01*
X0046569Y0029241D02*
X0046486Y0029074D01*
X0046708Y0029241D02*
X0046541D01*
X0046486Y0029296D01*
Y0029352D01*
X0046541Y0029407D01*
X0046708D01*
Y0029074D01*
X0046967Y0029241D02*
X0046856D01*
Y0029130D01*
X0046884Y0029074D01*
X0047050D01*
X0047078Y0029130D01*
Y0029352D01*
X0047050Y0029407D01*
X0046884D01*
X0046856Y0029352D01*
X0029085Y0015517D02*
X0029196D01*
X0029419Y0015628D01*
X0029196Y0015739D01*
X0029085D01*
X0029252Y0016081D02*
Y0015914D01*
X0029307Y0015887D01*
X0029363D01*
X0029419Y0015914D01*
Y0016081D01*
X0029363Y0016109D01*
X0029307D01*
X0029085Y0015998D01*
X0029419Y0016257D02*
Y0016368D01*
Y0016312D02*
X0029085D01*
X0029141Y0016368D01*
X0029252Y0016571D02*
Y0016793D01*
Y0016997D02*
Y0017163D01*
X0029419D02*
X0029085D01*
Y0016941D01*
Y0017311D02*
X0029419D01*
X0029363Y0017367D01*
X0029141Y0017478D01*
X0029085Y0017533D01*
X0029419D01*
Y0017820D02*
X0029363Y0017875D01*
X0029307Y0017903D01*
X0029196D01*
X0029141Y0017875D01*
X0029085Y0017820D01*
Y0017764D01*
X0029141Y0017709D01*
X0029196Y0017681D01*
X0029307D01*
X0029363Y0017709D01*
X0029419Y0017764D01*
Y0017820D01*
Y0018190D02*
X0029363Y0018245D01*
X0029307Y0018273D01*
X0029196D01*
X0029141Y0018245D01*
X0029085Y0018190D01*
Y0018134D01*
X0029141Y0018079D01*
X0029196Y0018051D01*
X0029307D01*
X0029363Y0018079D01*
X0029419Y0018134D01*
Y0018190D01*
Y0018421D02*
Y0018532D01*
Y0018476D02*
X0029085D01*
X0029141Y0018532D01*
X0029252Y0018735D02*
Y0018958D01*
Y0019133D02*
Y0019300D01*
X0029196Y0019328D01*
X0029141D01*
X0029085Y0019300D01*
Y0019133D01*
X0029141Y0019105D01*
X0029196D01*
X0029419Y0019216D01*
X0029363Y0019698D02*
X0029419Y0019642D01*
Y0019531D01*
X0029363Y0019475D01*
X0029307D01*
X0029196Y0019586D01*
X0029085Y0019475D01*
Y0019698D01*
X0029419Y0019845D02*
X0029085D01*
X0029141Y0019901D01*
X0029252Y0019956D01*
X0029141Y0020012D01*
X0029085Y0020068D01*
X0029419D01*
X0029252Y0020299D02*
X0029419Y0020215D01*
X0029252Y0020438D02*
Y0020271D01*
X0029196Y0020215D01*
X0029141D01*
X0029085Y0020271D01*
Y0020438D01*
X0029419D01*
X0029252Y0020696D02*
Y0020585D01*
X0029363D01*
X0029419Y0020613D01*
Y0020780D01*
X0029363Y0020808D01*
X0029141D01*
X0029085Y0020780D01*
Y0020613D01*
X0029141Y0020585D01*
X0046056Y0031170D02*
X0046112Y0031225D01*
X0046139Y0031281D01*
Y0031392D01*
X0046112Y0031448D01*
X0046056Y0031503D01*
X0046000D01*
X0045945Y0031448D01*
X0045917Y0031392D01*
Y0031281D01*
X0045945Y0031225D01*
X0046000Y0031170D01*
X0046056D01*
X0046287Y0031281D02*
X0046509D01*
X0046398Y0031503D01*
X0046343D01*
Y0031170D01*
X0046657Y0031225D02*
X0046685Y0031170D01*
X0046852D01*
X0046879Y0031225D01*
Y0031448D01*
X0046852Y0031503D01*
X0046685D01*
X0046657Y0031448D01*
X0022821Y0023967D02*
X0022932D01*
X0022876D02*
Y0024300D01*
X0022932Y0024245D01*
X0023274Y0023967D02*
X0023330Y0024023D01*
X0023357Y0024078D01*
Y0024189D01*
X0023330Y0024245D01*
X0023274Y0024300D01*
X0023218D01*
X0023163Y0024245D01*
X0023135Y0024189D01*
Y0024078D01*
X0023163Y0024023D01*
X0023218Y0023967D01*
X0023274D01*
X0023505D02*
X0023616D01*
X0023561D02*
Y0024300D01*
X0023616Y0024245D01*
X0023819Y0024023D02*
X0023847Y0023967D01*
X0024014D01*
X0024042Y0024023D01*
Y0024245D01*
X0024014Y0024300D01*
X0023847D01*
X0023819Y0024245D01*
X0018939Y0024900D02*
Y0024788D01*
X0019050Y0024566D01*
X0019161Y0024788D01*
Y0024900D01*
X0019503Y0024733D02*
X0019336D01*
X0019309Y0024677D01*
Y0024622D01*
X0019336Y0024566D01*
X0019503D01*
X0019531Y0024622D01*
Y0024677D01*
X0019420Y0024900D01*
X0019679Y0024566D02*
X0019790D01*
X0019734D02*
Y0024900D01*
X0019790Y0024844D01*
X0019993Y0024733D02*
X0020215D01*
X0020419D02*
X0020585D01*
Y0024566D02*
Y0024900D01*
X0020363D01*
X0020733D02*
Y0024566D01*
X0020789Y0024622D01*
X0020900Y0024844D01*
X0020955Y0024900D01*
Y0024566D01*
X0021242D02*
X0021297Y0024622D01*
X0021325Y0024677D01*
Y0024788D01*
X0021297Y0024844D01*
X0021242Y0024900D01*
X0021186D01*
X0021131Y0024844D01*
X0021103Y0024788D01*
Y0024677D01*
X0021131Y0024622D01*
X0021186Y0024566D01*
X0021242D01*
X0021612D02*
X0021667Y0024622D01*
X0021695Y0024677D01*
Y0024788D01*
X0021667Y0024844D01*
X0021612Y0024900D01*
X0021556D01*
X0021501Y0024844D01*
X0021473Y0024788D01*
Y0024677D01*
X0021501Y0024622D01*
X0021556Y0024566D01*
X0021612D01*
X0021843D02*
X0021954D01*
X0021898D02*
Y0024900D01*
X0021954Y0024844D01*
X0022157Y0024733D02*
X0022380D01*
X0022555D02*
X0022722D01*
X0022750Y0024788D01*
Y0024844D01*
X0022722Y0024900D01*
X0022555D01*
X0022527Y0024844D01*
Y0024788D01*
X0022638Y0024566D01*
X0023120Y0024622D02*
X0023064Y0024566D01*
X0022953D01*
X0022897Y0024622D01*
Y0024677D01*
X0023008Y0024788D01*
X0022897Y0024900D01*
X0023120D01*
X0023267Y0024566D02*
Y0024900D01*
X0023323Y0024844D01*
X0023378Y0024733D01*
X0023434Y0024844D01*
X0023490Y0024900D01*
Y0024566D01*
X0023721Y0024733D02*
X0023637Y0024566D01*
X0023860Y0024733D02*
X0023693D01*
X0023637Y0024788D01*
Y0024844D01*
X0023693Y0024900D01*
X0023860D01*
Y0024566D01*
X0024118Y0024733D02*
X0024007D01*
Y0024622D01*
X0024035Y0024566D01*
X0024202D01*
X0024230Y0024622D01*
Y0024844D01*
X0024202Y0024900D01*
X0024035D01*
X0024007Y0024844D01*
X0043190Y0029177D02*
Y0029344D01*
X0043135Y0029371D01*
X0043079D01*
X0043024Y0029344D01*
Y0029177D01*
X0043079Y0029149D01*
X0043135D01*
X0043357Y0029260D01*
X0043135Y0029001D02*
Y0028779D01*
X0043357Y0028890D01*
Y0028946D01*
X0043024D01*
X0043079Y0028631D02*
X0043024Y0028604D01*
Y0028437D01*
X0043079Y0028409D01*
X0043302D01*
X0043357Y0028437D01*
Y0028604D01*
X0043302Y0028631D01*
X0043956Y0035404D02*
X0043845D01*
X0043623Y0035293D01*
X0043845Y0035181D01*
X0043956D01*
X0043623Y0034895D02*
X0043678Y0034839D01*
X0043734Y0034811D01*
X0043845D01*
X0043901Y0034839D01*
X0043956Y0034895D01*
Y0034950D01*
X0043901Y0035006D01*
X0043845Y0035034D01*
X0043734D01*
X0043678Y0035006D01*
X0043623Y0034950D01*
Y0034895D01*
Y0034525D02*
X0043678Y0034469D01*
X0043734Y0034441D01*
X0043845D01*
X0043901Y0034469D01*
X0043956Y0034525D01*
Y0034580D01*
X0043901Y0034636D01*
X0043845Y0034664D01*
X0043734D01*
X0043678Y0034636D01*
X0043623Y0034580D01*
Y0034525D01*
Y0034294D02*
Y0034183D01*
Y0034238D02*
X0043956D01*
X0043901Y0034183D01*
X0043790Y0033979D02*
Y0033757D01*
Y0033554D02*
Y0033387D01*
X0043623D02*
X0043956D01*
Y0033609D01*
Y0033239D02*
X0043623D01*
X0043678Y0033184D01*
X0043901Y0033073D01*
X0043956Y0033017D01*
X0043623D01*
Y0032730D02*
X0043678Y0032675D01*
X0043734Y0032647D01*
X0043845D01*
X0043901Y0032675D01*
X0043956Y0032730D01*
Y0032786D01*
X0043901Y0032842D01*
X0043845Y0032869D01*
X0043734D01*
X0043678Y0032842D01*
X0043623Y0032786D01*
Y0032730D01*
Y0032360D02*
X0043678Y0032305D01*
X0043734Y0032277D01*
X0043845D01*
X0043901Y0032305D01*
X0043956Y0032360D01*
Y0032416D01*
X0043901Y0032472D01*
X0043845Y0032499D01*
X0043734D01*
X0043678Y0032472D01*
X0043623Y0032416D01*
Y0032360D01*
Y0032129D02*
Y0032018D01*
Y0032074D02*
X0043956D01*
X0043901Y0032018D01*
X0043790Y0031320D02*
Y0031098D01*
Y0030756D02*
Y0030922D01*
X0043734Y0030950D01*
X0043678D01*
X0043623Y0030922D01*
Y0030756D01*
X0043678Y0030728D01*
X0043734D01*
X0043956Y0030839D01*
X0043623Y0030441D02*
X0043678Y0030386D01*
X0043734Y0030358D01*
X0043845D01*
X0043901Y0030386D01*
X0043956Y0030441D01*
Y0030497D01*
X0043901Y0030552D01*
X0043845Y0030580D01*
X0043734D01*
X0043678Y0030552D01*
X0043623Y0030497D01*
Y0030441D01*
Y0030210D02*
Y0029988D01*
X0043845Y0030210D01*
X0043901D01*
X0043956Y0030182D01*
Y0030016D01*
X0043901Y0029988D01*
X0043623Y0029840D02*
Y0029729D01*
Y0029785D02*
X0043956D01*
X0043901Y0029729D01*
X0043790Y0029526D02*
Y0029303D01*
Y0029072D02*
X0043623Y0029156D01*
X0043790Y0028933D02*
Y0029100D01*
X0043845Y0029156D01*
X0043901D01*
X0043956Y0029100D01*
Y0028933D01*
X0043623D01*
Y0028619D02*
X0043956Y0028786D01*
Y0028563D01*
X0043623Y0028416D02*
X0043956Y0028249D01*
Y0028416D02*
X0043623Y0028249D01*
X0041405Y0019490D02*
X0041071Y0019323D01*
Y0019545D01*
X0041294Y0019693D02*
Y0019915D01*
X0041071Y0019804D01*
Y0019749D01*
X0041405D01*
X0041349Y0020063D02*
X0041405Y0020091D01*
Y0020258D01*
X0041349Y0020285D01*
X0041127D01*
X0041071Y0020258D01*
Y0020091D01*
X0041127Y0020063D01*
X0036623Y0030786D02*
X0036567Y0030842D01*
X0036512Y0030870D01*
X0036401D01*
X0036345Y0030842D01*
X0036289Y0030786D01*
Y0030731D01*
X0036345Y0030675D01*
X0036401Y0030647D01*
X0036512D01*
X0036567Y0030675D01*
X0036623Y0030731D01*
Y0030786D01*
Y0031156D02*
X0036567Y0031212D01*
X0036512Y0031240D01*
X0036401D01*
X0036345Y0031212D01*
X0036289Y0031156D01*
Y0031101D01*
X0036345Y0031045D01*
X0036401Y0031017D01*
X0036512D01*
X0036567Y0031045D01*
X0036623Y0031101D01*
Y0031156D01*
X0036567Y0031610D02*
X0036623Y0031554D01*
Y0031443D01*
X0036567Y0031387D01*
X0036512D01*
X0036401Y0031499D01*
X0036289Y0031387D01*
Y0031610D01*
X0036456Y0031841D02*
X0036623Y0031757D01*
X0036456Y0031980D02*
Y0031813D01*
X0036401Y0031757D01*
X0036345D01*
X0036289Y0031813D01*
Y0031980D01*
X0036623D01*
X0018985Y0024259D02*
X0018957Y0024203D01*
X0018790D01*
X0018762Y0024259D01*
Y0024370D01*
X0018818Y0024425D01*
X0018985D01*
Y0024536D01*
X0018762D01*
X0019271Y0024203D02*
X0019327Y0024259D01*
X0019355Y0024314D01*
Y0024425D01*
X0019327Y0024481D01*
X0019271Y0024536D01*
X0019216D01*
X0019160Y0024481D01*
X0019132Y0024425D01*
Y0024314D01*
X0019160Y0024259D01*
X0019216Y0024203D01*
X0019271D01*
X0019502D02*
X0019613D01*
X0019558D02*
Y0024536D01*
X0019613Y0024481D01*
X0019817Y0024259D02*
X0019845Y0024203D01*
X0020011D01*
X0020039Y0024259D01*
Y0024481D01*
X0020011Y0024536D01*
X0019845D01*
X0019817Y0024481D01*
X0014936Y0025136D02*
Y0025024D01*
X0015047Y0024802D01*
X0015158Y0025024D01*
Y0025136D01*
X0015500Y0024969D02*
X0015334D01*
X0015306Y0024913D01*
Y0024858D01*
X0015334Y0024802D01*
X0015500D01*
X0015528Y0024858D01*
Y0024913D01*
X0015417Y0025136D01*
X0015676Y0024802D02*
X0015787D01*
X0015731D02*
Y0025136D01*
X0015787Y0025080D01*
X0015990Y0024969D02*
X0016213D01*
X0016416D02*
X0016583D01*
Y0024802D02*
Y0025136D01*
X0016360D01*
X0016730D02*
Y0024802D01*
X0016786Y0024858D01*
X0016897Y0025080D01*
X0016953Y0025136D01*
Y0024802D01*
X0017239D02*
X0017295Y0024858D01*
X0017323Y0024913D01*
Y0025024D01*
X0017295Y0025080D01*
X0017239Y0025136D01*
X0017184D01*
X0017128Y0025080D01*
X0017100Y0025024D01*
Y0024913D01*
X0017128Y0024858D01*
X0017184Y0024802D01*
X0017239D01*
X0017609D02*
X0017665Y0024858D01*
X0017693Y0024913D01*
Y0025024D01*
X0017665Y0025080D01*
X0017609Y0025136D01*
X0017554D01*
X0017498Y0025080D01*
X0017470Y0025024D01*
Y0024913D01*
X0017498Y0024858D01*
X0017554Y0024802D01*
X0017609D01*
X0017840D02*
X0017951D01*
X0017896D02*
Y0025136D01*
X0017951Y0025080D01*
X0018155Y0024969D02*
X0018377D01*
X0018552D02*
X0018719D01*
X0018747Y0025024D01*
Y0025080D01*
X0018719Y0025136D01*
X0018552D01*
X0018525Y0025080D01*
Y0025024D01*
X0018636Y0024802D01*
X0019117Y0024858D02*
X0019061Y0024802D01*
X0018950D01*
X0018895Y0024858D01*
Y0024913D01*
X0019006Y0025024D01*
X0018895Y0025136D01*
X0019117D01*
X0019265Y0024802D02*
Y0025136D01*
X0019320Y0025080D01*
X0019376Y0024969D01*
X0019431Y0025080D01*
X0019487Y0025136D01*
Y0024802D01*
X0019718Y0024969D02*
X0019635Y0024802D01*
X0019857Y0024969D02*
X0019690D01*
X0019635Y0025024D01*
Y0025080D01*
X0019690Y0025136D01*
X0019857D01*
Y0024802D01*
X0020116Y0024969D02*
X0020005D01*
Y0024858D01*
X0020032Y0024802D01*
X0020199D01*
X0020227Y0024858D01*
Y0025080D01*
X0020199Y0025136D01*
X0020032D01*
X0020005Y0025080D01*
X0027028Y0014966D02*
X0026695Y0014800D01*
Y0015022D01*
X0027028Y0015170D02*
Y0015392D01*
X0026806Y0015170D01*
X0026751D01*
X0026695Y0015198D01*
Y0015364D01*
X0026751Y0015392D01*
X0026973Y0015540D02*
X0027028Y0015568D01*
Y0015734D01*
X0026973Y0015762D01*
X0026751D01*
X0026695Y0015734D01*
Y0015568D01*
X0026751Y0015540D01*
X0026096Y0010659D02*
X0026207D01*
X0026429Y0010770D01*
X0026207Y0010881D01*
X0026096D01*
X0026263Y0011223D02*
Y0011057D01*
X0026318Y0011029D01*
X0026374D01*
X0026429Y0011057D01*
Y0011223D01*
X0026374Y0011251D01*
X0026318D01*
X0026096Y0011140D01*
X0026429Y0011399D02*
Y0011510D01*
Y0011454D02*
X0026096D01*
X0026151Y0011510D01*
X0026263Y0011713D02*
Y0011936D01*
Y0012139D02*
Y0012306D01*
X0026429D02*
X0026096D01*
Y0012083D01*
Y0012453D02*
X0026429D01*
X0026374Y0012509D01*
X0026151Y0012620D01*
X0026096Y0012676D01*
X0026429D01*
Y0012962D02*
X0026374Y0013018D01*
X0026318Y0013046D01*
X0026207D01*
X0026151Y0013018D01*
X0026096Y0012962D01*
Y0012907D01*
X0026151Y0012851D01*
X0026207Y0012823D01*
X0026318D01*
X0026374Y0012851D01*
X0026429Y0012907D01*
Y0012962D01*
Y0013332D02*
X0026374Y0013388D01*
X0026318Y0013416D01*
X0026207D01*
X0026151Y0013388D01*
X0026096Y0013332D01*
Y0013277D01*
X0026151Y0013221D01*
X0026207Y0013193D01*
X0026318D01*
X0026374Y0013221D01*
X0026429Y0013277D01*
Y0013332D01*
Y0013563D02*
Y0013674D01*
Y0013619D02*
X0026096D01*
X0026151Y0013674D01*
X0026263Y0013878D02*
Y0014100D01*
Y0014275D02*
Y0014442D01*
X0026207Y0014470D01*
X0026151D01*
X0026096Y0014442D01*
Y0014275D01*
X0026151Y0014248D01*
X0026207D01*
X0026429Y0014359D01*
X0026374Y0014840D02*
X0026429Y0014784D01*
Y0014673D01*
X0026374Y0014618D01*
X0026318D01*
X0026207Y0014729D01*
X0026096Y0014618D01*
Y0014840D01*
X0026429Y0014988D02*
X0026096D01*
X0026151Y0015043D01*
X0026263Y0015099D01*
X0026151Y0015154D01*
X0026096Y0015210D01*
X0026429D01*
X0026263Y0015441D02*
X0026429Y0015358D01*
X0026263Y0015580D02*
Y0015413D01*
X0026207Y0015358D01*
X0026151D01*
X0026096Y0015413D01*
Y0015580D01*
X0026429D01*
X0026263Y0015839D02*
Y0015728D01*
X0026374D01*
X0026429Y0015755D01*
Y0015922D01*
X0026374Y0015950D01*
X0026151D01*
X0026096Y0015922D01*
Y0015755D01*
X0026151Y0015728D01*
X0029041Y0020027D02*
Y0020250D01*
X0028819Y0020139D01*
Y0020083D01*
X0029152D01*
X0028986Y0020481D02*
X0029152Y0020397D01*
X0028986Y0020620D02*
Y0020453D01*
X0028930Y0020397D01*
X0028875D01*
X0028819Y0020453D01*
Y0020620D01*
X0029152D01*
X0028553Y0019845D02*
X0028387Y0020012D01*
X0028220Y0019845D01*
Y0020068D02*
X0028553D01*
Y0020382D02*
X0028220Y0020215D01*
Y0020438D01*
X0028442Y0020585D02*
Y0020808D01*
X0028220Y0020696D01*
Y0020641D01*
X0028553D01*
X0029384Y0028399D02*
X0029272D01*
X0029050Y0028288D01*
X0029272Y0028177D01*
X0029384D01*
X0029217Y0027834D02*
Y0028001D01*
X0029161Y0028029D01*
X0029106D01*
X0029050Y0028001D01*
Y0027834D01*
X0029106Y0027807D01*
X0029161D01*
X0029384Y0027918D01*
X0029050Y0027659D02*
Y0027548D01*
Y0027603D02*
X0029384D01*
X0029328Y0027548D01*
X0029217Y0027345D02*
Y0027122D01*
Y0026919D02*
Y0026752D01*
X0029050D02*
X0029384D01*
Y0026975D01*
Y0026605D02*
X0029050D01*
X0029106Y0026549D01*
X0029328Y0026438D01*
X0029384Y0026382D01*
X0029050D01*
Y0026096D02*
X0029106Y0026040D01*
X0029161Y0026012D01*
X0029272D01*
X0029328Y0026040D01*
X0029384Y0026096D01*
Y0026151D01*
X0029328Y0026207D01*
X0029272Y0026235D01*
X0029161D01*
X0029106Y0026207D01*
X0029050Y0026151D01*
Y0026096D01*
Y0025726D02*
X0029106Y0025670D01*
X0029161Y0025642D01*
X0029272D01*
X0029328Y0025670D01*
X0029384Y0025726D01*
Y0025781D01*
X0029328Y0025837D01*
X0029272Y0025865D01*
X0029161D01*
X0029106Y0025837D01*
X0029050Y0025781D01*
Y0025726D01*
Y0025495D02*
Y0025384D01*
Y0025439D02*
X0029384D01*
X0029328Y0025384D01*
X0029217Y0025180D02*
Y0024958D01*
Y0024782D02*
Y0024616D01*
X0029272Y0024588D01*
X0029328D01*
X0029384Y0024616D01*
Y0024782D01*
X0029328Y0024810D01*
X0029272D01*
X0029050Y0024699D01*
X0029106Y0024218D02*
X0029050Y0024274D01*
Y0024385D01*
X0029106Y0024440D01*
X0029161D01*
X0029272Y0024329D01*
X0029384Y0024440D01*
Y0024218D01*
X0029050Y0024070D02*
X0029384D01*
X0029328Y0024015D01*
X0029217Y0023959D01*
X0029328Y0023904D01*
X0029384Y0023848D01*
X0029050D01*
X0029217Y0023617D02*
X0029050Y0023700D01*
X0029217Y0023478D02*
Y0023645D01*
X0029272Y0023700D01*
X0029328D01*
X0029384Y0023645D01*
Y0023478D01*
X0029050D01*
X0029217Y0023219D02*
Y0023330D01*
X0029106D01*
X0029050Y0023302D01*
Y0023136D01*
X0029106Y0023108D01*
X0029328D01*
X0029384Y0023136D01*
Y0023302D01*
X0029328Y0023330D01*
X0035206Y0032943D02*
X0035373Y0032777D01*
X0035539Y0032943D01*
Y0032721D02*
X0035206D01*
Y0032434D02*
X0035261Y0032379D01*
X0035317Y0032351D01*
X0035428D01*
X0035484Y0032379D01*
X0035539Y0032434D01*
Y0032490D01*
X0035484Y0032545D01*
X0035428Y0032573D01*
X0035317D01*
X0035261Y0032545D01*
X0035206Y0032490D01*
Y0032434D01*
Y0032203D02*
Y0032092D01*
Y0032148D02*
X0035539D01*
X0035484Y0032092D01*
X0039561Y0019954D02*
Y0020176D01*
X0039339Y0019954D01*
X0039283D01*
X0039227Y0019982D01*
Y0020148D01*
X0039283Y0020176D01*
X0039561Y0020324D02*
Y0020435D01*
Y0020379D02*
X0039227D01*
X0039283Y0020435D01*
X0039394Y0020721D02*
X0039561Y0020638D01*
X0039394Y0020860D02*
Y0020694D01*
X0039339Y0020638D01*
X0039283D01*
X0039227Y0020694D01*
Y0020860D01*
X0039561D01*
X0038962Y0016742D02*
X0038906D01*
Y0016798D01*
X0038962D01*
Y0016742D01*
X0038628Y0016770D02*
X0038962Y0016937D01*
X0038628Y0016965D02*
X0038684D01*
Y0016909D01*
X0038628D01*
Y0016965D01*
X0038962Y0017112D02*
Y0017223D01*
Y0017168D02*
X0038628D01*
X0038684Y0017223D01*
X0038906Y0018144D02*
X0038962Y0018116D01*
Y0017949D01*
X0038906Y0017922D01*
X0038795D01*
X0038739Y0017977D01*
Y0018144D01*
X0038628D01*
Y0017922D01*
X0038962Y0018431D02*
X0038906Y0018486D01*
X0038850Y0018514D01*
X0038739D01*
X0038684Y0018486D01*
X0038628Y0018431D01*
Y0018375D01*
X0038684Y0018319D01*
X0038739Y0018292D01*
X0038850D01*
X0038906Y0018319D01*
X0038962Y0018375D01*
Y0018431D01*
X0038795Y0018689D02*
X0038739Y0018662D01*
X0038684D01*
X0038628Y0018689D01*
Y0018856D01*
X0038684Y0018884D01*
X0038739D01*
X0038795Y0018856D01*
Y0018689D01*
X0038850Y0018662D01*
X0038906D01*
X0038962Y0018689D01*
Y0018856D01*
X0038906Y0018884D01*
X0038850D01*
X0038795Y0018856D01*
X0038962Y0019171D02*
X0038906Y0019226D01*
X0038850Y0019254D01*
X0038739D01*
X0038684Y0019226D01*
X0038628Y0019171D01*
Y0019115D01*
X0038684Y0019059D01*
X0038739Y0019032D01*
X0038850D01*
X0038906Y0019059D01*
X0038962Y0019115D01*
Y0019171D01*
X0038795Y0019402D02*
Y0019624D01*
Y0019966D02*
Y0019799D01*
X0038850Y0019772D01*
X0038906D01*
X0038962Y0019799D01*
Y0019966D01*
X0038906Y0019994D01*
X0038850D01*
X0038628Y0019883D01*
X0038795Y0020169D02*
Y0020336D01*
X0038739Y0020364D01*
X0038684D01*
X0038628Y0020336D01*
Y0020169D01*
X0038684Y0020142D01*
X0038739D01*
X0038962Y0020253D01*
Y0020512D02*
X0038795Y0020678D01*
X0038628Y0020512D01*
Y0020734D02*
X0038962D01*
Y0020882D02*
Y0020993D01*
Y0020937D02*
X0038628D01*
X0038684Y0020993D01*
X0024006Y0027211D02*
Y0027100D01*
Y0027156D02*
X0024340D01*
X0024284Y0027100D01*
X0024006Y0026897D02*
Y0026675D01*
X0024229Y0026897D01*
X0024284D01*
X0024340Y0026869D01*
Y0026703D01*
X0024284Y0026675D01*
X0024062Y0026527D02*
X0024006Y0026499D01*
Y0026333D01*
X0024062Y0026305D01*
X0024284D01*
X0024340Y0026333D01*
Y0026499D01*
X0024284Y0026527D01*
X0024939Y0031408D02*
X0024828D01*
X0024606Y0031297D01*
X0024828Y0031186D01*
X0024939D01*
X0024772Y0030843D02*
Y0031010D01*
X0024717Y0031038D01*
X0024661D01*
X0024606Y0031010D01*
Y0030843D01*
X0024661Y0030816D01*
X0024717D01*
X0024939Y0030927D01*
X0024606Y0030668D02*
Y0030557D01*
Y0030612D02*
X0024939D01*
X0024883Y0030557D01*
X0024772Y0030354D02*
Y0030131D01*
Y0029928D02*
Y0029761D01*
X0024606D02*
X0024939D01*
Y0029984D01*
Y0029614D02*
X0024606D01*
X0024661Y0029558D01*
X0024883Y0029447D01*
X0024939Y0029391D01*
X0024606D01*
Y0029105D02*
X0024661Y0029049D01*
X0024717Y0029021D01*
X0024828D01*
X0024883Y0029049D01*
X0024939Y0029105D01*
Y0029160D01*
X0024883Y0029216D01*
X0024828Y0029244D01*
X0024717D01*
X0024661Y0029216D01*
X0024606Y0029160D01*
Y0029105D01*
Y0028735D02*
X0024661Y0028679D01*
X0024717Y0028651D01*
X0024828D01*
X0024883Y0028679D01*
X0024939Y0028735D01*
Y0028790D01*
X0024883Y0028846D01*
X0024828Y0028874D01*
X0024717D01*
X0024661Y0028846D01*
X0024606Y0028790D01*
Y0028735D01*
Y0028504D02*
Y0028393D01*
Y0028448D02*
X0024939D01*
X0024883Y0028393D01*
X0024772Y0028189D02*
Y0027967D01*
Y0027791D02*
Y0027625D01*
X0024828Y0027597D01*
X0024883D01*
X0024939Y0027625D01*
Y0027791D01*
X0024883Y0027819D01*
X0024828D01*
X0024606Y0027708D01*
X0024661Y0027227D02*
X0024606Y0027283D01*
Y0027394D01*
X0024661Y0027449D01*
X0024717D01*
X0024828Y0027338D01*
X0024939Y0027449D01*
Y0027227D01*
X0024606Y0027079D02*
X0024939D01*
X0024883Y0027024D01*
X0024772Y0026968D01*
X0024883Y0026913D01*
X0024939Y0026857D01*
X0024606D01*
X0024772Y0026626D02*
X0024606Y0026709D01*
X0024772Y0026487D02*
Y0026654D01*
X0024828Y0026709D01*
X0024883D01*
X0024939Y0026654D01*
Y0026487D01*
X0024606D01*
X0024772Y0026228D02*
Y0026339D01*
X0024661D01*
X0024606Y0026311D01*
Y0026145D01*
X0024661Y0026117D01*
X0024883D01*
X0024939Y0026145D01*
Y0026311D01*
X0024883Y0026339D01*
X0037133Y0020297D02*
Y0020130D01*
X0037189Y0020102D01*
X0037245D01*
X0037300Y0020130D01*
Y0020297D01*
X0037245Y0020325D01*
X0037189D01*
X0036967Y0020214D01*
X0037078Y0019955D02*
Y0019732D01*
X0037300Y0019844D01*
Y0019899D01*
X0036967D01*
X0037022Y0019585D02*
X0036967Y0019557D01*
Y0019390D01*
X0037022Y0019362D01*
X0037245D01*
X0037300Y0019390D01*
Y0019557D01*
X0037245Y0019585D01*
X0037899Y0024466D02*
X0037788D01*
X0037566Y0024354D01*
X0037788Y0024243D01*
X0037899D01*
X0037733Y0023901D02*
Y0024068D01*
X0037677Y0024096D01*
X0037621D01*
X0037566Y0024068D01*
Y0023901D01*
X0037621Y0023873D01*
X0037677D01*
X0037899Y0023984D01*
X0037566Y0023726D02*
Y0023615D01*
Y0023670D02*
X0037899D01*
X0037844Y0023615D01*
X0037733Y0023411D02*
Y0023189D01*
Y0022986D02*
Y0022819D01*
X0037566D02*
X0037899D01*
Y0023041D01*
Y0022671D02*
X0037566D01*
X0037621Y0022616D01*
X0037844Y0022505D01*
X0037899Y0022449D01*
X0037566D01*
Y0022162D02*
X0037621Y0022107D01*
X0037677Y0022079D01*
X0037788D01*
X0037844Y0022107D01*
X0037899Y0022162D01*
Y0022218D01*
X0037844Y0022273D01*
X0037788Y0022301D01*
X0037677D01*
X0037621Y0022273D01*
X0037566Y0022218D01*
Y0022162D01*
Y0021792D02*
X0037621Y0021737D01*
X0037677Y0021709D01*
X0037788D01*
X0037844Y0021737D01*
X0037899Y0021792D01*
Y0021848D01*
X0037844Y0021903D01*
X0037788Y0021931D01*
X0037677D01*
X0037621Y0021903D01*
X0037566Y0021848D01*
Y0021792D01*
Y0021561D02*
Y0021450D01*
Y0021506D02*
X0037899D01*
X0037844Y0021450D01*
X0037733Y0021247D02*
Y0021025D01*
Y0020849D02*
Y0020682D01*
X0037788Y0020655D01*
X0037844D01*
X0037899Y0020682D01*
Y0020849D01*
X0037844Y0020877D01*
X0037788D01*
X0037566Y0020766D01*
X0037621Y0020285D02*
X0037566Y0020340D01*
Y0020451D01*
X0037621Y0020507D01*
X0037677D01*
X0037788Y0020396D01*
X0037899Y0020507D01*
Y0020285D01*
X0037566Y0020137D02*
X0037899D01*
X0037844Y0020081D01*
X0037733Y0020026D01*
X0037844Y0019970D01*
X0037899Y0019915D01*
X0037566D01*
X0037733Y0019684D02*
X0037566Y0019767D01*
X0037733Y0019545D02*
Y0019711D01*
X0037788Y0019767D01*
X0037844D01*
X0037899Y0019711D01*
Y0019545D01*
X0037566D01*
X0037733Y0019286D02*
Y0019397D01*
X0037621D01*
X0037566Y0019369D01*
Y0019202D01*
X0037621Y0019175D01*
X0037844D01*
X0037899Y0019202D01*
Y0019369D01*
X0037844Y0019397D01*
X0029384Y0027081D02*
X0029272D01*
X0029050Y0026970D01*
X0029272Y0026859D01*
X0029384D01*
X0029217Y0026517D02*
Y0026683D01*
X0029161Y0026711D01*
X0029106D01*
X0029050Y0026683D01*
Y0026517D01*
X0029106Y0026489D01*
X0029161D01*
X0029384Y0026600D01*
X0029050Y0026341D02*
Y0026230D01*
Y0026286D02*
X0029384D01*
X0029328Y0026230D01*
X0029217Y0026027D02*
Y0025805D01*
Y0025601D02*
Y0025435D01*
X0029050D02*
X0029384D01*
Y0025657D01*
Y0025287D02*
X0029050D01*
X0029106Y0025231D01*
X0029328Y0025120D01*
X0029384Y0025065D01*
X0029050D01*
Y0024778D02*
X0029106Y0024722D01*
X0029161Y0024695D01*
X0029272D01*
X0029328Y0024722D01*
X0029384Y0024778D01*
Y0024834D01*
X0029328Y0024889D01*
X0029272Y0024917D01*
X0029161D01*
X0029106Y0024889D01*
X0029050Y0024834D01*
Y0024778D01*
Y0024408D02*
X0029106Y0024352D01*
X0029161Y0024325D01*
X0029272D01*
X0029328Y0024352D01*
X0029384Y0024408D01*
Y0024464D01*
X0029328Y0024519D01*
X0029272Y0024547D01*
X0029161D01*
X0029106Y0024519D01*
X0029050Y0024464D01*
Y0024408D01*
Y0024177D02*
Y0024066D01*
Y0024121D02*
X0029384D01*
X0029328Y0024066D01*
X0029217Y0023863D02*
Y0023640D01*
Y0023465D02*
Y0023298D01*
X0029272Y0023270D01*
X0029328D01*
X0029384Y0023298D01*
Y0023465D01*
X0029328Y0023493D01*
X0029272D01*
X0029050Y0023381D01*
X0029106Y0022900D02*
X0029050Y0022956D01*
Y0023067D01*
X0029106Y0023123D01*
X0029161D01*
X0029272Y0023011D01*
X0029384Y0023123D01*
Y0022900D01*
X0029050Y0022753D02*
X0029384D01*
X0029328Y0022697D01*
X0029217Y0022641D01*
X0029328Y0022586D01*
X0029384Y0022530D01*
X0029050D01*
X0029217Y0022299D02*
X0029050Y0022383D01*
X0029217Y0022160D02*
Y0022327D01*
X0029272Y0022383D01*
X0029328D01*
X0029384Y0022327D01*
Y0022160D01*
X0029050D01*
X0029217Y0021901D02*
Y0022013D01*
X0029106D01*
X0029050Y0021985D01*
Y0021818D01*
X0029106Y0021790D01*
X0029328D01*
X0029384Y0021818D01*
Y0021985D01*
X0029328Y0022013D01*
X0024540Y0014626D02*
Y0014737D01*
X0024428Y0014959D01*
X0024317Y0014737D01*
Y0014626D01*
X0023975Y0014792D02*
X0024142D01*
X0024170Y0014848D01*
Y0014903D01*
X0024142Y0014959D01*
X0023975D01*
X0023947Y0014903D01*
Y0014848D01*
X0024058Y0014626D01*
X0023800Y0014959D02*
X0023689D01*
X0023744D02*
Y0014626D01*
X0023689Y0014681D01*
X0023485Y0014792D02*
X0023263D01*
X0023060D02*
X0022893D01*
Y0014959D02*
Y0014626D01*
X0023115D01*
X0022745D02*
Y0014959D01*
X0022690Y0014903D01*
X0022579Y0014681D01*
X0022523Y0014626D01*
Y0014959D01*
X0022236D02*
X0022181Y0014903D01*
X0022153Y0014848D01*
Y0014737D01*
X0022181Y0014681D01*
X0022236Y0014626D01*
X0022292D01*
X0022347Y0014681D01*
X0022375Y0014737D01*
Y0014848D01*
X0022347Y0014903D01*
X0022292Y0014959D01*
X0022236D01*
X0021866D02*
X0021811Y0014903D01*
X0021783Y0014848D01*
Y0014737D01*
X0021811Y0014681D01*
X0021866Y0014626D01*
X0021922D01*
X0021977Y0014681D01*
X0022005Y0014737D01*
Y0014848D01*
X0021977Y0014903D01*
X0021922Y0014959D01*
X0021866D01*
X0021635D02*
X0021524D01*
X0021580D02*
Y0014626D01*
X0021524Y0014681D01*
X0021321Y0014792D02*
X0021099D01*
X0020923D02*
X0020756D01*
X0020729Y0014737D01*
Y0014681D01*
X0020756Y0014626D01*
X0020923D01*
X0020951Y0014681D01*
Y0014737D01*
X0020840Y0014959D01*
X0020359Y0014903D02*
X0020414Y0014959D01*
X0020525D01*
X0020581Y0014903D01*
Y0014848D01*
X0020470Y0014737D01*
X0020581Y0014626D01*
X0020359D01*
X0020211Y0014959D02*
Y0014626D01*
X0020155Y0014681D01*
X0020100Y0014792D01*
X0020044Y0014681D01*
X0019989Y0014626D01*
Y0014959D01*
X0019758Y0014792D02*
X0019841Y0014959D01*
X0019619Y0014792D02*
X0019785D01*
X0019841Y0014737D01*
Y0014681D01*
X0019785Y0014626D01*
X0019619D01*
Y0014959D01*
X0019360Y0014792D02*
X0019471D01*
Y0014903D01*
X0019443Y0014959D01*
X0019276D01*
X0019249Y0014903D01*
Y0014681D01*
X0019276Y0014626D01*
X0019443D01*
X0019471Y0014681D01*
X0026202Y0015225D02*
Y0015336D01*
Y0015281D02*
X0025869D01*
X0025925Y0015336D01*
X0026147Y0015540D02*
X0026202Y0015568D01*
Y0015734D01*
X0026147Y0015762D01*
X0025925D01*
X0025869Y0015734D01*
Y0015568D01*
X0025925Y0015540D01*
X0025270Y0010659D02*
X0025381D01*
X0025603Y0010770D01*
X0025381Y0010881D01*
X0025270D01*
X0025437Y0011223D02*
Y0011057D01*
X0025492Y0011029D01*
X0025548D01*
X0025603Y0011057D01*
Y0011223D01*
X0025548Y0011251D01*
X0025492D01*
X0025270Y0011140D01*
X0025603Y0011399D02*
Y0011510D01*
Y0011454D02*
X0025270D01*
X0025325Y0011510D01*
X0025437Y0011713D02*
Y0011936D01*
Y0012139D02*
Y0012306D01*
X0025603D02*
X0025270D01*
Y0012083D01*
Y0012453D02*
X0025603D01*
X0025548Y0012509D01*
X0025325Y0012620D01*
X0025270Y0012676D01*
X0025603D01*
Y0012962D02*
X0025548Y0013018D01*
X0025492Y0013046D01*
X0025381D01*
X0025325Y0013018D01*
X0025270Y0012962D01*
Y0012907D01*
X0025325Y0012851D01*
X0025381Y0012823D01*
X0025492D01*
X0025548Y0012851D01*
X0025603Y0012907D01*
Y0012962D01*
Y0013332D02*
X0025548Y0013388D01*
X0025492Y0013416D01*
X0025381D01*
X0025325Y0013388D01*
X0025270Y0013332D01*
Y0013277D01*
X0025325Y0013221D01*
X0025381Y0013193D01*
X0025492D01*
X0025548Y0013221D01*
X0025603Y0013277D01*
Y0013332D01*
Y0013563D02*
Y0013674D01*
Y0013619D02*
X0025270D01*
X0025325Y0013674D01*
X0025437Y0013878D02*
Y0014100D01*
Y0014275D02*
Y0014442D01*
X0025381Y0014470D01*
X0025325D01*
X0025270Y0014442D01*
Y0014275D01*
X0025325Y0014248D01*
X0025381D01*
X0025603Y0014359D01*
X0025548Y0014840D02*
X0025603Y0014784D01*
Y0014673D01*
X0025548Y0014618D01*
X0025492D01*
X0025381Y0014729D01*
X0025270Y0014618D01*
Y0014840D01*
X0025603Y0014988D02*
X0025270D01*
X0025325Y0015043D01*
X0025437Y0015099D01*
X0025325Y0015154D01*
X0025270Y0015210D01*
X0025603D01*
X0025437Y0015441D02*
X0025603Y0015358D01*
X0025437Y0015580D02*
Y0015413D01*
X0025381Y0015358D01*
X0025325D01*
X0025270Y0015413D01*
Y0015580D01*
X0025603D01*
X0025437Y0015839D02*
Y0015728D01*
X0025548D01*
X0025603Y0015755D01*
Y0015922D01*
X0025548Y0015950D01*
X0025325D01*
X0025270Y0015922D01*
Y0015755D01*
X0025325Y0015728D01*
X0045984Y0030471D02*
X0046151D01*
X0046179Y0030527D01*
Y0030582D01*
X0046151Y0030638D01*
X0045984D01*
X0045956Y0030582D01*
Y0030527D01*
X0046068Y0030304D01*
X0046549Y0030360D02*
X0046493Y0030304D01*
X0046382D01*
X0046326Y0030360D01*
Y0030416D01*
X0046438Y0030527D01*
X0046326Y0030638D01*
X0046549D01*
X0046696Y0030360D02*
X0046724Y0030304D01*
X0046891D01*
X0046919Y0030360D01*
Y0030582D01*
X0046891Y0030638D01*
X0046724D01*
X0046696Y0030582D01*
X0041816Y0031237D02*
Y0031126D01*
X0041927Y0030904D01*
X0042038Y0031126D01*
Y0031237D01*
X0042380Y0031070D02*
X0042213D01*
X0042186Y0031015D01*
Y0030959D01*
X0042213Y0030904D01*
X0042380D01*
X0042408Y0030959D01*
Y0031015D01*
X0042297Y0031237D01*
X0042556Y0030904D02*
X0042667D01*
X0042611D02*
Y0031237D01*
X0042667Y0031181D01*
X0042870Y0031070D02*
X0043092D01*
X0043296D02*
X0043462D01*
Y0030904D02*
Y0031237D01*
X0043240D01*
X0043610D02*
Y0030904D01*
X0043666Y0030959D01*
X0043777Y0031181D01*
X0043832Y0031237D01*
Y0030904D01*
X0044119D02*
X0044174Y0030959D01*
X0044202Y0031015D01*
Y0031126D01*
X0044174Y0031181D01*
X0044119Y0031237D01*
X0044063D01*
X0044008Y0031181D01*
X0043980Y0031126D01*
Y0031015D01*
X0044008Y0030959D01*
X0044063Y0030904D01*
X0044119D01*
X0044489D02*
X0044544Y0030959D01*
X0044572Y0031015D01*
Y0031126D01*
X0044544Y0031181D01*
X0044489Y0031237D01*
X0044433D01*
X0044378Y0031181D01*
X0044350Y0031126D01*
Y0031015D01*
X0044378Y0030959D01*
X0044433Y0030904D01*
X0044489D01*
X0044720D02*
X0044831D01*
X0044775D02*
Y0031237D01*
X0044831Y0031181D01*
X0045034Y0031070D02*
X0045257D01*
X0045432D02*
X0045599D01*
X0045627Y0031126D01*
Y0031181D01*
X0045599Y0031237D01*
X0045432D01*
X0045404Y0031181D01*
Y0031126D01*
X0045515Y0030904D01*
X0045997Y0030959D02*
X0045941Y0030904D01*
X0045830D01*
X0045774Y0030959D01*
Y0031015D01*
X0045885Y0031126D01*
X0045774Y0031237D01*
X0045997D01*
X0046144Y0030904D02*
Y0031237D01*
X0046200Y0031181D01*
X0046255Y0031070D01*
X0046311Y0031181D01*
X0046367Y0031237D01*
Y0030904D01*
X0046598Y0031070D02*
X0046514Y0030904D01*
X0046737Y0031070D02*
X0046570D01*
X0046514Y0031126D01*
Y0031181D01*
X0046570Y0031237D01*
X0046737D01*
Y0030904D01*
X0046995Y0031070D02*
X0046884D01*
Y0030959D01*
X0046912Y0030904D01*
X0047079D01*
X0047107Y0030959D01*
Y0031181D01*
X0047079Y0031237D01*
X0046912D01*
X0046884Y0031181D01*
X0013353Y0018410D02*
Y0018298D01*
X0013464Y0018076D01*
X0013576Y0018298D01*
Y0018410D01*
X0013918Y0018243D02*
X0013751D01*
X0013723Y0018187D01*
Y0018132D01*
X0013751Y0018076D01*
X0013918D01*
X0013946Y0018132D01*
Y0018187D01*
X0013834Y0018410D01*
X0014093Y0018076D02*
X0014204D01*
X0014149D02*
Y0018410D01*
X0014204Y0018354D01*
X0014408Y0018243D02*
X0014630D01*
X0014833D02*
X0015000D01*
Y0018076D02*
Y0018410D01*
X0014778D01*
X0015148D02*
Y0018076D01*
X0015203Y0018132D01*
X0015314Y0018354D01*
X0015370Y0018410D01*
Y0018076D01*
X0015657D02*
X0015712Y0018132D01*
X0015740Y0018187D01*
Y0018298D01*
X0015712Y0018354D01*
X0015657Y0018410D01*
X0015601D01*
X0015545Y0018354D01*
X0015518Y0018298D01*
Y0018187D01*
X0015545Y0018132D01*
X0015601Y0018076D01*
X0015657D01*
X0016027D02*
X0016082Y0018132D01*
X0016110Y0018187D01*
Y0018298D01*
X0016082Y0018354D01*
X0016027Y0018410D01*
X0015971D01*
X0015915Y0018354D01*
X0015888Y0018298D01*
Y0018187D01*
X0015915Y0018132D01*
X0015971Y0018076D01*
X0016027D01*
X0016258D02*
X0016369D01*
X0016313D02*
Y0018410D01*
X0016369Y0018354D01*
X0016572Y0018243D02*
X0016794D01*
X0016970D02*
X0017136D01*
X0017164Y0018298D01*
Y0018354D01*
X0017136Y0018410D01*
X0016970D01*
X0016942Y0018354D01*
Y0018298D01*
X0017053Y0018076D01*
X0017534Y0018132D02*
X0017479Y0018076D01*
X0017368D01*
X0017312Y0018132D01*
Y0018187D01*
X0017423Y0018298D01*
X0017312Y0018410D01*
X0017534D01*
X0017682Y0018076D02*
Y0018410D01*
X0017738Y0018354D01*
X0017793Y0018243D01*
X0017849Y0018354D01*
X0017904Y0018410D01*
Y0018076D01*
X0018135Y0018243D02*
X0018052Y0018076D01*
X0018274Y0018243D02*
X0018108D01*
X0018052Y0018298D01*
Y0018354D01*
X0018108Y0018410D01*
X0018274D01*
Y0018076D01*
X0018533Y0018243D02*
X0018422D01*
Y0018132D01*
X0018450Y0018076D01*
X0018616D01*
X0018644Y0018132D01*
Y0018354D01*
X0018616Y0018410D01*
X0018450D01*
X0018422Y0018354D01*
X0028618Y0018029D02*
Y0018196D01*
X0028562Y0018224D01*
X0028507D01*
X0028451Y0018196D01*
Y0018029D01*
X0028507Y0018001D01*
X0028562D01*
X0028784Y0018113D01*
X0028451Y0017854D02*
Y0017743D01*
Y0017798D02*
X0028784D01*
X0028729Y0017743D01*
X0028507Y0017539D02*
X0028451Y0017512D01*
Y0017345D01*
X0028507Y0017317D01*
X0028729D01*
X0028784Y0017345D01*
Y0017512D01*
X0028729Y0017539D01*
X0025210Y0015364D02*
Y0015198D01*
X0025265Y0015170D01*
X0025321D01*
X0025376Y0015198D01*
Y0015364D01*
X0025321Y0015392D01*
X0025265D01*
X0025043Y0015281D01*
X0025321Y0015540D02*
X0025376Y0015568D01*
Y0015734D01*
X0025321Y0015762D01*
X0025099D01*
X0025043Y0015734D01*
Y0015568D01*
X0025099Y0015540D01*
X0024444Y0010659D02*
X0024555D01*
X0024777Y0010770D01*
X0024555Y0010881D01*
X0024444D01*
X0024611Y0011223D02*
Y0011057D01*
X0024666Y0011029D01*
X0024722D01*
X0024777Y0011057D01*
Y0011223D01*
X0024722Y0011251D01*
X0024666D01*
X0024444Y0011140D01*
X0024777Y0011399D02*
Y0011510D01*
Y0011454D02*
X0024444D01*
X0024499Y0011510D01*
X0024611Y0011713D02*
Y0011936D01*
Y0012139D02*
Y0012306D01*
X0024777D02*
X0024444D01*
Y0012083D01*
Y0012453D02*
X0024777D01*
X0024722Y0012509D01*
X0024499Y0012620D01*
X0024444Y0012676D01*
X0024777D01*
Y0012962D02*
X0024722Y0013018D01*
X0024666Y0013046D01*
X0024555D01*
X0024499Y0013018D01*
X0024444Y0012962D01*
Y0012907D01*
X0024499Y0012851D01*
X0024555Y0012823D01*
X0024666D01*
X0024722Y0012851D01*
X0024777Y0012907D01*
Y0012962D01*
Y0013332D02*
X0024722Y0013388D01*
X0024666Y0013416D01*
X0024555D01*
X0024499Y0013388D01*
X0024444Y0013332D01*
Y0013277D01*
X0024499Y0013221D01*
X0024555Y0013193D01*
X0024666D01*
X0024722Y0013221D01*
X0024777Y0013277D01*
Y0013332D01*
Y0013563D02*
Y0013674D01*
Y0013619D02*
X0024444D01*
X0024499Y0013674D01*
X0024611Y0013878D02*
Y0014100D01*
Y0014275D02*
Y0014442D01*
X0024555Y0014470D01*
X0024499D01*
X0024444Y0014442D01*
Y0014275D01*
X0024499Y0014248D01*
X0024555D01*
X0024777Y0014359D01*
X0024722Y0014840D02*
X0024777Y0014784D01*
Y0014673D01*
X0024722Y0014618D01*
X0024666D01*
X0024555Y0014729D01*
X0024444Y0014618D01*
Y0014840D01*
X0024777Y0014988D02*
X0024444D01*
X0024499Y0015043D01*
X0024611Y0015099D01*
X0024499Y0015154D01*
X0024444Y0015210D01*
X0024777D01*
X0024611Y0015441D02*
X0024777Y0015358D01*
X0024611Y0015580D02*
Y0015413D01*
X0024555Y0015358D01*
X0024499D01*
X0024444Y0015413D01*
Y0015580D01*
X0024777D01*
X0024611Y0015839D02*
Y0015728D01*
X0024722D01*
X0024777Y0015755D01*
Y0015922D01*
X0024722Y0015950D01*
X0024499D01*
X0024444Y0015922D01*
Y0015755D01*
X0024499Y0015728D01*
X0021482Y0017833D02*
X0021371D01*
X0021149Y0017722D01*
X0021371Y0017611D01*
X0021482D01*
X0021316Y0017269D02*
Y0017435D01*
X0021260Y0017463D01*
X0021204D01*
X0021149Y0017435D01*
Y0017269D01*
X0021204Y0017241D01*
X0021260D01*
X0021482Y0017352D01*
X0021149Y0017093D02*
Y0016982D01*
Y0017038D02*
X0021482D01*
X0021427Y0016982D01*
X0021316Y0016779D02*
Y0016557D01*
Y0016353D02*
Y0016187D01*
X0021149D02*
X0021482D01*
Y0016409D01*
Y0016039D02*
X0021149D01*
X0021204Y0015983D01*
X0021427Y0015872D01*
X0021482Y0015817D01*
X0021149D01*
Y0015530D02*
X0021204Y0015474D01*
X0021260Y0015447D01*
X0021371D01*
X0021427Y0015474D01*
X0021482Y0015530D01*
Y0015586D01*
X0021427Y0015641D01*
X0021371Y0015669D01*
X0021260D01*
X0021204Y0015641D01*
X0021149Y0015586D01*
Y0015530D01*
Y0015160D02*
X0021204Y0015104D01*
X0021260Y0015077D01*
X0021371D01*
X0021427Y0015104D01*
X0021482Y0015160D01*
Y0015216D01*
X0021427Y0015271D01*
X0021371Y0015299D01*
X0021260D01*
X0021204Y0015271D01*
X0021149Y0015216D01*
Y0015160D01*
Y0014929D02*
Y0014818D01*
Y0014873D02*
X0021482D01*
X0021427Y0014818D01*
X0021316Y0014615D02*
Y0014392D01*
Y0014217D02*
Y0014050D01*
X0021371Y0014022D01*
X0021427D01*
X0021482Y0014050D01*
Y0014217D01*
X0021427Y0014245D01*
X0021371D01*
X0021149Y0014133D01*
X0021204Y0013652D02*
X0021149Y0013708D01*
Y0013819D01*
X0021204Y0013875D01*
X0021260D01*
X0021371Y0013763D01*
X0021482Y0013875D01*
Y0013652D01*
X0021149Y0013505D02*
X0021482D01*
X0021427Y0013449D01*
X0021316Y0013393D01*
X0021427Y0013338D01*
X0021482Y0013282D01*
X0021149D01*
X0021316Y0013051D02*
X0021149Y0013135D01*
X0021316Y0012912D02*
Y0013079D01*
X0021371Y0013135D01*
X0021427D01*
X0021482Y0013079D01*
Y0012912D01*
X0021149D01*
X0021316Y0012653D02*
Y0012765D01*
X0021204D01*
X0021149Y0012737D01*
Y0012570D01*
X0021204Y0012542D01*
X0021427D01*
X0021482Y0012570D01*
Y0012737D01*
X0021427Y0012765D01*
X0023558Y0014994D02*
Y0014828D01*
X0023613Y0014800D01*
X0023669D01*
X0023724Y0014828D01*
Y0014994D01*
X0023669Y0015022D01*
X0023613D01*
X0023391Y0014911D01*
X0023724Y0015170D02*
Y0015392D01*
X0023502Y0015170D01*
X0023447D01*
X0023391Y0015198D01*
Y0015364D01*
X0023447Y0015392D01*
X0023669Y0015540D02*
X0023724Y0015568D01*
Y0015734D01*
X0023669Y0015762D01*
X0023447D01*
X0023391Y0015734D01*
Y0015568D01*
X0023447Y0015540D01*
X0022792Y0010659D02*
X0022903D01*
X0023125Y0010770D01*
X0022903Y0010881D01*
X0022792D01*
X0022959Y0011223D02*
Y0011057D01*
X0023014Y0011029D01*
X0023070D01*
X0023125Y0011057D01*
Y0011223D01*
X0023070Y0011251D01*
X0023014D01*
X0022792Y0011140D01*
X0023125Y0011399D02*
Y0011510D01*
Y0011454D02*
X0022792D01*
X0022847Y0011510D01*
X0022959Y0011713D02*
Y0011936D01*
Y0012139D02*
Y0012306D01*
X0023125D02*
X0022792D01*
Y0012083D01*
Y0012453D02*
X0023125D01*
X0023070Y0012509D01*
X0022847Y0012620D01*
X0022792Y0012676D01*
X0023125D01*
Y0012962D02*
X0023070Y0013018D01*
X0023014Y0013046D01*
X0022903D01*
X0022847Y0013018D01*
X0022792Y0012962D01*
Y0012907D01*
X0022847Y0012851D01*
X0022903Y0012823D01*
X0023014D01*
X0023070Y0012851D01*
X0023125Y0012907D01*
Y0012962D01*
Y0013332D02*
X0023070Y0013388D01*
X0023014Y0013416D01*
X0022903D01*
X0022847Y0013388D01*
X0022792Y0013332D01*
Y0013277D01*
X0022847Y0013221D01*
X0022903Y0013193D01*
X0023014D01*
X0023070Y0013221D01*
X0023125Y0013277D01*
Y0013332D01*
Y0013563D02*
Y0013674D01*
Y0013619D02*
X0022792D01*
X0022847Y0013674D01*
X0022959Y0013878D02*
Y0014100D01*
Y0014275D02*
Y0014442D01*
X0022903Y0014470D01*
X0022847D01*
X0022792Y0014442D01*
Y0014275D01*
X0022847Y0014248D01*
X0022903D01*
X0023125Y0014359D01*
X0023070Y0014840D02*
X0023125Y0014784D01*
Y0014673D01*
X0023070Y0014618D01*
X0023014D01*
X0022903Y0014729D01*
X0022792Y0014618D01*
Y0014840D01*
X0023125Y0014988D02*
X0022792D01*
X0022847Y0015043D01*
X0022959Y0015099D01*
X0022847Y0015154D01*
X0022792Y0015210D01*
X0023125D01*
X0022959Y0015441D02*
X0023125Y0015358D01*
X0022959Y0015580D02*
Y0015413D01*
X0022903Y0015358D01*
X0022847D01*
X0022792Y0015413D01*
Y0015580D01*
X0023125D01*
X0022959Y0015839D02*
Y0015728D01*
X0023070D01*
X0023125Y0015755D01*
Y0015922D01*
X0023070Y0015950D01*
X0022847D01*
X0022792Y0015922D01*
Y0015755D01*
X0022847Y0015728D01*
X0028451Y0024119D02*
X0028507Y0024064D01*
X0028562Y0024036D01*
X0028673D01*
X0028729Y0024064D01*
X0028784Y0024119D01*
Y0024175D01*
X0028729Y0024230D01*
X0028673Y0024258D01*
X0028562D01*
X0028507Y0024230D01*
X0028451Y0024175D01*
Y0024119D01*
X0028507Y0023666D02*
X0028451Y0023721D01*
Y0023832D01*
X0028507Y0023888D01*
X0028562D01*
X0028673Y0023777D01*
X0028784Y0023888D01*
Y0023666D01*
X0028507Y0023518D02*
X0028451Y0023490D01*
Y0023324D01*
X0028507Y0023296D01*
X0028729D01*
X0028784Y0023324D01*
Y0023490D01*
X0028729Y0023518D01*
X0026718Y0017320D02*
Y0018120D01*
X0025468D01*
Y0017320D01*
X0026718D01*
X0024140Y0018120D02*
Y0017320D01*
X0025390D01*
Y0018120D01*
X0024140D01*
X0025163Y0016684D02*
Y0015884D01*
X0026413D01*
Y0016684D01*
X0025163D01*
X0025322Y0015884D02*
Y0016684D01*
X0024072D01*
Y0015884D01*
X0025322D01*
X0021316Y0030816D02*
Y0033416D01*
X0022816D01*
Y0030816D01*
X0021316D01*
X0025446D02*
Y0033416D01*
X0026946D01*
Y0030816D01*
X0025446D01*
X0028235Y0017296D02*
X0029035D01*
Y0018546D01*
X0028235D01*
Y0017296D01*
X0019415Y0015775D02*
Y0014975D01*
X0020665D01*
Y0015775D01*
X0019415D01*
X0041621Y0020307D02*
X0040821D01*
Y0019057D01*
X0041621D01*
Y0020307D01*
X0046901Y0030953D02*
Y0031753D01*
X0045651D01*
Y0030953D01*
X0046901D01*
X0028235Y0023275D02*
X0029035D01*
Y0024525D01*
X0028235D01*
Y0023275D01*
X0021662Y0015779D02*
Y0014979D01*
X0022912D01*
Y0015779D01*
X0021662D01*
X0017514Y0020388D02*
Y0021188D01*
X0016264D01*
Y0020388D01*
X0017514D01*
X0047007Y0031708D02*
X0047757D01*
Y0030108D01*
X0047007D01*
Y0031708D01*
X0022332Y0023751D02*
Y0024551D01*
X0021082D01*
Y0023751D01*
X0022332D01*
X0022822Y0018120D02*
Y0017320D01*
X0024072D01*
Y0018120D01*
X0022822D01*
X0018478Y0017261D02*
Y0018061D01*
X0017228D01*
Y0017261D01*
X0018478D01*
X0028235Y0015959D02*
X0029035D01*
Y0017209D01*
X0028235D01*
Y0015959D01*
Y0021957D02*
X0029035D01*
Y0023207D01*
X0028235D01*
Y0021957D01*
X0027055Y0026520D02*
X0027855D01*
Y0027770D01*
X0027055D01*
Y0026520D01*
X0029369Y0020641D02*
X0028569D01*
Y0019391D01*
X0029369D01*
Y0020641D01*
X0025593Y0015783D02*
X0024793D01*
Y0014533D01*
X0025593D01*
Y0015783D01*
X0021052Y0018120D02*
Y0017320D01*
X0022302D01*
Y0018120D01*
X0021052D01*
X0022925Y0012537D02*
X0023725D01*
Y0013787D01*
X0022925D01*
Y0012537D01*
X0030234Y0020641D02*
X0029434D01*
Y0019391D01*
X0030234D01*
Y0020641D01*
X0020333Y0012709D02*
X0021133D01*
Y0013959D01*
X0020333D01*
Y0012709D01*
X0031467Y0007323D02*
X0031267Y0007123D01*
X0031667D01*
X0031467Y0007323D01*
X0046911Y0028258D02*
Y0029058D01*
X0045661D01*
Y0028258D01*
X0046911D01*
X0018517Y0024223D02*
Y0025023D01*
X0017267D01*
Y0024223D01*
X0018517D01*
X0019352Y0023010D02*
Y0018998D01*
X0028084D01*
Y0023010D01*
X0019352D01*
X0019436Y0023360D02*
X0019236Y0023560D01*
Y0023160D01*
X0019436Y0023360D01*
X0038852Y0022118D02*
Y0022918D01*
X0037602D01*
Y0022118D01*
X0038852D01*
X0038960Y0026996D02*
Y0027796D01*
X0037710D01*
Y0026996D01*
X0038960D01*
X0033296Y0007270D02*
Y0008070D01*
X0032046D01*
Y0007270D01*
X0033296D01*
X0027061Y0012534D02*
Y0011734D01*
X0028311D01*
Y0012534D01*
X0027061D01*
X0026314Y0027920D02*
Y0028720D01*
X0025064D01*
Y0027920D01*
X0026314D01*
X0031580Y0019026D02*
Y0019826D01*
X0030330D01*
Y0019026D01*
X0031580D01*
X0020253Y0030963D02*
Y0032363D01*
X0019553D01*
Y0030963D01*
X0020253D01*
X0025064Y0027835D02*
Y0027035D01*
X0026314D01*
Y0027835D01*
X0025064D01*
X0034614Y0007270D02*
Y0008070D01*
X0033364D01*
Y0007270D01*
X0034614D01*
X0026819Y0012458D02*
X0027619D01*
Y0013708D01*
X0026819D01*
Y0012458D01*
X0019031Y0026323D02*
X0019831D01*
Y0027573D01*
X0019031D01*
Y0026323D01*
X0040613Y0031639D02*
X0039813D01*
Y0030389D01*
X0040613D01*
Y0031639D01*
X0047746Y0028294D02*
X0046996D01*
Y0029894D01*
X0047746D01*
Y0028294D01*
X0039824Y0023166D02*
Y0023916D01*
X0041424D01*
Y0023166D01*
X0039824D01*
X0020093Y0026323D02*
X0020893D01*
Y0027573D01*
X0020093D01*
Y0026323D01*
X0037616Y0019341D02*
X0038416D01*
Y0020591D01*
X0037616D01*
Y0019341D01*
X0039848Y0029010D02*
X0040648D01*
Y0030260D01*
X0039848D01*
Y0029010D01*
X0022177Y0012537D02*
X0022977D01*
Y0013787D01*
X0022177D01*
Y0012537D01*
X0040821Y0020777D02*
X0041621D01*
Y0022027D01*
X0040821D01*
Y0020777D01*
X0046911Y0029124D02*
Y0029924D01*
X0045661D01*
Y0029124D01*
X0046911D01*
X0022905Y0026284D02*
X0023705D01*
Y0027534D01*
X0022905D01*
Y0026284D01*
X0041419Y0024781D02*
Y0024031D01*
X0039819D01*
Y0024781D01*
X0041419D01*
X0024767Y0015783D02*
X0023967D01*
Y0014533D01*
X0024767D01*
Y0015783D01*
X0018438Y0019463D02*
Y0020263D01*
X0017188D01*
Y0019463D01*
X0018438D01*
X0022361Y0012574D02*
Y0011774D01*
X0023611D01*
Y0012574D01*
X0022361D01*
X0043787Y0031021D02*
Y0030221D01*
X0045037D01*
Y0031021D01*
X0043787D01*
X0036593Y0021790D02*
X0037393D01*
Y0023040D01*
X0036593D01*
Y0021790D01*
X0040648Y0028883D02*
X0039848D01*
Y0027633D01*
X0040648D01*
Y0028883D01*
X0027546Y0012458D02*
X0028346D01*
Y0013708D01*
X0027546D01*
Y0012458D01*
X0033643Y0009665D02*
X0034443D01*
Y0010915D01*
X0033643D01*
Y0009665D01*
X0036839Y0032001D02*
X0036039D01*
Y0030751D01*
X0036839D01*
Y0032001D01*
X0018854Y0030886D02*
X0019654D01*
Y0032136D01*
X0018854D01*
Y0030886D01*
X0043822Y0029492D02*
Y0028692D01*
X0045072D01*
Y0029492D01*
X0043822D01*
X0024063Y0023751D02*
Y0024551D01*
X0022813D01*
Y0023751D01*
X0024063D01*
X0042807Y0028388D02*
X0043607D01*
Y0029638D01*
X0042807D01*
Y0028388D01*
X0020060Y0023987D02*
Y0024787D01*
X0018810D01*
Y0023987D01*
X0020060D01*
X0027245Y0015783D02*
X0026445D01*
Y0014533D01*
X0027245D01*
Y0015783D01*
X0035253Y0032206D02*
X0036053D01*
Y0033456D01*
X0035253D01*
Y0032206D01*
X0034390Y0032203D02*
X0035190D01*
Y0033453D01*
X0034390D01*
Y0032203D01*
X0039777Y0020882D02*
X0038977D01*
Y0019632D01*
X0039777D01*
Y0020882D01*
X0023790Y0026284D02*
X0024590D01*
Y0027534D01*
X0023790D01*
Y0026284D01*
X0036750Y0019341D02*
X0037550D01*
Y0020591D01*
X0036750D01*
Y0019341D01*
X0026419Y0015783D02*
X0025619D01*
Y0014533D01*
X0026419D01*
Y0015783D01*
X0046940Y0030088D02*
Y0030888D01*
X0045690D01*
Y0030088D01*
X0046940D01*
X0023941Y0015783D02*
X0023141D01*
Y0014533D01*
X0023941D01*
Y0015783D01*
X0039743Y0029984D02*
X0038943D01*
Y0028734D01*
X0039743D01*
Y0029984D01*
G54D62*
G01X0041783Y0006603D02*
X0041450D01*
X0041617Y0006270D01*
X0041700D01*
Y0006770D01*
X0040917Y0006603D02*
Y0006686D01*
X0040958Y0006770D01*
X0041125D01*
X0041167Y0006686D01*
Y0006270D01*
X0041208D02*
X0041042D01*
X0051233Y0007895D02*
Y0007395D01*
X0051400D02*
X0051067D01*
X0050742Y0007645D02*
X0050492D01*
X0050825Y0007895D02*
X0050492D01*
Y0007395D01*
X0050825D01*
X0050250Y0007895D02*
X0050000Y0007645D01*
X0050250Y0007395D01*
X0049917D02*
Y0007895D01*
X0049675Y0007811D02*
X0049633Y0007895D01*
X0049383D01*
X0049342Y0007811D01*
Y0007478D01*
X0049383Y0007395D01*
X0049633D01*
X0049675Y0007478D01*
X0048808Y0007895D02*
X0048767Y0007811D01*
Y0007478D01*
X0048808Y0007395D01*
X0049058D01*
X0049100Y0007478D01*
Y0007811D01*
X0049058Y0007895D01*
X0048808D01*
X0048525Y0007478D02*
X0048483Y0007395D01*
X0048233D01*
X0048192Y0007478D01*
Y0007561D01*
X0048233Y0007645D01*
X0048483D01*
X0048525Y0007728D01*
Y0007811D01*
X0048483Y0007895D01*
X0048233D01*
X0048192Y0007811D01*
X0046896Y0007895D02*
Y0007395D01*
X0046854Y0007895D02*
X0047104D01*
X0047187Y0007728D01*
Y0007561D01*
X0047104Y0007395D01*
X0046854D01*
X0046487Y0007645D02*
X0046612Y0007895D01*
X0046279Y0007645D02*
X0046529D01*
X0046612Y0007561D01*
Y0007478D01*
X0046529Y0007395D01*
X0046279D01*
Y0007895D01*
X0046037Y0007728D02*
X0045704D01*
X0046037Y0007895D02*
Y0007645D01*
X0045912Y0007395D01*
X0045829D01*
X0045704Y0007645D01*
Y0007895D01*
X0045462Y0007811D02*
X0045421Y0007895D01*
X0045171D01*
X0045129Y0007811D01*
Y0007478D01*
X0045171Y0007395D01*
X0045421D01*
X0045462Y0007478D01*
X0043833Y0007895D02*
Y0007395D01*
X0043792Y0007895D02*
X0044042D01*
X0044125Y0007728D01*
Y0007561D01*
X0044042Y0007395D01*
X0043792D01*
X0043550Y0007478D02*
X0043508Y0007395D01*
X0043258D01*
X0043217Y0007478D01*
Y0007561D01*
X0043258Y0007645D01*
X0043508D01*
X0043550Y0007728D01*
Y0007811D01*
X0043508Y0007895D01*
X0043258D01*
X0043217Y0007811D01*
X0042975Y0007645D02*
X0042642D01*
X0042400Y0007811D02*
X0042358Y0007895D01*
X0042108D01*
X0042067Y0007811D01*
Y0007478D01*
X0042108Y0007395D01*
X0042358D01*
X0042400Y0007478D01*
X0041825Y0007895D02*
Y0007395D01*
X0041742Y0007478D01*
X0041658Y0007645D01*
X0041575Y0007478D01*
X0041492Y0007395D01*
Y0007895D01*
X0041250D02*
Y0007395D01*
X0041167Y0007478D01*
X0041083Y0007645D01*
X0041000Y0007478D01*
X0040917Y0007395D01*
Y0007895D01*
G54D63*
G01X0022816Y0032756D02*
X0023366D01*
Y0031516D01*
X0022816D01*
Y0030816D01*
X0022716Y0030916D01*
X0021416D01*
X0021326Y0030826D01*
Y0031066D01*
X0020766D01*
Y0031366D01*
X0021326D01*
Y0031966D01*
X0020766D01*
Y0032266D01*
X0021326D01*
Y0032866D01*
X0020766D01*
Y0033166D01*
X0021326D01*
Y0033406D01*
X0021416Y0033316D01*
X0022716D01*
X0022816Y0033416D01*
Y0030816D01*
X0022716Y0030916D01*
Y0033316D01*
X0021406D01*
Y0030916D01*
X0026946Y0032756D02*
X0027496D01*
Y0031516D01*
X0026946D01*
Y0030816D01*
X0026846Y0030916D01*
X0025546D01*
X0025456Y0030826D01*
Y0031066D01*
X0024896D01*
Y0031366D01*
X0025456D01*
Y0031966D01*
X0024896D01*
Y0032266D01*
X0025456D01*
Y0032866D01*
X0024896D01*
Y0033166D01*
X0025456D01*
Y0033406D01*
X0025546Y0033316D01*
X0026846D01*
X0026946Y0033416D01*
Y0030816D01*
X0026846Y0030916D01*
Y0033316D01*
X0025536D01*
Y0030916D01*
X0019471Y0022904D02*
X0026471D01*
X0026571Y0023004D01*
X0019371D01*
X0019471Y0022904D01*
Y0019104D02*
X0026471D01*
X0026571Y0019004D01*
X0019371D01*
X0019471Y0019104D01*
X0019630Y0023017D02*
Y0023327D01*
X0019710D01*
Y0023007D01*
X0019940D01*
Y0023327D01*
X0020020D01*
Y0023007D01*
X0020260D01*
Y0023327D01*
X0020340D01*
Y0023007D01*
X0020570D01*
Y0023327D01*
X0020650D01*
Y0023007D01*
X0020890D01*
Y0023327D01*
X0020970D01*
Y0023007D01*
X0021200D01*
Y0023327D01*
X0021280D01*
Y0023007D01*
X0021520D01*
Y0023327D01*
X0021600D01*
Y0023007D01*
X0021830D01*
Y0023327D01*
X0021910D01*
Y0023007D01*
X0022140D01*
Y0023327D01*
X0022220D01*
Y0023007D01*
X0022460D01*
Y0023327D01*
X0022540D01*
Y0023007D01*
X0022770D01*
Y0023327D01*
X0022850D01*
Y0023007D01*
X0023091D01*
Y0023327D01*
X0023171D01*
Y0023007D01*
X0023401D01*
Y0023327D01*
X0023481D01*
Y0023007D01*
X0023711D01*
Y0023327D01*
X0023791D01*
Y0023007D01*
X0024031D01*
Y0023327D01*
X0024111D01*
Y0023007D01*
X0024351D01*
Y0023327D01*
X0024431D01*
Y0023007D01*
X0024661D01*
Y0023327D01*
X0024741D01*
Y0023007D01*
X0024981D01*
Y0023327D01*
X0025061D01*
Y0023007D01*
X0025291D01*
Y0023327D01*
X0025371D01*
Y0023007D01*
X0025601D01*
Y0023327D01*
X0025681D01*
Y0023007D01*
X0025921D01*
Y0023327D01*
X0026001D01*
Y0023007D01*
X0026231D01*
Y0023327D01*
X0026311D01*
Y0023007D01*
X0026581D01*
X0019631Y0018984D02*
Y0018674D01*
X0019711D01*
Y0018994D01*
X0019941D01*
Y0018674D01*
X0020021D01*
Y0018994D01*
X0020261D01*
Y0018674D01*
X0020341D01*
Y0018994D01*
X0020571D01*
Y0018674D01*
X0020651D01*
Y0018994D01*
X0020891D01*
Y0018674D01*
X0020971D01*
Y0018994D01*
X0021201D01*
Y0018674D01*
X0021281D01*
Y0018994D01*
X0021521D01*
Y0018674D01*
X0021601D01*
Y0018994D01*
X0021831D01*
Y0018674D01*
X0021911D01*
Y0018994D01*
X0022141D01*
Y0018674D01*
X0022221D01*
Y0018994D01*
X0022461D01*
Y0018674D01*
X0022541D01*
Y0018994D01*
X0022771D01*
Y0018674D01*
X0022851D01*
Y0018994D01*
X0023091D01*
Y0018674D01*
X0023171D01*
Y0018994D01*
X0023401D01*
Y0018674D01*
X0023481D01*
Y0018994D01*
X0023711D01*
Y0018674D01*
X0023791D01*
Y0018994D01*
X0024031D01*
Y0018674D01*
X0024111D01*
Y0018994D01*
X0024351D01*
Y0018674D01*
X0024431D01*
Y0018994D01*
X0024661D01*
Y0018674D01*
X0024741D01*
Y0018994D01*
X0024981D01*
Y0018674D01*
X0025061D01*
Y0018994D01*
X0025291D01*
Y0018674D01*
X0025371D01*
Y0018994D01*
X0025601D01*
Y0018674D01*
X0025681D01*
Y0018994D01*
X0025921D01*
Y0018674D01*
X0026001D01*
Y0018994D01*
X0026231D01*
Y0018674D01*
X0026311D01*
Y0018994D01*
X0026581D01*
X0019471Y0022904D02*
Y0021204D01*
X0019521D01*
Y0020804D02*
X0019471D01*
Y0019104D01*
X0028084D01*
Y0022904D01*
X0019471D01*
X0037273Y0032288D02*
Y0032498D01*
X0037113D01*
Y0032288D01*
X0037273D01*
X0036523D02*
Y0032498D01*
X0036363D01*
Y0032288D01*
X0036523D01*
X0036893Y0033068D02*
X0036733D01*
Y0033298D01*
X0036893D01*
Y0033068D01*
X0024865Y0028040D02*
X0024715Y0027890D01*
X0025015D01*
X0024865Y0028040D01*
G01X0019527Y0021204D02*
G03X0019521Y0021204I0000000J0000200D01*
G01X0019727Y0021004D02*
G03X0019527Y0021204I0000200J0000000D01*
Y0020804D02*
G03X0019727Y0021004I0000000J0000200D01*
G01X0019521Y0020804D02*
G03X0019527Y0020804I0000006J0000200D01*
G01X0019671Y0022604D02*
G03X0019771Y0022704I0000000J0000100D01*
G01X0019571D02*
G03X0019671Y0022604I0000100J0000000D01*
Y0022804D02*
G03X0019571Y0022704I0000000J0000100D01*
G01X0019771D02*
G03X0019671Y0022804I0000100J0000000D01*
G54D64*
G01X0036524Y0032652D02*
X0036591D01*
X0036558D02*
Y0032919D01*
X0036591Y0032875D01*
X0036824Y0032652D02*
X0036858Y0032697D01*
X0036874Y0032741D01*
Y0032830D01*
X0036858Y0032875D01*
X0036824Y0032919D01*
X0036791D01*
X0036758Y0032875D01*
X0036741Y0032830D01*
Y0032741D01*
X0036758Y0032697D01*
X0036791Y0032652D01*
X0036824D01*
X0036991D02*
X0037057D01*
X0037024D02*
Y0032919D01*
X0037057Y0032875D01*
X0037207Y0032919D02*
Y0032697D01*
X0037224Y0032652D01*
X0037324D01*
X0037341Y0032697D01*
Y0032919D01*
X0037433Y0032498D02*
X0036213D01*
Y0033058D01*
X0037433D01*
Y0032498D01*
G54D99*
G01X0037343Y0032588D02*
X0036303D01*
Y0032968D01*
X0037343D01*
Y0032588D01*
X0037433Y0033058D02*
X0037343Y0032968D01*
X0036303D01*
X0036213Y0033058D01*
Y0032498D01*
X0036303Y0032588D01*
X0037343D01*
X0037433Y0032498D01*
Y0033058D01*
G54D120*
G01X0014455Y0004799D02*
X0048360D01*
Y0035085D01*
X0014357D01*
Y0004799D01*
X0014455D01*
G54D10*
X0024977Y0016284D03*
X0024417D03*
X0025508D03*
X0026068D03*
X0034269Y0007670D03*
X0033709D03*
X0038615Y0027396D03*
X0038055D03*
X0044132Y0030621D03*
X0044692D03*
X0044167Y0029092D03*
X0044727D03*
X0031235Y0019426D03*
X0030675D03*
X0032951Y0007670D03*
X0032391D03*
X0019715Y0024387D03*
X0019155D03*
X0023167Y0017720D03*
X0023727D03*
X0021397D03*
X0021957D03*
X0023718Y0024151D03*
X0023158D03*
X0021987D03*
X0021427D03*
X0024485Y0017720D03*
X0025045D03*
X0026373D03*
X0025813D03*
X0038507Y0022518D03*
X0037947D03*
X0046566Y0028658D03*
X0046006D03*
X0046566Y0029524D03*
X0046006D03*
X0046556Y0031353D03*
X0045996D03*
X0046595Y0030488D03*
X0046035D03*
X0025409Y0027435D03*
X0025969D03*
X0018133Y0017661D03*
X0017573D03*
X0017169Y0020788D03*
X0016609D03*
X0018172Y0024623D03*
X0017612D03*
X0019760Y0015375D03*
X0020320D03*
X0018093Y0019863D03*
X0017533D03*
X0022007Y0015379D03*
X0022567D03*
X0025969Y0028320D03*
X0025409D03*
X0022706Y0012174D03*
X0023266D03*
X0027406Y0012134D03*
X0027966D03*
G54D11*
X0034790Y0032548D03*
Y0033108D03*
X0036439Y0031656D03*
Y0031096D03*
X0040213Y0031294D03*
Y0030734D03*
X0039377Y0020537D03*
Y0019977D03*
X0040248Y0028538D03*
Y0027978D03*
Y0029355D03*
Y0029915D03*
X0023325Y0012882D03*
Y0013442D03*
X0028969Y0020296D03*
Y0019736D03*
X0027946Y0012803D03*
Y0013363D03*
X0035653Y0032551D03*
Y0033111D03*
X0034043Y0010010D03*
Y0010570D03*
X0028635Y0022302D03*
Y0022862D03*
X0023305Y0026629D03*
Y0027189D03*
X0036993Y0022135D03*
Y0022695D03*
X0038016Y0019686D03*
Y0020246D03*
X0037150Y0019686D03*
Y0020246D03*
X0041221Y0021122D03*
Y0021682D03*
Y0019962D03*
Y0019402D03*
X0043207Y0028733D03*
Y0029293D03*
X0039343Y0029639D03*
Y0029079D03*
X0028635Y0016304D03*
Y0016864D03*
Y0023620D03*
Y0024180D03*
X0029834Y0020296D03*
Y0019736D03*
X0026845Y0015438D03*
Y0014878D03*
X0023541Y0015438D03*
Y0014878D03*
X0020493Y0026668D03*
Y0027228D03*
X0024190Y0026629D03*
Y0027189D03*
X0027455Y0026865D03*
Y0027425D03*
X0028635Y0017641D03*
Y0018201D03*
X0019431Y0026668D03*
Y0027228D03*
X0020733Y0013054D03*
Y0013614D03*
X0019254Y0031231D03*
Y0031791D03*
X0022577Y0012882D03*
Y0013442D03*
X0024367Y0015438D03*
Y0014878D03*
X0025193Y0015438D03*
Y0014878D03*
X0027219Y0012803D03*
Y0013363D03*
X0026019Y0015438D03*
Y0014878D03*
G54D16*
X0034020Y0026806D03*
X0035020D03*
X0017841Y0029874D03*
X0032807Y0029244D03*
X0031807D03*
X0030807D03*
X0029807D03*
X0028807D03*
X0032155Y0011272D03*
G54D17*
X0033020Y0026806D03*
X0018841Y0029874D03*
X0033807Y0029244D03*
X0032155Y0012272D03*
G54D18*
X0028772Y0006920D03*
X0029772Y0005920D03*
Y0006920D03*
X0030772Y0005920D03*
Y0006920D03*
X0031772Y0005920D03*
Y0006920D03*
X0035774Y0005923D03*
X0034774Y0006923D03*
Y0005923D03*
X0033774Y0006923D03*
Y0005923D03*
X0032774Y0006923D03*
Y0005923D03*
G54D19*
X0028772Y0005920D03*
X0035774Y0006923D03*
G54D24*
X0041044Y0023541D03*
X0040204D03*
X0040199Y0024406D03*
X0041039D03*
X0047371Y0029514D03*
Y0028674D03*
X0047382Y0030488D03*
Y0031328D03*
G54D129*
X0032304Y0018282D03*
X0019057Y0007864D03*
X0025468Y0006808D03*
G54D130*
X0032304Y0019282D03*
X0019057Y0006864D03*
X0025468Y0007808D03*
M02*
