*
G04 Mass Parameters ***
*
G04 Image ***
*
%INC:\CAIN\ONLY_AT91\ONLY_AT91_2SIDE_V4.SST*%
%ICAS*%
%MOIN*%
%IPPOS*%
%ASAXBY*%
G74*%FSLAN2X34Y34*%
*
G04 Aperture Definitions ***
*
%AMTHERMAL37*
1,1,0.1110,0,0,*
1,0,0.0870,0,0,*
21,0,0.1110,0.0100,0,0,315.0*
21,0,0.1110,0.0100,0,0,45.0*%
%AMTHERMAL38*
1,1,0.1370,0,0,*
1,0,0.1130,0,0,*
21,0,0.1370,0.0100,0,0,315.0*
21,0,0.1370,0.0100,0,0,45.0*%
%AMTHERMAL41*
1,1,0.1080,0,0,*
1,0,0.0840,0,0,*
21,0,0.1080,0.0100,0,0,45.0*
21,0,0.1080,0.0100,0,0,135.0*%
%AMTHERMAL46*
1,1,0.1840,0,0,*
1,0,0.1600,0,0,*
21,0,0.1840,0.0100,0,0,315.0*
21,0,0.1840,0.0100,0,0,45.0*%
%AMTHERMAL48*
1,1,0.1080,0,0,*
1,0,0.0840,0,0,*
21,0,0.1080,0.0100,0,0,225.0*
21,0,0.1080,0.0100,0,0,315.0*%
%AMTHERMAL72*
1,1,0.1110,0,0,*
1,0,0.0870,0,0,*
21,0,0.1110,0.0100,0,0,225.0*
21,0,0.1110,0.0100,0,0,315.0*%
%AMTHERMAL73*
1,1,0.1370,0,0,*
1,0,0.1130,0,0,*
21,0,0.1370,0.0100,0,0,225.0*
21,0,0.1370,0.0100,0,0,315.0*%
%AMTHERMAL74*
1,1,0.1080,0,0,*
1,0,0.0840,0,0,*
21,0,0.1080,0.0100,0,0,135.0*
21,0,0.1080,0.0100,0,0,225.0*%
%AMTHERMAL89*
1,1,0.1120,0,0,*
1,0,0.0880,0,0,*
21,0,0.1120,0.0100,0,0,45.0*
21,0,0.1120,0.0100,0,0,135.0*%
%AMTHERMAL91*
1,1,0.1020,0,0,*
1,0,0.0780,0,0,*
21,0,0.1020,0.0100,0,0,45.0*
21,0,0.1020,0.0100,0,0,135.0*%
%AMTHERMAL94*
1,1,0.1020,0,0,*
1,0,0.0780,0,0,*
21,0,0.1020,0.0100,0,0,46.2*
21,0,0.1020,0.0100,0,0,136.2*%
%AMTHERMAL108*
1,1,0.1160,0,0,*
1,0,0.0920,0,0,*
21,0,0.1160,0.0100,0,0,225.0*
21,0,0.1160,0.0100,0,0,315.0*%
%AMTHERMAL109*
1,1,0.1110,0,0,*
1,0,0.0870,0,0,*
21,0,0.1110,0.0100,0,0,45.0*
21,0,0.1110,0.0100,0,0,135.0*%
%ADD10R,0.0400X0.0500*%
%ADD11R,0.0500X0.0400*%
%ADD12R,0.1030X0.1080*%
%ADD13C,0.0600*%
%ADD14C,0.0870*%
%ADD15C,0.1250*%
%ADD16C,0.0550*%
%ADD17R,0.0550X0.0550*%
%ADD18C,0.0620*%
%ADD19R,0.0620X0.0620*%
%ADD20C,0.0620X0.0310*%
%ADD21R,0.0787X0.0669*%
%ADD22R,0.0590X0.0394*%
%ADD23R,0.0250X0.0750*%
%ADD24R,0.0500X0.0500*%
%ADD25R,0.0750X0.1600*%
%ADD26O,0.0700X0.0110*%
%ADD27R,0.0700X0.0110*%
%ADD28O,0.0110X0.0700*%
%ADD29R,0.0110X0.0700*%
%ADD30C,0.1340*%
%ADD31R,0.0600X0.0100*%
%ADD32R,0.0160X0.0700*%
%ADD33R,0.0138X0.0394*%
%ADD34C,0.0090*%
%ADD35R,0.0197X0.0551*%
%ADD36C,0.0670*%
%ADD37THERMAL37*%
%ADD38THERMAL38*%
%ADD39C,0.1550*%
%ADD40C,0.0750*%
%ADD41THERMAL41*%
%ADD42C,0.0820*%
%ADD43R,0.0820X0.0820*%
%ADD44C,0.0700*%
%ADD45C,0.1400*%
%ADD46THERMAL46*%
%ADD47C,0.0650*%
%ADD48THERMAL48*%
%ADD49C,0.0930*%
%ADD50R,0.0750X0.0750*%
%ADD51C,0.0920*%
%ADD52C,0.1350*%
%ADD53R,0.0300X0.0800*%
%ADD54R,0.0450X0.0550*%
%ADD55R,0.0800X0.1650*%
%ADD56C,0.1390*%
%ADD57R,0.0650X0.0140*%
%ADD58R,0.0210X0.0750*%
%ADD59R,0.0236X0.0590*%
%ADD60C,0.0060*%
%ADD61C,0.0080*%
%ADD62C,0.0100*%
%ADD63C,0.0030*%
%ADD64C,0.0050*%
%ADD65C,0.0039*%
%ADD66C,0.0070*%
%ADD67C,0.0040*%
%ADD68R,0.1600X0.0750*%
%ADD69R,0.0700X0.0160*%
%ADD70R,0.1080X0.1030*%
%ADD71R,0.0100X0.0600*%
%ADD72THERMAL72*%
%ADD73THERMAL73*%
%ADD74THERMAL74*%
%ADD75R,0.1650X0.0800*%
%ADD76R,0.0750X0.0210*%
%ADD77R,0.0140X0.0650*%
%ADD78C,0.0910*%
%ADD79C,0.0320*%
%ADD80C,0.0330*%
%ADD81C,0.0330*%
%ADD82C,0.0250*%
%ADD83C,0.0236*%
%ADD84C,0.0165*%
%ADD85R,0.0440X0.1130*%
%ADD86R,0.0394X0.0138*%
%ADD87R,0.0390X0.0270*%
%ADD88C,0.0300*%
%ADD89THERMAL89*%
%ADD90C,0.0420*%
%ADD91THERMAL91*%
%ADD92C,0.0118*%
%ADD93C,0.0420*%
%ADD94THERMAL94*%
%ADD95C,0.0380*%
%ADD96C,0.0380*%
%ADD97R,0.0440X0.0320*%
%ADD98C,0.0010*%
%ADD99C,0.0020*%
%ADD100C,0.0280*%
%ADD101C,0.0280*%
%ADD102C,0.0200*%
%ADD103C,0.0197*%
%ADD104R,0.0550X0.0350*%
%ADD105R,0.0450X0.0350*%
%ADD106C,0.0069*%
%ADD107C,0.0335*%
%ADD108THERMAL108*%
%ADD109THERMAL109*%
%ADD110C,0.0079*%
%ADD111C,0.0980*%
%ADD112R,0.0670X0.0670*%
%ADD113R,0.0550X0.0450*%
%ADD114R,0.0600X0.0400*%
%ADD115R,0.1000X0.0600*%
%ADD116R,0.1102X0.2283*%
%ADD117C,0.0159*%
%ADD118C,0.0157*%
%ADD119C,0.0354*%
%ADD120C,0.0394*%
%ADD121R,0.0350X0.0550*%
%ADD122R,0.0350X0.0450*%
%ADD123R,0.0880X0.1420*%
%ADD124R,0.0880X0.0480*%
%ADD125R,0.1050X0.0650*%
%ADD126R,0.0400X0.0600*%
%ADD127R,0.0930X0.1470*%
%ADD128R,0.0930X0.0530*%
%ADD129C,0.0580*%
%ADD130R,0.0580X0.0580*%
%ADD131C,0.0315*%
%ADD132C,0.0780*%
%ADD133R,0.0780X0.0780*%
%ADD134C,0.1024*%
%ADD135O,0.0320X0.0394*%
%ADD136C,0.0512*%
%ADD137R,0.0827X0.0630*%
%ADD138R,0.0728X0.0551*%
%ADD139R,0.0472X0.0905*%
*
G04 Plot Data ***
*
G54D60*
G01X0020162Y0008259D02*
X0020218Y0008287D01*
Y0008454D01*
X0020162Y0008482D01*
X0020051D01*
X0019996Y0008426D01*
Y0008259D01*
X0019884D01*
Y0008482D01*
X0020051Y0008112D02*
Y0007889D01*
X0020218Y0007575D02*
X0019884Y0007742D01*
Y0007519D01*
X0020218Y0007372D02*
Y0007261D01*
Y0007316D02*
X0019884D01*
X0019940Y0007261D01*
X0020218Y0007057D02*
Y0006946D01*
Y0007002D02*
X0019884D01*
X0019940Y0006946D01*
X0020218Y0006743D02*
Y0006632D01*
Y0006687D02*
X0019884D01*
X0019940Y0006632D01*
X0020218Y0006317D02*
X0019884D01*
Y0006429D02*
Y0006206D01*
X0020218Y0006059D02*
Y0005864D01*
X0019884D01*
X0027359Y0005253D02*
Y0005647D01*
X0027490D02*
X0027228D01*
X0026977Y0005450D02*
X0027075Y0005253D01*
X0026813Y0005450D02*
X0027009D01*
X0027075Y0005516D01*
Y0005581D01*
X0027009Y0005647D01*
X0026813D01*
Y0005253D01*
X0026430D02*
X0026397Y0005319D01*
Y0005581D01*
X0026430Y0005647D01*
X0026627D01*
X0026660Y0005581D01*
Y0005319D01*
X0026627Y0005253D01*
X0026430D01*
X0025982Y0005450D02*
X0026179D01*
X0026245Y0005516D01*
Y0005581D01*
X0026179Y0005647D01*
X0025982D01*
Y0005253D01*
X0025267D02*
X0025136D01*
X0025201D02*
Y0005647D01*
X0025267D02*
X0025136D01*
X0024655Y0005450D02*
X0024852D01*
X0024917Y0005516D01*
Y0005581D01*
X0024852Y0005647D01*
X0024655D01*
Y0005253D01*
X0024502Y0005581D02*
X0024469Y0005647D01*
X0024272D01*
X0024240Y0005581D01*
Y0005516D01*
X0024272Y0005450D01*
X0024469D01*
X0024502Y0005384D01*
Y0005319D01*
X0024469Y0005253D01*
X0024272D01*
X0024240Y0005319D01*
X0023075Y0031344D02*
X0023242D01*
X0023270Y0031289D01*
Y0031233D01*
X0023242Y0031178D01*
X0023075D01*
X0023047Y0031233D01*
Y0031289D01*
X0023159Y0031511D01*
X0022900Y0031178D02*
X0022677D01*
X0022900Y0031400D01*
Y0031456D01*
X0022872Y0031511D01*
X0022705D01*
X0022677Y0031456D01*
X0022446Y0031344D02*
X0022530Y0031178D01*
X0022307Y0031344D02*
X0022474D01*
X0022530Y0031400D01*
Y0031456D01*
X0022474Y0031511D01*
X0022307D01*
Y0031178D01*
X0025475Y0031243D02*
X0025503Y0031187D01*
X0025670D01*
X0025697Y0031243D01*
Y0031354D01*
X0025642Y0031410D01*
X0025475D01*
Y0031521D01*
X0025697D01*
X0025133Y0031187D02*
Y0031521D01*
X0025105Y0031187D02*
X0025272D01*
X0025327Y0031299D01*
Y0031410D01*
X0025272Y0031521D01*
X0025105D01*
X0024341Y0031243D02*
X0024369Y0031187D01*
X0024536D01*
X0024563Y0031243D01*
Y0031354D01*
X0024508Y0031410D01*
X0024341D01*
Y0031521D01*
X0024563D01*
X0024193Y0031187D02*
X0023971D01*
X0024193Y0031410D01*
Y0031465D01*
X0024166Y0031521D01*
X0023999D01*
X0023971Y0031465D01*
X0023740Y0031354D02*
X0023823Y0031187D01*
X0023601Y0031354D02*
X0023768D01*
X0023823Y0031410D01*
Y0031465D01*
X0023768Y0031521D01*
X0023601D01*
Y0031187D01*
X0021427Y0031325D02*
X0021594D01*
X0021621Y0031269D01*
Y0031214D01*
X0021594Y0031158D01*
X0021427D01*
X0021399Y0031214D01*
Y0031269D01*
X0021510Y0031491D01*
X0021057Y0031158D02*
Y0031491D01*
X0021029Y0031158D02*
X0021196D01*
X0021251Y0031269D01*
Y0031380D01*
X0021196Y0031491D01*
X0021029D01*
X0026668Y0012764D02*
X0026696Y0012820D01*
Y0012876D01*
X0026668Y0012931D01*
X0026501D01*
X0026473Y0012876D01*
Y0012820D01*
X0026501Y0012764D01*
X0026668D01*
X0026696Y0012709D01*
Y0012653D01*
X0026668Y0012598D01*
X0026501D01*
X0026473Y0012653D01*
Y0012709D01*
X0026501Y0012764D01*
X0026326Y0012653D02*
X0026298Y0012598D01*
X0026131D01*
X0026103Y0012653D01*
Y0012876D01*
X0026131Y0012931D01*
X0026298D01*
X0026326Y0012876D01*
X0020658Y0008879D02*
Y0009101D01*
X0020547Y0008990D02*
X0020769D01*
X0018320Y0009555D02*
X0018487Y0009888D01*
X0018265D01*
X0017895Y0009610D02*
X0017922Y0009555D01*
X0018089D01*
X0018117Y0009610D01*
Y0009721D01*
X0018061Y0009777D01*
X0017895D01*
Y0009888D01*
X0018117D01*
X0017747Y0009610D02*
X0017719Y0009555D01*
X0017552D01*
X0017525Y0009610D01*
Y0009833D01*
X0017552Y0009888D01*
X0017719D01*
X0017747Y0009833D01*
X0023510Y0032518D02*
Y0032741D01*
X0023399Y0032629D02*
X0023621D01*
X0022580Y0034501D02*
X0022746D01*
X0022774Y0034446D01*
Y0034390D01*
X0022746Y0034335D01*
X0022580D01*
X0022552Y0034390D01*
Y0034446D01*
X0022663Y0034668D01*
X0022182Y0034390D02*
X0022210Y0034335D01*
X0022376D01*
X0022404Y0034390D01*
Y0034501D01*
X0022349Y0034557D01*
X0022182D01*
Y0034668D01*
X0022404D01*
X0022034Y0034390D02*
X0022006Y0034335D01*
X0021840D01*
X0021812Y0034390D01*
Y0034613D01*
X0021840Y0034668D01*
X0022006D01*
X0022034Y0034613D01*
X0020288Y0029491D02*
Y0029268D01*
X0020399Y0029379D02*
X0020177D01*
X0023218Y0027912D02*
X0023163Y0027968D01*
X0023135Y0028024D01*
Y0028135D01*
X0023163Y0028190D01*
X0023218Y0028246D01*
X0023274D01*
X0023329Y0028190D01*
X0023357Y0028135D01*
Y0028024D01*
X0023329Y0027968D01*
X0023274Y0027912D01*
X0023218D01*
X0022793Y0028079D02*
X0022959D01*
X0022987Y0028024D01*
Y0027968D01*
X0022959Y0027912D01*
X0022793D01*
X0022765Y0027968D01*
Y0028024D01*
X0022876Y0028246D01*
X0022617Y0027968D02*
X0022589Y0027912D01*
X0022423D01*
X0022395Y0027968D01*
Y0028190D01*
X0022423Y0028246D01*
X0022589D01*
X0022617Y0028190D01*
X0027620Y0032479D02*
Y0032701D01*
X0027509Y0032590D02*
X0027731D01*
X0026955Y0034501D02*
X0026788D01*
X0026761Y0034557D01*
Y0034613D01*
X0026788Y0034668D01*
X0026955D01*
X0026983Y0034613D01*
Y0034557D01*
X0026872Y0034335D01*
X0026391Y0034390D02*
X0026418Y0034335D01*
X0026585D01*
X0026613Y0034390D01*
Y0034501D01*
X0026557Y0034557D01*
X0026391D01*
Y0034668D01*
X0026613D01*
X0026243Y0034390D02*
X0026215Y0034335D01*
X0026048D01*
X0026021Y0034390D01*
Y0034613D01*
X0026048Y0034668D01*
X0026215D01*
X0026243Y0034613D01*
X0017534Y0013010D02*
Y0012788D01*
X0017646Y0012899D02*
X0017423D01*
X0019219Y0013329D02*
X0019247Y0013385D01*
Y0013440D01*
X0019219Y0013496D01*
X0019052D01*
X0019025Y0013440D01*
Y0013385D01*
X0019052Y0013329D01*
X0019219D01*
X0019247Y0013274D01*
Y0013218D01*
X0019219Y0013162D01*
X0019052D01*
X0019025Y0013218D01*
Y0013274D01*
X0019052Y0013329D01*
X0018655Y0013218D02*
X0018682Y0013162D01*
X0018849D01*
X0018877Y0013218D01*
Y0013329D01*
X0018821Y0013385D01*
X0018655D01*
Y0013496D01*
X0018877D01*
X0018507Y0013218D02*
X0018479Y0013162D01*
X0018312D01*
X0018285Y0013218D01*
Y0013440D01*
X0018312Y0013496D01*
X0018479D01*
X0018507Y0013440D01*
X0016722Y0028276D02*
X0017056Y0028109D01*
Y0028332D01*
X0016834Y0028674D02*
X0016778D01*
X0016722Y0028646D01*
Y0028535D01*
X0016778Y0028507D01*
X0017056D01*
Y0028479D02*
Y0028591D01*
X0032288Y0008106D02*
X0032065D01*
X0032288Y0008328D01*
Y0008384D01*
X0032260Y0008440D01*
X0032093D01*
X0032065Y0008384D01*
X0031918Y0008106D02*
X0031807D01*
X0031862D02*
Y0008440D01*
X0031807Y0008384D01*
X0031603Y0008106D02*
X0031492D01*
X0031548D02*
Y0008440D01*
X0031492Y0008384D01*
X0031289Y0008162D02*
X0031261Y0008106D01*
X0031094D01*
X0031067Y0008162D01*
Y0008384D01*
X0031094Y0008440D01*
X0031261D01*
X0031289Y0008384D01*
X0017576Y0028775D02*
X0017520Y0028720D01*
X0017465Y0028692D01*
X0017354D01*
X0017298Y0028720D01*
X0017242Y0028775D01*
Y0028831D01*
X0017298Y0028886D01*
X0017354Y0028914D01*
X0017465D01*
X0017520Y0028886D01*
X0017576Y0028831D01*
Y0028775D01*
X0017465Y0028544D02*
Y0028322D01*
X0017242Y0028433D01*
Y0028488D01*
X0017576D01*
Y0027980D02*
X0017242D01*
X0017576Y0027952D02*
Y0028118D01*
X0017465Y0028174D01*
X0017354D01*
X0017242Y0028118D01*
Y0027952D01*
X0037802Y0011262D02*
X0037830Y0011318D01*
Y0011373D01*
X0037802Y0011429D01*
X0037636D01*
X0037608Y0011373D01*
Y0011318D01*
X0037636Y0011262D01*
X0037802D01*
X0037830Y0011207D01*
Y0011151D01*
X0037802Y0011096D01*
X0037636D01*
X0037608Y0011151D01*
Y0011207D01*
X0037636Y0011262D01*
X0037321Y0011096D02*
X0037266Y0011151D01*
X0037238Y0011207D01*
Y0011318D01*
X0037266Y0011373D01*
X0037321Y0011429D01*
X0037377D01*
X0037432Y0011373D01*
X0037460Y0011318D01*
Y0011207D01*
X0037432Y0011151D01*
X0037377Y0011096D01*
X0037321D01*
X0037090D02*
X0036979D01*
X0037035D02*
Y0011429D01*
X0036979Y0011373D01*
X0036776Y0011151D02*
X0036748Y0011096D01*
X0036581D01*
X0036554Y0011151D01*
Y0011373D01*
X0036581Y0011429D01*
X0036748D01*
X0036776Y0011373D01*
X0030660Y0009180D02*
X0030493D01*
X0030465Y0009236D01*
Y0009291D01*
X0030493Y0009347D01*
X0030660D01*
X0030687Y0009291D01*
Y0009236D01*
X0030576Y0009013D01*
X0030317D02*
X0030206D01*
X0030262D02*
Y0009347D01*
X0030206Y0009291D01*
X0029920Y0009180D02*
X0030003Y0009013D01*
X0029781Y0009180D02*
X0029947D01*
X0030003Y0009236D01*
Y0009291D01*
X0029947Y0009347D01*
X0029781D01*
Y0009013D01*
X0042919Y0013799D02*
X0042974Y0013743D01*
X0043085D01*
X0043141Y0013799D01*
Y0013854D01*
X0043030Y0013965D01*
X0043141Y0014076D01*
X0042919D01*
X0042771Y0013743D02*
X0042660D01*
X0042716D02*
Y0014076D01*
X0042660Y0014021D01*
X0042457Y0013743D02*
X0042346D01*
X0042401D02*
Y0014076D01*
X0042346Y0014021D01*
X0042142Y0013799D02*
X0042115Y0013743D01*
X0041948D01*
X0041920Y0013799D01*
Y0014021D01*
X0041948Y0014076D01*
X0042115D01*
X0042142Y0014021D01*
X0033122Y0011968D02*
X0033067Y0011913D01*
X0033011Y0011885D01*
X0032900D01*
X0032845Y0011913D01*
X0032789Y0011968D01*
Y0012024D01*
X0032845Y0012079D01*
X0032900Y0012107D01*
X0033011D01*
X0033067Y0012079D01*
X0033122Y0012024D01*
Y0011968D01*
Y0011737D02*
Y0011626D01*
Y0011682D02*
X0032789D01*
X0032845Y0011626D01*
X0033122Y0011423D02*
Y0011312D01*
Y0011367D02*
X0032789D01*
X0032845Y0011312D01*
X0033067Y0011108D02*
X0033122Y0011081D01*
Y0010914D01*
X0033067Y0010886D01*
X0032845D01*
X0032789Y0010914D01*
Y0011081D01*
X0032845Y0011108D01*
X0033999Y0011729D02*
Y0011506D01*
X0033777Y0011617D01*
Y0011673D01*
X0034110D01*
X0033777Y0011359D02*
X0034055D01*
X0034110Y0011331D01*
Y0011164D01*
X0034055Y0011136D01*
X0033777D01*
X0037754Y0006734D02*
Y0006511D01*
X0037532Y0006734D01*
X0037476D01*
X0037420Y0006706D01*
Y0006539D01*
X0037476Y0006511D01*
X0037754Y0006169D02*
X0037420D01*
X0037754Y0006141D02*
Y0006308D01*
X0037643Y0006364D01*
X0037532D01*
X0037420Y0006308D01*
Y0006141D01*
X0039766Y0010835D02*
X0039711Y0010890D01*
X0039683Y0010946D01*
Y0011057D01*
X0039711Y0011113D01*
X0039766Y0011168D01*
X0039822D01*
X0039877Y0011113D01*
X0039905Y0011057D01*
Y0010946D01*
X0039877Y0010890D01*
X0039822Y0010835D01*
X0039766D01*
X0039535D02*
X0039313D01*
X0039535Y0011057D01*
Y0011113D01*
X0039507Y0011168D01*
X0039341D01*
X0039313Y0011113D01*
X0039082Y0011002D02*
X0039165Y0010835D01*
X0038943Y0011002D02*
X0039110D01*
X0039165Y0011057D01*
Y0011113D01*
X0039110Y0011168D01*
X0038943D01*
Y0010835D01*
X0040058Y0006741D02*
Y0006630D01*
Y0006685D02*
X0039725D01*
X0039781Y0006630D01*
X0040058Y0006232D02*
X0039725D01*
X0040058Y0006204D02*
Y0006371D01*
X0039947Y0006426D01*
X0039836D01*
X0039725Y0006371D01*
Y0006204D01*
X0021909Y0012614D02*
Y0012392D01*
X0021687Y0012503D01*
Y0012558D01*
X0022020D01*
X0021965Y0012244D02*
X0022020Y0012216D01*
Y0012050D01*
X0021965Y0012022D01*
X0021743D01*
X0021687Y0012050D01*
Y0012216D01*
X0021743Y0012244D01*
X0042356Y0026036D02*
X0042024D01*
X0042356Y0025787D02*
Y0026285D01*
X0042024Y0025787D02*
Y0026285D01*
X0041696Y0025787D02*
Y0026285D01*
X0041862D02*
X0041530D01*
X0041285Y0026036D02*
X0041036D01*
X0041368Y0025787D02*
X0041036D01*
Y0026285D01*
X0041368D01*
X0035666Y0011708D02*
X0035555D01*
X0035611D02*
Y0012041D01*
X0035555Y0011986D01*
X0035352Y0011708D02*
X0035241D01*
X0035296D02*
Y0012041D01*
X0035241Y0011986D01*
X0035037Y0011708D02*
X0034926D01*
X0034982D02*
Y0012041D01*
X0034926Y0011986D01*
X0034723Y0011763D02*
X0034695Y0011708D01*
X0034529D01*
X0034501Y0011763D01*
Y0011986D01*
X0034529Y0012041D01*
X0034695D01*
X0034723Y0011986D01*
X0037679Y0008189D02*
Y0007967D01*
X0037457Y0008189D01*
X0037401D01*
X0037345Y0008161D01*
Y0007995D01*
X0037401Y0007967D01*
X0037679Y0007819D02*
Y0007597D01*
X0037457Y0007819D01*
X0037401D01*
X0037345Y0007791D01*
Y0007625D01*
X0037401Y0007597D01*
X0037512Y0007366D02*
X0037679Y0007449D01*
X0037512Y0007227D02*
Y0007393D01*
X0037457Y0007449D01*
X0037401D01*
X0037345Y0007393D01*
Y0007227D01*
X0037679D01*
X0021916Y0011138D02*
X0021971Y0011166D01*
Y0011333D01*
X0021916Y0011360D01*
X0021805D01*
X0021749Y0011305D01*
Y0011138D01*
X0021638D01*
Y0011360D01*
X0021916Y0010990D02*
X0021971Y0010963D01*
Y0010796D01*
X0021916Y0010768D01*
X0021694D01*
X0021638Y0010796D01*
Y0010963D01*
X0021694Y0010990D01*
X0040176Y0008241D02*
Y0008130D01*
Y0008186D02*
X0039843D01*
X0039899Y0008130D01*
X0040176Y0007927D02*
Y0007704D01*
X0039954Y0007927D01*
X0039899D01*
X0039843Y0007899D01*
Y0007732D01*
X0039899Y0007704D01*
X0040010Y0007473D02*
X0040176Y0007557D01*
X0040010Y0007334D02*
Y0007501D01*
X0039954Y0007557D01*
X0039899D01*
X0039843Y0007501D01*
Y0007334D01*
X0040176D01*
X0033686Y0015535D02*
X0033742Y0015590D01*
Y0015701D01*
X0033686Y0015757D01*
X0033631D01*
X0033520Y0015646D01*
X0033408Y0015757D01*
Y0015535D01*
X0033631Y0015387D02*
Y0015165D01*
X0033408Y0015276D01*
Y0015331D01*
X0033742D01*
X0033686Y0015017D02*
X0033742Y0014989D01*
Y0014823D01*
X0033686Y0014795D01*
X0033464D01*
X0033408Y0014823D01*
Y0014989D01*
X0033464Y0015017D01*
X0041394Y0005135D02*
Y0005529D01*
X0041526D02*
X0041263D01*
X0041012Y0005332D02*
X0041110Y0005135D01*
X0040848Y0005332D02*
X0041045D01*
X0041110Y0005398D01*
Y0005463D01*
X0041045Y0005529D01*
X0040848D01*
Y0005135D01*
X0040466D02*
X0040433Y0005201D01*
Y0005463D01*
X0040466Y0005529D01*
X0040662D01*
X0040695Y0005463D01*
Y0005201D01*
X0040662Y0005135D01*
X0040466D01*
X0040018Y0005332D02*
X0040214D01*
X0040280Y0005398D01*
Y0005463D01*
X0040214Y0005529D01*
X0040018D01*
Y0005135D01*
X0039302D02*
X0039072D01*
Y0005529D01*
X0038920Y0005266D02*
X0038657D01*
X0038920Y0005135D02*
Y0005332D01*
X0038821Y0005529D01*
X0038756D01*
X0038657Y0005332D01*
Y0005135D01*
X0038505D02*
X0038373D01*
X0038439D02*
Y0005529D01*
X0038505D02*
X0038373D01*
X0038057Y0005332D02*
X0038155Y0005135D01*
X0037893Y0005332D02*
X0038089D01*
X0038155Y0005398D01*
Y0005463D01*
X0038089Y0005529D01*
X0037893D01*
Y0005135D01*
X0037674Y0005332D02*
X0037477D01*
X0037740Y0005135D02*
X0037477D01*
Y0005529D01*
X0037740D01*
X0037325Y0005463D02*
X0037292Y0005529D01*
X0037095D01*
X0037062Y0005463D01*
Y0005398D01*
X0037095Y0005332D01*
X0037292D01*
X0037325Y0005266D01*
Y0005201D01*
X0037292Y0005135D01*
X0037095D01*
X0037062Y0005201D01*
X0020915Y0013334D02*
X0020943Y0013279D01*
X0021109D01*
X0021137Y0013334D01*
Y0013445D01*
X0021082Y0013501D01*
X0020915D01*
Y0013612D01*
X0021137D01*
X0020684Y0013445D02*
X0020767Y0013279D01*
X0020545Y0013445D02*
X0020712D01*
X0020767Y0013501D01*
Y0013556D01*
X0020712Y0013612D01*
X0020545D01*
Y0013279D01*
X0025511Y0012588D02*
X0025677Y0012921D01*
X0025455D01*
X0025307Y0012644D02*
X0025280Y0012588D01*
X0025113D01*
X0025085Y0012644D01*
Y0012866D01*
X0025113Y0012921D01*
X0025280D01*
X0025307Y0012866D01*
X0039489Y0025570D02*
X0039378D01*
X0039434D02*
Y0025904D01*
X0039378Y0025848D01*
X0039175Y0025570D02*
X0039064D01*
X0039119D02*
Y0025904D01*
X0039064Y0025848D01*
X0038777Y0025737D02*
X0038861Y0025570D01*
X0038638Y0025737D02*
X0038805D01*
X0038861Y0025792D01*
Y0025848D01*
X0038805Y0025904D01*
X0038638D01*
Y0025570D01*
X0033621Y0014444D02*
Y0014222D01*
X0033399Y0014333D01*
Y0014389D01*
X0033732D01*
X0033621Y0014074D02*
Y0013852D01*
X0033399Y0013963D01*
Y0014019D01*
X0033732D01*
X0033677Y0013704D02*
X0033732Y0013677D01*
Y0013510D01*
X0033677Y0013482D01*
X0033454D01*
X0033399Y0013510D01*
Y0013677D01*
X0033454Y0013704D01*
X0030542Y0009849D02*
X0030708Y0010182D01*
X0030486D01*
X0030199Y0009849D02*
X0030144Y0009905D01*
X0030116Y0009960D01*
Y0010071D01*
X0030144Y0010127D01*
X0030199Y0010182D01*
X0030255D01*
X0030311Y0010127D01*
X0030338Y0010071D01*
Y0009960D01*
X0030311Y0009905D01*
X0030255Y0009849D01*
X0030199D01*
X0029968D02*
X0029857D01*
X0029913D02*
Y0010182D01*
X0029857Y0010127D01*
X0029654Y0009905D02*
X0029626Y0009849D01*
X0029460D01*
X0029432Y0009905D01*
Y0010127D01*
X0029460Y0010182D01*
X0029626D01*
X0029654Y0010127D01*
X0037648Y0009086D02*
X0037703Y0009031D01*
X0037814D01*
X0037870Y0009086D01*
Y0009142D01*
X0037759Y0009253D01*
X0037870Y0009364D01*
X0037648D01*
X0037500Y0009031D02*
X0037278D01*
X0037500Y0009253D01*
Y0009308D01*
X0037472Y0009364D01*
X0037305D01*
X0037278Y0009308D01*
X0037047Y0009197D02*
X0037130Y0009031D01*
X0036908Y0009197D02*
X0037074D01*
X0037130Y0009253D01*
Y0009308D01*
X0037074Y0009364D01*
X0036908D01*
Y0009031D01*
X0038477Y0011800D02*
X0038533Y0011745D01*
X0038644D01*
X0038700Y0011800D01*
Y0011856D01*
X0038588Y0011967D01*
X0038700Y0012078D01*
X0038477D01*
X0038135Y0011745D02*
Y0012078D01*
X0038107Y0011745D02*
X0038274D01*
X0038330Y0011856D01*
Y0011967D01*
X0038274Y0012078D01*
X0038107D01*
X0019906Y0028859D02*
X0019851Y0028803D01*
X0019795Y0028775D01*
X0019684D01*
X0019629Y0028803D01*
X0019573Y0028859D01*
Y0028914D01*
X0019629Y0028970D01*
X0019684Y0028998D01*
X0019795D01*
X0019851Y0028970D01*
X0019906Y0028914D01*
Y0028859D01*
X0019795Y0028628D02*
Y0028405D01*
X0019573Y0028517D01*
Y0028572D01*
X0019906D01*
X0019740Y0028174D02*
X0019906Y0028258D01*
X0019740Y0028035D02*
Y0028202D01*
X0019684Y0028258D01*
X0019629D01*
X0019573Y0028202D01*
Y0028035D01*
X0019906D01*
X0038601Y0013971D02*
X0038434D01*
X0038462Y0014026D01*
X0038573Y0014137D01*
X0038601Y0014193D01*
X0038434D01*
X0038287Y0014137D02*
X0038064D01*
X0038287Y0013971D02*
Y0014304D01*
X0038064Y0013971D02*
Y0014304D01*
X0037917Y0013971D02*
Y0014304D01*
X0037861Y0014249D01*
X0037805Y0014137D01*
X0037750Y0014249D01*
X0037694Y0014304D01*
Y0013971D01*
X0037324Y0014026D02*
X0037352Y0013971D01*
X0037519D01*
X0037547Y0014026D01*
Y0014137D01*
X0037491Y0014193D01*
X0037324D01*
Y0014304D01*
X0037547D01*
X0037177Y0013971D02*
X0036954D01*
X0037177Y0014193D01*
Y0014249D01*
X0037149Y0014304D01*
X0036982D01*
X0036954Y0014249D01*
X0022953Y0008538D02*
X0021493D01*
Y0008078D01*
Y0006358D02*
Y0005898D01*
X0022953D01*
X0022018Y0032496D02*
Y0031696D01*
X0020768D01*
Y0032496D01*
X0022018D01*
X0023355D02*
Y0031696D01*
X0022105D01*
Y0032496D01*
X0023355D01*
X0024789Y0031696D02*
Y0032496D01*
X0026039D01*
Y0031696D01*
X0024789D01*
X0023442D02*
Y0032496D01*
X0024692D01*
Y0031696D01*
X0023442D01*
X0025862Y0013098D02*
Y0013906D01*
X0026959D01*
X0026963Y0013098D01*
X0025862D01*
X0021649Y0033685D02*
Y0034185D01*
X0022999D01*
X0023349Y0033835D01*
Y0033685D01*
X0022149Y0029024D02*
Y0029524D01*
X0020799D01*
X0020449Y0029174D01*
Y0029024D01*
X0022149Y0028324D02*
Y0027824D01*
X0020799D01*
X0020449Y0028174D01*
Y0028324D01*
X0025759Y0032946D02*
Y0032446D01*
X0027109D01*
X0027459Y0032796D01*
Y0032946D01*
X0025759Y0033646D02*
Y0034146D01*
X0027109D01*
X0027459Y0033796D01*
Y0033646D01*
X0019396Y0012543D02*
Y0013043D01*
X0018046D01*
X0017696Y0012693D01*
Y0012543D01*
X0019396Y0011843D02*
Y0011343D01*
X0018046D01*
X0017696Y0011693D01*
Y0011843D01*
X0018797Y0009346D02*
Y0008846D01*
X0020147D01*
X0020497Y0009196D01*
Y0009346D01*
X0018797Y0010046D02*
Y0010546D01*
X0020147D01*
X0020497Y0010196D01*
Y0010046D01*
X0021649Y0032985D02*
Y0032485D01*
X0022999D01*
X0023349Y0032835D01*
Y0032985D01*
X0019418Y0027818D02*
X0018618D01*
Y0029068D01*
X0019418D01*
Y0027818D01*
X0017752Y0029058D02*
X0018552D01*
Y0027808D01*
X0017752D01*
Y0029058D01*
X0022053Y0012733D02*
X0021253D01*
Y0013983D01*
X0022053D01*
Y0012733D01*
X0025724Y0013926D02*
Y0013126D01*
X0024607D01*
Y0013926D01*
X0025724D01*
X0037871Y0007012D02*
X0038671D01*
Y0005762D01*
X0037871D01*
Y0007012D01*
X0038789Y0008957D02*
X0037989D01*
Y0010207D01*
X0038789D01*
Y0008957D01*
X0037875Y0008392D02*
X0038675D01*
Y0007142D01*
X0037875D01*
Y0008392D01*
X0022236Y0013050D02*
X0023036D01*
Y0011800D01*
X0022236D01*
Y0013050D01*
X0041840Y0014370D02*
Y0015170D01*
X0043090D01*
Y0014370D01*
X0041840D01*
X0033224Y0008053D02*
X0032424D01*
Y0009303D01*
X0033224D01*
Y0008053D01*
X0037806Y0009665D02*
X0037006D01*
Y0010915D01*
X0037806D01*
Y0009665D01*
X0032107Y0009525D02*
Y0008725D01*
X0030857D01*
Y0009525D01*
X0032107D01*
X0033224Y0009410D02*
X0032424D01*
Y0010660D01*
X0033224D01*
Y0009410D01*
X0034424Y0010661D02*
X0035034D01*
Y0010481D01*
X0035334D01*
Y0010661D01*
X0035954D01*
Y0008101D01*
X0034424D01*
Y0010661D01*
X0038855Y0010572D02*
X0039655D01*
Y0009322D01*
X0038855D01*
Y0010572D01*
X0038819Y0007016D02*
X0039619D01*
Y0005766D01*
X0038819D01*
Y0007016D01*
X0035804Y0011610D02*
Y0010810D01*
X0034554D01*
Y0011610D01*
X0035804D01*
X0023036Y0010511D02*
X0022236D01*
Y0011761D01*
X0023036D01*
Y0010511D01*
X0038819Y0008402D02*
X0039619D01*
Y0007152D01*
X0038819D01*
Y0008402D01*
X0033879Y0015901D02*
X0034679D01*
Y0014651D01*
X0033879D01*
Y0015901D01*
X0039379Y0024101D02*
X0038579D01*
Y0025351D01*
X0039379D01*
Y0024101D01*
X0034679Y0013284D02*
X0033879D01*
Y0014534D01*
X0034679D01*
Y0013284D01*
X0030866Y0009610D02*
Y0010410D01*
X0032116D01*
Y0009610D01*
X0030866D01*
X0038789Y0010314D02*
X0037989D01*
Y0011564D01*
X0038789D01*
Y0010314D01*
G01X0022524Y0034135D02*
G03X0021849Y0033685I0000000J0000731D01*
G01X0023199D02*
G03X0022524Y0034135I0000675J0000281D01*
Y0032531D02*
G03X0023199Y0032985I0000000J0000729D01*
G01X0021849D02*
G03X0022524Y0032531I0000675J0000275D01*
G01X0021274Y0027873D02*
G03X0021949Y0028324I0000000J0000731D01*
G01X0020599D02*
G03X0021274Y0027873I0000675J0000280D01*
Y0029478D02*
G03X0020599Y0029024I0000000J0000729D01*
G01X0021949D02*
G03X0021274Y0029478I0000675J0000275D01*
G01X0026634Y0034096D02*
G03X0025959Y0033646I0000000J0000731D01*
G01X0027309D02*
G03X0026634Y0034096I0000675J0000281D01*
Y0032492D02*
G03X0027309Y0032946I0000000J0000729D01*
G01X0025959D02*
G03X0026634Y0032492I0000675J0000275D01*
G01X0018521Y0011393D02*
G03X0019196Y0011843I0000000J0000731D01*
G01X0017846D02*
G03X0018521Y0011393I0000675J0000281D01*
Y0012997D02*
G03X0017846Y0012543I0000000J0000729D01*
G01X0019196D02*
G03X0018521Y0012997I0000675J0000275D01*
G01X0019672Y0010496D02*
G03X0018997Y0010046I0000000J0000731D01*
G01X0020347D02*
G03X0019672Y0010496I0000675J0000281D01*
Y0008892D02*
G03X0020347Y0009346I0000000J0000729D01*
G01X0018997D02*
G03X0019672Y0008892I0000675J0000275D01*
G01X0034604Y0010414D02*
G03X0034681Y0010491I0000000J0000077D01*
G01X0034527D02*
G03X0034604Y0010414I0000077J0000000D01*
Y0010567D02*
G03X0034528Y0010491I0000000J0000076D01*
G01X0034680D02*
G03X0034604Y0010567I0000076J0000000D01*
G54D61*
G01X0033892Y0018563D02*
X0033864Y0018508D01*
X0033697D01*
X0033669Y0018563D01*
Y0018786D01*
X0033697Y0018841D01*
X0033864D01*
X0033892Y0018786D01*
X0033482Y0018508D02*
X0033259D01*
X0033482Y0018730D01*
Y0018786D01*
X0033454Y0018841D01*
X0033287D01*
X0033259Y0018786D01*
X0033072Y0018508D02*
X0032961D01*
X0033016D02*
Y0018841D01*
X0033072D02*
X0032961D01*
X0032251Y0020225D02*
X0032140D01*
X0032195D02*
Y0020558D01*
X0032140Y0020503D01*
X0019224Y0005919D02*
Y0005808D01*
Y0005864D02*
X0018891D01*
X0018947Y0005808D01*
X0019224Y0005919D02*
Y0005808D01*
Y0005864D02*
X0018891D01*
X0018947Y0005808D01*
X0018096Y0007933D02*
X0018151Y0007878D01*
X0018262D01*
X0018318Y0007933D01*
Y0007989D01*
X0018207Y0008100D01*
X0018318Y0008211D01*
X0018096D01*
X0017908Y0007878D02*
X0017797D01*
X0017852D02*
Y0008211D01*
X0017797Y0008155D01*
X0017359Y0007989D02*
Y0007933D01*
X0017387Y0007878D01*
X0017498D01*
X0017526Y0007933D01*
Y0008211D01*
X0017554D02*
X0017442D01*
X0024747Y0007846D02*
X0024636D01*
X0024691D02*
Y0008180D01*
X0024636Y0008124D01*
X0027023Y0007897D02*
X0026912D01*
X0026968D02*
Y0008231D01*
X0026912Y0008175D01*
X0026669Y0007897D02*
X0026558D01*
X0026613D02*
Y0008231D01*
X0026558Y0008175D01*
X0026120Y0008008D02*
Y0007953D01*
X0026148Y0007897D01*
X0026259D01*
X0026287Y0007953D01*
Y0008231D01*
X0026315D02*
X0026203D01*
X0020395Y0029857D02*
X0020340Y0029912D01*
X0020312Y0029968D01*
Y0030079D01*
X0020340Y0030134D01*
X0020395Y0030190D01*
X0020451D01*
X0020506Y0030134D01*
X0020534Y0030079D01*
Y0029968D01*
X0020506Y0029912D01*
X0020451Y0029857D01*
X0020395D01*
X0020124D02*
X0020013D01*
X0020069D02*
Y0030190D01*
X0020013Y0030134D01*
X0019575Y0029968D02*
Y0029912D01*
X0019603Y0029857D01*
X0019714D01*
X0019742Y0029912D01*
Y0030190D01*
X0019770D02*
X0019659D01*
X0028133Y0006752D02*
X0027911D01*
X0028133Y0006974D01*
Y0007030D01*
X0028106Y0007085D01*
X0027939D01*
X0027911Y0007030D01*
X0028078Y0005752D02*
X0027967D01*
X0028022D02*
Y0006085D01*
X0027967Y0006030D01*
X0028133Y0006752D02*
X0027911D01*
X0028133Y0006974D01*
Y0007030D01*
X0028106Y0007085D01*
X0027939D01*
X0027911Y0007030D01*
X0028078Y0005752D02*
X0027967D01*
X0028022D02*
Y0006085D01*
X0027967Y0006030D01*
X0031448Y0011466D02*
X0031226D01*
X0031448Y0011688D01*
Y0011744D01*
X0031420Y0011799D01*
X0031254D01*
X0031226Y0011744D01*
X0030844Y0011577D02*
Y0011521D01*
X0030872Y0011466D01*
X0030983D01*
X0031010Y0011521D01*
Y0011799D01*
X0031038D02*
X0030927D01*
X0039871Y0017615D02*
X0039649D01*
X0039871Y0017837D01*
Y0017892D01*
X0039843Y0017948D01*
X0039677D01*
X0039649Y0017892D01*
X0039461Y0017948D02*
Y0017670D01*
X0039433Y0017615D01*
X0039267D01*
X0039239Y0017670D01*
Y0017948D01*
X0034036Y0028054D02*
X0033869D01*
X0033952D02*
Y0028553D01*
X0033869Y0028470D01*
X0032697Y0028304D02*
X0032864D01*
Y0028138D01*
X0032822Y0028054D01*
X0032573D01*
X0032531Y0028138D01*
Y0028470D01*
X0032573Y0028553D01*
X0032822D01*
X0032864Y0028470D01*
X0032330Y0028221D02*
X0031997D01*
X0032330Y0028054D02*
Y0028304D01*
X0032205Y0028553D01*
X0032122D01*
X0031997Y0028304D01*
Y0028054D01*
X0031629D02*
Y0028553D01*
X0031796D02*
X0031463D01*
X0030971Y0028221D02*
Y0028138D01*
X0031012Y0028054D01*
X0031179D01*
X0031220Y0028138D01*
Y0028553D01*
X0031262D02*
X0031096D01*
X0036578Y0005660D02*
X0036356D01*
X0036578Y0005882D01*
Y0005938D01*
X0036550Y0005993D01*
X0036384D01*
X0036356Y0005938D01*
X0036581Y0006856D02*
X0036470D01*
X0036526D02*
Y0007190D01*
X0036470Y0007134D01*
X0027102Y0016754D02*
X0027047Y0016810D01*
X0027019Y0016865D01*
Y0016976D01*
X0027047Y0017032D01*
X0027102Y0017088D01*
X0027158D01*
X0027214Y0017032D01*
X0027241Y0016976D01*
Y0016865D01*
X0027214Y0016810D01*
X0027158Y0016754D01*
X0027102D01*
X0026692D02*
X0026637Y0016810D01*
X0026609Y0016865D01*
Y0016976D01*
X0026637Y0017032D01*
X0026692Y0017088D01*
X0026748D01*
X0026804Y0017032D01*
X0026831Y0016976D01*
Y0016865D01*
X0026804Y0016810D01*
X0026748Y0016754D01*
X0026692D01*
X0026421D02*
X0026199D01*
X0026421Y0016976D01*
Y0017032D01*
X0026394Y0017088D01*
X0026227D01*
X0026199Y0017032D01*
X0025984Y0016921D02*
X0025817D01*
X0025789Y0016976D01*
Y0017032D01*
X0025817Y0017088D01*
X0025984D01*
X0026011Y0017032D01*
Y0016976D01*
X0025900Y0016754D01*
X0025601D02*
Y0017088D01*
X0025546Y0017032D01*
X0025490Y0016921D01*
X0025435Y0017032D01*
X0025379Y0017088D01*
Y0016754D01*
X0025108Y0016921D02*
X0025191Y0016754D01*
X0024969Y0016921D02*
X0025136D01*
X0025191Y0016976D01*
Y0017032D01*
X0025136Y0017088D01*
X0024969D01*
Y0016754D01*
X0024781D02*
X0024670D01*
X0024726D02*
Y0017088D01*
X0024670Y0017032D01*
X0024399Y0016921D02*
X0024233D01*
X0024205Y0016976D01*
Y0017032D01*
X0024233Y0017088D01*
X0024399D01*
X0024427Y0017032D01*
Y0016976D01*
X0024316Y0016754D01*
X0023906D02*
Y0017088D01*
X0024017D02*
X0023795D01*
X0023607Y0016865D02*
X0023385D01*
X0023607Y0016754D02*
Y0016921D01*
X0023524Y0017088D01*
X0023468D01*
X0023385Y0016921D01*
Y0016754D01*
X0032804Y0017782D02*
X0031804D01*
Y0019782D01*
X0032804D01*
Y0017782D01*
X0018557Y0008364D02*
X0019557D01*
Y0006364D01*
X0018557D01*
Y0008364D01*
X0025968Y0006308D02*
X0024968D01*
Y0008308D01*
X0025968D01*
Y0006308D01*
X0032520Y0026306D02*
X0035520D01*
Y0027306D01*
X0032520D01*
Y0026306D01*
X0032470Y0026256D01*
X0019341Y0030374D02*
X0017341D01*
Y0029374D01*
X0019341D01*
Y0030374D01*
X0019391Y0030424D01*
X0034307Y0029744D02*
X0028307D01*
Y0028744D01*
X0034307D01*
Y0029744D01*
X0034357Y0029794D01*
X0045354Y0032759D02*
X0040824D01*
X0039014Y0032749D01*
Y0026539D01*
X0045334D01*
X0045391Y0032769D02*
X0047224D01*
Y0033139D01*
X0047714D01*
Y0032779D01*
X0047224D01*
Y0033139D01*
X0047714D01*
Y0032769D01*
X0048104D01*
Y0026539D01*
X0047724D01*
Y0026139D01*
X0047214D01*
Y0026529D01*
X0045410D01*
X0014509Y0029902D02*
Y0009902D01*
X0016509D01*
Y0029902D01*
X0014509D01*
X0031655Y0012772D02*
Y0010772D01*
X0032655D01*
Y0012772D01*
X0031655D01*
X0031605Y0012822D01*
X0033934Y0010731D02*
X0033734Y0010931D01*
X0034134D01*
X0033934Y0010731D01*
X0017059Y0029802D02*
X0016659Y0029402D01*
X0017059Y0029002D01*
Y0029802D01*
X0024993Y0010491D02*
Y0012981D01*
X0022993D02*
Y0010491D01*
X0036754Y0013363D02*
Y0015853D01*
X0034754D02*
Y0013363D01*
G01X0015517Y0030098D02*
G03X0016217Y0030798I0000000J0000700D01*
G01X0014817D02*
G03X0015517Y0030098I0000700J0000000D01*
Y0031498D02*
G03X0014817Y0030798I0000000J0000700D01*
G01X0016217D02*
G03X0015517Y0031498I0000700J0000000D01*
G01X0047023Y0018396D02*
G03X0047723Y0019096I0000000J0000700D01*
G01X0046323D02*
G03X0047023Y0018396I0000700J0000000D01*
Y0019796D02*
G03X0046323Y0019096I0000000J0000700D01*
G01X0047723D02*
G03X0047023Y0019796I0000700J0000000D01*
G01X0023993Y0009539D02*
G03X0024993Y0010491I0000000J0001001D01*
G01X0022993D02*
G03X0023993Y0009539I0001000J0000049D01*
Y0013908D02*
G03X0022993Y0012981I0000000J0001003D01*
G01X0024993D02*
G03X0023993Y0013908I0001000J0000076D01*
G01X0015753Y0005711D02*
G03X0016453Y0006411I0000000J0000700D01*
G01X0015053D02*
G03X0015753Y0005711I0000700J0000000D01*
Y0007111D02*
G03X0015053Y0006411I0000000J0000700D01*
G01X0016453D02*
G03X0015753Y0007111I0000700J0000000D01*
G01X0047082Y0033146D02*
G03X0047782Y0033846I0000000J0000700D01*
G01X0046382D02*
G03X0047082Y0033146I0000700J0000000D01*
Y0034546D02*
G03X0046382Y0033846I0000000J0000700D01*
G01X0047782D02*
G03X0047082Y0034546I0000700J0000000D01*
G01X0035754Y0012410D02*
G03X0036754Y0013363I0000000J0001001D01*
G01X0034754D02*
G03X0035754Y0012410I0001000J0000048D01*
Y0016780D02*
G03X0034754Y0015853I0000000J0001003D01*
G01X0036754D02*
G03X0035754Y0016780I0001000J0000076D01*
G54D62*
G01X0044705Y0007863D02*
X0044746Y0007780D01*
X0044996D01*
X0045038Y0007863D01*
Y0008030D01*
X0044955Y0008113D01*
X0044705D01*
Y0008280D01*
X0045038D01*
X0044380Y0007780D02*
X0044463D01*
Y0007863D01*
X0044380D01*
Y0007780D01*
X0044055D02*
X0043888D01*
X0043971D02*
Y0008280D01*
X0043888Y0008197D01*
X0043563Y0008280D02*
Y0008113D01*
X0043396Y0007780D01*
X0043230Y0008113D01*
Y0008280D01*
X0028688Y0029966D02*
Y0030466D01*
X0028646Y0029966D02*
X0028896D01*
X0028980Y0030049D01*
Y0030132D01*
X0028938Y0030216D01*
X0028688D02*
X0028938D01*
X0028980Y0030299D01*
Y0030382D01*
X0028896Y0030466D01*
X0028646D01*
X0028405Y0030382D02*
X0028363Y0030466D01*
X0028113D01*
X0028071Y0030382D01*
Y0030299D01*
X0028113Y0030216D01*
X0028363D01*
X0028405Y0030132D01*
Y0030049D01*
X0028363Y0029966D01*
X0028113D01*
X0028071Y0030049D01*
X0027830Y0030466D02*
Y0030049D01*
X0027788Y0029966D01*
X0027538D01*
X0027496Y0030049D01*
Y0030466D01*
X0020046Y0034323D02*
X0020296Y0034448D01*
X0020046Y0034114D02*
Y0034364D01*
X0019963Y0034448D01*
X0019880D01*
X0019796Y0034364D01*
Y0034114D01*
X0020296D01*
X0020046Y0033789D02*
Y0033539D01*
X0020296Y0033873D02*
Y0033539D01*
X0019796D01*
Y0033873D01*
Y0033298D02*
X0020213D01*
X0020296Y0033256D01*
X0020046Y0033131D01*
X0019963D02*
X0020046D01*
X0020296Y0033006D01*
X0020213Y0032964D01*
X0019796D01*
X0020296Y0032431D02*
X0020213Y0032389D01*
X0019880D01*
X0019796Y0032431D01*
Y0032681D01*
X0019880Y0032723D01*
X0020213D01*
X0020296Y0032681D01*
Y0032431D01*
X0020046Y0031814D02*
Y0032064D01*
X0019963Y0032148D01*
X0019880D01*
X0019796Y0032064D01*
Y0031814D01*
X0020296D01*
X0037863Y0030222D02*
Y0030722D01*
X0038030D02*
X0037697D01*
X0037372Y0030472D02*
X0037122D01*
X0037455Y0030222D02*
X0037122D01*
Y0030722D01*
X0037455D01*
X0036880Y0030639D02*
X0036838Y0030722D01*
X0036588D01*
X0036547Y0030639D01*
Y0030556D01*
X0036588Y0030472D01*
X0036838D01*
X0036880Y0030389D01*
Y0030306D01*
X0036838Y0030222D01*
X0036588D01*
X0036547Y0030306D01*
X0036222Y0030472D02*
X0035972D01*
X0036305Y0030222D02*
X0035972D01*
Y0030722D01*
X0036305D01*
X0035605Y0030472D02*
X0035730Y0030222D01*
X0035397Y0030472D02*
X0035647D01*
X0035730Y0030556D01*
Y0030639D01*
X0035647Y0030722D01*
X0035397D01*
Y0030222D01*
X0028693Y0016435D02*
X0028749Y0016491D01*
Y0016602D01*
X0028693Y0016658D01*
X0028638D01*
X0028527Y0016547D01*
X0028415Y0016658D01*
Y0016435D01*
X0028693Y0015985D02*
X0028749Y0016013D01*
Y0016180D01*
X0028693Y0016208D01*
X0028582D01*
X0028527Y0016152D01*
Y0015985D01*
X0028415D01*
Y0016208D01*
X0027876Y0025973D02*
X0027848Y0026028D01*
X0027681D01*
X0027654Y0025973D01*
Y0025861D01*
X0027709Y0025806D01*
X0027876D01*
Y0025695D01*
X0027654D01*
X0028243Y0026028D02*
X0028298Y0025973D01*
X0028326Y0025917D01*
Y0025806D01*
X0028298Y0025750D01*
X0028243Y0025695D01*
X0028187D01*
X0028131Y0025750D01*
X0028104Y0025806D01*
Y0025917D01*
X0028131Y0025973D01*
X0028187Y0026028D01*
X0028243D01*
X0028554D02*
X0028665D01*
X0028609D02*
Y0025695D01*
X0028665Y0025750D01*
X0036431Y0019491D02*
X0036320D01*
X0036375D02*
Y0019824D01*
X0036320Y0019769D01*
X0039543Y0020108D02*
X0039209Y0020275D01*
Y0020052D01*
X0039543Y0019825D02*
Y0019714D01*
Y0019769D02*
X0039209D01*
X0039265Y0019714D01*
X0038801Y0022770D02*
X0038745Y0022826D01*
X0038634D01*
X0038578Y0022770D01*
Y0022715D01*
X0038689Y0022604D01*
X0038578Y0022492D01*
X0038801D01*
X0039251Y0022770D02*
X0039195Y0022826D01*
X0039084D01*
X0039028Y0022770D01*
Y0022715D01*
X0039139Y0022604D01*
X0039028Y0022492D01*
X0039251D01*
X0036374Y0021889D02*
Y0022056D01*
X0036430Y0022084D01*
X0036486D01*
X0036541Y0022056D01*
Y0021889D01*
X0036486Y0021861D01*
X0036430D01*
X0036208Y0021972D01*
X0036319Y0022311D02*
Y0022534D01*
X0036541Y0022422D01*
Y0022367D01*
X0036208D01*
X0018762Y0015943D02*
X0018651D01*
X0018706D02*
Y0016277D01*
X0018651Y0016221D01*
X0018664Y0024850D02*
X0018997Y0024683D01*
Y0024905D01*
X0018719Y0025355D02*
X0018664Y0025327D01*
Y0025161D01*
X0018719Y0025133D01*
X0018830D01*
X0018886Y0025189D01*
Y0025355D01*
X0018997D01*
Y0025133D01*
X0018664Y0025583D02*
Y0025694D01*
Y0025638D02*
X0018997D01*
X0018942Y0025694D01*
X0026210Y0008922D02*
X0026013D01*
X0026046Y0008987D01*
X0026177Y0009119D01*
X0026210Y0009184D01*
X0026013D01*
X0025780Y0009119D02*
X0025518D01*
X0025780Y0008922D02*
Y0009316D01*
X0025518Y0008922D02*
Y0009316D01*
X0025285Y0008922D02*
Y0009316D01*
X0025220Y0009250D01*
X0025154Y0009119D01*
X0025088Y0009250D01*
X0025023Y0009316D01*
Y0008922D01*
X0024790D02*
X0024528D01*
X0024790Y0009184D01*
Y0009250D01*
X0024757Y0009316D01*
X0024560D01*
X0024528Y0009250D01*
X0024032Y0008987D02*
X0024098Y0008922D01*
X0024229D01*
X0024295Y0008987D01*
Y0009053D01*
X0024164Y0009184D01*
X0024295Y0009316D01*
X0024032D01*
X0023800Y0009053D02*
X0023537D01*
X0023669Y0009316D01*
X0023734D01*
Y0008922D01*
X0023239D02*
X0023305D01*
Y0008987D01*
X0023239D01*
Y0008922D01*
X0022908Y0009119D02*
X0022941Y0009184D01*
Y0009250D01*
X0022908Y0009316D01*
X0022711D01*
X0022678Y0009250D01*
Y0009184D01*
X0022711Y0009119D01*
X0022908D01*
X0022941Y0009053D01*
Y0008987D01*
X0022908Y0008922D01*
X0022711D01*
X0022678Y0008987D01*
Y0009053D01*
X0022711Y0009119D01*
X0022445Y0008922D02*
X0022314D01*
X0022380D02*
Y0009316D01*
X0022314Y0009250D01*
X0044831Y0009063D02*
X0044789Y0008980D01*
X0044539D01*
X0044498Y0009063D01*
Y0009396D01*
X0044539Y0009480D01*
X0044789D01*
X0044831Y0009396D01*
X0043964Y0008980D02*
Y0009480D01*
X0043923Y0008980D02*
X0044173D01*
X0044256Y0009063D01*
Y0009146D01*
X0044214Y0009230D01*
X0043964D02*
X0044214D01*
X0044256Y0009313D01*
Y0009396D01*
X0044173Y0009480D01*
X0043923D01*
X0043681Y0009396D02*
X0043639Y0009480D01*
X0043389D01*
X0043348Y0009396D01*
Y0009313D01*
X0043389Y0009230D01*
X0043639D01*
X0043681Y0009146D01*
Y0009063D01*
X0043639Y0008980D01*
X0043389D01*
X0043348Y0009063D01*
X0047144Y0010081D02*
Y0010331D01*
X0047102Y0010414D01*
X0046852D01*
Y0010081D01*
X0046360Y0010414D02*
X0046527D01*
X0046569Y0010331D01*
Y0010164D01*
X0046610Y0010081D01*
X0046319D01*
X0046277Y0010164D01*
X0046319Y0010248D01*
X0046569D01*
X0045951Y0010580D02*
Y0010581D01*
X0045952D01*
Y0010580D01*
X0045951D01*
X0046035Y0010081D02*
X0045869D01*
X0045952D02*
Y0010414D01*
X0045869D01*
X0045294D02*
X0045544D01*
X0045585Y0010331D01*
Y0010164D01*
X0045544Y0010081D01*
X0045294D01*
Y0010581D01*
X0045010Y0010081D02*
X0044760D01*
X0044719Y0010164D01*
Y0010331D01*
X0044760Y0010414D01*
X0045010D01*
X0045052Y0010331D01*
Y0010248D01*
X0044719D01*
X0044185Y0010081D02*
Y0010581D01*
X0044144Y0010081D02*
X0044394D01*
X0044477Y0010248D01*
Y0010414D01*
X0044394Y0010581D01*
X0044144D01*
X0043902D02*
X0043652Y0010081D01*
X0043369Y0010414D02*
X0043327Y0010331D01*
X0043160Y0010164D01*
X0043119Y0010081D01*
X0043369D02*
X0043327Y0010164D01*
X0043160Y0010331D01*
X0043119Y0010414D01*
X0042835D02*
Y0010081D01*
X0042877D02*
X0042585D01*
X0042544Y0010164D01*
Y0010414D01*
X0042302Y0010081D02*
Y0010331D01*
X0042260Y0010414D01*
X0042010D01*
Y0010081D01*
X0041685Y0010580D02*
Y0010581D01*
X0041686D01*
Y0010580D01*
X0041685D01*
X0041769Y0010081D02*
X0041602D01*
X0041685D02*
Y0010414D01*
X0041602D01*
X0041319Y0010081D02*
X0041027D01*
Y0010581D01*
X0036678Y0007670D02*
X0032522D01*
X0027772D01*
Y0005170D01*
X0036678D01*
Y0007670D01*
X0018922Y0034756D02*
X0013922D01*
Y0031756D01*
X0018922D01*
Y0034756D01*
X0018456Y0026486D02*
X0018206D01*
Y0026236D01*
X0029206D02*
Y0026486D01*
X0028956D01*
Y0015486D02*
X0029206D01*
Y0015736D01*
X0018206D02*
X0018456Y0015486D01*
Y0014924D01*
X0036125Y0023158D02*
X0035875D01*
Y0022908D01*
X0039875D02*
Y0023158D01*
X0039625D01*
Y0019158D02*
X0039875D01*
Y0019408D01*
X0035875D02*
X0036125Y0019158D01*
X0036188D01*
Y0018533D01*
X0034777Y0031304D02*
Y0034304D01*
X0038277D01*
Y0031304D01*
X0034777D01*
G54D63*
G01X0022149Y0032970D02*
X0021832D01*
X0022149Y0032943D02*
X0021847D01*
X0022149Y0032916D02*
X0021864D01*
X0022149Y0032889D02*
X0021883D01*
X0022149Y0032862D02*
X0021903D01*
X0022149Y0032835D02*
X0021926D01*
X0022149Y0032808D02*
X0021950D01*
X0022149Y0032781D02*
X0021978D01*
X0022149Y0032754D02*
X0022008D01*
X0022149Y0032727D02*
X0022042D01*
X0022149Y0032700D02*
X0022080D01*
Y0032985D02*
Y0032700D01*
X0022053Y0032985D02*
Y0032719D01*
X0022026Y0032985D02*
Y0032740D01*
X0021999Y0032985D02*
Y0032762D01*
X0021972Y0032985D02*
Y0032787D01*
X0021945Y0032985D02*
Y0032814D01*
X0021918Y0032985D02*
Y0032844D01*
X0021891Y0032985D02*
Y0032878D01*
X0021864Y0032985D02*
Y0032917D01*
X0021837Y0032985D02*
Y0032961D01*
X0022149Y0032673D02*
X0022125D01*
X0022149Y0032985D02*
X0021824D01*
X0022149D02*
Y0032660D01*
X0022134Y0032985D02*
Y0032668D01*
X0022107Y0032985D02*
Y0032683D01*
X0022149Y0033995D02*
X0022121D01*
X0022149Y0033968D02*
X0022077D01*
X0022149Y0033941D02*
X0022039D01*
X0022149Y0033914D02*
X0022006D01*
X0022149Y0033887D02*
X0021976D01*
X0022149Y0033860D02*
X0021949D01*
X0022149Y0033833D02*
X0021924D01*
X0022149Y0033806D02*
X0021902D01*
X0022149Y0033779D02*
X0021881D01*
X0022149Y0033752D02*
X0021863D01*
X0022149Y0033725D02*
X0021846D01*
X0022080Y0033969D02*
Y0033685D01*
X0022053Y0033951D02*
Y0033685D01*
X0022026Y0033930D02*
Y0033685D01*
X0021999Y0033908D02*
Y0033685D01*
X0021972Y0033883D02*
Y0033685D01*
X0021945Y0033856D02*
Y0033685D01*
X0021918Y0033825D02*
Y0033685D01*
X0021891Y0033791D02*
Y0033685D01*
X0021864Y0033753D02*
Y0033685D01*
X0021837Y0033709D02*
Y0033685D01*
X0022149Y0033698D02*
X0021830D01*
X0022149Y0033685D02*
X0021824D01*
X0022149Y0034010D02*
Y0033685D01*
X0022134Y0034002D02*
Y0033685D01*
X0022107Y0033986D02*
Y0033685D01*
X0021676Y0029334D02*
X0021649D01*
X0021720Y0029307D02*
X0021649D01*
X0021758Y0029280D02*
X0021649D01*
X0021792Y0029253D02*
X0021649D01*
X0021822Y0029226D02*
X0021649D01*
X0021849Y0029199D02*
X0021649D01*
X0021873Y0029172D02*
X0021649D01*
X0021896Y0029145D02*
X0021649D01*
X0021916Y0029118D02*
X0021649D01*
X0021935Y0029091D02*
X0021649D01*
X0021952Y0029064D02*
X0021649D01*
X0021905Y0029133D02*
Y0029024D01*
X0021878Y0029167D02*
Y0029024D01*
X0021851Y0029197D02*
Y0029024D01*
X0021824Y0029224D02*
Y0029024D01*
X0021797Y0029248D02*
Y0029024D01*
X0021770Y0029271D02*
Y0029024D01*
X0021743Y0029291D02*
Y0029024D01*
X0021716Y0029310D02*
Y0029024D01*
X0021689Y0029327D02*
Y0029024D01*
X0021662Y0029342D02*
Y0029024D01*
X0021967Y0029037D02*
X0021649D01*
X0021974Y0029024D02*
X0021649D01*
Y0029349D02*
Y0029024D01*
X0021959Y0029051D02*
Y0029024D01*
X0021932Y0029095D02*
Y0029024D01*
X0021966Y0028309D02*
X0021649D01*
X0021950Y0028282D02*
X0021649D01*
X0021933Y0028255D02*
X0021649D01*
X0021915Y0028228D02*
X0021649D01*
X0021894Y0028201D02*
X0021649D01*
X0021872Y0028174D02*
X0021649D01*
X0021847Y0028147D02*
X0021649D01*
X0021820Y0028120D02*
X0021649D01*
X0021789Y0028093D02*
X0021649D01*
X0021755Y0028066D02*
X0021649D01*
X0021717Y0028039D02*
X0021649D01*
X0021905Y0028324D02*
Y0028215D01*
X0021878Y0028324D02*
Y0028181D01*
X0021851Y0028324D02*
Y0028151D01*
X0021824Y0028324D02*
Y0028124D01*
X0021797Y0028324D02*
Y0028099D01*
X0021770Y0028324D02*
Y0028077D01*
X0021743Y0028324D02*
Y0028057D01*
X0021716Y0028324D02*
Y0028038D01*
X0021689Y0028324D02*
Y0028021D01*
X0021662Y0028324D02*
Y0028006D01*
X0021673Y0028012D02*
X0021649D01*
X0021974Y0028324D02*
X0021649D01*
Y0027999D01*
X0021959Y0028324D02*
Y0028296D01*
X0021932Y0028324D02*
Y0028253D01*
X0026259Y0032931D02*
X0025942D01*
X0026259Y0032904D02*
X0025957D01*
X0026259Y0032877D02*
X0025974D01*
X0026259Y0032850D02*
X0025993D01*
X0026259Y0032823D02*
X0026014D01*
X0026259Y0032796D02*
X0026036D01*
X0026259Y0032769D02*
X0026061D01*
X0026259Y0032742D02*
X0026088D01*
X0026259Y0032715D02*
X0026118D01*
X0026259Y0032688D02*
X0026152D01*
X0026259Y0032661D02*
X0026191D01*
X0026190Y0032946D02*
Y0032661D01*
X0026163Y0032946D02*
Y0032680D01*
X0026136Y0032946D02*
Y0032700D01*
X0026109Y0032946D02*
Y0032723D01*
X0026082Y0032946D02*
Y0032747D01*
X0026055Y0032946D02*
Y0032775D01*
X0026028Y0032946D02*
Y0032805D01*
X0026001Y0032946D02*
Y0032839D01*
X0025974Y0032946D02*
Y0032877D01*
X0025947Y0032946D02*
Y0032922D01*
X0026259Y0032634D02*
X0026235D01*
X0026259Y0032946D02*
X0025934D01*
X0026259D02*
Y0032621D01*
X0026244Y0032946D02*
Y0032629D01*
X0026217Y0032946D02*
Y0032644D01*
X0026259Y0033956D02*
X0026231D01*
X0026259Y0033929D02*
X0026188D01*
X0026259Y0033902D02*
X0026150D01*
X0026259Y0033875D02*
X0026116D01*
X0026259Y0033848D02*
X0026086D01*
X0026259Y0033821D02*
X0026059D01*
X0026259Y0033794D02*
X0026034D01*
X0026259Y0033767D02*
X0026012D01*
X0026259Y0033740D02*
X0025992D01*
X0026259Y0033713D02*
X0025973D01*
X0026259Y0033686D02*
X0025956D01*
X0026190Y0033930D02*
Y0033646D01*
X0026163Y0033911D02*
Y0033646D01*
X0026136Y0033891D02*
Y0033646D01*
X0026109Y0033868D02*
Y0033646D01*
X0026082Y0033844D02*
Y0033646D01*
X0026055Y0033816D02*
Y0033646D01*
X0026028Y0033786D02*
Y0033646D01*
X0026001Y0033752D02*
Y0033646D01*
X0025974Y0033714D02*
Y0033646D01*
X0025947Y0033669D02*
Y0033646D01*
X0026259Y0033659D02*
X0025941D01*
X0026259Y0033646D02*
X0025934D01*
X0026259Y0033971D02*
Y0033646D01*
X0026244Y0033962D02*
Y0033646D01*
X0026217Y0033947D02*
Y0033646D01*
X0018923Y0012853D02*
X0018896D01*
X0018967Y0012826D02*
X0018896D01*
X0019005Y0012799D02*
X0018896D01*
X0019038Y0012772D02*
X0018896D01*
X0019068Y0012745D02*
X0018896D01*
X0019095Y0012718D02*
X0018896D01*
X0019120Y0012691D02*
X0018896D01*
X0019142Y0012664D02*
X0018896D01*
X0019163Y0012637D02*
X0018896D01*
X0019181Y0012610D02*
X0018896D01*
X0019198Y0012583D02*
X0018896D01*
X0019152Y0012652D02*
Y0012543D01*
X0019125Y0012686D02*
Y0012543D01*
X0019098Y0012716D02*
Y0012543D01*
X0019071Y0012743D02*
Y0012543D01*
X0019044Y0012768D02*
Y0012543D01*
X0019017Y0012790D02*
Y0012543D01*
X0018990Y0012810D02*
Y0012543D01*
X0018963Y0012829D02*
Y0012543D01*
X0018936Y0012846D02*
Y0012543D01*
X0018909Y0012861D02*
Y0012543D01*
X0019214Y0012556D02*
X0018896D01*
X0019221Y0012543D02*
X0018896D01*
Y0012868D02*
Y0012543D01*
X0019206Y0012571D02*
Y0012543D01*
X0019179Y0012614D02*
Y0012543D01*
X0019212Y0011828D02*
X0018896D01*
X0019197Y0011801D02*
X0018896D01*
X0019180Y0011774D02*
X0018896D01*
X0019161Y0011747D02*
X0018896D01*
X0019141Y0011720D02*
X0018896D01*
X0019118Y0011693D02*
X0018896D01*
X0019094Y0011666D02*
X0018896D01*
X0019066Y0011639D02*
X0018896D01*
X0019036Y0011612D02*
X0018896D01*
X0019002Y0011585D02*
X0018896D01*
X0018964Y0011558D02*
X0018896D01*
X0019152Y0011843D02*
Y0011734D01*
X0019125Y0011843D02*
Y0011700D01*
X0019098Y0011843D02*
Y0011670D01*
X0019071Y0011843D02*
Y0011643D01*
X0019044Y0011843D02*
Y0011619D01*
X0019017Y0011843D02*
Y0011596D01*
X0018990Y0011843D02*
Y0011576D01*
X0018963Y0011843D02*
Y0011557D01*
X0018936Y0011843D02*
Y0011540D01*
X0018909Y0011843D02*
Y0011525D01*
X0018919Y0011531D02*
X0018896D01*
X0019221Y0011843D02*
X0018896D01*
Y0011518D01*
X0019206Y0011843D02*
Y0011816D01*
X0019179Y0011843D02*
Y0011772D01*
X0019297Y0009331D02*
X0018980D01*
X0019297Y0009304D02*
X0018995D01*
X0019297Y0009277D02*
X0019012D01*
X0019297Y0009250D02*
X0019031D01*
X0019297Y0009223D02*
X0019052D01*
X0019297Y0009196D02*
X0019074D01*
X0019297Y0009169D02*
X0019099D01*
X0019297Y0009142D02*
X0019126D01*
X0019297Y0009115D02*
X0019156D01*
X0019297Y0009088D02*
X0019190D01*
X0019297Y0009061D02*
X0019229D01*
X0019228Y0009346D02*
Y0009061D01*
X0019201Y0009346D02*
Y0009080D01*
X0019174Y0009346D02*
Y0009100D01*
X0019147Y0009346D02*
Y0009123D01*
X0019120Y0009346D02*
Y0009147D01*
X0019093Y0009346D02*
Y0009175D01*
X0019066Y0009346D02*
Y0009205D01*
X0019039Y0009346D02*
Y0009239D01*
X0019012Y0009346D02*
Y0009277D01*
X0018985Y0009346D02*
Y0009322D01*
X0019297Y0009034D02*
X0019273D01*
X0019297Y0009346D02*
X0018972D01*
X0019297D02*
Y0009021D01*
X0019282Y0009346D02*
Y0009029D01*
X0019255Y0009346D02*
Y0009044D01*
X0019297Y0010356D02*
X0019269D01*
X0019297Y0010329D02*
X0019226D01*
X0019297Y0010302D02*
X0019188D01*
X0019297Y0010275D02*
X0019154D01*
X0019297Y0010248D02*
X0019124D01*
X0019297Y0010221D02*
X0019097D01*
X0019297Y0010194D02*
X0019072D01*
X0019297Y0010167D02*
X0019050D01*
X0019297Y0010140D02*
X0019030D01*
X0019297Y0010113D02*
X0019011D01*
X0019297Y0010086D02*
X0018994D01*
X0019228Y0010330D02*
Y0010046D01*
X0019201Y0010311D02*
Y0010046D01*
X0019174Y0010291D02*
Y0010046D01*
X0019147Y0010268D02*
Y0010046D01*
X0019120Y0010244D02*
Y0010046D01*
X0019093Y0010216D02*
Y0010046D01*
X0019066Y0010186D02*
Y0010046D01*
X0019039Y0010152D02*
Y0010046D01*
X0019012Y0010114D02*
Y0010046D01*
X0018985Y0010069D02*
Y0010046D01*
X0019297Y0010059D02*
X0018979D01*
X0019297Y0010046D02*
X0018972D01*
X0019297Y0010371D02*
Y0010046D01*
X0019282Y0010362D02*
Y0010046D01*
X0019255Y0010347D02*
Y0010046D01*
G01X0021824Y0032985D02*
G03X0022149Y0032660I0000675J0000350D01*
Y0034010D02*
G03X0021824Y0033685I0000350J0000675D01*
G01X0021974Y0029024D02*
G03X0021649Y0029349I0000675J0000350D01*
Y0027999D02*
G03X0021974Y0028324I0000350J0000675D01*
G01X0025934Y0032946D02*
G03X0026259Y0032621I0000675J0000350D01*
Y0033971D02*
G03X0025934Y0033646I0000350J0000675D01*
G01X0019221Y0012543D02*
G03X0018896Y0012868I0000675J0000350D01*
Y0011518D02*
G03X0019221Y0011843I0000350J0000675D01*
G01X0018972Y0009346D02*
G03X0019297Y0009021I0000675J0000350D01*
Y0010371D02*
G03X0018972Y0010046I0000350J0000675D01*
G54D65*
G01X0026766Y0012390D02*
Y0010069D01*
X0025980D01*
Y0012390D01*
X0026766D01*
X0033768Y0031821D02*
Y0036324D01*
X0028615D01*
Y0030818D01*
X0029559D01*
Y0030287D01*
X0030070D01*
Y0030818D01*
X0030542D01*
Y0030287D01*
X0031054D01*
Y0030818D01*
X0031329D01*
Y0030287D01*
X0031840D01*
Y0030818D01*
X0032293D01*
X0032312D02*
Y0030287D01*
X0032824D01*
Y0030818D01*
X0033768D01*
Y0031821D01*
G54D103*
G01X0046881Y0011861D02*
X0046706D01*
X0046794D02*
Y0012386D01*
X0046706Y0012299D01*
X0046138Y0012124D02*
X0045875D01*
X0045832Y0012211D01*
Y0012299D01*
X0045875Y0012386D01*
X0046138D01*
X0046182Y0012299D01*
Y0012211D01*
X0046007Y0011861D01*
X0045219D02*
Y0012386D01*
X0045394D02*
X0045044D01*
X0044607Y0012036D02*
X0044257D01*
X0044607Y0011861D02*
Y0012124D01*
X0044476Y0012386D01*
X0044388D01*
X0044257Y0012124D01*
Y0011861D01*
X0043820Y0011686D02*
X0043470D01*
X0042726Y0011861D02*
Y0012386D01*
X0042682Y0011861D02*
X0042945D01*
X0043032Y0011949D01*
Y0012036D01*
X0042988Y0012124D01*
X0042726D02*
X0042988D01*
X0043032Y0012211D01*
Y0012299D01*
X0042945Y0012386D01*
X0042682D01*
X0042245Y0011949D02*
X0042201Y0011861D01*
X0041939D01*
X0041895Y0011949D01*
Y0012299D01*
X0041939Y0012386D01*
X0042201D01*
X0042245Y0012299D01*
X0041370Y0012124D02*
X0041108D01*
X0041458Y0011861D02*
X0041108D01*
Y0012386D01*
X0041458D01*
M02*
