%
T1C0.028F200S100
X017110Y017641
X017149Y024623
X017169Y020788
X017189Y019804
X017582Y012174
X017916Y027573
X017975Y026393
X018565Y024623
X018585Y019804
X018624Y020768
X018624Y020788
X018723Y017582
X018841Y032155
X018880Y025213
X019116Y022479
X019155Y023816
X019234Y017287
X019431Y022774
X019471Y026158
X019431Y027592
X019549Y022341
X019686Y017582
X019726Y015910
X019745Y025075
X019978Y022737
X019981Y018015
X020001Y027907
X020257Y017582
X020296Y024780
X020316Y015910
X020414Y026157
X020453Y027396
X020608Y022737
X020611Y019313
X020689Y013059
X020705Y032093
X020748Y014042
X020906Y023974
X020923Y019668
X020923Y022304
X021553Y022775
X021555Y019313
X021868Y022303
X021869Y019667
X021957Y017720
X021869Y030778
X022007Y016284
X022282Y024033
X022302Y027907
X022400Y022656
X022498Y019312
X022518Y030778
X022577Y015891
X022676Y014455
X022754Y022361
X022813Y019666
X022813Y013432
X023010Y011780
X023069Y022046
X023187Y030778
X023286Y033295
X023364Y022753
X023443Y019312
X023521Y015910
X023541Y014278
X023600Y027691
X023758Y017750
X023797Y020788
X023797Y022105
X023856Y026117
X024072Y028379
X023856Y030778
X024190Y027691
X024288Y014396
X024367Y015911
X024387Y019765
X024387Y020198
X024387Y020630
X024603Y028753
X024701Y027868
X024987Y016273
X025045Y017720
X025075Y014396
X025331Y019273
X025586Y031211
X025645Y019667
X025803Y026078
X025963Y019270
X025980Y027730
X026019Y015869
X026275Y019667
X026278Y023754
X026314Y032096
X026353Y014258
X026373Y028320
X026589Y019273
X026589Y025685
X026668Y015930
X026904Y019667
X026904Y025370
X027219Y019273
X027278Y013373
X027219Y027848
X027376Y024878
X027416Y033216
X027533Y019667
X027848Y020965
X027533Y024387
X028005Y026157
X028241Y025173
X028005Y028163
X028635Y016382
X028635Y016854
X028635Y017641
X028635Y018231
X028812Y019667
X028635Y022862
X028635Y023620
X028635Y024190
X028871Y020807
X029166Y013786
X029402Y026983
X030346Y015851
X030346Y016795
X030365Y020394
X030601Y020984
X030601Y022892
X030641Y017779
X030680Y019431
X030739Y025429
X030759Y031624
X030818Y026983
X030975Y021299
X030995Y018133
X031172Y008673
X031172Y025724
X031349Y025114
X031526Y023974
X031545Y032116
X031742Y021771
X031762Y008575
X031880Y023639
X031939Y024328
X032037Y022361
X032352Y022066
X032568Y015792
X032666Y020691
X032686Y014101
X032922Y016186
X032981Y014494
X033276Y015281
X033296Y016559
X033364Y010020
X033394Y010994
X033394Y020099
X033394Y021535
X033414Y019627
X034456Y011977
X034633Y008044
X034692Y022754
X034731Y022302
X035085Y023187
X035321Y018664
X035656Y008535
X035715Y009184
X035793Y025114
X035872Y019077
X036088Y022912
X036128Y021043
X036187Y019608
X036187Y025409
X036265Y021968
X036439Y031096
X036482Y020119
X036580Y021063
X036482Y024347
X036950Y008485
X036993Y021220
X036993Y022695
X036993Y024249
X037249Y030896
X037445Y009106
X037533Y011219
X037563Y020709
X037898Y024308
X037937Y022538
X038055Y026943
X038271Y006107
X038275Y008048
X038507Y022518
X038547Y019706
X038931Y011219
X038979Y024996
X039097Y008988
X039215Y006107
X039343Y029079
X039373Y019568
X039373Y021063
X039589Y022636
X040164Y023536
X040213Y030734
X041221Y020532
X041241Y022105
X041221Y023364
X041634Y019402
X042008Y015674
X042028Y018487
X043581Y028241
X044692Y029126
X045037Y029913
X044692Y030621
X045214Y028399
X045996Y031353
X046006Y028658
X046006Y029524
X046035Y030488
T4C0.038F200S100
X026373Y011131
X028615Y032273
X033768Y032273
X035277Y031804
X035277Y033804
X037777Y031804
X037777Y033804
T5C0.042F200S100
X028772Y005920
X028772Y006920
X029772Y005920
X029772Y006920
X030772Y005920
X030772Y006920
X031772Y005920
X031772Y006920
X032774Y005923
X032774Y006923
X033774Y005923
X033774Y006923
X034774Y005923
X034774Y006923
X035774Y005923
X035774Y006923
T2C0.034F200S100
X017841Y029874
X018841Y029874
X023993Y010761
X023993Y012681
X028807Y029244
X029807Y029244
X030807Y029244
X031807Y029244
X032155Y011272
X032155Y012272
X032807Y029244
X033020Y026806
X033807Y029244
X034020Y026806
X035020Y026806
X035754Y013633
X035754Y015553
T8C0.110F200S100
X015537Y030818
X015773Y006392
X016422Y033256
X017922Y031756
X018922Y033256
X047062Y019116
X047082Y033846
T3C0.037F200S100
X015009Y010402
X015009Y011402
X015009Y012402
X015009Y013402
X015009Y014402
X015009Y015402
X015009Y016402
X015009Y017402
X015009Y018402
X015009Y019402
X015009Y020402
X015009Y021402
X015009Y022402
X015009Y023402
X015009Y024402
X015009Y025402
X015009Y026402
X015009Y027402
X015009Y028402
X015009Y029402
X016009Y010402
X016009Y011402
X016009Y012402
X016009Y013402
X016009Y014402
X016009Y015402
X016009Y016402
X016009Y017402
X016009Y018402
X016009Y019402
X016009Y020402
X016009Y021402
X016009Y022402
X016009Y023402
X016009Y024402
X016009Y025402
X016009Y026402
X016009Y027402
X016009Y028402
X016009Y029402
X019057Y006864
X019057Y007864
X025468Y006808
X025468Y007808
X032304Y018282
X032304Y019282
X039414Y027399
X039414Y028399
X039414Y030899
X039414Y031899
X041214Y028399
X041214Y029399
X041214Y030399
X041214Y031399
X042214Y027899
X042214Y028899
X042214Y029899
X042214Y030899
T9C0.125F200S100
X044714Y027399
X044714Y031899
T7C0.063F200S100
X043414Y026599
X043514Y032699
T6C0.051F200S100
X037269Y015870
X047603Y016263
M30
