%
T1C0.0118F200S100
X-002144Y019647
X-001632Y021142
X-001377Y007414
X-001180Y020807
X-000865Y007434
X-000557Y011872
X000706Y011940
X000876Y022066
X000905Y008575
X000920Y009150
X000974Y017031
X000994Y020237
X000994Y022951
X000998Y019160
X001023Y013059
X001337Y011603
X001357Y032194
X001436Y022066
X001534Y017031
X001543Y022956
X001554Y019155
X001554Y020237
X001554Y033276
X001691Y025468
X001691Y026039
X001691Y032194
X001713Y016052
X001947Y031939
X001956Y013146
X002144Y033473
X002276Y012985
X002340Y031644
X002537Y033787
X002734Y031388
X002871Y015202
X002930Y034043
X003048Y016127
X003048Y016972
X003048Y018546
X003048Y019981
X003048Y020375
X003048Y021692
X003048Y022912
X003048Y023472
X003068Y020847
X003127Y031073
X003146Y019331
X003228Y025092
X003232Y024652
X003324Y034161
X003363Y029872
X003520Y030818
X003599Y018957
X003717Y034338
X003914Y027573
X003919Y031092
X004110Y034594
X004130Y025055
X004146Y022751
X004159Y017661
X004228Y026157
X004248Y015910
X004461Y018194
X004461Y022442
X004523Y028458
X004624Y015770
X004776Y019467
X004776Y022752
X004841Y010738
X004858Y011072
X004863Y010422
X005035Y033591
X005091Y018194
X005091Y023775
X005231Y011839
X005406Y017721
X005406Y022441
X005546Y027592
X005696Y005808
X005721Y019468
X005721Y022736
X005841Y014514
X006018Y018192
X006036Y023795
X006116Y011603
X006116Y033020
X006351Y017701
X006351Y022441
X006431Y027612
X006536Y005808
X006647Y019470
X006667Y022735
X006687Y024760
X006844Y014514
X006981Y017740
X006982Y022440
X007198Y028104
X007198Y028664
X007296Y018192
X007296Y023796
X007579Y027383
X007591Y006057
X007591Y013600
X007591Y014160
X007611Y022735
X007650Y017425
X007926Y018212
X007926Y023796
X007973Y015761
X008240Y019470
X008241Y022735
X008340Y007709
X008555Y027396
X008556Y023796
X008870Y018192
X008871Y024110
X008948Y015930
X008958Y028094
X008968Y028664
X009184Y017700
X009186Y023795
X009361Y013600
X009361Y014160
X009501Y018193
X009501Y024109
X009715Y027612
X009735Y031860
X009753Y031592
X009755Y031594
X009814Y023797
X009816Y017702
X009932Y027887
X010030Y014534
X010053Y031582
X010053Y031862
X010128Y018172
X010131Y024109
X010345Y031860
X010364Y031585
X010446Y017703
X010446Y023794
X010679Y028399
X010731Y026164
X010758Y018192
X010761Y024108
X010935Y028084
X011013Y028674
X011033Y014534
X011072Y017680
X011092Y023797
X011210Y027691
X011267Y007932
X011328Y026137
X011387Y018192
X011387Y024111
X011698Y006853
X011702Y017680
X011702Y023797
X011751Y025045
X011918Y026176
X011997Y009774
X012016Y018192
X012016Y024111
X012307Y015757
X012311Y024642
X012307Y026161
X012331Y019223
X012331Y022617
X012412Y005444
X012557Y010334
X012701Y015789
X012705Y013600
X012996Y009259
X013101Y031585
X013150Y007214
X013273Y019108
X013275Y018546
X013275Y019106
X013275Y019922
X013275Y020482
X013275Y021624
X013275Y022184
X013275Y022990
X013275Y023550
X013280Y024952
X013280Y025512
X013295Y016983
X013295Y017543
X013295Y026176
X013299Y026172
X013314Y031585
X013334Y008240
X013396Y024324
X013491Y031585
X013590Y008496
X014042Y008496
X014081Y009322
X014337Y008752
X014460Y008236
X014337Y010030
X014529Y006447
X014533Y015681
X014593Y012449
X014868Y025134
X015023Y019332
X015025Y022892
X015104Y014081
X015124Y025429
X015340Y010581
X015438Y023797
X015463Y032842
X015493Y032092
X015576Y022971
X015615Y009204
X015635Y010050
X015703Y032982
X015714Y024682
X015813Y031962
X015950Y008752
X015952Y032842
X016028Y006529
X016107Y024583
X016123Y032102
X016173Y033002
X016225Y026471
X016413Y031962
X016441Y024564
X016443Y032842
X016599Y020777
X016693Y033012
X016696Y032105
X016697Y032470
X016776Y024544
X017090Y031467
X017110Y017641
X017149Y024623
X017169Y020788
X017189Y019804
X017405Y031467
X017562Y027002
X017693Y029622
X017693Y030071
X017796Y007940
X017838Y011249
X017857Y027356
X018310Y030542
X018323Y028972
X018323Y029622
X018323Y030072
X018329Y026707
X018565Y024623
X018585Y019804
X018603Y031051
X018624Y020788
X018660Y007940
X018723Y017582
X018880Y025213
X018962Y010416
X018964Y009856
X018993Y029641
X018993Y030543
X019003Y030081
X019116Y022479
X019155Y023816
X019352Y026078
X019431Y022774
X019549Y022341
X019431Y027396
X019667Y017680
X019715Y024387
X019726Y015910
X019743Y029612
X019743Y030552
X019745Y025075
X019752Y030062
X019785Y026078
X019836Y009852
X019978Y022737
X019981Y018152
X019981Y027396
X020060Y025803
X020062Y014413
X020119Y024780
X020217Y028969
X020276Y017838
X020316Y015910
X020453Y027396
X020493Y029611
X020552Y025783
X020571Y026157
X020608Y019300
X020608Y022737
X020689Y013059
X020748Y014042
X020906Y023974
X020923Y019668
X020923Y022304
X021397Y017720
X021553Y022775
X021555Y019313
X021594Y034240
X021653Y013076
X021853Y032112
X021868Y022303
X021869Y019667
X021869Y030778
X021909Y034240
X021957Y017720
X022092Y016284
X022204Y034240
X022282Y024052
X022361Y027946
X022400Y022656
X022412Y030771
X022426Y027527
X022498Y019312
X022538Y034240
X022577Y015891
X022636Y011416
X022636Y011780
X022636Y012154
X022656Y028654
X022676Y014455
X022735Y028005
X022754Y022361
X022813Y019666
X022813Y013432
X022853Y028359
X022880Y030770
X023069Y022046
X023167Y017720
X023187Y030778
X023286Y033295
X023364Y022753
X023443Y019312
X023521Y015910
X023541Y014278
X023600Y027691
X023723Y029692
X023732Y029352
X023757Y022538
X023758Y017750
X023797Y020788
X023797Y022105
X023856Y026117
X023856Y030778
X024063Y029352
X024063Y029692
X024072Y028379
X024190Y027691
X024288Y014396
X024367Y015911
X024387Y019765
X024387Y020198
X024387Y020630
X024485Y007768
X024485Y017720
X024603Y028753
X024672Y027880
X024802Y033296
X024952Y013526
X024987Y016273
X025075Y014396
X025090Y014400
X025112Y007358
X025112Y007768
X025113Y008192
X025213Y033296
X025331Y019273
X025409Y027435
X025645Y019667
X025803Y025892
X025805Y025892
X025859Y033296
X025963Y019270
X025980Y027730
X026019Y015869
X026275Y019667
X026278Y023754
X026294Y032116
X026314Y032096
X026353Y014258
X026373Y017720
X026373Y028320
X026452Y025536
X026589Y019273
X026609Y007771
X026612Y007768
X026613Y008192
X026614Y013506
X026668Y015930
X026904Y019667
X026904Y025370
X027160Y026157
X027219Y019273
X027219Y027848
X027243Y007772
X027278Y013373
X027359Y033296
X027376Y024878
X027406Y012134
X027533Y019667
X027533Y024387
X027848Y018270
X027848Y020965
X028005Y026157
X028005Y028163
X028084Y033296
X028633Y017642
X028635Y016382
X028635Y016854
X028635Y018231
X028694Y020296
X028635Y022302
X028635Y022862
X028635Y023620
X028635Y024190
X028812Y019667
X028871Y020807
X029166Y013786
X029815Y030877
X029815Y031880
X030169Y008319
X030293Y030312
X030376Y023624
X030385Y015851
X030385Y016756
X030404Y023012
X030405Y018762
X030503Y020394
X030601Y020984
X030641Y017779
X030660Y019431
X030739Y025429
X030740Y023400
X030798Y031585
X030876Y022592
X030975Y021299
X031072Y023044
X031172Y008673
X031211Y009135
X031211Y010010
X031172Y025724
X031231Y018133
X031235Y019052
X031349Y025114
X031526Y023974
X031545Y032116
X031732Y022780
X031742Y021771
X031762Y008575
X031771Y010010
X031880Y023639
X031939Y024328
X032037Y022361
X032352Y022066
X032568Y015792
X032666Y020691
X032686Y014101
X032922Y016186
X032981Y014494
X033276Y015281
X033296Y016559
X033364Y010020
X033394Y010994
X033394Y020099
X033394Y021535
X033414Y019627
X034279Y014189
X034279Y014996
X034456Y011977
X034633Y008044
X034692Y022754
X034731Y022302
X034899Y011210
X035085Y023187
X035321Y018664
X035656Y008535
X035715Y009184
X035774Y010109
X035793Y025114
X035872Y019077
X036088Y022912
X036120Y033108
X036128Y021043
X036187Y019608
X036187Y025409
X036265Y021968
X036439Y031096
X036482Y020119
X036580Y021043
X036482Y024347
X036950Y008485
X036993Y021220
X036993Y022135
X036993Y022695
X036993Y024249
X037003Y006204
X037150Y019686
X037304Y033196
X037445Y009106
X037533Y011219
X037563Y020709
X037898Y024308
X037937Y022538
X038055Y026943
X038271Y006107
X038275Y008048
X038507Y022518
X038547Y019706
X038931Y011219
X038979Y025006
X039097Y008988
X039215Y006107
X039343Y029079
X039373Y019568
X039373Y021063
X039589Y022636
X039707Y018781
X040044Y016696
X040164Y023536
X040199Y024406
X040213Y030734
X041221Y020532
X041221Y023364
X041241Y022105
X041634Y019402
X042008Y015674
X042028Y015694
X042972Y015753
X043581Y028241
X044503Y013912
X044692Y029126
X044692Y030621
X044818Y013924
X045037Y029913
X045135Y013924
X045214Y028399
X045981Y013924
X045996Y031353
X046006Y028658
X046006Y029524
X046035Y030488
X046318Y013924
X046649Y013924
X047800Y005535
T5C0.0420F200S100
X028772Y005920
X028772Y006920
X029772Y005920
X029772Y006920
X030772Y005920
X030772Y006920
X031772Y005920
X031772Y006920
X032774Y005923
X032774Y006923
X033774Y005923
X033774Y006923
X034774Y005923
X034774Y006923
X035774Y005923
X035774Y006923
T2C0.0340F200S100
X023993Y010761
X023993Y012681
X028807Y029244
X029807Y029244
X030807Y029244
X031807Y029244
X032155Y011272
X032155Y012272
X032807Y029244
X033020Y026806
X033807Y029244
X034020Y026806
X035020Y026806
X035754Y013633
X035754Y015553
T9C0.1100F200S100
X005448Y029362
X024170Y006234
X047062Y019116
X047082Y033846
T3C0.0370F200S100
X-004327Y005900
X-004327Y006900
X-004327Y007900
X-004327Y008900
X-004327Y009900
X-004327Y010900
X-004327Y011900
X-004327Y012900
X-004327Y013900
X-004327Y014900
X-004327Y015900
X-004327Y016900
X-004327Y017900
X-004327Y018900
X-004327Y019900
X-004327Y020900
X-004327Y021900
X-004327Y022900
X-004327Y023900
X-004327Y024900
X-004327Y025900
X-004327Y026900
X-004327Y027900
X-004327Y028900
X-004327Y029900
X-004327Y030900
X-004327Y031900
X-004327Y032900
X-004327Y033900
X-003327Y005900
X-003327Y006900
X-003327Y007900
X-003327Y008900
X-003327Y009900
X-003327Y010900
X-003327Y011900
X-003327Y012900
X-003327Y013900
X-003327Y014900
X-003327Y015900
X-003327Y016900
X-003327Y017900
X-003327Y018900
X-003327Y019900
X-003327Y020900
X-003327Y021900
X-003327Y022900
X-003327Y023900
X-003327Y024900
X-003327Y025900
X-003327Y026900
X-003327Y027900
X-003327Y028900
X-003327Y029900
X-003327Y030900
X-003327Y031900
X-003327Y032900
X-003327Y033900
X-001748Y005664
X-001748Y006664
X-000748Y005664
X-000748Y006664
X000252Y005664
X000252Y006664
X001252Y005664
X001252Y006664
X002252Y005664
X002252Y006664
X003252Y005664
X003252Y006664
X004252Y005664
X004252Y006664
X032304Y018282
X032304Y019282
X039414Y027399
X039414Y028399
X041214Y028399
X041214Y029399
X041214Y030399
X041214Y031399
X039414Y030899
X039414Y031899
X042214Y027899
X042214Y028899
X042214Y029899
X042214Y030899
T7C0.0630F200S100
X043414Y026599
X043514Y032699
T4C0.0380F200S100
X006606Y007149
X006803Y010139
X008299Y033748
X008299Y034731
X008376Y005812
X009283Y033748
X009283Y034731
X009399Y008369
X010382Y009037
X016922Y007101
X017119Y010091
X018692Y005764
X019715Y008321
X020698Y008989
X026373Y011131
X035277Y031804
X035277Y033804
X037777Y031804
X037777Y033804
T8C0.0905F200S100
X028615Y032273
X033768Y032273
T6C0.0512F200S100
X037269Y015870
X047603Y016263
M30
