%
T1C0.0118F200S100
X003068Y020110
X003280Y008660
X003380Y009140
X003400Y005820
X003400Y006220
X003400Y006580
X003402Y007513
X003650Y022720
X003800Y023120
X004169Y003697
X004278Y015242
X004293Y016227
X004300Y012160
X004340Y014060
X004520Y000820
X004630Y015220
X004640Y014210
X004700Y013000
X004700Y020552
X004730Y016190
X004780Y020190
X004790Y009040
X004936Y017818
X005035Y-000079
X005054Y002222
X005095Y008928
X005054Y012626
X005153Y000688
X005200Y002630
X005210Y022750
X005251Y018113
X005292Y021497
X005369Y017680
X005410Y001460
X005428Y008968
X005546Y011249
X005566Y020414
X005664Y009204
X005721Y-000372
X005743Y013295
X005799Y018076
X005880Y000790
X005900Y000472
X005900Y004248
X006038Y007985
X006116Y020119
X006136Y011249
X006175Y003855
X006215Y001888
X006234Y021496
X006330Y022860
X006420Y014700
X006429Y018076
X006569Y009381
X006726Y019313
X006744Y015007
X006744Y017643
X006820Y011720
X006920Y001460
X006940Y009530
X006981Y-000335
X007160Y011730
X007198Y006785
X007340Y009780
X007374Y018114
X007375Y014652
X007480Y011740
X007520Y-000200
X007689Y017642
X007690Y014950
X007768Y007513
X007827Y011623
X007945Y008221
X008004Y013590
X008103Y019372
X008221Y017995
X008318Y014651
X008398Y011230
X008575Y017700
X008633Y015005
X008680Y-000620
X008771Y008830
X008780Y009760
X008830Y006765
X008889Y017385
X009184Y018092
X009241Y002402
X009263Y014651
X009342Y011249
X009360Y-000140
X009361Y009617
X009410Y-000980
X009420Y023030
X009617Y016127
X009617Y017444
X009676Y021456
X009700Y003090
X009833Y013059
X009833Y014691
X009892Y023718
X010010Y023030
X010109Y009735
X010160Y-000700
X010187Y011387
X010207Y015104
X010207Y015537
X010207Y015969
X010210Y023300
X010224Y002402
X010260Y-000060
X010522Y023207
X010540Y-000330
X010860Y012650
X010895Y009735
X010970Y-000330
X011102Y011650
X011151Y014612
X011466Y015006
X011540Y000090
X011590Y-000490
X011623Y021417
X011633Y012774
X011663Y002037
X011663Y002623
X011760Y012510
X011783Y014609
X011800Y023069
X011890Y002920
X012020Y002040
X012095Y015006
X012098Y019093
X012130Y004490
X012170Y002340
X012174Y009597
X012193Y023659
X012311Y004209
X012410Y014612
X012488Y011269
X012410Y021024
X012547Y013059
X012724Y015006
X012724Y020709
X013039Y014612
X013060Y022990
X013152Y006780
X013196Y020217
X013216Y011294
X013354Y015006
X013354Y019726
X013382Y021040
X013392Y008591
X013420Y000300
X013540Y023160
X013590Y014670
X013612Y016329
X013649Y011249
X013660Y020762
X013820Y011900
X013826Y021496
X014140Y012170
X014392Y018283
X014455Y014101
X014462Y012750
X014622Y019750
X014633Y018749
X014691Y016146
X014711Y009420
X014711Y014711
X015500Y022620
X015580Y007180
X015740Y007680
X015910Y012134
X015954Y020834
X015969Y011190
X016186Y014927
X016186Y015733
X016260Y013470
X016330Y019330
X016343Y013039
X016422Y016323
X016500Y021060
X016588Y002999
X016600Y006200
X016600Y018950
X016618Y003973
X016620Y005440
X016650Y001530
X016736Y020847
X016776Y007434
X016776Y008299
X016835Y016697
X017012Y020571
X017180Y017090
X017220Y017730
X017340Y020900
X017350Y021270
X017390Y007090
X017441Y017409
X017700Y004268
X017770Y021470
X017818Y007591
X017818Y009283
X017950Y012980
X017990Y006350
X018290Y020340
X018302Y019970
X018388Y018015
X018487Y016030
X018929Y001880
X019020Y021680
X019040Y007120
X019214Y015438
X019214Y019745
X019234Y014966
X019273Y006077
X019273Y007513
X019510Y006890
X019706Y018487
X019726Y020198
X019870Y005580
X019903Y018998
X020080Y006210
X020099Y002242
X020130Y001590
X020142Y017891
X020316Y004523
X020442Y023571
X020700Y000430
X020751Y011777
X020760Y016910
X020768Y001888
X020846Y017368
X020866Y004464
X020925Y011072
X020925Y021417
X021043Y022184
X021240Y016697
X021338Y005821
X021397Y002517
X021397Y018683
X021496Y019214
X021732Y016677
X021889Y012547
X022070Y018990
X022223Y016599
X022243Y014770
X022302Y021535
X022420Y019096
X022440Y010777
X022570Y002730
X022580Y001250
X022617Y012154
X022617Y015202
X022774Y016953
X022830Y019170
X022872Y020217
X022980Y009360
X023030Y015596
X023069Y010758
X023305Y021555
X023344Y019214
X023462Y016068
X023560Y010740
X023720Y006700
X023922Y010738
X023930Y017646
X023969Y017086
X024220Y006380
X024220Y007020
X024269Y020847
X024485Y021496
X024662Y011918
X024680Y015860
X024701Y020139
X024711Y011279
X024720Y006700
X024942Y017330
X024962Y018150
X025123Y011510
X025198Y019258
X025508Y015576
X025840Y024910
X025860Y009740
X026190Y018930
X026410Y009410
X026410Y010090
X026540Y017810
X026980Y009740
X027600Y014920
X027755Y019920
X028110Y-000440
X028120Y002180
X028305Y019570
X028305Y020310
X028440Y-000430
X028440Y002180
X028500Y012740
X028780Y-000440
X028780Y002180
X028835Y019920
X029110Y-000440
X029120Y002180
X029440Y002180
X029450Y-000440
X031040Y021440
X031510Y015490
X031720Y016870
X032080Y020080
X032606Y005714
X033620Y016680
T2C0.0340F200S100
X009814Y006100
X009814Y008020
X012380Y-001140
X012380Y-000140
X013960Y024680
X014960Y024680
X015960Y024680
X016736Y022263
X016740Y023420
X016960Y024680
X017736Y022263
X017740Y023420
X017960Y024680
X018736Y022263
X018740Y023420
X018960Y024680
X022520Y023020
X024440Y023020
X027460Y021860
X027460Y022860
X027460Y023860
T10C0.1100F200S100
X003860Y-002000
X005197Y025600
X027417Y025600
X029180Y-001960
X030560Y001160
X031560Y002660
X033060Y001160
T3C0.0370F200S100
X000900Y-000880
X000900Y000120
X000900Y001120
X000900Y002120
X000900Y003120
X000900Y004120
X000900Y005120
X000900Y006120
X000900Y007140
X000900Y008140
X000900Y009140
X000900Y010140
X000900Y011140
X000900Y012140
X000900Y013140
X000900Y014140
X000900Y015140
X000900Y016140
X000900Y017140
X000900Y018140
X000900Y019140
X000900Y020140
X000900Y021140
X000900Y022140
X000900Y023140
X000900Y024140
X001900Y-000880
X001900Y000120
X001900Y001120
X001900Y002120
X001900Y003120
X001900Y004120
X001900Y005120
X001900Y006120
X001900Y007140
X001900Y008140
X001900Y009140
X001900Y010140
X001900Y011140
X001900Y012140
X001900Y013140
X001900Y014140
X001900Y015140
X001900Y016140
X001900Y017140
X001900Y018140
X001900Y019140
X001900Y020140
X001900Y021140
X001900Y022140
X001900Y023140
X001900Y024140
X013244Y002332
X013244Y003332
X018124Y013621
X018124Y014621
X022260Y-001160
X022260Y-000160
X023760Y003780
X024760Y003780
X025760Y003780
X027338Y012240
X027338Y013240
X029138Y013240
X029138Y014240
X029138Y015240
X029138Y016240
X027338Y015740
X027338Y016740
X030138Y012740
X030138Y013740
X030138Y014740
X030138Y015740
T11C0.1250F200S100
X032638Y012240
X032638Y016740
T9C0.0630F200S100
X031338Y011440
X031438Y017540
T7C0.0420F200S100
X014240Y-001140
X014240Y-000140
X015240Y-001140
X015240Y-000140
X016240Y-001140
X016240Y-000140
X017240Y-001140
X017240Y-000140
X018240Y-001140
X018240Y-000140
X019240Y-001140
X019240Y-000140
X020240Y-001140
X020240Y-000140
X021240Y-001140
X021240Y-000140
T6C0.0417F200S100
X033500Y018800
X033500Y020571
T8C0.0531F200S100
X032516Y018308
X032516Y021064
T4C0.0380F200S100
X021440Y008680
X022621Y007400
T5C0.0394F200S100
X028880Y021600
X028880Y022671
X029667Y022671
X028880Y023742
X030455Y022671
X031242Y022671
X031640Y021600
X031640Y023740
M30
