%
T1C0.0118F200S100
X-003320Y016360
X-003300Y012420
X-002400Y017730
X-001906Y012434
X-000800Y011280
X-000800Y011620
X-000760Y018240
X-000580Y-000680
X-000104Y016764
X-000040Y017580
X000000Y-000360
X000180Y003560
X003068Y020110
X003160Y000740
X003402Y007513
X003500Y000740
X003650Y022720
X003800Y023120
X004040Y002120
X004278Y015242
X004293Y016227
X004300Y012160
X004340Y014060
X004380Y009660
X004630Y015220
X004640Y014210
X004700Y013000
X004700Y020552
X004730Y016190
X004780Y020190
X004936Y017818
X005054Y012626
X005160Y009780
X005210Y022750
X005251Y018113
X005292Y021497
X005369Y017680
X005546Y011249
X005566Y020414
X005620Y005720
X005743Y013295
X005799Y018076
X005960Y020120
X006136Y011249
X006150Y005370
X006150Y006110
X006234Y021496
X006330Y022860
X006380Y012100
X006420Y014700
X006429Y018076
X006569Y009381
X006726Y019313
X006744Y015007
X006744Y017643
X006820Y011720
X007090Y003300
X007160Y011730
X007198Y006785
X007374Y018114
X007375Y014652
X007480Y011740
X007689Y017642
X007690Y014950
X007768Y007513
X007827Y011623
X007945Y008221
X008004Y013590
X008103Y019372
X008221Y017995
X008318Y014651
X008398Y011230
X008440Y000260
X008496Y009794
X008575Y017700
X008633Y015005
X008660Y000040
X008771Y008830
X008830Y006765
X009184Y018092
X009263Y014651
X009342Y011249
X009361Y009617
X009420Y023030
X009460Y-001200
X009617Y016127
X009617Y017444
X009676Y021456
X009833Y013059
X009833Y014691
X009892Y023718
X009900Y011960
X010010Y023030
X010109Y009735
X010187Y011387
X010200Y000450
X010207Y015104
X010207Y015537
X010207Y015969
X010210Y023300
X010400Y-001160
X010520Y000450
X010522Y023207
X010860Y012650
X010895Y009735
X010930Y000120
X011102Y011650
X011151Y014612
X011310Y003430
X011466Y015006
X011623Y021417
X011633Y012774
X011663Y002037
X011663Y002623
X011680Y-000800
X011700Y004020
X011783Y014609
X011800Y023069
X011851Y-000500
X011920Y011680
X012030Y002040
X012090Y003430
X012095Y015006
X012098Y019093
X012170Y002340
X012174Y009597
X012193Y023659
X012410Y014612
X012410Y021024
X012440Y012550
X012488Y011269
X012547Y013059
X012724Y015006
X012724Y020709
X012860Y012260
X013039Y014612
X013060Y022990
X013152Y006780
X013196Y020217
X013216Y011294
X013354Y015006
X013354Y019726
X013382Y021040
X013392Y008591
X013500Y012260
X013540Y023160
X013590Y014670
X013612Y016329
X013660Y020762
X013820Y011900
X013826Y021496
X014140Y012170
X014392Y018283
X014455Y014101
X014462Y012750
X014622Y019750
X014633Y018749
X014691Y016146
X014711Y009420
X014711Y014711
X015580Y007180
X015740Y007680
X015910Y012134
X015950Y020940
X015969Y011190
X016186Y014927
X016186Y015733
X016260Y013470
X016330Y019330
X016343Y013039
X016422Y016323
X016500Y021060
X016588Y002999
X016600Y006200
X016618Y003973
X016600Y018950
X016620Y005440
X016650Y001510
X016736Y020847
X016776Y007434
X016776Y008299
X016835Y016697
X017012Y020571
X017180Y017090
X017220Y017730
X017340Y020900
X017350Y021270
X017390Y007090
X017441Y017409
X017700Y004268
X017770Y021470
X017818Y007591
X017818Y009283
X017950Y012980
X017990Y006350
X018290Y020340
X018302Y019970
X018388Y018015
X018487Y016030
X018929Y001880
X019020Y021680
X019040Y007120
X019214Y015438
X019234Y014966
X019214Y019745
X019273Y006077
X019510Y006890
X019273Y007513
X019706Y018487
X019726Y020198
X019870Y005580
X019903Y018998
X020080Y006210
X020099Y002242
X020130Y001630
X020142Y017891
X020316Y004523
X020442Y023571
X020730Y000430
X020751Y011777
X020760Y016910
X020768Y001888
X020846Y017368
X020866Y004464
X020925Y011072
X020925Y021417
X021043Y022184
X021240Y016697
X021338Y005821
X021397Y002517
X021397Y018683
X021496Y019214
X021732Y016677
X021889Y012547
X022070Y018990
X022223Y016599
X022243Y014770
X022302Y021535
X022420Y019096
X022440Y010777
X022617Y012154
X022617Y015202
X022774Y016953
X022830Y019170
X022872Y020217
X022980Y009360
X023030Y015596
X023069Y010758
X023305Y021555
X023344Y019214
X023462Y016068
X023560Y010740
X023720Y006700
X023922Y010738
X023930Y017646
X023969Y017086
X024220Y006380
X024220Y007020
X024269Y020847
X024485Y021496
X024662Y011918
X024680Y015860
X024701Y020139
X024711Y011279
X024720Y006700
X024942Y017330
X024962Y018150
X025123Y011510
X025198Y019258
X025508Y015576
X025820Y007260
X025840Y024910
X025860Y009740
X026130Y018940
X026410Y009410
X026410Y010090
X026540Y017810
X026590Y021470
X026980Y009740
X026980Y020920
X026980Y022000
X027330Y021470
X027470Y014700
X027503Y005857
X028110Y-000380
X028120Y002240
X028440Y-000370
X028440Y002240
X028570Y013590
X028780Y-000380
X028780Y002240
X029110Y-000380
X029120Y002240
X029220Y018940
X029440Y002240
X029450Y-000380
X030920Y020660
X031450Y015690
X031790Y015380
X031840Y008460
X031900Y007960
X031990Y020050
X032060Y007660
X032120Y008740
X032606Y005714
X033000Y007660
X033000Y008740
X033540Y015480
X033680Y007660
X033740Y008740
T3C0.0340F200S100
X009260Y003500
X009814Y006100
X009814Y008020
X010260Y003500
X013960Y024680
X014960Y024680
X015960Y024680
X016736Y022263
X016960Y024680
X017736Y022263
X017960Y024680
X018736Y022263
X018960Y024680
X022520Y023020
X024440Y023020
T11C0.1100F200S100
X003860Y-002000
X005197Y025600
X027417Y025600
X029180Y-001960
X030540Y000680
X031540Y002180
X033040Y000680
T4C0.0370F200S100
X000900Y007140
X000900Y008140
X000900Y009140
X000900Y010140
X000900Y011140
X000900Y012140
X000900Y013140
X000900Y014140
X000900Y015140
X000900Y016140
X000900Y017140
X000900Y018140
X000900Y019140
X000900Y020140
X000900Y021140
X000900Y022140
X000900Y023140
X000900Y024140
X001900Y007140
X001900Y008140
X001900Y009140
X001900Y010140
X001900Y011140
X001900Y012140
X001900Y013140
X001900Y014140
X001900Y015140
X001900Y016140
X001900Y017140
X001900Y018140
X001900Y019140
X001900Y020140
X001900Y021140
X001900Y022140
X001900Y023140
X001900Y024140
X013244Y002332
X013244Y003332
X018124Y013621
X018124Y014621
X023760Y003780
X024760Y003780
X025760Y003780
X027278Y012040
X027278Y013040
X027278Y015540
X027278Y016540
X029078Y013040
X029078Y014040
X029078Y015040
X029078Y016040
X030078Y012540
X030078Y013540
X030078Y014540
X030078Y015540
T12C0.1250F200S100
X032578Y012040
X032578Y016540
T10C0.0630F200S100
X031278Y011240
X031378Y017340
T8C0.0420F200S100
X014240Y-001100
X014240Y-000100
X015240Y-001100
X015240Y-000100
X016240Y-001100
X016240Y-000100
X017240Y-001100
X017240Y-000100
X018240Y-001100
X018240Y-000100
X019240Y-001100
X019240Y-000100
X020240Y-001100
X020240Y-000100
X021240Y-001100
X021240Y-000100
T7C0.0417F200S100
X033440Y018600
X033440Y020371
T9C0.0531F200S100
X032456Y018108
X032456Y020864
T5C0.0380F200S100
X021440Y008680
X022621Y007400
T6C0.0394F200S100
X001268Y002470
X001268Y003455
X028800Y021580
X028800Y022651
X028800Y023722
X029587Y022651
X030375Y022651
X031162Y022651
X031560Y021580
X031560Y023720
T2C0.0250F200S100
X-002520Y-000500
X-002520Y000000
X-002520Y000500
M30
